G04 #@! TF.GenerationSoftware,KiCad,Pcbnew,7.0.9*
G04 #@! TF.CreationDate,2023-11-12T20:37:04+01:00*
G04 #@! TF.ProjectId,christmas_ornament_2023,63687269-7374-46d6-9173-5f6f726e616d,1.0*
G04 #@! TF.SameCoordinates,Original*
G04 #@! TF.FileFunction,Copper,L2,Bot*
G04 #@! TF.FilePolarity,Positive*
%FSLAX46Y46*%
G04 Gerber Fmt 4.6, Leading zero omitted, Abs format (unit mm)*
G04 Created by KiCad (PCBNEW 7.0.9) date 2023-11-12 20:37:04*
%MOMM*%
%LPD*%
G01*
G04 APERTURE LIST*
G04 Aperture macros list*
%AMRoundRect*
0 Rectangle with rounded corners*
0 $1 Rounding radius*
0 $2 $3 $4 $5 $6 $7 $8 $9 X,Y pos of 4 corners*
0 Add a 4 corners polygon primitive as box body*
4,1,4,$2,$3,$4,$5,$6,$7,$8,$9,$2,$3,0*
0 Add four circle primitives for the rounded corners*
1,1,$1+$1,$2,$3*
1,1,$1+$1,$4,$5*
1,1,$1+$1,$6,$7*
1,1,$1+$1,$8,$9*
0 Add four rect primitives between the rounded corners*
20,1,$1+$1,$2,$3,$4,$5,0*
20,1,$1+$1,$4,$5,$6,$7,0*
20,1,$1+$1,$6,$7,$8,$9,0*
20,1,$1+$1,$8,$9,$2,$3,0*%
%AMHorizOval*
0 Thick line with rounded ends*
0 $1 width*
0 $2 $3 position (X,Y) of the first rounded end (center of the circle)*
0 $4 $5 position (X,Y) of the second rounded end (center of the circle)*
0 Add line between two ends*
20,1,$1,$2,$3,$4,$5,0*
0 Add two circle primitives to create the rounded ends*
1,1,$1,$2,$3*
1,1,$1,$4,$5*%
%AMRotRect*
0 Rectangle, with rotation*
0 The origin of the aperture is its center*
0 $1 length*
0 $2 width*
0 $3 Rotation angle, in degrees counterclockwise*
0 Add horizontal line*
21,1,$1,$2,0,0,$3*%
%AMFreePoly0*
4,1,19,0.500000,-0.750000,0.000000,-0.750000,0.000000,-0.744911,-0.071157,-0.744911,-0.207708,-0.704816,-0.327430,-0.627875,-0.420627,-0.520320,-0.479746,-0.390866,-0.500000,-0.250000,-0.500000,0.250000,-0.479746,0.390866,-0.420627,0.520320,-0.327430,0.627875,-0.207708,0.704816,-0.071157,0.744911,0.000000,0.744911,0.000000,0.750000,0.500000,0.750000,0.500000,-0.750000,0.500000,-0.750000,
$1*%
%AMFreePoly1*
4,1,19,0.000000,0.744911,0.071157,0.744911,0.207708,0.704816,0.327430,0.627875,0.420627,0.520320,0.479746,0.390866,0.500000,0.250000,0.500000,-0.250000,0.479746,-0.390866,0.420627,-0.520320,0.327430,-0.627875,0.207708,-0.704816,0.071157,-0.744911,0.000000,-0.744911,0.000000,-0.750000,-0.500000,-0.750000,-0.500000,0.750000,0.000000,0.750000,0.000000,0.744911,0.000000,0.744911,
$1*%
%AMFreePoly2*
4,1,19,0.550000,-0.750000,0.000000,-0.750000,0.000000,-0.744912,-0.071157,-0.744911,-0.207708,-0.704816,-0.327430,-0.627875,-0.420627,-0.520320,-0.479746,-0.390866,-0.500000,-0.250000,-0.500000,0.250000,-0.479746,0.390866,-0.420627,0.520320,-0.327430,0.627875,-0.207708,0.704816,-0.071157,0.744911,0.000000,0.744912,0.000000,0.750000,0.550000,0.750000,0.550000,-0.750000,0.550000,-0.750000,
$1*%
%AMFreePoly3*
4,1,19,0.000000,0.744912,0.071157,0.744911,0.207708,0.704816,0.327430,0.627875,0.420627,0.520320,0.479746,0.390866,0.500000,0.250000,0.500000,-0.250000,0.479746,-0.390866,0.420627,-0.520320,0.327430,-0.627875,0.207708,-0.704816,0.071157,-0.744911,0.000000,-0.744912,0.000000,-0.750000,-0.550000,-0.750000,-0.550000,0.750000,0.000000,0.750000,0.000000,0.744912,0.000000,0.744912,
$1*%
G04 Aperture macros list end*
G04 #@! TA.AperFunction,ComponentPad*
%ADD10R,1.800000X1.800000*%
G04 #@! TD*
G04 #@! TA.AperFunction,ComponentPad*
%ADD11C,1.800000*%
G04 #@! TD*
G04 #@! TA.AperFunction,ComponentPad*
%ADD12RotRect,1.050000X1.500000X135.000000*%
G04 #@! TD*
G04 #@! TA.AperFunction,ComponentPad*
%ADD13HorizOval,1.050000X0.159099X0.159099X-0.159099X-0.159099X0*%
G04 #@! TD*
G04 #@! TA.AperFunction,ComponentPad*
%ADD14RotRect,1.600000X1.600000X45.000000*%
G04 #@! TD*
G04 #@! TA.AperFunction,ComponentPad*
%ADD15HorizOval,1.600000X0.000000X0.000000X0.000000X0.000000X0*%
G04 #@! TD*
G04 #@! TA.AperFunction,ComponentPad*
%ADD16RotRect,1.600000X1.600000X225.000000*%
G04 #@! TD*
G04 #@! TA.AperFunction,ComponentPad*
%ADD17HorizOval,1.600000X0.000000X0.000000X0.000000X0.000000X0*%
G04 #@! TD*
G04 #@! TA.AperFunction,ComponentPad*
%ADD18R,1.200000X1.200000*%
G04 #@! TD*
G04 #@! TA.AperFunction,ComponentPad*
%ADD19C,1.200000*%
G04 #@! TD*
G04 #@! TA.AperFunction,ComponentPad*
%ADD20RotRect,1.200000X1.200000X315.000000*%
G04 #@! TD*
G04 #@! TA.AperFunction,ComponentPad*
%ADD21R,1.600000X1.600000*%
G04 #@! TD*
G04 #@! TA.AperFunction,ComponentPad*
%ADD22C,1.600000*%
G04 #@! TD*
G04 #@! TA.AperFunction,SMDPad,CuDef*
%ADD23RoundRect,0.250000X-0.070711X0.565685X-0.565685X0.070711X0.070711X-0.565685X0.565685X-0.070711X0*%
G04 #@! TD*
G04 #@! TA.AperFunction,SMDPad,CuDef*
%ADD24RoundRect,0.250000X0.450000X-0.350000X0.450000X0.350000X-0.450000X0.350000X-0.450000X-0.350000X0*%
G04 #@! TD*
G04 #@! TA.AperFunction,SMDPad,CuDef*
%ADD25FreePoly0,180.000000*%
G04 #@! TD*
G04 #@! TA.AperFunction,SMDPad,CuDef*
%ADD26FreePoly1,180.000000*%
G04 #@! TD*
G04 #@! TA.AperFunction,SMDPad,CuDef*
%ADD27FreePoly0,0.000000*%
G04 #@! TD*
G04 #@! TA.AperFunction,SMDPad,CuDef*
%ADD28FreePoly1,0.000000*%
G04 #@! TD*
G04 #@! TA.AperFunction,SMDPad,CuDef*
%ADD29RoundRect,0.250000X-0.450000X0.350000X-0.450000X-0.350000X0.450000X-0.350000X0.450000X0.350000X0*%
G04 #@! TD*
G04 #@! TA.AperFunction,SMDPad,CuDef*
%ADD30FreePoly2,45.000000*%
G04 #@! TD*
G04 #@! TA.AperFunction,SMDPad,CuDef*
%ADD31RotRect,1.000000X1.500000X45.000000*%
G04 #@! TD*
G04 #@! TA.AperFunction,SMDPad,CuDef*
%ADD32FreePoly3,45.000000*%
G04 #@! TD*
G04 #@! TA.AperFunction,SMDPad,CuDef*
%ADD33RoundRect,0.250000X-0.400000X-0.625000X0.400000X-0.625000X0.400000X0.625000X-0.400000X0.625000X0*%
G04 #@! TD*
G04 #@! TA.AperFunction,SMDPad,CuDef*
%ADD34C,17.900000*%
G04 #@! TD*
G04 #@! TA.AperFunction,SMDPad,CuDef*
%ADD35R,5.700000X6.100000*%
G04 #@! TD*
G04 #@! TA.AperFunction,SMDPad,CuDef*
%ADD36RotRect,0.700000X1.500000X295.000000*%
G04 #@! TD*
G04 #@! TA.AperFunction,SMDPad,CuDef*
%ADD37RotRect,1.000000X0.800000X295.000000*%
G04 #@! TD*
G04 #@! TA.AperFunction,SMDPad,CuDef*
%ADD38RoundRect,0.150000X-0.150000X0.825000X-0.150000X-0.825000X0.150000X-0.825000X0.150000X0.825000X0*%
G04 #@! TD*
G04 #@! TA.AperFunction,ViaPad*
%ADD39C,0.700000*%
G04 #@! TD*
G04 #@! TA.AperFunction,Conductor*
%ADD40C,0.500000*%
G04 #@! TD*
G04 #@! TA.AperFunction,Conductor*
%ADD41C,0.300000*%
G04 #@! TD*
G04 APERTURE END LIST*
D10*
X95504000Y-100457000D03*
D11*
X98044000Y-100457000D03*
D10*
X97785000Y-59436000D03*
D11*
X100325000Y-59436000D03*
D10*
X90805000Y-60452000D03*
D11*
X93345000Y-60452000D03*
D12*
X65278000Y-117602000D03*
D13*
X64379974Y-116703974D03*
X63481949Y-115805949D03*
D10*
X92964000Y-82042000D03*
D11*
X95504000Y-82042000D03*
D10*
X114295000Y-98044000D03*
D11*
X116835000Y-98044000D03*
D12*
X69342000Y-121684051D03*
D13*
X68443974Y-120786025D03*
X67545949Y-119888000D03*
D10*
X85471000Y-101473000D03*
D11*
X88011000Y-101473000D03*
D10*
X77465000Y-76327000D03*
D11*
X80005000Y-76327000D03*
D10*
X105151000Y-99314000D03*
D11*
X107691000Y-99314000D03*
D14*
X67763846Y-115116154D03*
D15*
X73152000Y-109728000D03*
D16*
X75338077Y-111859924D03*
D17*
X69949923Y-117248078D03*
D10*
X66802000Y-102616000D03*
D11*
X69342000Y-102616000D03*
D18*
X73914000Y-122428000D03*
D19*
X75414000Y-122428000D03*
D10*
X101341000Y-84709000D03*
D11*
X103881000Y-84709000D03*
D10*
X75946000Y-102108000D03*
D11*
X78486000Y-102108000D03*
D10*
X109977000Y-86995000D03*
D11*
X112517000Y-86995000D03*
D10*
X84328000Y-61214000D03*
D11*
X86868000Y-61214000D03*
D20*
X62185340Y-121875340D03*
D19*
X63246000Y-122936000D03*
D10*
X84831000Y-79248000D03*
D11*
X87371000Y-79248000D03*
D21*
X117348000Y-124238000D03*
D22*
X117348000Y-126238000D03*
D23*
X102506214Y-99423786D03*
X101092000Y-100838000D03*
D24*
X121412000Y-120396000D03*
X121412000Y-118396000D03*
D23*
X74058214Y-103614786D03*
X72644000Y-105029000D03*
D25*
X124348000Y-115951000D03*
D26*
X123048000Y-115951000D03*
D23*
X83693000Y-65024000D03*
X82278786Y-66438214D03*
X98679000Y-85090000D03*
X97264786Y-86504214D03*
X76471214Y-80246786D03*
X75057000Y-81661000D03*
X65422214Y-105519786D03*
X64008000Y-106934000D03*
D27*
X64515999Y-110744000D03*
D28*
X65815999Y-110744000D03*
D29*
X112268000Y-123206000D03*
X112268000Y-125206000D03*
D23*
X90187214Y-63863786D03*
X88773000Y-65278000D03*
D30*
X122143761Y-124871239D03*
D31*
X123063000Y-123952000D03*
D32*
X123982239Y-123032761D03*
D23*
X96791214Y-62847786D03*
X95377000Y-64262000D03*
D33*
X102818000Y-92837000D03*
X105918000Y-92837000D03*
D23*
X92854214Y-100820786D03*
X91440000Y-102235000D03*
D34*
X92510000Y-117094000D03*
D35*
X105410000Y-117094000D03*
X79610000Y-117094000D03*
D36*
X126871926Y-120260192D03*
X128139781Y-122979116D03*
X128773708Y-124338577D03*
D37*
X126991712Y-118659606D03*
X128740886Y-117843953D03*
X131826000Y-124460000D03*
X130076826Y-125275653D03*
D23*
X90187214Y-82786786D03*
X88773000Y-84201000D03*
X82186214Y-80627786D03*
X80772000Y-82042000D03*
X111959107Y-99368893D03*
X110544893Y-100783107D03*
D33*
X68326000Y-96647000D03*
X71426000Y-96647000D03*
D23*
X83075214Y-101328786D03*
X81661000Y-102743000D03*
D38*
X114935000Y-115127000D03*
X116205000Y-115127000D03*
X117475000Y-115127000D03*
X118745000Y-115127000D03*
X118745000Y-120077000D03*
X117475000Y-120077000D03*
X116205000Y-120077000D03*
X114935000Y-120077000D03*
D23*
X107459214Y-87739786D03*
X106045000Y-89154000D03*
D33*
X99568000Y-96012000D03*
X102668000Y-96012000D03*
D29*
X112268000Y-118618000D03*
X112268000Y-120618000D03*
D39*
X67310000Y-110109000D03*
X98298000Y-87503000D03*
X113665000Y-115189000D03*
X81153000Y-67564000D03*
X99568000Y-124079000D03*
X67310000Y-111379000D03*
X91440000Y-97536000D03*
X96647000Y-65278000D03*
X85144000Y-109728000D03*
X100330000Y-109855000D03*
X111633000Y-101981000D03*
X114935000Y-116840000D03*
X85625000Y-123979000D03*
X81915000Y-83185000D03*
X71755000Y-105918000D03*
D40*
X85144000Y-109728000D02*
X92510000Y-117094000D01*
D41*
X98298000Y-87503000D02*
X98263572Y-87503000D01*
D40*
X113665000Y-115189000D02*
X114873000Y-115189000D01*
X92583000Y-117094000D02*
X92510000Y-117094000D01*
D41*
X81153000Y-67564000D02*
X82278786Y-66438214D01*
X96647000Y-65278000D02*
X96393000Y-65278000D01*
D40*
X65815999Y-110744000D02*
X66675000Y-110744000D01*
D41*
X98263572Y-87503000D02*
X97264786Y-86504214D01*
X91440000Y-97536000D02*
X91440000Y-97790000D01*
D40*
X114873000Y-115189000D02*
X114935000Y-115127000D01*
X93091000Y-117094000D02*
X92510000Y-117094000D01*
X85625000Y-123979000D02*
X92510000Y-117094000D01*
X66675000Y-110744000D02*
X67310000Y-111379000D01*
D41*
X81915000Y-83185000D02*
X80772000Y-82042000D01*
X96393000Y-65278000D02*
X95377000Y-64262000D01*
D40*
X100330000Y-109855000D02*
X93091000Y-117094000D01*
D41*
X111633000Y-101871214D02*
X110544893Y-100783107D01*
D40*
X114935000Y-116840000D02*
X114935000Y-115127000D01*
D41*
X111633000Y-101981000D02*
X111633000Y-101871214D01*
X91440000Y-97790000D02*
X91440000Y-102235000D01*
D40*
X99568000Y-124079000D02*
X92583000Y-117094000D01*
D41*
X71755000Y-105918000D02*
X72644000Y-105029000D01*
D40*
X66675000Y-110744000D02*
X67310000Y-110109000D01*
X128139781Y-122979116D02*
X126619000Y-124499897D01*
X111506000Y-129794000D02*
X105410000Y-123698000D01*
X105410000Y-123698000D02*
X105410000Y-117094000D01*
X98552000Y-106172000D02*
X105410000Y-113030000D01*
X123033152Y-129794000D02*
X111506000Y-129794000D01*
X126619000Y-124499897D02*
X126619000Y-126208152D01*
X79610000Y-117094000D02*
X79610000Y-112668000D01*
X79610000Y-112668000D02*
X86106000Y-106172000D01*
X86106000Y-106172000D02*
X98552000Y-106172000D01*
X126619000Y-126208152D02*
X123033152Y-129794000D01*
X105410000Y-113030000D02*
X105410000Y-117094000D01*
D41*
X116205000Y-116713000D02*
X117475000Y-117983000D01*
X117475000Y-120077000D02*
X117475000Y-124111000D01*
X114522000Y-124238000D02*
X113554000Y-125206000D01*
X117475000Y-117983000D02*
X117475000Y-120077000D01*
X116205000Y-115127000D02*
X116205000Y-116713000D01*
X117348000Y-124238000D02*
X114522000Y-124238000D01*
X117475000Y-120077000D02*
X117602000Y-120204000D01*
X117602000Y-120204000D02*
X117602000Y-120396000D01*
X117475000Y-124111000D02*
X117348000Y-124238000D01*
X113554000Y-125206000D02*
X112268000Y-125206000D01*
X73152000Y-109728000D02*
X77470001Y-109728000D01*
X118364000Y-112268000D02*
X121412000Y-115316000D01*
X77470001Y-109728000D02*
X82677001Y-104521000D01*
X109728000Y-112268000D02*
X118364000Y-112268000D01*
X121412000Y-115316000D02*
X121412000Y-118396000D01*
X75338077Y-111859924D02*
X77470001Y-109728000D01*
X82677001Y-104521000D02*
X101981000Y-104521000D01*
X101981000Y-104521000D02*
X109728000Y-112268000D01*
X68834000Y-123952000D02*
X74490000Y-123952000D01*
X68090439Y-121139560D02*
X68090439Y-123208439D01*
X68090439Y-123208439D02*
X68834000Y-123952000D01*
X74490000Y-123952000D02*
X75414000Y-123028000D01*
X75414000Y-123028000D02*
X75414000Y-122428000D01*
X68443974Y-120786025D02*
X68090439Y-121139560D01*
X69949923Y-117248078D02*
X69949923Y-119280076D01*
X69949923Y-119280076D02*
X68443974Y-120786025D01*
X62185340Y-121875340D02*
X62185340Y-118898608D01*
X65967794Y-115116154D02*
X64379974Y-116703974D01*
X67763846Y-115116154D02*
X65967794Y-115116154D01*
X62185340Y-118898608D02*
X64379974Y-116703974D01*
X83693000Y-65024000D02*
X83693000Y-61849000D01*
X83693000Y-61849000D02*
X84328000Y-61214000D01*
X98044000Y-100457000D02*
X98044000Y-92964000D01*
D40*
X78486000Y-92837000D02*
X87376000Y-92837000D01*
X97917000Y-92837000D02*
X102818000Y-92837000D01*
D41*
X86868000Y-59941208D02*
X88623208Y-58186000D01*
D40*
X123982239Y-123032761D02*
X124348000Y-122667000D01*
X71426000Y-96647000D02*
X75236000Y-92837000D01*
D41*
X78486000Y-102108000D02*
X78486000Y-92837000D01*
D40*
X114046000Y-85471000D02*
X100325000Y-71750000D01*
X75236000Y-92837000D02*
X78486000Y-92837000D01*
D41*
X87371000Y-79248000D02*
X87371000Y-92832000D01*
D40*
X116835000Y-95626000D02*
X116835000Y-98044000D01*
X114046000Y-92837000D02*
X114046000Y-85471000D01*
D41*
X88623208Y-58186000D02*
X99075000Y-58186000D01*
X102743000Y-92762000D02*
X102743000Y-87884000D01*
X103881000Y-86746000D02*
X103881000Y-84709000D01*
D40*
X124348000Y-115951000D02*
X124348000Y-114569000D01*
D41*
X98044000Y-92964000D02*
X97917000Y-92837000D01*
X102743000Y-87884000D02*
X103881000Y-86746000D01*
D40*
X100325000Y-71750000D02*
X100325000Y-59436000D01*
X87376000Y-92837000D02*
X97917000Y-92837000D01*
D41*
X102818000Y-92837000D02*
X102743000Y-92762000D01*
D40*
X124348000Y-122667000D02*
X124348000Y-115951000D01*
D41*
X99075000Y-58186000D02*
X100325000Y-59436000D01*
D40*
X124348000Y-114569000D02*
X116835000Y-107056000D01*
D41*
X86868000Y-61214000D02*
X86868000Y-59941208D01*
D40*
X116835000Y-107056000D02*
X116835000Y-98044000D01*
D41*
X87371000Y-92832000D02*
X87376000Y-92837000D01*
D40*
X114046000Y-92837000D02*
X116835000Y-95626000D01*
X105918000Y-92837000D02*
X114046000Y-92837000D01*
D41*
X96791214Y-60429786D02*
X97785000Y-59436000D01*
X96791214Y-62847786D02*
X96791214Y-60429786D01*
X82186214Y-80627786D02*
X83451214Y-80627786D01*
X83451214Y-80627786D02*
X84831000Y-79248000D01*
X98679000Y-85090000D02*
X100960000Y-85090000D01*
X100960000Y-85090000D02*
X101341000Y-84709000D01*
X112970107Y-99368893D02*
X114295000Y-98044000D01*
X111959107Y-99368893D02*
X112970107Y-99368893D01*
X92854214Y-100820786D02*
X95140214Y-100820786D01*
X95140214Y-100820786D02*
X95504000Y-100457000D01*
X74058214Y-103614786D02*
X74439214Y-103614786D01*
X74439214Y-103614786D02*
X75946000Y-102108000D01*
X90187214Y-61069786D02*
X90805000Y-60452000D01*
X90187214Y-63863786D02*
X90187214Y-61069786D01*
D40*
X122143761Y-127030239D02*
X122143761Y-124871239D01*
D41*
X88773000Y-62611000D02*
X88773000Y-59436000D01*
D40*
X101408000Y-105472000D02*
X110236000Y-114300000D01*
D41*
X118745000Y-115127000D02*
X118745000Y-114152000D01*
D40*
X120396000Y-128778000D02*
X112522000Y-128778000D01*
X107691000Y-98171000D02*
X107691000Y-99314000D01*
X106934000Y-80137000D02*
X97409000Y-80137000D01*
D41*
X118131000Y-113538000D02*
X113284000Y-113538000D01*
X91694000Y-58801000D02*
X93345000Y-60452000D01*
D40*
X110236000Y-119634000D02*
X111252000Y-118618000D01*
X110236000Y-126492000D02*
X110236000Y-119634000D01*
X73914000Y-122428000D02*
X70085949Y-122428000D01*
X104521000Y-95001000D02*
X107691000Y-98171000D01*
X108326000Y-91186000D02*
X105029000Y-91186000D01*
X120396000Y-128778000D02*
X122143761Y-127030239D01*
X73914000Y-122428000D02*
X73914000Y-115824000D01*
X113476000Y-118618000D02*
X114935000Y-120077000D01*
X73914000Y-115824000D02*
X84266000Y-105472000D01*
D41*
X113284000Y-113538000D02*
X112268000Y-114554000D01*
D40*
X112268000Y-118618000D02*
X113476000Y-118618000D01*
D41*
X118745000Y-114152000D02*
X118131000Y-113538000D01*
D40*
X112517000Y-86995000D02*
X112517000Y-85720000D01*
X95504000Y-82042000D02*
X93345000Y-79883000D01*
X112517000Y-85720000D02*
X106934000Y-80137000D01*
X84266000Y-105472000D02*
X101408000Y-105472000D01*
X121285000Y-122428000D02*
X123048000Y-120665000D01*
X112517000Y-86995000D02*
X108326000Y-91186000D01*
X70085949Y-122428000D02*
X69342000Y-121684051D01*
X112522000Y-128778000D02*
X110236000Y-126492000D01*
X111252000Y-118618000D02*
X112268000Y-118618000D01*
X97409000Y-80137000D02*
X95504000Y-82042000D01*
X121285000Y-124012478D02*
X121285000Y-122428000D01*
X107691000Y-100594000D02*
X107691000Y-99314000D01*
D41*
X88773000Y-59436000D02*
X89408000Y-58801000D01*
D40*
X105029000Y-91186000D02*
X104521000Y-91694000D01*
X110236000Y-114300000D02*
X110236000Y-119634000D01*
X93345000Y-79883000D02*
X93345000Y-60452000D01*
X102668000Y-96012000D02*
X105532000Y-96012000D01*
D41*
X89408000Y-58801000D02*
X91694000Y-58801000D01*
X80005000Y-71379000D02*
X88773000Y-62611000D01*
D40*
X123048000Y-115951000D02*
X107691000Y-100594000D01*
X123048000Y-120665000D02*
X123048000Y-115951000D01*
X122143761Y-124871239D02*
X121285000Y-124012478D01*
D41*
X112268000Y-114554000D02*
X112268000Y-118618000D01*
D40*
X104521000Y-91694000D02*
X104521000Y-95001000D01*
D41*
X80005000Y-76327000D02*
X80005000Y-71379000D01*
X76471214Y-77320786D02*
X77465000Y-76327000D01*
X76471214Y-80246786D02*
X76471214Y-77320786D01*
X92219214Y-82786786D02*
X92964000Y-82042000D01*
X90187214Y-82786786D02*
X92219214Y-82786786D01*
X107459214Y-87739786D02*
X109232214Y-87739786D01*
X109232214Y-87739786D02*
X109977000Y-86995000D01*
X102506214Y-99423786D02*
X105041214Y-99423786D01*
X105041214Y-99423786D02*
X105151000Y-99314000D01*
X83075214Y-101328786D02*
X85326786Y-101328786D01*
X85326786Y-101328786D02*
X85471000Y-101473000D01*
X65422214Y-103995786D02*
X66802000Y-102616000D01*
X65422214Y-105519786D02*
X65422214Y-103995786D01*
D40*
X126871926Y-120260192D02*
X126492000Y-120640118D01*
X126492000Y-120640118D02*
X126492000Y-122936000D01*
X126492000Y-122936000D02*
X124714000Y-124714000D01*
X124714000Y-124714000D02*
X123825000Y-124714000D01*
X123825000Y-124714000D02*
X123063000Y-123952000D01*
D41*
X81661000Y-102743000D02*
X75826000Y-108578000D01*
X64008000Y-102997000D02*
X64008000Y-106934000D01*
D40*
X64008000Y-110236001D02*
X64515999Y-110744000D01*
D41*
X81724500Y-77406500D02*
X77470000Y-81661000D01*
X88773000Y-81407000D02*
X89916000Y-80264000D01*
X101092000Y-100838000D02*
X97917000Y-104013000D01*
X102362000Y-94361000D02*
X101092000Y-95631000D01*
X89916000Y-78740000D02*
X88138000Y-76962000D01*
X88773000Y-65278000D02*
X88773000Y-70358000D01*
X69850000Y-92075000D02*
X69850000Y-98298000D01*
X88773000Y-84201000D02*
X88773000Y-81407000D01*
X75057000Y-86868000D02*
X69850000Y-92075000D01*
X75826000Y-108578000D02*
X65931999Y-108578000D01*
X65931999Y-108578000D02*
X64515999Y-109994000D01*
X88138000Y-76962000D02*
X82169000Y-76962000D01*
X103251000Y-94361000D02*
X102362000Y-94361000D01*
X101092000Y-95631000D02*
X101092000Y-100838000D01*
X89916000Y-80264000D02*
X89916000Y-78740000D01*
X66548000Y-100457000D02*
X64008000Y-102997000D01*
X82931000Y-104013000D02*
X81661000Y-102743000D01*
D40*
X64008000Y-106934000D02*
X64008000Y-110236001D01*
D41*
X88773000Y-70358000D02*
X81724500Y-77406500D01*
X67691000Y-100457000D02*
X66548000Y-100457000D01*
X82169000Y-76962000D02*
X81724500Y-77406500D01*
X106045000Y-89154000D02*
X103886000Y-91313000D01*
X103886000Y-91313000D02*
X103886000Y-93726000D01*
X64515999Y-109994000D02*
X64515999Y-110744000D01*
X75057000Y-81661000D02*
X75057000Y-86868000D01*
X103886000Y-93726000D02*
X103251000Y-94361000D01*
D40*
X63481949Y-111778050D02*
X64515999Y-110744000D01*
D41*
X75057000Y-81661000D02*
X77470000Y-81661000D01*
X97917000Y-104013000D02*
X82931000Y-104013000D01*
X69850000Y-98298000D02*
X67691000Y-100457000D01*
D40*
X63481949Y-115805949D02*
X63481949Y-111778050D01*
D41*
X112268000Y-121920000D02*
X112268000Y-123206000D01*
X115337000Y-121920000D02*
X112268000Y-121920000D01*
X116205000Y-120077000D02*
X116205000Y-121052000D01*
X116205000Y-121052000D02*
X115337000Y-121920000D01*
X112268000Y-120618000D02*
X112268000Y-121920000D01*
X117475000Y-116459000D02*
X121412000Y-120396000D01*
X117475000Y-115127000D02*
X117475000Y-116459000D01*
X99568000Y-100700767D02*
X99568000Y-96012000D01*
X88011000Y-101473000D02*
X86696203Y-100158203D01*
X88011000Y-101473000D02*
X89943583Y-103405583D01*
X96863183Y-103405583D02*
X99568000Y-100700767D01*
X80137000Y-100838000D02*
X80137000Y-102870000D01*
X72009000Y-107315000D02*
X69342000Y-104648000D01*
X75692000Y-107315000D02*
X72009000Y-107315000D01*
X69342000Y-104648000D02*
X69342000Y-102616000D01*
X86696203Y-100158203D02*
X80816797Y-100158203D01*
X80137000Y-102870000D02*
X75692000Y-107315000D01*
X89943583Y-103405583D02*
X96863183Y-103405583D01*
X80816797Y-100158203D02*
X80137000Y-100838000D01*
D40*
X66167000Y-121539000D02*
X67545949Y-120160051D01*
X67545949Y-120160051D02*
X67545949Y-119888000D01*
X59690000Y-124460000D02*
X60579000Y-125349000D01*
X59690000Y-113665000D02*
X59690000Y-124460000D01*
X68326000Y-97663000D02*
X63119000Y-102870000D01*
X62103000Y-105537000D02*
X62103000Y-111252000D01*
X60579000Y-125349000D02*
X64262000Y-125349000D01*
X68326000Y-96647000D02*
X68326000Y-97663000D01*
X64262000Y-125349000D02*
X66167000Y-123444000D01*
X63119000Y-104521000D02*
X62103000Y-105537000D01*
X63119000Y-102870000D02*
X63119000Y-104521000D01*
X62103000Y-111252000D02*
X59690000Y-113665000D01*
X66167000Y-123444000D02*
X66167000Y-121539000D01*
M02*
