G04 #@! TF.GenerationSoftware,KiCad,Pcbnew,7.0.9*
G04 #@! TF.CreationDate,2023-11-12T20:37:04+01:00*
G04 #@! TF.ProjectId,christmas_ornament_2023,63687269-7374-46d6-9173-5f6f726e616d,1.0*
G04 #@! TF.SameCoordinates,Original*
G04 #@! TF.FileFunction,Soldermask,Bot*
G04 #@! TF.FilePolarity,Negative*
%FSLAX46Y46*%
G04 Gerber Fmt 4.6, Leading zero omitted, Abs format (unit mm)*
G04 Created by KiCad (PCBNEW 7.0.9) date 2023-11-12 20:37:04*
%MOMM*%
%LPD*%
G01*
G04 APERTURE LIST*
G04 Aperture macros list*
%AMRoundRect*
0 Rectangle with rounded corners*
0 $1 Rounding radius*
0 $2 $3 $4 $5 $6 $7 $8 $9 X,Y pos of 4 corners*
0 Add a 4 corners polygon primitive as box body*
4,1,4,$2,$3,$4,$5,$6,$7,$8,$9,$2,$3,0*
0 Add four circle primitives for the rounded corners*
1,1,$1+$1,$2,$3*
1,1,$1+$1,$4,$5*
1,1,$1+$1,$6,$7*
1,1,$1+$1,$8,$9*
0 Add four rect primitives between the rounded corners*
20,1,$1+$1,$2,$3,$4,$5,0*
20,1,$1+$1,$4,$5,$6,$7,0*
20,1,$1+$1,$6,$7,$8,$9,0*
20,1,$1+$1,$8,$9,$2,$3,0*%
%AMHorizOval*
0 Thick line with rounded ends*
0 $1 width*
0 $2 $3 position (X,Y) of the first rounded end (center of the circle)*
0 $4 $5 position (X,Y) of the second rounded end (center of the circle)*
0 Add line between two ends*
20,1,$1,$2,$3,$4,$5,0*
0 Add two circle primitives to create the rounded ends*
1,1,$1,$2,$3*
1,1,$1,$4,$5*%
%AMRotRect*
0 Rectangle, with rotation*
0 The origin of the aperture is its center*
0 $1 length*
0 $2 width*
0 $3 Rotation angle, in degrees counterclockwise*
0 Add horizontal line*
21,1,$1,$2,0,0,$3*%
%AMFreePoly0*
4,1,19,0.500000,-0.750000,0.000000,-0.750000,0.000000,-0.744911,-0.071157,-0.744911,-0.207708,-0.704816,-0.327430,-0.627875,-0.420627,-0.520320,-0.479746,-0.390866,-0.500000,-0.250000,-0.500000,0.250000,-0.479746,0.390866,-0.420627,0.520320,-0.327430,0.627875,-0.207708,0.704816,-0.071157,0.744911,0.000000,0.744911,0.000000,0.750000,0.500000,0.750000,0.500000,-0.750000,0.500000,-0.750000,
$1*%
%AMFreePoly1*
4,1,19,0.000000,0.744911,0.071157,0.744911,0.207708,0.704816,0.327430,0.627875,0.420627,0.520320,0.479746,0.390866,0.500000,0.250000,0.500000,-0.250000,0.479746,-0.390866,0.420627,-0.520320,0.327430,-0.627875,0.207708,-0.704816,0.071157,-0.744911,0.000000,-0.744911,0.000000,-0.750000,-0.500000,-0.750000,-0.500000,0.750000,0.000000,0.750000,0.000000,0.744911,0.000000,0.744911,
$1*%
%AMFreePoly2*
4,1,19,0.550000,-0.750000,0.000000,-0.750000,0.000000,-0.744912,-0.071157,-0.744911,-0.207708,-0.704816,-0.327430,-0.627875,-0.420627,-0.520320,-0.479746,-0.390866,-0.500000,-0.250000,-0.500000,0.250000,-0.479746,0.390866,-0.420627,0.520320,-0.327430,0.627875,-0.207708,0.704816,-0.071157,0.744911,0.000000,0.744912,0.000000,0.750000,0.550000,0.750000,0.550000,-0.750000,0.550000,-0.750000,
$1*%
%AMFreePoly3*
4,1,19,0.000000,0.744912,0.071157,0.744911,0.207708,0.704816,0.327430,0.627875,0.420627,0.520320,0.479746,0.390866,0.500000,0.250000,0.500000,-0.250000,0.479746,-0.390866,0.420627,-0.520320,0.327430,-0.627875,0.207708,-0.704816,0.071157,-0.744911,0.000000,-0.744912,0.000000,-0.750000,-0.550000,-0.750000,-0.550000,0.750000,0.000000,0.750000,0.000000,0.744912,0.000000,0.744912,
$1*%
G04 Aperture macros list end*
%ADD10C,2.500000*%
%ADD11R,1.800000X1.800000*%
%ADD12C,1.800000*%
%ADD13RotRect,1.050000X1.500000X135.000000*%
%ADD14HorizOval,1.050000X0.159099X0.159099X-0.159099X-0.159099X0*%
%ADD15RotRect,1.600000X1.600000X45.000000*%
%ADD16HorizOval,1.600000X0.000000X0.000000X0.000000X0.000000X0*%
%ADD17RotRect,1.600000X1.600000X225.000000*%
%ADD18HorizOval,1.600000X0.000000X0.000000X0.000000X0.000000X0*%
%ADD19R,1.200000X1.200000*%
%ADD20C,1.200000*%
%ADD21RotRect,1.200000X1.200000X315.000000*%
%ADD22R,1.600000X1.600000*%
%ADD23C,1.600000*%
%ADD24RoundRect,0.250000X-0.070711X0.565685X-0.565685X0.070711X0.070711X-0.565685X0.565685X-0.070711X0*%
%ADD25RoundRect,0.250000X0.450000X-0.350000X0.450000X0.350000X-0.450000X0.350000X-0.450000X-0.350000X0*%
%ADD26FreePoly0,180.000000*%
%ADD27FreePoly1,180.000000*%
%ADD28FreePoly0,0.000000*%
%ADD29FreePoly1,0.000000*%
%ADD30RoundRect,0.250000X-0.450000X0.350000X-0.450000X-0.350000X0.450000X-0.350000X0.450000X0.350000X0*%
%ADD31FreePoly2,45.000000*%
%ADD32RotRect,1.000000X1.500000X45.000000*%
%ADD33FreePoly3,45.000000*%
%ADD34RoundRect,0.250000X-0.400000X-0.625000X0.400000X-0.625000X0.400000X0.625000X-0.400000X0.625000X0*%
%ADD35C,18.104000*%
%ADD36RoundRect,0.102000X2.850000X3.050000X-2.850000X3.050000X-2.850000X-3.050000X2.850000X-3.050000X0*%
%ADD37C,0.900000*%
%ADD38RoundRect,0.102000X-0.827647X0.000244X-0.531814X-0.634171X0.827647X-0.000244X0.531814X0.634171X0*%
%ADD39RoundRect,0.102000X-0.573832X0.284107X-0.151214X-0.622201X0.573832X-0.284107X0.151214X0.622201X0*%
%ADD40RoundRect,0.150000X-0.150000X0.825000X-0.150000X-0.825000X0.150000X-0.825000X0.150000X0.825000X0*%
G04 APERTURE END LIST*
D10*
X92583000Y-38735000D03*
D11*
X95504000Y-100457000D03*
D12*
X98044000Y-100457000D03*
D11*
X97785000Y-59436000D03*
D12*
X100325000Y-59436000D03*
D11*
X90805000Y-60452000D03*
D12*
X93345000Y-60452000D03*
D13*
X65278000Y-117602000D03*
D14*
X64379974Y-116703974D03*
X63481949Y-115805949D03*
D11*
X92964000Y-82042000D03*
D12*
X95504000Y-82042000D03*
D11*
X114295000Y-98044000D03*
D12*
X116835000Y-98044000D03*
D13*
X69342000Y-121684051D03*
D14*
X68443974Y-120786025D03*
X67545949Y-119888000D03*
D11*
X85471000Y-101473000D03*
D12*
X88011000Y-101473000D03*
D11*
X77465000Y-76327000D03*
D12*
X80005000Y-76327000D03*
D11*
X105151000Y-99314000D03*
D12*
X107691000Y-99314000D03*
D15*
X67763846Y-115116154D03*
D16*
X73152000Y-109728000D03*
D17*
X75338077Y-111859924D03*
D18*
X69949923Y-117248078D03*
D11*
X66802000Y-102616000D03*
D12*
X69342000Y-102616000D03*
D19*
X73914000Y-122428000D03*
D20*
X75414000Y-122428000D03*
D11*
X101341000Y-84709000D03*
D12*
X103881000Y-84709000D03*
D11*
X75946000Y-102108000D03*
D12*
X78486000Y-102108000D03*
D11*
X109977000Y-86995000D03*
D12*
X112517000Y-86995000D03*
D11*
X84328000Y-61214000D03*
D12*
X86868000Y-61214000D03*
D21*
X62185340Y-121875340D03*
D20*
X63246000Y-122936000D03*
D11*
X84831000Y-79248000D03*
D12*
X87371000Y-79248000D03*
D22*
X117348000Y-124238000D03*
D23*
X117348000Y-126238000D03*
D24*
X102506214Y-99423786D03*
X101092000Y-100838000D03*
D25*
X121412000Y-120396000D03*
X121412000Y-118396000D03*
D24*
X74058214Y-103614786D03*
X72644000Y-105029000D03*
D26*
X124348000Y-115951000D03*
D27*
X123048000Y-115951000D03*
D24*
X83693000Y-65024000D03*
X82278786Y-66438214D03*
X98679000Y-85090000D03*
X97264786Y-86504214D03*
X76471214Y-80246786D03*
X75057000Y-81661000D03*
X65422214Y-105519786D03*
X64008000Y-106934000D03*
D28*
X64515999Y-110744000D03*
D29*
X65815999Y-110744000D03*
D30*
X112268000Y-123206000D03*
X112268000Y-125206000D03*
D24*
X90187214Y-63863786D03*
X88773000Y-65278000D03*
D31*
X122143761Y-124871239D03*
D32*
X123063000Y-123952000D03*
D33*
X123982239Y-123032761D03*
D24*
X96791214Y-62847786D03*
X95377000Y-64262000D03*
D34*
X102818000Y-92837000D03*
X105918000Y-92837000D03*
D24*
X92854214Y-100820786D03*
X91440000Y-102235000D03*
D35*
X92510000Y-117094000D03*
D36*
X105410000Y-117094000D03*
X79610000Y-117094000D03*
D37*
X128774929Y-120200341D03*
X130042783Y-122919265D03*
D38*
X126871926Y-120260192D03*
X128139781Y-122979116D03*
X128773708Y-124338577D03*
D39*
X126991712Y-118659606D03*
X128740886Y-117843953D03*
X131826000Y-124460000D03*
X130076826Y-125275653D03*
D24*
X90187214Y-82786786D03*
X88773000Y-84201000D03*
X82186214Y-80627786D03*
X80772000Y-82042000D03*
X111959107Y-99368893D03*
X110544893Y-100783107D03*
D34*
X68326000Y-96647000D03*
X71426000Y-96647000D03*
D24*
X83075214Y-101328786D03*
X81661000Y-102743000D03*
D40*
X114935000Y-115127000D03*
X116205000Y-115127000D03*
X117475000Y-115127000D03*
X118745000Y-115127000D03*
X118745000Y-120077000D03*
X117475000Y-120077000D03*
X116205000Y-120077000D03*
X114935000Y-120077000D03*
D24*
X107459214Y-87739786D03*
X106045000Y-89154000D03*
D34*
X99568000Y-96012000D03*
X102668000Y-96012000D03*
D30*
X112268000Y-118618000D03*
X112268000Y-120618000D03*
M02*
