G04 #@! TF.GenerationSoftware,KiCad,Pcbnew,7.0.9*
G04 #@! TF.CreationDate,2023-11-12T20:37:04+01:00*
G04 #@! TF.ProjectId,christmas_ornament_2023,63687269-7374-46d6-9173-5f6f726e616d,1.0*
G04 #@! TF.SameCoordinates,Original*
G04 #@! TF.FileFunction,Legend,Bot*
G04 #@! TF.FilePolarity,Positive*
%FSLAX46Y46*%
G04 Gerber Fmt 4.6, Leading zero omitted, Abs format (unit mm)*
G04 Created by KiCad (PCBNEW 7.0.9) date 2023-11-12 20:37:04*
%MOMM*%
%LPD*%
G01*
G04 APERTURE LIST*
G04 Aperture macros list*
%AMRoundRect*
0 Rectangle with rounded corners*
0 $1 Rounding radius*
0 $2 $3 $4 $5 $6 $7 $8 $9 X,Y pos of 4 corners*
0 Add a 4 corners polygon primitive as box body*
4,1,4,$2,$3,$4,$5,$6,$7,$8,$9,$2,$3,0*
0 Add four circle primitives for the rounded corners*
1,1,$1+$1,$2,$3*
1,1,$1+$1,$4,$5*
1,1,$1+$1,$6,$7*
1,1,$1+$1,$8,$9*
0 Add four rect primitives between the rounded corners*
20,1,$1+$1,$2,$3,$4,$5,0*
20,1,$1+$1,$4,$5,$6,$7,0*
20,1,$1+$1,$6,$7,$8,$9,0*
20,1,$1+$1,$8,$9,$2,$3,0*%
%AMHorizOval*
0 Thick line with rounded ends*
0 $1 width*
0 $2 $3 position (X,Y) of the first rounded end (center of the circle)*
0 $4 $5 position (X,Y) of the second rounded end (center of the circle)*
0 Add line between two ends*
20,1,$1,$2,$3,$4,$5,0*
0 Add two circle primitives to create the rounded ends*
1,1,$1,$2,$3*
1,1,$1,$4,$5*%
%AMRotRect*
0 Rectangle, with rotation*
0 The origin of the aperture is its center*
0 $1 length*
0 $2 width*
0 $3 Rotation angle, in degrees counterclockwise*
0 Add horizontal line*
21,1,$1,$2,0,0,$3*%
%AMFreePoly0*
4,1,19,0.500000,-0.750000,0.000000,-0.750000,0.000000,-0.744911,-0.071157,-0.744911,-0.207708,-0.704816,-0.327430,-0.627875,-0.420627,-0.520320,-0.479746,-0.390866,-0.500000,-0.250000,-0.500000,0.250000,-0.479746,0.390866,-0.420627,0.520320,-0.327430,0.627875,-0.207708,0.704816,-0.071157,0.744911,0.000000,0.744911,0.000000,0.750000,0.500000,0.750000,0.500000,-0.750000,0.500000,-0.750000,
$1*%
%AMFreePoly1*
4,1,19,0.000000,0.744911,0.071157,0.744911,0.207708,0.704816,0.327430,0.627875,0.420627,0.520320,0.479746,0.390866,0.500000,0.250000,0.500000,-0.250000,0.479746,-0.390866,0.420627,-0.520320,0.327430,-0.627875,0.207708,-0.704816,0.071157,-0.744911,0.000000,-0.744911,0.000000,-0.750000,-0.500000,-0.750000,-0.500000,0.750000,0.000000,0.750000,0.000000,0.744911,0.000000,0.744911,
$1*%
%AMFreePoly2*
4,1,19,0.550000,-0.750000,0.000000,-0.750000,0.000000,-0.744912,-0.071157,-0.744911,-0.207708,-0.704816,-0.327430,-0.627875,-0.420627,-0.520320,-0.479746,-0.390866,-0.500000,-0.250000,-0.500000,0.250000,-0.479746,0.390866,-0.420627,0.520320,-0.327430,0.627875,-0.207708,0.704816,-0.071157,0.744911,0.000000,0.744912,0.000000,0.750000,0.550000,0.750000,0.550000,-0.750000,0.550000,-0.750000,
$1*%
%AMFreePoly3*
4,1,19,0.000000,0.744912,0.071157,0.744911,0.207708,0.704816,0.327430,0.627875,0.420627,0.520320,0.479746,0.390866,0.500000,0.250000,0.500000,-0.250000,0.479746,-0.390866,0.420627,-0.520320,0.327430,-0.627875,0.207708,-0.704816,0.071157,-0.744911,0.000000,-0.744912,0.000000,-0.750000,-0.550000,-0.750000,-0.550000,0.750000,0.000000,0.750000,0.000000,0.744912,0.000000,0.744912,
$1*%
G04 Aperture macros list end*
%ADD10C,0.153000*%
%ADD11C,0.400000*%
%ADD12C,0.300000*%
%ADD13C,0.120000*%
%ADD14C,0.127000*%
%ADD15C,0.250000*%
%ADD16C,2.500000*%
%ADD17R,1.800000X1.800000*%
%ADD18C,1.800000*%
%ADD19RotRect,1.050000X1.500000X135.000000*%
%ADD20HorizOval,1.050000X0.159099X0.159099X-0.159099X-0.159099X0*%
%ADD21RotRect,1.600000X1.600000X45.000000*%
%ADD22HorizOval,1.600000X0.000000X0.000000X0.000000X0.000000X0*%
%ADD23RotRect,1.600000X1.600000X225.000000*%
%ADD24HorizOval,1.600000X0.000000X0.000000X0.000000X0.000000X0*%
%ADD25R,1.200000X1.200000*%
%ADD26C,1.200000*%
%ADD27RotRect,1.200000X1.200000X315.000000*%
%ADD28R,1.600000X1.600000*%
%ADD29C,1.600000*%
%ADD30RoundRect,0.250000X-0.070711X0.565685X-0.565685X0.070711X0.070711X-0.565685X0.565685X-0.070711X0*%
%ADD31RoundRect,0.250000X0.450000X-0.350000X0.450000X0.350000X-0.450000X0.350000X-0.450000X-0.350000X0*%
%ADD32FreePoly0,180.000000*%
%ADD33FreePoly1,180.000000*%
%ADD34FreePoly0,0.000000*%
%ADD35FreePoly1,0.000000*%
%ADD36RoundRect,0.250000X-0.450000X0.350000X-0.450000X-0.350000X0.450000X-0.350000X0.450000X0.350000X0*%
%ADD37FreePoly2,45.000000*%
%ADD38RotRect,1.000000X1.500000X45.000000*%
%ADD39FreePoly3,45.000000*%
%ADD40RoundRect,0.250000X-0.400000X-0.625000X0.400000X-0.625000X0.400000X0.625000X-0.400000X0.625000X0*%
%ADD41C,18.104000*%
%ADD42RoundRect,0.102000X2.850000X3.050000X-2.850000X3.050000X-2.850000X-3.050000X2.850000X-3.050000X0*%
%ADD43C,0.900000*%
%ADD44RoundRect,0.102000X-0.827647X0.000244X-0.531814X-0.634171X0.827647X-0.000244X0.531814X0.634171X0*%
%ADD45RoundRect,0.102000X-0.573832X0.284107X-0.151214X-0.622201X0.573832X-0.284107X0.151214X0.622201X0*%
%ADD46RoundRect,0.150000X-0.150000X0.825000X-0.150000X-0.825000X0.150000X-0.825000X0.150000X0.825000X0*%
G04 APERTURE END LIST*
D10*
X95863819Y-128593424D02*
X95911438Y-128641044D01*
X95911438Y-128641044D02*
X96054295Y-128688663D01*
X96054295Y-128688663D02*
X96149533Y-128688663D01*
X96149533Y-128688663D02*
X96292390Y-128641044D01*
X96292390Y-128641044D02*
X96387628Y-128545805D01*
X96387628Y-128545805D02*
X96435247Y-128450567D01*
X96435247Y-128450567D02*
X96482866Y-128260091D01*
X96482866Y-128260091D02*
X96482866Y-128117234D01*
X96482866Y-128117234D02*
X96435247Y-127926758D01*
X96435247Y-127926758D02*
X96387628Y-127831520D01*
X96387628Y-127831520D02*
X96292390Y-127736282D01*
X96292390Y-127736282D02*
X96149533Y-127688663D01*
X96149533Y-127688663D02*
X96054295Y-127688663D01*
X96054295Y-127688663D02*
X95911438Y-127736282D01*
X95911438Y-127736282D02*
X95863819Y-127783901D01*
X94863819Y-128688663D02*
X95197152Y-128212472D01*
X95435247Y-128688663D02*
X95435247Y-127688663D01*
X95435247Y-127688663D02*
X95054295Y-127688663D01*
X95054295Y-127688663D02*
X94959057Y-127736282D01*
X94959057Y-127736282D02*
X94911438Y-127783901D01*
X94911438Y-127783901D02*
X94863819Y-127879139D01*
X94863819Y-127879139D02*
X94863819Y-128021996D01*
X94863819Y-128021996D02*
X94911438Y-128117234D01*
X94911438Y-128117234D02*
X94959057Y-128164853D01*
X94959057Y-128164853D02*
X95054295Y-128212472D01*
X95054295Y-128212472D02*
X95435247Y-128212472D01*
X94482866Y-127783901D02*
X94435247Y-127736282D01*
X94435247Y-127736282D02*
X94340009Y-127688663D01*
X94340009Y-127688663D02*
X94101914Y-127688663D01*
X94101914Y-127688663D02*
X94006676Y-127736282D01*
X94006676Y-127736282D02*
X93959057Y-127783901D01*
X93959057Y-127783901D02*
X93911438Y-127879139D01*
X93911438Y-127879139D02*
X93911438Y-127974377D01*
X93911438Y-127974377D02*
X93959057Y-128117234D01*
X93959057Y-128117234D02*
X94530485Y-128688663D01*
X94530485Y-128688663D02*
X93911438Y-128688663D01*
X93292390Y-127688663D02*
X93197152Y-127688663D01*
X93197152Y-127688663D02*
X93101914Y-127736282D01*
X93101914Y-127736282D02*
X93054295Y-127783901D01*
X93054295Y-127783901D02*
X93006676Y-127879139D01*
X93006676Y-127879139D02*
X92959057Y-128069615D01*
X92959057Y-128069615D02*
X92959057Y-128307710D01*
X92959057Y-128307710D02*
X93006676Y-128498186D01*
X93006676Y-128498186D02*
X93054295Y-128593424D01*
X93054295Y-128593424D02*
X93101914Y-128641044D01*
X93101914Y-128641044D02*
X93197152Y-128688663D01*
X93197152Y-128688663D02*
X93292390Y-128688663D01*
X93292390Y-128688663D02*
X93387628Y-128641044D01*
X93387628Y-128641044D02*
X93435247Y-128593424D01*
X93435247Y-128593424D02*
X93482866Y-128498186D01*
X93482866Y-128498186D02*
X93530485Y-128307710D01*
X93530485Y-128307710D02*
X93530485Y-128069615D01*
X93530485Y-128069615D02*
X93482866Y-127879139D01*
X93482866Y-127879139D02*
X93435247Y-127783901D01*
X93435247Y-127783901D02*
X93387628Y-127736282D01*
X93387628Y-127736282D02*
X93292390Y-127688663D01*
X92625723Y-127688663D02*
X92006676Y-127688663D01*
X92006676Y-127688663D02*
X92340009Y-128069615D01*
X92340009Y-128069615D02*
X92197152Y-128069615D01*
X92197152Y-128069615D02*
X92101914Y-128117234D01*
X92101914Y-128117234D02*
X92054295Y-128164853D01*
X92054295Y-128164853D02*
X92006676Y-128260091D01*
X92006676Y-128260091D02*
X92006676Y-128498186D01*
X92006676Y-128498186D02*
X92054295Y-128593424D01*
X92054295Y-128593424D02*
X92101914Y-128641044D01*
X92101914Y-128641044D02*
X92197152Y-128688663D01*
X92197152Y-128688663D02*
X92482866Y-128688663D01*
X92482866Y-128688663D02*
X92578104Y-128641044D01*
X92578104Y-128641044D02*
X92625723Y-128593424D01*
X91625723Y-127783901D02*
X91578104Y-127736282D01*
X91578104Y-127736282D02*
X91482866Y-127688663D01*
X91482866Y-127688663D02*
X91244771Y-127688663D01*
X91244771Y-127688663D02*
X91149533Y-127736282D01*
X91149533Y-127736282D02*
X91101914Y-127783901D01*
X91101914Y-127783901D02*
X91054295Y-127879139D01*
X91054295Y-127879139D02*
X91054295Y-127974377D01*
X91054295Y-127974377D02*
X91101914Y-128117234D01*
X91101914Y-128117234D02*
X91673342Y-128688663D01*
X91673342Y-128688663D02*
X91054295Y-128688663D01*
X89959056Y-127688663D02*
X89340009Y-127688663D01*
X89340009Y-127688663D02*
X89673342Y-128069615D01*
X89673342Y-128069615D02*
X89530485Y-128069615D01*
X89530485Y-128069615D02*
X89435247Y-128117234D01*
X89435247Y-128117234D02*
X89387628Y-128164853D01*
X89387628Y-128164853D02*
X89340009Y-128260091D01*
X89340009Y-128260091D02*
X89340009Y-128498186D01*
X89340009Y-128498186D02*
X89387628Y-128593424D01*
X89387628Y-128593424D02*
X89435247Y-128641044D01*
X89435247Y-128641044D02*
X89530485Y-128688663D01*
X89530485Y-128688663D02*
X89816199Y-128688663D01*
X89816199Y-128688663D02*
X89911437Y-128641044D01*
X89911437Y-128641044D02*
X89959056Y-128593424D01*
X89054294Y-127688663D02*
X88720961Y-128688663D01*
X88720961Y-128688663D02*
X88387628Y-127688663D01*
X96435247Y-129917710D02*
X95673343Y-129917710D01*
X96054295Y-130298663D02*
X96054295Y-129536758D01*
X94435247Y-129298663D02*
X94435247Y-130108186D01*
X94435247Y-130108186D02*
X94387628Y-130203424D01*
X94387628Y-130203424D02*
X94340009Y-130251044D01*
X94340009Y-130251044D02*
X94244771Y-130298663D01*
X94244771Y-130298663D02*
X94054295Y-130298663D01*
X94054295Y-130298663D02*
X93959057Y-130251044D01*
X93959057Y-130251044D02*
X93911438Y-130203424D01*
X93911438Y-130203424D02*
X93863819Y-130108186D01*
X93863819Y-130108186D02*
X93863819Y-129298663D01*
X93387628Y-130298663D02*
X93387628Y-129298663D01*
X93387628Y-129298663D02*
X93006676Y-129298663D01*
X93006676Y-129298663D02*
X92911438Y-129346282D01*
X92911438Y-129346282D02*
X92863819Y-129393901D01*
X92863819Y-129393901D02*
X92816200Y-129489139D01*
X92816200Y-129489139D02*
X92816200Y-129631996D01*
X92816200Y-129631996D02*
X92863819Y-129727234D01*
X92863819Y-129727234D02*
X92911438Y-129774853D01*
X92911438Y-129774853D02*
X93006676Y-129822472D01*
X93006676Y-129822472D02*
X93387628Y-129822472D01*
G36*
X132611594Y-125516267D02*
G01*
X132706583Y-125550841D01*
X132810961Y-125679572D01*
X132943874Y-125964601D01*
X132975395Y-126127312D01*
X132940823Y-126222297D01*
X132893575Y-126281835D01*
X132753678Y-126347069D01*
X132677704Y-126344994D01*
X132582714Y-126310421D01*
X132478337Y-126181692D01*
X132345423Y-125896661D01*
X132313902Y-125733951D01*
X132348474Y-125638964D01*
X132395723Y-125579426D01*
X132535619Y-125514192D01*
X132611594Y-125516267D01*
G37*
G36*
X133449570Y-126349013D02*
G01*
X130851981Y-127560289D01*
X130302892Y-126382763D01*
X130460516Y-126382763D01*
X130490530Y-126425628D01*
X130541076Y-126439172D01*
X130566739Y-126432296D01*
X130928981Y-126263379D01*
X131065568Y-126556290D01*
X130832798Y-126664831D01*
X130795796Y-126701834D01*
X130791234Y-126753964D01*
X130821249Y-126796829D01*
X130871795Y-126810373D01*
X130897458Y-126803497D01*
X131130228Y-126694955D01*
X131319269Y-127100354D01*
X131356272Y-127137356D01*
X131408402Y-127141917D01*
X131451267Y-127111903D01*
X131464811Y-127061357D01*
X131457935Y-127035694D01*
X131035317Y-126129386D01*
X131021261Y-126115330D01*
X131009862Y-126099051D01*
X131003194Y-126097264D01*
X130998314Y-126092384D01*
X130978514Y-126090651D01*
X130959317Y-126085508D01*
X130949570Y-126088119D01*
X130946184Y-126087823D01*
X130943399Y-126089772D01*
X130933653Y-126092384D01*
X130502079Y-126293630D01*
X130465077Y-126330633D01*
X130460516Y-126382763D01*
X130302892Y-126382763D01*
X130243954Y-126256371D01*
X130749740Y-126020519D01*
X131237351Y-126020519D01*
X131267365Y-126063384D01*
X131317911Y-126076928D01*
X131343574Y-126070052D01*
X131705816Y-125901135D01*
X131842403Y-126194044D01*
X131609634Y-126302588D01*
X131572632Y-126339590D01*
X131568071Y-126391720D01*
X131598085Y-126434585D01*
X131648631Y-126448129D01*
X131674294Y-126441252D01*
X131907063Y-126332709D01*
X132096106Y-126738111D01*
X132133108Y-126775113D01*
X132185238Y-126779674D01*
X132228103Y-126749659D01*
X132241647Y-126699114D01*
X132234771Y-126673450D01*
X131812152Y-125767142D01*
X131798096Y-125753086D01*
X131786697Y-125736807D01*
X131780029Y-125735020D01*
X131775149Y-125730140D01*
X131755349Y-125728407D01*
X131736152Y-125723264D01*
X131726405Y-125725875D01*
X131723019Y-125725579D01*
X131720234Y-125727528D01*
X131710488Y-125730140D01*
X131278914Y-125931386D01*
X131241912Y-125968389D01*
X131237351Y-126020519D01*
X130749740Y-126020519D01*
X131403465Y-125715682D01*
X132159219Y-125715682D01*
X132159665Y-125742247D01*
X132197006Y-125935003D01*
X132198826Y-125938036D01*
X132202778Y-125952783D01*
X132343651Y-126254885D01*
X132346151Y-126257385D01*
X132353562Y-126270735D01*
X132477218Y-126423242D01*
X132483691Y-126427126D01*
X132487466Y-126433663D01*
X132510475Y-126446948D01*
X132637038Y-126493012D01*
X132638706Y-126493012D01*
X132661114Y-126497597D01*
X132767554Y-126500505D01*
X132771891Y-126499059D01*
X132776310Y-126500243D01*
X132801973Y-126493367D01*
X132974603Y-126412869D01*
X132977838Y-126409633D01*
X132982318Y-126408717D01*
X133002197Y-126391090D01*
X133068387Y-126307683D01*
X133068915Y-126306098D01*
X133080349Y-126286294D01*
X133126416Y-126159728D01*
X133126415Y-126152178D01*
X133130079Y-126145580D01*
X133129633Y-126119015D01*
X133092292Y-125926261D01*
X133090472Y-125923229D01*
X133086521Y-125908480D01*
X132945648Y-125606377D01*
X132943146Y-125603875D01*
X132935736Y-125590526D01*
X132812080Y-125438021D01*
X132805607Y-125434137D01*
X132801833Y-125427600D01*
X132778824Y-125414316D01*
X132652259Y-125368250D01*
X132650592Y-125368250D01*
X132628184Y-125363665D01*
X132521744Y-125360757D01*
X132517406Y-125362202D01*
X132512988Y-125361019D01*
X132487324Y-125367896D01*
X132314695Y-125448395D01*
X132311461Y-125451628D01*
X132306981Y-125452545D01*
X132287102Y-125470172D01*
X132220911Y-125553579D01*
X132220382Y-125555163D01*
X132208947Y-125574970D01*
X132162882Y-125701534D01*
X132162882Y-125709083D01*
X132159219Y-125715682D01*
X131403465Y-125715682D01*
X132841543Y-125045095D01*
X133449570Y-126349013D01*
G37*
G36*
X128039594Y-115864267D02*
G01*
X128134583Y-115898841D01*
X128238961Y-116027572D01*
X128371874Y-116312601D01*
X128403395Y-116475312D01*
X128368823Y-116570297D01*
X128321575Y-116629835D01*
X128181678Y-116695069D01*
X128105704Y-116692994D01*
X128010714Y-116658421D01*
X127906337Y-116529692D01*
X127773423Y-116244661D01*
X127741902Y-116081951D01*
X127776474Y-115986964D01*
X127823723Y-115927426D01*
X127963619Y-115862192D01*
X128039594Y-115864267D01*
G37*
G36*
X128877570Y-116697013D02*
G01*
X126969447Y-117586786D01*
X126414004Y-116395635D01*
X126576720Y-116395635D01*
X126583596Y-116421298D01*
X127006216Y-117327607D01*
X127011217Y-117332608D01*
X127013079Y-117339433D01*
X127029276Y-117350667D01*
X127043218Y-117364609D01*
X127050265Y-117365225D01*
X127056078Y-117369257D01*
X127075706Y-117367451D01*
X127095348Y-117369170D01*
X127101143Y-117365111D01*
X127108187Y-117364464D01*
X127122063Y-117350463D01*
X127138213Y-117339155D01*
X127140044Y-117332321D01*
X127145023Y-117327298D01*
X127151786Y-117301604D01*
X127223228Y-116440879D01*
X127524106Y-117086111D01*
X127561108Y-117123113D01*
X127613238Y-117127674D01*
X127656103Y-117097659D01*
X127669647Y-117047114D01*
X127662771Y-117021450D01*
X127240152Y-116115142D01*
X127235149Y-116110139D01*
X127233288Y-116103315D01*
X127217088Y-116092078D01*
X127203149Y-116078140D01*
X127196102Y-116077523D01*
X127190289Y-116073491D01*
X127170654Y-116075296D01*
X127151019Y-116073579D01*
X127145224Y-116077636D01*
X127138180Y-116078284D01*
X127124302Y-116092285D01*
X127108154Y-116103593D01*
X127106322Y-116110426D01*
X127101344Y-116115450D01*
X127094581Y-116141144D01*
X127023138Y-117001868D01*
X126722262Y-116356638D01*
X126685259Y-116319636D01*
X126633129Y-116315075D01*
X126590264Y-116345089D01*
X126576720Y-116395635D01*
X126414004Y-116395635D01*
X126361420Y-116282868D01*
X126831466Y-116063682D01*
X127587219Y-116063682D01*
X127587665Y-116090247D01*
X127625006Y-116283003D01*
X127626826Y-116286036D01*
X127630778Y-116300783D01*
X127771651Y-116602885D01*
X127774151Y-116605385D01*
X127781562Y-116618735D01*
X127905218Y-116771242D01*
X127911691Y-116775126D01*
X127915466Y-116781663D01*
X127938475Y-116794948D01*
X128065038Y-116841012D01*
X128066706Y-116841012D01*
X128089114Y-116845597D01*
X128195554Y-116848505D01*
X128199891Y-116847059D01*
X128204310Y-116848243D01*
X128229973Y-116841367D01*
X128402603Y-116760869D01*
X128405838Y-116757633D01*
X128410318Y-116756717D01*
X128430197Y-116739090D01*
X128496387Y-116655683D01*
X128496915Y-116654098D01*
X128508349Y-116634294D01*
X128554416Y-116507728D01*
X128554415Y-116500178D01*
X128558079Y-116493580D01*
X128557633Y-116467015D01*
X128520292Y-116274261D01*
X128518472Y-116271229D01*
X128514521Y-116256480D01*
X128373648Y-115954377D01*
X128371146Y-115951875D01*
X128363736Y-115938526D01*
X128240080Y-115786021D01*
X128233607Y-115782137D01*
X128229833Y-115775600D01*
X128206824Y-115762316D01*
X128080259Y-115716250D01*
X128078592Y-115716250D01*
X128056184Y-115711665D01*
X127949744Y-115708757D01*
X127945406Y-115710202D01*
X127940988Y-115709019D01*
X127915324Y-115715896D01*
X127742695Y-115796395D01*
X127739461Y-115799628D01*
X127734981Y-115800545D01*
X127715102Y-115818172D01*
X127648911Y-115901579D01*
X127648382Y-115903163D01*
X127636947Y-115922970D01*
X127590882Y-116049534D01*
X127590882Y-116057083D01*
X127587219Y-116063682D01*
X126831466Y-116063682D01*
X128269544Y-115393096D01*
X128877570Y-116697013D01*
G37*
D11*
X95792476Y-88898295D02*
X96030571Y-88779247D01*
X96030571Y-88779247D02*
X96387714Y-88779247D01*
X96387714Y-88779247D02*
X96744857Y-88898295D01*
X96744857Y-88898295D02*
X96982952Y-89136390D01*
X96982952Y-89136390D02*
X97101999Y-89374485D01*
X97101999Y-89374485D02*
X97221047Y-89850676D01*
X97221047Y-89850676D02*
X97221047Y-90207819D01*
X97221047Y-90207819D02*
X97101999Y-90684009D01*
X97101999Y-90684009D02*
X96982952Y-90922104D01*
X96982952Y-90922104D02*
X96744857Y-91160200D01*
X96744857Y-91160200D02*
X96387714Y-91279247D01*
X96387714Y-91279247D02*
X96149618Y-91279247D01*
X96149618Y-91279247D02*
X95792476Y-91160200D01*
X95792476Y-91160200D02*
X95673428Y-91041152D01*
X95673428Y-91041152D02*
X95673428Y-90207819D01*
X95673428Y-90207819D02*
X96149618Y-90207819D01*
X94244857Y-91279247D02*
X94482952Y-91160200D01*
X94482952Y-91160200D02*
X94601999Y-90922104D01*
X94601999Y-90922104D02*
X94601999Y-88779247D01*
X93292475Y-89731628D02*
X93054380Y-89612580D01*
X93054380Y-89612580D02*
X92578190Y-89612580D01*
X92578190Y-89612580D02*
X92340094Y-89731628D01*
X92340094Y-89731628D02*
X92221047Y-89969723D01*
X91149618Y-91160200D02*
X91387714Y-91279247D01*
X91387714Y-91279247D02*
X91863904Y-91279247D01*
X91863904Y-91279247D02*
X92101999Y-91160200D01*
X92101999Y-91160200D02*
X92221047Y-90922104D01*
X92221047Y-90922104D02*
X92221047Y-89969723D01*
X92221047Y-89969723D02*
X92101999Y-89731628D01*
X92101999Y-89731628D02*
X91863904Y-89612580D01*
X91863904Y-89612580D02*
X91387714Y-89612580D01*
X91387714Y-89612580D02*
X91149618Y-89731628D01*
X91149618Y-89731628D02*
X91030571Y-89969723D01*
X91030571Y-89969723D02*
X91030571Y-90207819D01*
X91030571Y-90207819D02*
X92221047Y-90326866D01*
X92221047Y-90326866D02*
X93054380Y-90326866D01*
X93054380Y-90326866D02*
X93292475Y-90445914D01*
X93292475Y-90445914D02*
X93411523Y-90684009D01*
X93411523Y-90684009D02*
X93411523Y-90922104D01*
X93411523Y-90922104D02*
X93292475Y-91160200D01*
X93292475Y-91160200D02*
X93054380Y-91279247D01*
X93054380Y-91279247D02*
X92578190Y-91279247D01*
X92578190Y-91279247D02*
X92340094Y-91160200D01*
X92340094Y-91160200D02*
X92221047Y-90922104D01*
X88887714Y-91279247D02*
X88887714Y-88779247D01*
X88887714Y-91160200D02*
X89125809Y-91279247D01*
X89125809Y-91279247D02*
X89602000Y-91279247D01*
X89602000Y-91279247D02*
X89840095Y-91160200D01*
X89840095Y-91160200D02*
X89959142Y-91041152D01*
X89959142Y-91041152D02*
X90078190Y-90803057D01*
X90078190Y-90803057D02*
X90078190Y-90088771D01*
X90078190Y-90088771D02*
X89959142Y-89850676D01*
X89959142Y-89850676D02*
X89840095Y-89731628D01*
X89840095Y-89731628D02*
X89602000Y-89612580D01*
X89602000Y-89612580D02*
X89125809Y-89612580D01*
X89125809Y-89612580D02*
X88887714Y-89731628D01*
X86744856Y-91160200D02*
X86982952Y-91279247D01*
X86982952Y-91279247D02*
X87459142Y-91279247D01*
X87459142Y-91279247D02*
X87697237Y-91160200D01*
X87697237Y-91160200D02*
X87816285Y-90922104D01*
X87816285Y-90922104D02*
X87816285Y-89969723D01*
X87816285Y-89969723D02*
X87697237Y-89731628D01*
X87697237Y-89731628D02*
X87459142Y-89612580D01*
X87459142Y-89612580D02*
X86982952Y-89612580D01*
X86982952Y-89612580D02*
X86744856Y-89731628D01*
X86744856Y-89731628D02*
X86625809Y-89969723D01*
X86625809Y-89969723D02*
X86625809Y-90207819D01*
X86625809Y-90207819D02*
X87816285Y-90445914D01*
X85197238Y-91279247D02*
X85435333Y-91160200D01*
X85435333Y-91160200D02*
X85554380Y-90922104D01*
X85554380Y-90922104D02*
X85554380Y-88779247D01*
X84244856Y-91279247D02*
X84244856Y-89612580D01*
X84244856Y-88779247D02*
X84363904Y-88898295D01*
X84363904Y-88898295D02*
X84244856Y-89017342D01*
X84244856Y-89017342D02*
X84125809Y-88898295D01*
X84125809Y-88898295D02*
X84244856Y-88779247D01*
X84244856Y-88779247D02*
X84244856Y-89017342D01*
X81982952Y-89612580D02*
X81982952Y-91636390D01*
X81982952Y-91636390D02*
X82101999Y-91874485D01*
X82101999Y-91874485D02*
X82221047Y-91993533D01*
X82221047Y-91993533D02*
X82459142Y-92112580D01*
X82459142Y-92112580D02*
X82816285Y-92112580D01*
X82816285Y-92112580D02*
X83054380Y-91993533D01*
X81982952Y-91160200D02*
X82221047Y-91279247D01*
X82221047Y-91279247D02*
X82697238Y-91279247D01*
X82697238Y-91279247D02*
X82935333Y-91160200D01*
X82935333Y-91160200D02*
X83054380Y-91041152D01*
X83054380Y-91041152D02*
X83173428Y-90803057D01*
X83173428Y-90803057D02*
X83173428Y-90088771D01*
X83173428Y-90088771D02*
X83054380Y-89850676D01*
X83054380Y-89850676D02*
X82935333Y-89731628D01*
X82935333Y-89731628D02*
X82697238Y-89612580D01*
X82697238Y-89612580D02*
X82221047Y-89612580D01*
X82221047Y-89612580D02*
X81982952Y-89731628D01*
X78173428Y-88779247D02*
X78173428Y-90564961D01*
X78173428Y-90564961D02*
X78292475Y-90922104D01*
X78292475Y-90922104D02*
X78530571Y-91160200D01*
X78530571Y-91160200D02*
X78887713Y-91279247D01*
X78887713Y-91279247D02*
X79125809Y-91279247D01*
X75911523Y-89612580D02*
X75911523Y-91279247D01*
X76982951Y-89612580D02*
X76982951Y-90922104D01*
X76982951Y-90922104D02*
X76863904Y-91160200D01*
X76863904Y-91160200D02*
X76625809Y-91279247D01*
X76625809Y-91279247D02*
X76268666Y-91279247D01*
X76268666Y-91279247D02*
X76030570Y-91160200D01*
X76030570Y-91160200D02*
X75911523Y-91041152D01*
X74363904Y-91279247D02*
X74601999Y-91160200D01*
X74601999Y-91160200D02*
X74721046Y-90922104D01*
X74721046Y-90922104D02*
X74721046Y-88779247D01*
X90137713Y-93042342D02*
X90018665Y-92923295D01*
X90018665Y-92923295D02*
X89780570Y-92804247D01*
X89780570Y-92804247D02*
X89185332Y-92804247D01*
X89185332Y-92804247D02*
X88947237Y-92923295D01*
X88947237Y-92923295D02*
X88828189Y-93042342D01*
X88828189Y-93042342D02*
X88709142Y-93280438D01*
X88709142Y-93280438D02*
X88709142Y-93518533D01*
X88709142Y-93518533D02*
X88828189Y-93875676D01*
X88828189Y-93875676D02*
X90256761Y-95304247D01*
X90256761Y-95304247D02*
X88709142Y-95304247D01*
X87161523Y-92804247D02*
X86923428Y-92804247D01*
X86923428Y-92804247D02*
X86685332Y-92923295D01*
X86685332Y-92923295D02*
X86566285Y-93042342D01*
X86566285Y-93042342D02*
X86447237Y-93280438D01*
X86447237Y-93280438D02*
X86328190Y-93756628D01*
X86328190Y-93756628D02*
X86328190Y-94351866D01*
X86328190Y-94351866D02*
X86447237Y-94828057D01*
X86447237Y-94828057D02*
X86566285Y-95066152D01*
X86566285Y-95066152D02*
X86685332Y-95185200D01*
X86685332Y-95185200D02*
X86923428Y-95304247D01*
X86923428Y-95304247D02*
X87161523Y-95304247D01*
X87161523Y-95304247D02*
X87399618Y-95185200D01*
X87399618Y-95185200D02*
X87518666Y-95066152D01*
X87518666Y-95066152D02*
X87637713Y-94828057D01*
X87637713Y-94828057D02*
X87756761Y-94351866D01*
X87756761Y-94351866D02*
X87756761Y-93756628D01*
X87756761Y-93756628D02*
X87637713Y-93280438D01*
X87637713Y-93280438D02*
X87518666Y-93042342D01*
X87518666Y-93042342D02*
X87399618Y-92923295D01*
X87399618Y-92923295D02*
X87161523Y-92804247D01*
X85375809Y-93042342D02*
X85256761Y-92923295D01*
X85256761Y-92923295D02*
X85018666Y-92804247D01*
X85018666Y-92804247D02*
X84423428Y-92804247D01*
X84423428Y-92804247D02*
X84185333Y-92923295D01*
X84185333Y-92923295D02*
X84066285Y-93042342D01*
X84066285Y-93042342D02*
X83947238Y-93280438D01*
X83947238Y-93280438D02*
X83947238Y-93518533D01*
X83947238Y-93518533D02*
X84066285Y-93875676D01*
X84066285Y-93875676D02*
X85494857Y-95304247D01*
X85494857Y-95304247D02*
X83947238Y-95304247D01*
X83113905Y-92804247D02*
X81566286Y-92804247D01*
X81566286Y-92804247D02*
X82399619Y-93756628D01*
X82399619Y-93756628D02*
X82042476Y-93756628D01*
X82042476Y-93756628D02*
X81804381Y-93875676D01*
X81804381Y-93875676D02*
X81685333Y-93994723D01*
X81685333Y-93994723D02*
X81566286Y-94232819D01*
X81566286Y-94232819D02*
X81566286Y-94828057D01*
X81566286Y-94828057D02*
X81685333Y-95066152D01*
X81685333Y-95066152D02*
X81804381Y-95185200D01*
X81804381Y-95185200D02*
X82042476Y-95304247D01*
X82042476Y-95304247D02*
X82756762Y-95304247D01*
X82756762Y-95304247D02*
X82994857Y-95185200D01*
X82994857Y-95185200D02*
X83113905Y-95066152D01*
D10*
X73956247Y-129282663D02*
X73956247Y-128282663D01*
X73956247Y-128282663D02*
X73718152Y-128282663D01*
X73718152Y-128282663D02*
X73575295Y-128330282D01*
X73575295Y-128330282D02*
X73480057Y-128425520D01*
X73480057Y-128425520D02*
X73432438Y-128520758D01*
X73432438Y-128520758D02*
X73384819Y-128711234D01*
X73384819Y-128711234D02*
X73384819Y-128854091D01*
X73384819Y-128854091D02*
X73432438Y-129044567D01*
X73432438Y-129044567D02*
X73480057Y-129139805D01*
X73480057Y-129139805D02*
X73575295Y-129235044D01*
X73575295Y-129235044D02*
X73718152Y-129282663D01*
X73718152Y-129282663D02*
X73956247Y-129282663D01*
X72384819Y-129282663D02*
X72718152Y-128806472D01*
X72956247Y-129282663D02*
X72956247Y-128282663D01*
X72956247Y-128282663D02*
X72575295Y-128282663D01*
X72575295Y-128282663D02*
X72480057Y-128330282D01*
X72480057Y-128330282D02*
X72432438Y-128377901D01*
X72432438Y-128377901D02*
X72384819Y-128473139D01*
X72384819Y-128473139D02*
X72384819Y-128615996D01*
X72384819Y-128615996D02*
X72432438Y-128711234D01*
X72432438Y-128711234D02*
X72480057Y-128758853D01*
X72480057Y-128758853D02*
X72575295Y-128806472D01*
X72575295Y-128806472D02*
X72956247Y-128806472D01*
X70622914Y-129282663D02*
X70956247Y-128806472D01*
X71194342Y-129282663D02*
X71194342Y-128282663D01*
X71194342Y-128282663D02*
X70813390Y-128282663D01*
X70813390Y-128282663D02*
X70718152Y-128330282D01*
X70718152Y-128330282D02*
X70670533Y-128377901D01*
X70670533Y-128377901D02*
X70622914Y-128473139D01*
X70622914Y-128473139D02*
X70622914Y-128615996D01*
X70622914Y-128615996D02*
X70670533Y-128711234D01*
X70670533Y-128711234D02*
X70718152Y-128758853D01*
X70718152Y-128758853D02*
X70813390Y-128806472D01*
X70813390Y-128806472D02*
X71194342Y-128806472D01*
X70194342Y-128758853D02*
X69861009Y-128758853D01*
X69718152Y-129282663D02*
X70194342Y-129282663D01*
X70194342Y-129282663D02*
X70194342Y-128282663D01*
X70194342Y-128282663D02*
X69718152Y-128282663D01*
X69432437Y-128282663D02*
X69099104Y-129282663D01*
X69099104Y-129282663D02*
X68765771Y-128282663D01*
X67146723Y-129282663D02*
X67718151Y-129282663D01*
X67432437Y-129282663D02*
X67432437Y-128282663D01*
X67432437Y-128282663D02*
X67527675Y-128425520D01*
X67527675Y-128425520D02*
X67622913Y-128520758D01*
X67622913Y-128520758D02*
X67718151Y-128568377D01*
X66718151Y-129187424D02*
X66670532Y-129235044D01*
X66670532Y-129235044D02*
X66718151Y-129282663D01*
X66718151Y-129282663D02*
X66765770Y-129235044D01*
X66765770Y-129235044D02*
X66718151Y-129187424D01*
X66718151Y-129187424D02*
X66718151Y-129282663D01*
X66051485Y-128282663D02*
X65956247Y-128282663D01*
X65956247Y-128282663D02*
X65861009Y-128330282D01*
X65861009Y-128330282D02*
X65813390Y-128377901D01*
X65813390Y-128377901D02*
X65765771Y-128473139D01*
X65765771Y-128473139D02*
X65718152Y-128663615D01*
X65718152Y-128663615D02*
X65718152Y-128901710D01*
X65718152Y-128901710D02*
X65765771Y-129092186D01*
X65765771Y-129092186D02*
X65813390Y-129187424D01*
X65813390Y-129187424D02*
X65861009Y-129235044D01*
X65861009Y-129235044D02*
X65956247Y-129282663D01*
X65956247Y-129282663D02*
X66051485Y-129282663D01*
X66051485Y-129282663D02*
X66146723Y-129235044D01*
X66146723Y-129235044D02*
X66194342Y-129187424D01*
X66194342Y-129187424D02*
X66241961Y-129092186D01*
X66241961Y-129092186D02*
X66289580Y-128901710D01*
X66289580Y-128901710D02*
X66289580Y-128663615D01*
X66289580Y-128663615D02*
X66241961Y-128473139D01*
X66241961Y-128473139D02*
X66194342Y-128377901D01*
X66194342Y-128377901D02*
X66146723Y-128330282D01*
X66146723Y-128330282D02*
X66051485Y-128282663D01*
X64099104Y-128615996D02*
X64099104Y-129282663D01*
X64337199Y-128235044D02*
X64575294Y-128949329D01*
X64575294Y-128949329D02*
X63956247Y-128949329D01*
X63099104Y-128282663D02*
X63575294Y-128282663D01*
X63575294Y-128282663D02*
X63622913Y-128758853D01*
X63622913Y-128758853D02*
X63575294Y-128711234D01*
X63575294Y-128711234D02*
X63480056Y-128663615D01*
X63480056Y-128663615D02*
X63241961Y-128663615D01*
X63241961Y-128663615D02*
X63146723Y-128711234D01*
X63146723Y-128711234D02*
X63099104Y-128758853D01*
X63099104Y-128758853D02*
X63051485Y-128854091D01*
X63051485Y-128854091D02*
X63051485Y-129092186D01*
X63051485Y-129092186D02*
X63099104Y-129187424D01*
X63099104Y-129187424D02*
X63146723Y-129235044D01*
X63146723Y-129235044D02*
X63241961Y-129282663D01*
X63241961Y-129282663D02*
X63480056Y-129282663D01*
X63480056Y-129282663D02*
X63575294Y-129235044D01*
X63575294Y-129235044D02*
X63622913Y-129187424D01*
X61908628Y-128235044D02*
X62765770Y-129520758D01*
X61622913Y-128377901D02*
X61575294Y-128330282D01*
X61575294Y-128330282D02*
X61480056Y-128282663D01*
X61480056Y-128282663D02*
X61241961Y-128282663D01*
X61241961Y-128282663D02*
X61146723Y-128330282D01*
X61146723Y-128330282D02*
X61099104Y-128377901D01*
X61099104Y-128377901D02*
X61051485Y-128473139D01*
X61051485Y-128473139D02*
X61051485Y-128568377D01*
X61051485Y-128568377D02*
X61099104Y-128711234D01*
X61099104Y-128711234D02*
X61670532Y-129282663D01*
X61670532Y-129282663D02*
X61051485Y-129282663D01*
X60718151Y-128282663D02*
X60099104Y-128282663D01*
X60099104Y-128282663D02*
X60432437Y-128663615D01*
X60432437Y-128663615D02*
X60289580Y-128663615D01*
X60289580Y-128663615D02*
X60194342Y-128711234D01*
X60194342Y-128711234D02*
X60146723Y-128758853D01*
X60146723Y-128758853D02*
X60099104Y-128854091D01*
X60099104Y-128854091D02*
X60099104Y-129092186D01*
X60099104Y-129092186D02*
X60146723Y-129187424D01*
X60146723Y-129187424D02*
X60194342Y-129235044D01*
X60194342Y-129235044D02*
X60289580Y-129282663D01*
X60289580Y-129282663D02*
X60575294Y-129282663D01*
X60575294Y-129282663D02*
X60670532Y-129235044D01*
X60670532Y-129235044D02*
X60718151Y-129187424D01*
X73595809Y-127454663D02*
X73595809Y-126454663D01*
X73595809Y-127407044D02*
X73691047Y-127454663D01*
X73691047Y-127454663D02*
X73881523Y-127454663D01*
X73881523Y-127454663D02*
X73976761Y-127407044D01*
X73976761Y-127407044D02*
X74024380Y-127359424D01*
X74024380Y-127359424D02*
X74071999Y-127264186D01*
X74071999Y-127264186D02*
X74071999Y-126978472D01*
X74071999Y-126978472D02*
X74024380Y-126883234D01*
X74024380Y-126883234D02*
X73976761Y-126835615D01*
X73976761Y-126835615D02*
X73881523Y-126787996D01*
X73881523Y-126787996D02*
X73691047Y-126787996D01*
X73691047Y-126787996D02*
X73595809Y-126835615D01*
X72691047Y-127454663D02*
X72691047Y-126930853D01*
X72691047Y-126930853D02*
X72738666Y-126835615D01*
X72738666Y-126835615D02*
X72833904Y-126787996D01*
X72833904Y-126787996D02*
X73024380Y-126787996D01*
X73024380Y-126787996D02*
X73119618Y-126835615D01*
X72691047Y-127407044D02*
X72786285Y-127454663D01*
X72786285Y-127454663D02*
X73024380Y-127454663D01*
X73024380Y-127454663D02*
X73119618Y-127407044D01*
X73119618Y-127407044D02*
X73167237Y-127311805D01*
X73167237Y-127311805D02*
X73167237Y-127216567D01*
X73167237Y-127216567D02*
X73119618Y-127121329D01*
X73119618Y-127121329D02*
X73024380Y-127073710D01*
X73024380Y-127073710D02*
X72786285Y-127073710D01*
X72786285Y-127073710D02*
X72691047Y-127026091D01*
X72214856Y-126787996D02*
X72214856Y-127454663D01*
X72214856Y-126883234D02*
X72167237Y-126835615D01*
X72167237Y-126835615D02*
X72071999Y-126787996D01*
X72071999Y-126787996D02*
X71929142Y-126787996D01*
X71929142Y-126787996D02*
X71833904Y-126835615D01*
X71833904Y-126835615D02*
X71786285Y-126930853D01*
X71786285Y-126930853D02*
X71786285Y-127454663D01*
X71310094Y-126787996D02*
X71310094Y-127454663D01*
X71310094Y-126883234D02*
X71262475Y-126835615D01*
X71262475Y-126835615D02*
X71167237Y-126787996D01*
X71167237Y-126787996D02*
X71024380Y-126787996D01*
X71024380Y-126787996D02*
X70929142Y-126835615D01*
X70929142Y-126835615D02*
X70881523Y-126930853D01*
X70881523Y-126930853D02*
X70881523Y-127454663D01*
X70405332Y-127454663D02*
X70405332Y-126787996D01*
X70405332Y-126454663D02*
X70452951Y-126502282D01*
X70452951Y-126502282D02*
X70405332Y-126549901D01*
X70405332Y-126549901D02*
X70357713Y-126502282D01*
X70357713Y-126502282D02*
X70405332Y-126454663D01*
X70405332Y-126454663D02*
X70405332Y-126549901D01*
X69929142Y-127454663D02*
X69929142Y-126787996D01*
X69929142Y-126978472D02*
X69881523Y-126883234D01*
X69881523Y-126883234D02*
X69833904Y-126835615D01*
X69833904Y-126835615D02*
X69738666Y-126787996D01*
X69738666Y-126787996D02*
X69643428Y-126787996D01*
X68881523Y-127454663D02*
X68881523Y-126930853D01*
X68881523Y-126930853D02*
X68929142Y-126835615D01*
X68929142Y-126835615D02*
X69024380Y-126787996D01*
X69024380Y-126787996D02*
X69214856Y-126787996D01*
X69214856Y-126787996D02*
X69310094Y-126835615D01*
X68881523Y-127407044D02*
X68976761Y-127454663D01*
X68976761Y-127454663D02*
X69214856Y-127454663D01*
X69214856Y-127454663D02*
X69310094Y-127407044D01*
X69310094Y-127407044D02*
X69357713Y-127311805D01*
X69357713Y-127311805D02*
X69357713Y-127216567D01*
X69357713Y-127216567D02*
X69310094Y-127121329D01*
X69310094Y-127121329D02*
X69214856Y-127073710D01*
X69214856Y-127073710D02*
X68976761Y-127073710D01*
X68976761Y-127073710D02*
X68881523Y-127026091D01*
X68405332Y-126787996D02*
X68405332Y-127454663D01*
X68405332Y-126883234D02*
X68357713Y-126835615D01*
X68357713Y-126835615D02*
X68262475Y-126787996D01*
X68262475Y-126787996D02*
X68119618Y-126787996D01*
X68119618Y-126787996D02*
X68024380Y-126835615D01*
X68024380Y-126835615D02*
X67976761Y-126930853D01*
X67976761Y-126930853D02*
X67976761Y-127454663D01*
X67071999Y-127454663D02*
X67071999Y-126454663D01*
X67071999Y-127407044D02*
X67167237Y-127454663D01*
X67167237Y-127454663D02*
X67357713Y-127454663D01*
X67357713Y-127454663D02*
X67452951Y-127407044D01*
X67452951Y-127407044D02*
X67500570Y-127359424D01*
X67500570Y-127359424D02*
X67548189Y-127264186D01*
X67548189Y-127264186D02*
X67548189Y-126978472D01*
X67548189Y-126978472D02*
X67500570Y-126883234D01*
X67500570Y-126883234D02*
X67452951Y-126835615D01*
X67452951Y-126835615D02*
X67357713Y-126787996D01*
X67357713Y-126787996D02*
X67167237Y-126787996D01*
X67167237Y-126787996D02*
X67071999Y-126835615D01*
X66214856Y-127407044D02*
X66310094Y-127454663D01*
X66310094Y-127454663D02*
X66500570Y-127454663D01*
X66500570Y-127454663D02*
X66595808Y-127407044D01*
X66595808Y-127407044D02*
X66643427Y-127311805D01*
X66643427Y-127311805D02*
X66643427Y-126930853D01*
X66643427Y-126930853D02*
X66595808Y-126835615D01*
X66595808Y-126835615D02*
X66500570Y-126787996D01*
X66500570Y-126787996D02*
X66310094Y-126787996D01*
X66310094Y-126787996D02*
X66214856Y-126835615D01*
X66214856Y-126835615D02*
X66167237Y-126930853D01*
X66167237Y-126930853D02*
X66167237Y-127026091D01*
X66167237Y-127026091D02*
X66643427Y-127121329D01*
X65738665Y-127454663D02*
X65738665Y-126787996D01*
X65738665Y-126978472D02*
X65691046Y-126883234D01*
X65691046Y-126883234D02*
X65643427Y-126835615D01*
X65643427Y-126835615D02*
X65548189Y-126787996D01*
X65548189Y-126787996D02*
X65452951Y-126787996D01*
X65119617Y-127454663D02*
X65119617Y-126787996D01*
X65119617Y-126454663D02*
X65167236Y-126502282D01*
X65167236Y-126502282D02*
X65119617Y-126549901D01*
X65119617Y-126549901D02*
X65071998Y-126502282D01*
X65071998Y-126502282D02*
X65119617Y-126454663D01*
X65119617Y-126454663D02*
X65119617Y-126549901D01*
X64691046Y-127407044D02*
X64595808Y-127454663D01*
X64595808Y-127454663D02*
X64405332Y-127454663D01*
X64405332Y-127454663D02*
X64310094Y-127407044D01*
X64310094Y-127407044D02*
X64262475Y-127311805D01*
X64262475Y-127311805D02*
X64262475Y-127264186D01*
X64262475Y-127264186D02*
X64310094Y-127168948D01*
X64310094Y-127168948D02*
X64405332Y-127121329D01*
X64405332Y-127121329D02*
X64548189Y-127121329D01*
X64548189Y-127121329D02*
X64643427Y-127073710D01*
X64643427Y-127073710D02*
X64691046Y-126978472D01*
X64691046Y-126978472D02*
X64691046Y-126930853D01*
X64691046Y-126930853D02*
X64643427Y-126835615D01*
X64643427Y-126835615D02*
X64548189Y-126787996D01*
X64548189Y-126787996D02*
X64405332Y-126787996D01*
X64405332Y-126787996D02*
X64310094Y-126835615D01*
X63833903Y-127359424D02*
X63786284Y-127407044D01*
X63786284Y-127407044D02*
X63833903Y-127454663D01*
X63833903Y-127454663D02*
X63881522Y-127407044D01*
X63881522Y-127407044D02*
X63833903Y-127359424D01*
X63833903Y-127359424D02*
X63833903Y-127454663D01*
X62929142Y-127454663D02*
X62929142Y-126454663D01*
X62929142Y-127407044D02*
X63024380Y-127454663D01*
X63024380Y-127454663D02*
X63214856Y-127454663D01*
X63214856Y-127454663D02*
X63310094Y-127407044D01*
X63310094Y-127407044D02*
X63357713Y-127359424D01*
X63357713Y-127359424D02*
X63405332Y-127264186D01*
X63405332Y-127264186D02*
X63405332Y-126978472D01*
X63405332Y-126978472D02*
X63357713Y-126883234D01*
X63357713Y-126883234D02*
X63310094Y-126835615D01*
X63310094Y-126835615D02*
X63214856Y-126787996D01*
X63214856Y-126787996D02*
X63024380Y-126787996D01*
X63024380Y-126787996D02*
X62929142Y-126835615D01*
X62452951Y-127454663D02*
X62452951Y-126454663D01*
X62357713Y-127073710D02*
X62071999Y-127454663D01*
X62071999Y-126787996D02*
X62452951Y-127168948D01*
X114720666Y-128121424D02*
X114768285Y-128169044D01*
X114768285Y-128169044D02*
X114911142Y-128216663D01*
X114911142Y-128216663D02*
X115006380Y-128216663D01*
X115006380Y-128216663D02*
X115149237Y-128169044D01*
X115149237Y-128169044D02*
X115244475Y-128073805D01*
X115244475Y-128073805D02*
X115292094Y-127978567D01*
X115292094Y-127978567D02*
X115339713Y-127788091D01*
X115339713Y-127788091D02*
X115339713Y-127645234D01*
X115339713Y-127645234D02*
X115292094Y-127454758D01*
X115292094Y-127454758D02*
X115244475Y-127359520D01*
X115244475Y-127359520D02*
X115149237Y-127264282D01*
X115149237Y-127264282D02*
X115006380Y-127216663D01*
X115006380Y-127216663D02*
X114911142Y-127216663D01*
X114911142Y-127216663D02*
X114768285Y-127264282D01*
X114768285Y-127264282D02*
X114720666Y-127311901D01*
X113768285Y-128216663D02*
X114339713Y-128216663D01*
X114053999Y-128216663D02*
X114053999Y-127216663D01*
X114053999Y-127216663D02*
X114149237Y-127359520D01*
X114149237Y-127359520D02*
X114244475Y-127454758D01*
X114244475Y-127454758D02*
X114339713Y-127502377D01*
X103773064Y-101466926D02*
X103672048Y-100894506D01*
X104177125Y-101062865D02*
X103470018Y-100355758D01*
X103470018Y-100355758D02*
X103200644Y-100625132D01*
X103200644Y-100625132D02*
X103166972Y-100726148D01*
X103166972Y-100726148D02*
X103166972Y-100793491D01*
X103166972Y-100793491D02*
X103200644Y-100894506D01*
X103200644Y-100894506D02*
X103301659Y-100995522D01*
X103301659Y-100995522D02*
X103402674Y-101029193D01*
X103402674Y-101029193D02*
X103470018Y-101029193D01*
X103470018Y-101029193D02*
X103571033Y-100995522D01*
X103571033Y-100995522D02*
X103840407Y-100726148D01*
X103099628Y-102140361D02*
X103503689Y-101736300D01*
X103301659Y-101938331D02*
X102594552Y-101231224D01*
X102594552Y-101231224D02*
X102762911Y-101264896D01*
X102762911Y-101264896D02*
X102897598Y-101264896D01*
X102897598Y-101264896D02*
X102998613Y-101231224D01*
X101752758Y-102073018D02*
X102089476Y-101736300D01*
X102089476Y-101736300D02*
X102459865Y-102039346D01*
X102459865Y-102039346D02*
X102392522Y-102039346D01*
X102392522Y-102039346D02*
X102291506Y-102073018D01*
X102291506Y-102073018D02*
X102123148Y-102241376D01*
X102123148Y-102241376D02*
X102089476Y-102342392D01*
X102089476Y-102342392D02*
X102089476Y-102409735D01*
X102089476Y-102409735D02*
X102123148Y-102510750D01*
X102123148Y-102510750D02*
X102291506Y-102679109D01*
X102291506Y-102679109D02*
X102392522Y-102712781D01*
X102392522Y-102712781D02*
X102459865Y-102712781D01*
X102459865Y-102712781D02*
X102560880Y-102679109D01*
X102560880Y-102679109D02*
X102729239Y-102510750D01*
X102729239Y-102510750D02*
X102762911Y-102409735D01*
X102762911Y-102409735D02*
X102762911Y-102342392D01*
X123610666Y-119834663D02*
X123943999Y-119358472D01*
X124182094Y-119834663D02*
X124182094Y-118834663D01*
X124182094Y-118834663D02*
X123801142Y-118834663D01*
X123801142Y-118834663D02*
X123705904Y-118882282D01*
X123705904Y-118882282D02*
X123658285Y-118929901D01*
X123658285Y-118929901D02*
X123610666Y-119025139D01*
X123610666Y-119025139D02*
X123610666Y-119167996D01*
X123610666Y-119167996D02*
X123658285Y-119263234D01*
X123658285Y-119263234D02*
X123705904Y-119310853D01*
X123705904Y-119310853D02*
X123801142Y-119358472D01*
X123801142Y-119358472D02*
X124182094Y-119358472D01*
X123277332Y-118834663D02*
X122658285Y-118834663D01*
X122658285Y-118834663D02*
X122991618Y-119215615D01*
X122991618Y-119215615D02*
X122848761Y-119215615D01*
X122848761Y-119215615D02*
X122753523Y-119263234D01*
X122753523Y-119263234D02*
X122705904Y-119310853D01*
X122705904Y-119310853D02*
X122658285Y-119406091D01*
X122658285Y-119406091D02*
X122658285Y-119644186D01*
X122658285Y-119644186D02*
X122705904Y-119739424D01*
X122705904Y-119739424D02*
X122753523Y-119787044D01*
X122753523Y-119787044D02*
X122848761Y-119834663D01*
X122848761Y-119834663D02*
X123134475Y-119834663D01*
X123134475Y-119834663D02*
X123229713Y-119787044D01*
X123229713Y-119787044D02*
X123277332Y-119739424D01*
X72960445Y-103022093D02*
X72859429Y-102449673D01*
X73364506Y-102618032D02*
X72657399Y-101910925D01*
X72657399Y-101910925D02*
X72388025Y-102180299D01*
X72388025Y-102180299D02*
X72354353Y-102281315D01*
X72354353Y-102281315D02*
X72354353Y-102348658D01*
X72354353Y-102348658D02*
X72388025Y-102449673D01*
X72388025Y-102449673D02*
X72489040Y-102550689D01*
X72489040Y-102550689D02*
X72590055Y-102584360D01*
X72590055Y-102584360D02*
X72657399Y-102584360D01*
X72657399Y-102584360D02*
X72758414Y-102550689D01*
X72758414Y-102550689D02*
X73027788Y-102281315D01*
X72287009Y-103695528D02*
X72691070Y-103291467D01*
X72489040Y-103493498D02*
X71781933Y-102786391D01*
X71781933Y-102786391D02*
X71950292Y-102820063D01*
X71950292Y-102820063D02*
X72084979Y-102820063D01*
X72084979Y-102820063D02*
X72185994Y-102786391D01*
X71142170Y-103426154D02*
X71074826Y-103493498D01*
X71074826Y-103493498D02*
X71041155Y-103594513D01*
X71041155Y-103594513D02*
X71041155Y-103661856D01*
X71041155Y-103661856D02*
X71074826Y-103762872D01*
X71074826Y-103762872D02*
X71175842Y-103931230D01*
X71175842Y-103931230D02*
X71344200Y-104099589D01*
X71344200Y-104099589D02*
X71512559Y-104200604D01*
X71512559Y-104200604D02*
X71613574Y-104234276D01*
X71613574Y-104234276D02*
X71680918Y-104234276D01*
X71680918Y-104234276D02*
X71781933Y-104200604D01*
X71781933Y-104200604D02*
X71849277Y-104133261D01*
X71849277Y-104133261D02*
X71882948Y-104032246D01*
X71882948Y-104032246D02*
X71882948Y-103964902D01*
X71882948Y-103964902D02*
X71849277Y-103863887D01*
X71849277Y-103863887D02*
X71748261Y-103695528D01*
X71748261Y-103695528D02*
X71579903Y-103527169D01*
X71579903Y-103527169D02*
X71411544Y-103426154D01*
X71411544Y-103426154D02*
X71310529Y-103392482D01*
X71310529Y-103392482D02*
X71243185Y-103392482D01*
X71243185Y-103392482D02*
X71142170Y-103426154D01*
X82258513Y-64768025D02*
X82157497Y-64195605D01*
X82662574Y-64363964D02*
X81955467Y-63656857D01*
X81955467Y-63656857D02*
X81686093Y-63926231D01*
X81686093Y-63926231D02*
X81652421Y-64027246D01*
X81652421Y-64027246D02*
X81652421Y-64094590D01*
X81652421Y-64094590D02*
X81686093Y-64195605D01*
X81686093Y-64195605D02*
X81787108Y-64296621D01*
X81787108Y-64296621D02*
X81888123Y-64330292D01*
X81888123Y-64330292D02*
X81955467Y-64330292D01*
X81955467Y-64330292D02*
X82056482Y-64296621D01*
X82056482Y-64296621D02*
X82325856Y-64027246D01*
X81181017Y-64902712D02*
X81652421Y-65374117D01*
X81080001Y-64464979D02*
X81753436Y-64801697D01*
X81753436Y-64801697D02*
X81315704Y-65239430D01*
X97244513Y-84834025D02*
X97143497Y-84261605D01*
X97648574Y-84429964D02*
X96941467Y-83722857D01*
X96941467Y-83722857D02*
X96672093Y-83992231D01*
X96672093Y-83992231D02*
X96638421Y-84093246D01*
X96638421Y-84093246D02*
X96638421Y-84160590D01*
X96638421Y-84160590D02*
X96672093Y-84261605D01*
X96672093Y-84261605D02*
X96773108Y-84362621D01*
X96773108Y-84362621D02*
X96874123Y-84396292D01*
X96874123Y-84396292D02*
X96941467Y-84396292D01*
X96941467Y-84396292D02*
X97042482Y-84362621D01*
X97042482Y-84362621D02*
X97311856Y-84093246D01*
X96301704Y-84362621D02*
X95830299Y-84834025D01*
X95830299Y-84834025D02*
X96840452Y-85238086D01*
X75373445Y-79654093D02*
X75272429Y-79081673D01*
X75777506Y-79250032D02*
X75070399Y-78542925D01*
X75070399Y-78542925D02*
X74801025Y-78812299D01*
X74801025Y-78812299D02*
X74767353Y-78913315D01*
X74767353Y-78913315D02*
X74767353Y-78980658D01*
X74767353Y-78980658D02*
X74801025Y-79081673D01*
X74801025Y-79081673D02*
X74902040Y-79182689D01*
X74902040Y-79182689D02*
X75003055Y-79216360D01*
X75003055Y-79216360D02*
X75070399Y-79216360D01*
X75070399Y-79216360D02*
X75171414Y-79182689D01*
X75171414Y-79182689D02*
X75440788Y-78913315D01*
X74700009Y-80327528D02*
X75104070Y-79923467D01*
X74902040Y-80125498D02*
X74194933Y-79418391D01*
X74194933Y-79418391D02*
X74363292Y-79452063D01*
X74363292Y-79452063D02*
X74497979Y-79452063D01*
X74497979Y-79452063D02*
X74598994Y-79418391D01*
X73790872Y-79957139D02*
X73723529Y-79957139D01*
X73723529Y-79957139D02*
X73622513Y-79990811D01*
X73622513Y-79990811D02*
X73454155Y-80159169D01*
X73454155Y-80159169D02*
X73420483Y-80260185D01*
X73420483Y-80260185D02*
X73420483Y-80327528D01*
X73420483Y-80327528D02*
X73454155Y-80428543D01*
X73454155Y-80428543D02*
X73521498Y-80495887D01*
X73521498Y-80495887D02*
X73656185Y-80563230D01*
X73656185Y-80563230D02*
X74464307Y-80563230D01*
X74464307Y-80563230D02*
X74026574Y-81000963D01*
X64324445Y-104927093D02*
X64223429Y-104354673D01*
X64728506Y-104523032D02*
X64021399Y-103815925D01*
X64021399Y-103815925D02*
X63752025Y-104085299D01*
X63752025Y-104085299D02*
X63718353Y-104186315D01*
X63718353Y-104186315D02*
X63718353Y-104253658D01*
X63718353Y-104253658D02*
X63752025Y-104354673D01*
X63752025Y-104354673D02*
X63853040Y-104455689D01*
X63853040Y-104455689D02*
X63954055Y-104489360D01*
X63954055Y-104489360D02*
X64021399Y-104489360D01*
X64021399Y-104489360D02*
X64122414Y-104455689D01*
X64122414Y-104455689D02*
X64391788Y-104186315D01*
X63651009Y-105600528D02*
X64055070Y-105196467D01*
X63853040Y-105398498D02*
X63145933Y-104691391D01*
X63145933Y-104691391D02*
X63314292Y-104725063D01*
X63314292Y-104725063D02*
X63448979Y-104725063D01*
X63448979Y-104725063D02*
X63549994Y-104691391D01*
X62708200Y-105129124D02*
X62236796Y-105600528D01*
X62236796Y-105600528D02*
X63246948Y-106004589D01*
X110529666Y-124660663D02*
X110862999Y-124184472D01*
X111101094Y-124660663D02*
X111101094Y-123660663D01*
X111101094Y-123660663D02*
X110720142Y-123660663D01*
X110720142Y-123660663D02*
X110624904Y-123708282D01*
X110624904Y-123708282D02*
X110577285Y-123755901D01*
X110577285Y-123755901D02*
X110529666Y-123851139D01*
X110529666Y-123851139D02*
X110529666Y-123993996D01*
X110529666Y-123993996D02*
X110577285Y-124089234D01*
X110577285Y-124089234D02*
X110624904Y-124136853D01*
X110624904Y-124136853D02*
X110720142Y-124184472D01*
X110720142Y-124184472D02*
X111101094Y-124184472D01*
X110148713Y-123755901D02*
X110101094Y-123708282D01*
X110101094Y-123708282D02*
X110005856Y-123660663D01*
X110005856Y-123660663D02*
X109767761Y-123660663D01*
X109767761Y-123660663D02*
X109672523Y-123708282D01*
X109672523Y-123708282D02*
X109624904Y-123755901D01*
X109624904Y-123755901D02*
X109577285Y-123851139D01*
X109577285Y-123851139D02*
X109577285Y-123946377D01*
X109577285Y-123946377D02*
X109624904Y-124089234D01*
X109624904Y-124089234D02*
X110196332Y-124660663D01*
X110196332Y-124660663D02*
X109577285Y-124660663D01*
X89089445Y-63271093D02*
X88988429Y-62698673D01*
X89493506Y-62867032D02*
X88786399Y-62159925D01*
X88786399Y-62159925D02*
X88517025Y-62429299D01*
X88517025Y-62429299D02*
X88483353Y-62530315D01*
X88483353Y-62530315D02*
X88483353Y-62597658D01*
X88483353Y-62597658D02*
X88517025Y-62698673D01*
X88517025Y-62698673D02*
X88618040Y-62799689D01*
X88618040Y-62799689D02*
X88719055Y-62833360D01*
X88719055Y-62833360D02*
X88786399Y-62833360D01*
X88786399Y-62833360D02*
X88887414Y-62799689D01*
X88887414Y-62799689D02*
X89156788Y-62530315D01*
X88416009Y-63944528D02*
X88820070Y-63540467D01*
X88618040Y-63742498D02*
X87910933Y-63035391D01*
X87910933Y-63035391D02*
X88079292Y-63069063D01*
X88079292Y-63069063D02*
X88213979Y-63069063D01*
X88213979Y-63069063D02*
X88314994Y-63035391D01*
X87742574Y-64617963D02*
X88146635Y-64213902D01*
X87944605Y-64415933D02*
X87237498Y-63708826D01*
X87237498Y-63708826D02*
X87405857Y-63742498D01*
X87405857Y-63742498D02*
X87540544Y-63742498D01*
X87540544Y-63742498D02*
X87641559Y-63708826D01*
X95356727Y-62591811D02*
X95255711Y-62019391D01*
X95760788Y-62187750D02*
X95053681Y-61480643D01*
X95053681Y-61480643D02*
X94784307Y-61750017D01*
X94784307Y-61750017D02*
X94750635Y-61851032D01*
X94750635Y-61851032D02*
X94750635Y-61918376D01*
X94750635Y-61918376D02*
X94784307Y-62019391D01*
X94784307Y-62019391D02*
X94885322Y-62120407D01*
X94885322Y-62120407D02*
X94986337Y-62154078D01*
X94986337Y-62154078D02*
X95053681Y-62154078D01*
X95053681Y-62154078D02*
X95154696Y-62120407D01*
X95154696Y-62120407D02*
X95424070Y-61851032D01*
X94009857Y-62524468D02*
X94346574Y-62187750D01*
X94346574Y-62187750D02*
X94716963Y-62490796D01*
X94716963Y-62490796D02*
X94649620Y-62490796D01*
X94649620Y-62490796D02*
X94548605Y-62524468D01*
X94548605Y-62524468D02*
X94380246Y-62692826D01*
X94380246Y-62692826D02*
X94346574Y-62793842D01*
X94346574Y-62793842D02*
X94346574Y-62861185D01*
X94346574Y-62861185D02*
X94380246Y-62962200D01*
X94380246Y-62962200D02*
X94548605Y-63130559D01*
X94548605Y-63130559D02*
X94649620Y-63164231D01*
X94649620Y-63164231D02*
X94716963Y-63164231D01*
X94716963Y-63164231D02*
X94817979Y-63130559D01*
X94817979Y-63130559D02*
X94986337Y-62962200D01*
X94986337Y-62962200D02*
X95020009Y-62861185D01*
X95020009Y-62861185D02*
X95020009Y-62793842D01*
D12*
G36*
X123061535Y-107732196D02*
G01*
X118404392Y-107732196D01*
X118404392Y-107011078D01*
X118618678Y-107011078D01*
X118618767Y-107011410D01*
X118618679Y-107011746D01*
X118628833Y-107048977D01*
X118638774Y-107086078D01*
X118639017Y-107086321D01*
X118639109Y-107086656D01*
X118666457Y-107113761D01*
X118693678Y-107140982D01*
X118694012Y-107141071D01*
X118694257Y-107141314D01*
X118731472Y-107151108D01*
X118768678Y-107161078D01*
X118769010Y-107160988D01*
X118769346Y-107161077D01*
X118806577Y-107150922D01*
X118843678Y-107140982D01*
X118843921Y-107140738D01*
X118844256Y-107140647D01*
X118871361Y-107113298D01*
X118898582Y-107086078D01*
X118898671Y-107085743D01*
X118898914Y-107085499D01*
X119475821Y-106075913D01*
X119475821Y-107011078D01*
X119495917Y-107086078D01*
X119550821Y-107140982D01*
X119625821Y-107161078D01*
X119700821Y-107140982D01*
X119755725Y-107086078D01*
X119775821Y-107011078D01*
X119775821Y-105511078D01*
X119775731Y-105510745D01*
X119775820Y-105510410D01*
X119765665Y-105473178D01*
X119759269Y-105449304D01*
X119976132Y-105449304D01*
X120001013Y-105522855D01*
X121286728Y-107451426D01*
X121345051Y-107502683D01*
X121421189Y-107517910D01*
X121494740Y-107493029D01*
X121545997Y-107434705D01*
X121561224Y-107358567D01*
X121536343Y-107285016D01*
X121163242Y-106725364D01*
X121690106Y-106725364D01*
X121699029Y-106758665D01*
X121705942Y-106792446D01*
X121777371Y-106935303D01*
X121793393Y-106953371D01*
X121805469Y-106974287D01*
X121876898Y-107045716D01*
X121897812Y-107057790D01*
X121915882Y-107073814D01*
X122058740Y-107145242D01*
X122092515Y-107152153D01*
X122125821Y-107161078D01*
X122482964Y-107161078D01*
X122506289Y-107154828D01*
X122530398Y-107153381D01*
X122744683Y-107081953D01*
X122809479Y-107039171D01*
X122844204Y-106969722D01*
X122839551Y-106892216D01*
X122796770Y-106827420D01*
X122727321Y-106792695D01*
X122649815Y-106797347D01*
X122458621Y-106861078D01*
X122161231Y-106861078D01*
X122071817Y-106816371D01*
X122034813Y-106779367D01*
X121990106Y-106689953D01*
X121990106Y-106617917D01*
X122034813Y-106528503D01*
X122071818Y-106491498D01*
X122178177Y-106438319D01*
X122447915Y-106370885D01*
X122462392Y-106362848D01*
X122478617Y-106359528D01*
X122621474Y-106288099D01*
X122639542Y-106272076D01*
X122660457Y-106260002D01*
X122731886Y-106188574D01*
X122743961Y-106167658D01*
X122759985Y-106149589D01*
X122831413Y-106006731D01*
X122838324Y-105972955D01*
X122847249Y-105939650D01*
X122847249Y-105796792D01*
X122838324Y-105763486D01*
X122831413Y-105729711D01*
X122759985Y-105586853D01*
X122743961Y-105568783D01*
X122731886Y-105547868D01*
X122660457Y-105476440D01*
X122639542Y-105464365D01*
X122621474Y-105448343D01*
X122478617Y-105376914D01*
X122444836Y-105370001D01*
X122411535Y-105361078D01*
X122054392Y-105361078D01*
X122031063Y-105367328D01*
X122006957Y-105368776D01*
X121792672Y-105440205D01*
X121727875Y-105482986D01*
X121693151Y-105552435D01*
X121697804Y-105629941D01*
X121740585Y-105694738D01*
X121810034Y-105729462D01*
X121887540Y-105724809D01*
X122078735Y-105661078D01*
X122376125Y-105661078D01*
X122465539Y-105705785D01*
X122502543Y-105742789D01*
X122547249Y-105832201D01*
X122547249Y-105904240D01*
X122502543Y-105993652D01*
X122465539Y-106030656D01*
X122359178Y-106083837D01*
X122089441Y-106151271D01*
X122074964Y-106159307D01*
X122058738Y-106162628D01*
X121915882Y-106234057D01*
X121897813Y-106250079D01*
X121876898Y-106262155D01*
X121805469Y-106333584D01*
X121793393Y-106354499D01*
X121777371Y-106372568D01*
X121705942Y-106515425D01*
X121699029Y-106549205D01*
X121690106Y-106582507D01*
X121690106Y-106725364D01*
X121163242Y-106725364D01*
X120250629Y-105356445D01*
X120192305Y-105305188D01*
X120116167Y-105289961D01*
X120042616Y-105314842D01*
X119991359Y-105373166D01*
X119976132Y-105449304D01*
X119759269Y-105449304D01*
X119755725Y-105436078D01*
X119755481Y-105435834D01*
X119755390Y-105435500D01*
X119727985Y-105408338D01*
X119700821Y-105381174D01*
X119700487Y-105381084D01*
X119700242Y-105380841D01*
X119662920Y-105371018D01*
X119625821Y-105361078D01*
X119625488Y-105361167D01*
X119625153Y-105361079D01*
X119587921Y-105371233D01*
X119550821Y-105381174D01*
X119550577Y-105381417D01*
X119550243Y-105381509D01*
X119523137Y-105408857D01*
X119495917Y-105436078D01*
X119495827Y-105436412D01*
X119495585Y-105436657D01*
X118918678Y-106446244D01*
X118918678Y-105511078D01*
X118898582Y-105436078D01*
X118843678Y-105381174D01*
X118768678Y-105361078D01*
X118693678Y-105381174D01*
X118638774Y-105436078D01*
X118618678Y-105511078D01*
X118618678Y-107011078D01*
X118404392Y-107011078D01*
X118404392Y-105075675D01*
X123061535Y-105075675D01*
X123061535Y-107732196D01*
G37*
D10*
X105010857Y-95111663D02*
X105344190Y-94635472D01*
X105582285Y-95111663D02*
X105582285Y-94111663D01*
X105582285Y-94111663D02*
X105201333Y-94111663D01*
X105201333Y-94111663D02*
X105106095Y-94159282D01*
X105106095Y-94159282D02*
X105058476Y-94206901D01*
X105058476Y-94206901D02*
X105010857Y-94302139D01*
X105010857Y-94302139D02*
X105010857Y-94444996D01*
X105010857Y-94444996D02*
X105058476Y-94540234D01*
X105058476Y-94540234D02*
X105106095Y-94587853D01*
X105106095Y-94587853D02*
X105201333Y-94635472D01*
X105201333Y-94635472D02*
X105582285Y-94635472D01*
X104058476Y-95111663D02*
X104629904Y-95111663D01*
X104344190Y-95111663D02*
X104344190Y-94111663D01*
X104344190Y-94111663D02*
X104439428Y-94254520D01*
X104439428Y-94254520D02*
X104534666Y-94349758D01*
X104534666Y-94349758D02*
X104629904Y-94397377D01*
X103582285Y-95111663D02*
X103391809Y-95111663D01*
X103391809Y-95111663D02*
X103296571Y-95064044D01*
X103296571Y-95064044D02*
X103248952Y-95016424D01*
X103248952Y-95016424D02*
X103153714Y-94873567D01*
X103153714Y-94873567D02*
X103106095Y-94683091D01*
X103106095Y-94683091D02*
X103106095Y-94302139D01*
X103106095Y-94302139D02*
X103153714Y-94206901D01*
X103153714Y-94206901D02*
X103201333Y-94159282D01*
X103201333Y-94159282D02*
X103296571Y-94111663D01*
X103296571Y-94111663D02*
X103487047Y-94111663D01*
X103487047Y-94111663D02*
X103582285Y-94159282D01*
X103582285Y-94159282D02*
X103629904Y-94206901D01*
X103629904Y-94206901D02*
X103677523Y-94302139D01*
X103677523Y-94302139D02*
X103677523Y-94540234D01*
X103677523Y-94540234D02*
X103629904Y-94635472D01*
X103629904Y-94635472D02*
X103582285Y-94683091D01*
X103582285Y-94683091D02*
X103487047Y-94730710D01*
X103487047Y-94730710D02*
X103296571Y-94730710D01*
X103296571Y-94730710D02*
X103201333Y-94683091D01*
X103201333Y-94683091D02*
X103153714Y-94635472D01*
X103153714Y-94635472D02*
X103106095Y-94540234D01*
X91419727Y-100564811D02*
X91318711Y-99992391D01*
X91823788Y-100160750D02*
X91116681Y-99453643D01*
X91116681Y-99453643D02*
X90847307Y-99723017D01*
X90847307Y-99723017D02*
X90813635Y-99824032D01*
X90813635Y-99824032D02*
X90813635Y-99891376D01*
X90813635Y-99891376D02*
X90847307Y-99992391D01*
X90847307Y-99992391D02*
X90948322Y-100093407D01*
X90948322Y-100093407D02*
X91049337Y-100127078D01*
X91049337Y-100127078D02*
X91116681Y-100127078D01*
X91116681Y-100127078D02*
X91217696Y-100093407D01*
X91217696Y-100093407D02*
X91487070Y-99824032D01*
X91083009Y-100901529D02*
X90948322Y-101036216D01*
X90948322Y-101036216D02*
X90847307Y-101069887D01*
X90847307Y-101069887D02*
X90779963Y-101069887D01*
X90779963Y-101069887D02*
X90611605Y-101036216D01*
X90611605Y-101036216D02*
X90443246Y-100935200D01*
X90443246Y-100935200D02*
X90173872Y-100665826D01*
X90173872Y-100665826D02*
X90140200Y-100564811D01*
X90140200Y-100564811D02*
X90140200Y-100497468D01*
X90140200Y-100497468D02*
X90173872Y-100396452D01*
X90173872Y-100396452D02*
X90308559Y-100261765D01*
X90308559Y-100261765D02*
X90409574Y-100228094D01*
X90409574Y-100228094D02*
X90476918Y-100228094D01*
X90476918Y-100228094D02*
X90577933Y-100261765D01*
X90577933Y-100261765D02*
X90746292Y-100430124D01*
X90746292Y-100430124D02*
X90779963Y-100531139D01*
X90779963Y-100531139D02*
X90779963Y-100598483D01*
X90779963Y-100598483D02*
X90746292Y-100699498D01*
X90746292Y-100699498D02*
X90611605Y-100834185D01*
X90611605Y-100834185D02*
X90510589Y-100867857D01*
X90510589Y-100867857D02*
X90443246Y-100867857D01*
X90443246Y-100867857D02*
X90342231Y-100834185D01*
X89089445Y-82194093D02*
X88988429Y-81621673D01*
X89493506Y-81790032D02*
X88786399Y-81082925D01*
X88786399Y-81082925D02*
X88517025Y-81352299D01*
X88517025Y-81352299D02*
X88483353Y-81453315D01*
X88483353Y-81453315D02*
X88483353Y-81520658D01*
X88483353Y-81520658D02*
X88517025Y-81621673D01*
X88517025Y-81621673D02*
X88618040Y-81722689D01*
X88618040Y-81722689D02*
X88719055Y-81756360D01*
X88719055Y-81756360D02*
X88786399Y-81756360D01*
X88786399Y-81756360D02*
X88887414Y-81722689D01*
X88887414Y-81722689D02*
X89156788Y-81453315D01*
X88416009Y-82867528D02*
X88820070Y-82463467D01*
X88618040Y-82665498D02*
X87910933Y-81958391D01*
X87910933Y-81958391D02*
X88079292Y-81992063D01*
X88079292Y-81992063D02*
X88213979Y-81992063D01*
X88213979Y-81992063D02*
X88314994Y-81958391D01*
X87473200Y-82396124D02*
X87035468Y-82833856D01*
X87035468Y-82833856D02*
X87540544Y-82867528D01*
X87540544Y-82867528D02*
X87439529Y-82968543D01*
X87439529Y-82968543D02*
X87405857Y-83069559D01*
X87405857Y-83069559D02*
X87405857Y-83136902D01*
X87405857Y-83136902D02*
X87439529Y-83237917D01*
X87439529Y-83237917D02*
X87607887Y-83406276D01*
X87607887Y-83406276D02*
X87708903Y-83439948D01*
X87708903Y-83439948D02*
X87776246Y-83439948D01*
X87776246Y-83439948D02*
X87877261Y-83406276D01*
X87877261Y-83406276D02*
X88079292Y-83204246D01*
X88079292Y-83204246D02*
X88112964Y-83103230D01*
X88112964Y-83103230D02*
X88112964Y-83035887D01*
X80751727Y-80371811D02*
X80650711Y-79799391D01*
X81155788Y-79967750D02*
X80448681Y-79260643D01*
X80448681Y-79260643D02*
X80179307Y-79530017D01*
X80179307Y-79530017D02*
X80145635Y-79631032D01*
X80145635Y-79631032D02*
X80145635Y-79698376D01*
X80145635Y-79698376D02*
X80179307Y-79799391D01*
X80179307Y-79799391D02*
X80280322Y-79900407D01*
X80280322Y-79900407D02*
X80381337Y-79934078D01*
X80381337Y-79934078D02*
X80448681Y-79934078D01*
X80448681Y-79934078D02*
X80549696Y-79900407D01*
X80549696Y-79900407D02*
X80819070Y-79631032D01*
X79438528Y-80270796D02*
X79573215Y-80136109D01*
X79573215Y-80136109D02*
X79674231Y-80102437D01*
X79674231Y-80102437D02*
X79741574Y-80102437D01*
X79741574Y-80102437D02*
X79909933Y-80136109D01*
X79909933Y-80136109D02*
X80078292Y-80237124D01*
X80078292Y-80237124D02*
X80347666Y-80506498D01*
X80347666Y-80506498D02*
X80381337Y-80607513D01*
X80381337Y-80607513D02*
X80381337Y-80674857D01*
X80381337Y-80674857D02*
X80347666Y-80775872D01*
X80347666Y-80775872D02*
X80212979Y-80910559D01*
X80212979Y-80910559D02*
X80111963Y-80944231D01*
X80111963Y-80944231D02*
X80044620Y-80944231D01*
X80044620Y-80944231D02*
X79943605Y-80910559D01*
X79943605Y-80910559D02*
X79775246Y-80742200D01*
X79775246Y-80742200D02*
X79741574Y-80641185D01*
X79741574Y-80641185D02*
X79741574Y-80573842D01*
X79741574Y-80573842D02*
X79775246Y-80472826D01*
X79775246Y-80472826D02*
X79909933Y-80338139D01*
X79909933Y-80338139D02*
X80010948Y-80304468D01*
X80010948Y-80304468D02*
X80078292Y-80304468D01*
X80078292Y-80304468D02*
X80179307Y-80338139D01*
X110524620Y-99112918D02*
X110423604Y-98540498D01*
X110928681Y-98708857D02*
X110221574Y-98001750D01*
X110221574Y-98001750D02*
X109952200Y-98271124D01*
X109952200Y-98271124D02*
X109918528Y-98372139D01*
X109918528Y-98372139D02*
X109918528Y-98439483D01*
X109918528Y-98439483D02*
X109952200Y-98540498D01*
X109952200Y-98540498D02*
X110053215Y-98641514D01*
X110053215Y-98641514D02*
X110154230Y-98675185D01*
X110154230Y-98675185D02*
X110221574Y-98675185D01*
X110221574Y-98675185D02*
X110322589Y-98641514D01*
X110322589Y-98641514D02*
X110591963Y-98372139D01*
X109716498Y-99112918D02*
X109750169Y-99011903D01*
X109750169Y-99011903D02*
X109750169Y-98944559D01*
X109750169Y-98944559D02*
X109716498Y-98843544D01*
X109716498Y-98843544D02*
X109682826Y-98809872D01*
X109682826Y-98809872D02*
X109581811Y-98776201D01*
X109581811Y-98776201D02*
X109514467Y-98776201D01*
X109514467Y-98776201D02*
X109413452Y-98809872D01*
X109413452Y-98809872D02*
X109278765Y-98944559D01*
X109278765Y-98944559D02*
X109245093Y-99045575D01*
X109245093Y-99045575D02*
X109245093Y-99112918D01*
X109245093Y-99112918D02*
X109278765Y-99213933D01*
X109278765Y-99213933D02*
X109312437Y-99247605D01*
X109312437Y-99247605D02*
X109413452Y-99281277D01*
X109413452Y-99281277D02*
X109480795Y-99281277D01*
X109480795Y-99281277D02*
X109581811Y-99247605D01*
X109581811Y-99247605D02*
X109716498Y-99112918D01*
X109716498Y-99112918D02*
X109817513Y-99079246D01*
X109817513Y-99079246D02*
X109884856Y-99079246D01*
X109884856Y-99079246D02*
X109985872Y-99112918D01*
X109985872Y-99112918D02*
X110120559Y-99247605D01*
X110120559Y-99247605D02*
X110154230Y-99348620D01*
X110154230Y-99348620D02*
X110154230Y-99415964D01*
X110154230Y-99415964D02*
X110120559Y-99516979D01*
X110120559Y-99516979D02*
X109985872Y-99651666D01*
X109985872Y-99651666D02*
X109884856Y-99685338D01*
X109884856Y-99685338D02*
X109817513Y-99685338D01*
X109817513Y-99685338D02*
X109716498Y-99651666D01*
X109716498Y-99651666D02*
X109581811Y-99516979D01*
X109581811Y-99516979D02*
X109548139Y-99415964D01*
X109548139Y-99415964D02*
X109548139Y-99348620D01*
X109548139Y-99348620D02*
X109581811Y-99247605D01*
X70518857Y-98921663D02*
X70852190Y-98445472D01*
X71090285Y-98921663D02*
X71090285Y-97921663D01*
X71090285Y-97921663D02*
X70709333Y-97921663D01*
X70709333Y-97921663D02*
X70614095Y-97969282D01*
X70614095Y-97969282D02*
X70566476Y-98016901D01*
X70566476Y-98016901D02*
X70518857Y-98112139D01*
X70518857Y-98112139D02*
X70518857Y-98254996D01*
X70518857Y-98254996D02*
X70566476Y-98350234D01*
X70566476Y-98350234D02*
X70614095Y-98397853D01*
X70614095Y-98397853D02*
X70709333Y-98445472D01*
X70709333Y-98445472D02*
X71090285Y-98445472D01*
X70137904Y-98016901D02*
X70090285Y-97969282D01*
X70090285Y-97969282D02*
X69995047Y-97921663D01*
X69995047Y-97921663D02*
X69756952Y-97921663D01*
X69756952Y-97921663D02*
X69661714Y-97969282D01*
X69661714Y-97969282D02*
X69614095Y-98016901D01*
X69614095Y-98016901D02*
X69566476Y-98112139D01*
X69566476Y-98112139D02*
X69566476Y-98207377D01*
X69566476Y-98207377D02*
X69614095Y-98350234D01*
X69614095Y-98350234D02*
X70185523Y-98921663D01*
X70185523Y-98921663D02*
X69566476Y-98921663D01*
X68947428Y-97921663D02*
X68852190Y-97921663D01*
X68852190Y-97921663D02*
X68756952Y-97969282D01*
X68756952Y-97969282D02*
X68709333Y-98016901D01*
X68709333Y-98016901D02*
X68661714Y-98112139D01*
X68661714Y-98112139D02*
X68614095Y-98302615D01*
X68614095Y-98302615D02*
X68614095Y-98540710D01*
X68614095Y-98540710D02*
X68661714Y-98731186D01*
X68661714Y-98731186D02*
X68709333Y-98826424D01*
X68709333Y-98826424D02*
X68756952Y-98874044D01*
X68756952Y-98874044D02*
X68852190Y-98921663D01*
X68852190Y-98921663D02*
X68947428Y-98921663D01*
X68947428Y-98921663D02*
X69042666Y-98874044D01*
X69042666Y-98874044D02*
X69090285Y-98826424D01*
X69090285Y-98826424D02*
X69137904Y-98731186D01*
X69137904Y-98731186D02*
X69185523Y-98540710D01*
X69185523Y-98540710D02*
X69185523Y-98302615D01*
X69185523Y-98302615D02*
X69137904Y-98112139D01*
X69137904Y-98112139D02*
X69090285Y-98016901D01*
X69090285Y-98016901D02*
X69042666Y-97969282D01*
X69042666Y-97969282D02*
X68947428Y-97921663D01*
X81977445Y-100736093D02*
X81876429Y-100163673D01*
X82381506Y-100332032D02*
X81674399Y-99624925D01*
X81674399Y-99624925D02*
X81405025Y-99894299D01*
X81405025Y-99894299D02*
X81371353Y-99995315D01*
X81371353Y-99995315D02*
X81371353Y-100062658D01*
X81371353Y-100062658D02*
X81405025Y-100163673D01*
X81405025Y-100163673D02*
X81506040Y-100264689D01*
X81506040Y-100264689D02*
X81607055Y-100298360D01*
X81607055Y-100298360D02*
X81674399Y-100298360D01*
X81674399Y-100298360D02*
X81775414Y-100264689D01*
X81775414Y-100264689D02*
X82044788Y-99995315D01*
X81304009Y-101409528D02*
X81708070Y-101005467D01*
X81506040Y-101207498D02*
X80798933Y-100500391D01*
X80798933Y-100500391D02*
X80967292Y-100534063D01*
X80967292Y-100534063D02*
X81101979Y-100534063D01*
X81101979Y-100534063D02*
X81202994Y-100500391D01*
X79990811Y-101308513D02*
X80125498Y-101173826D01*
X80125498Y-101173826D02*
X80226513Y-101140154D01*
X80226513Y-101140154D02*
X80293857Y-101140154D01*
X80293857Y-101140154D02*
X80462216Y-101173826D01*
X80462216Y-101173826D02*
X80630574Y-101274841D01*
X80630574Y-101274841D02*
X80899948Y-101544215D01*
X80899948Y-101544215D02*
X80933620Y-101645230D01*
X80933620Y-101645230D02*
X80933620Y-101712574D01*
X80933620Y-101712574D02*
X80899948Y-101813589D01*
X80899948Y-101813589D02*
X80765261Y-101948276D01*
X80765261Y-101948276D02*
X80664246Y-101981948D01*
X80664246Y-101981948D02*
X80596903Y-101981948D01*
X80596903Y-101981948D02*
X80495887Y-101948276D01*
X80495887Y-101948276D02*
X80327529Y-101779917D01*
X80327529Y-101779917D02*
X80293857Y-101678902D01*
X80293857Y-101678902D02*
X80293857Y-101611559D01*
X80293857Y-101611559D02*
X80327529Y-101510543D01*
X80327529Y-101510543D02*
X80462216Y-101375856D01*
X80462216Y-101375856D02*
X80563231Y-101342185D01*
X80563231Y-101342185D02*
X80630574Y-101342185D01*
X80630574Y-101342185D02*
X80731590Y-101375856D01*
X106361445Y-87147093D02*
X106260429Y-86574673D01*
X106765506Y-86743032D02*
X106058399Y-86035925D01*
X106058399Y-86035925D02*
X105789025Y-86305299D01*
X105789025Y-86305299D02*
X105755353Y-86406315D01*
X105755353Y-86406315D02*
X105755353Y-86473658D01*
X105755353Y-86473658D02*
X105789025Y-86574673D01*
X105789025Y-86574673D02*
X105890040Y-86675689D01*
X105890040Y-86675689D02*
X105991055Y-86709360D01*
X105991055Y-86709360D02*
X106058399Y-86709360D01*
X106058399Y-86709360D02*
X106159414Y-86675689D01*
X106159414Y-86675689D02*
X106428788Y-86406315D01*
X105688009Y-87820528D02*
X106092070Y-87416467D01*
X105890040Y-87618498D02*
X105182933Y-86911391D01*
X105182933Y-86911391D02*
X105351292Y-86945063D01*
X105351292Y-86945063D02*
X105485979Y-86945063D01*
X105485979Y-86945063D02*
X105586994Y-86911391D01*
X104610513Y-87955215D02*
X105081918Y-88426620D01*
X104509498Y-87517482D02*
X105182933Y-87854200D01*
X105182933Y-87854200D02*
X104745200Y-88291933D01*
X101760857Y-98286663D02*
X102094190Y-97810472D01*
X102332285Y-98286663D02*
X102332285Y-97286663D01*
X102332285Y-97286663D02*
X101951333Y-97286663D01*
X101951333Y-97286663D02*
X101856095Y-97334282D01*
X101856095Y-97334282D02*
X101808476Y-97381901D01*
X101808476Y-97381901D02*
X101760857Y-97477139D01*
X101760857Y-97477139D02*
X101760857Y-97619996D01*
X101760857Y-97619996D02*
X101808476Y-97715234D01*
X101808476Y-97715234D02*
X101856095Y-97762853D01*
X101856095Y-97762853D02*
X101951333Y-97810472D01*
X101951333Y-97810472D02*
X102332285Y-97810472D01*
X100808476Y-98286663D02*
X101379904Y-98286663D01*
X101094190Y-98286663D02*
X101094190Y-97286663D01*
X101094190Y-97286663D02*
X101189428Y-97429520D01*
X101189428Y-97429520D02*
X101284666Y-97524758D01*
X101284666Y-97524758D02*
X101379904Y-97572377D01*
X100237047Y-97715234D02*
X100332285Y-97667615D01*
X100332285Y-97667615D02*
X100379904Y-97619996D01*
X100379904Y-97619996D02*
X100427523Y-97524758D01*
X100427523Y-97524758D02*
X100427523Y-97477139D01*
X100427523Y-97477139D02*
X100379904Y-97381901D01*
X100379904Y-97381901D02*
X100332285Y-97334282D01*
X100332285Y-97334282D02*
X100237047Y-97286663D01*
X100237047Y-97286663D02*
X100046571Y-97286663D01*
X100046571Y-97286663D02*
X99951333Y-97334282D01*
X99951333Y-97334282D02*
X99903714Y-97381901D01*
X99903714Y-97381901D02*
X99856095Y-97477139D01*
X99856095Y-97477139D02*
X99856095Y-97524758D01*
X99856095Y-97524758D02*
X99903714Y-97619996D01*
X99903714Y-97619996D02*
X99951333Y-97667615D01*
X99951333Y-97667615D02*
X100046571Y-97715234D01*
X100046571Y-97715234D02*
X100237047Y-97715234D01*
X100237047Y-97715234D02*
X100332285Y-97762853D01*
X100332285Y-97762853D02*
X100379904Y-97810472D01*
X100379904Y-97810472D02*
X100427523Y-97905710D01*
X100427523Y-97905710D02*
X100427523Y-98096186D01*
X100427523Y-98096186D02*
X100379904Y-98191424D01*
X100379904Y-98191424D02*
X100332285Y-98239044D01*
X100332285Y-98239044D02*
X100237047Y-98286663D01*
X100237047Y-98286663D02*
X100046571Y-98286663D01*
X100046571Y-98286663D02*
X99951333Y-98239044D01*
X99951333Y-98239044D02*
X99903714Y-98191424D01*
X99903714Y-98191424D02*
X99856095Y-98096186D01*
X99856095Y-98096186D02*
X99856095Y-97905710D01*
X99856095Y-97905710D02*
X99903714Y-97810472D01*
X99903714Y-97810472D02*
X99951333Y-97762853D01*
X99951333Y-97762853D02*
X100046571Y-97715234D01*
X110529666Y-120072663D02*
X110862999Y-119596472D01*
X111101094Y-120072663D02*
X111101094Y-119072663D01*
X111101094Y-119072663D02*
X110720142Y-119072663D01*
X110720142Y-119072663D02*
X110624904Y-119120282D01*
X110624904Y-119120282D02*
X110577285Y-119167901D01*
X110577285Y-119167901D02*
X110529666Y-119263139D01*
X110529666Y-119263139D02*
X110529666Y-119405996D01*
X110529666Y-119405996D02*
X110577285Y-119501234D01*
X110577285Y-119501234D02*
X110624904Y-119548853D01*
X110624904Y-119548853D02*
X110720142Y-119596472D01*
X110720142Y-119596472D02*
X111101094Y-119596472D01*
X109577285Y-120072663D02*
X110148713Y-120072663D01*
X109862999Y-120072663D02*
X109862999Y-119072663D01*
X109862999Y-119072663D02*
X109958237Y-119215520D01*
X109958237Y-119215520D02*
X110053475Y-119310758D01*
X110053475Y-119310758D02*
X110148713Y-119358377D01*
D13*
X115873000Y-122433225D02*
X115873000Y-122933225D01*
X115623000Y-122683225D02*
X116123000Y-122683225D01*
X118388000Y-125238000D02*
X119928000Y-125238000D01*
X114768000Y-125238000D02*
X116308000Y-125238000D01*
X118388000Y-125278000D02*
X119928000Y-125278000D01*
X114768000Y-125278000D02*
X116308000Y-125278000D01*
X118388000Y-125318000D02*
X119927000Y-125318000D01*
X114769000Y-125318000D02*
X116308000Y-125318000D01*
X118388000Y-125358000D02*
X119926000Y-125358000D01*
X114770000Y-125358000D02*
X116308000Y-125358000D01*
X118388000Y-125398000D02*
X119924000Y-125398000D01*
X114772000Y-125398000D02*
X116308000Y-125398000D01*
X118388000Y-125438000D02*
X119921000Y-125438000D01*
X114775000Y-125438000D02*
X116308000Y-125438000D01*
X118388000Y-125478000D02*
X119917000Y-125478000D01*
X114779000Y-125478000D02*
X116308000Y-125478000D01*
X118388000Y-125518000D02*
X119913000Y-125518000D01*
X114783000Y-125518000D02*
X116308000Y-125518000D01*
X118388000Y-125558000D02*
X119909000Y-125558000D01*
X114787000Y-125558000D02*
X116308000Y-125558000D01*
X118388000Y-125598000D02*
X119904000Y-125598000D01*
X114792000Y-125598000D02*
X116308000Y-125598000D01*
X118388000Y-125638000D02*
X119898000Y-125638000D01*
X114798000Y-125638000D02*
X116308000Y-125638000D01*
X118388000Y-125678000D02*
X119891000Y-125678000D01*
X114805000Y-125678000D02*
X116308000Y-125678000D01*
X118388000Y-125718000D02*
X119884000Y-125718000D01*
X114812000Y-125718000D02*
X116308000Y-125718000D01*
X118388000Y-125758000D02*
X119876000Y-125758000D01*
X114820000Y-125758000D02*
X116308000Y-125758000D01*
X118388000Y-125798000D02*
X119868000Y-125798000D01*
X114828000Y-125798000D02*
X116308000Y-125798000D01*
X118388000Y-125838000D02*
X119859000Y-125838000D01*
X114837000Y-125838000D02*
X116308000Y-125838000D01*
X118388000Y-125878000D02*
X119849000Y-125878000D01*
X114847000Y-125878000D02*
X116308000Y-125878000D01*
X118388000Y-125918000D02*
X119839000Y-125918000D01*
X114857000Y-125918000D02*
X116308000Y-125918000D01*
X118388000Y-125959000D02*
X119828000Y-125959000D01*
X114868000Y-125959000D02*
X116308000Y-125959000D01*
X118388000Y-125999000D02*
X119816000Y-125999000D01*
X114880000Y-125999000D02*
X116308000Y-125999000D01*
X118388000Y-126039000D02*
X119803000Y-126039000D01*
X114893000Y-126039000D02*
X116308000Y-126039000D01*
X118388000Y-126079000D02*
X119790000Y-126079000D01*
X114906000Y-126079000D02*
X116308000Y-126079000D01*
X118388000Y-126119000D02*
X119776000Y-126119000D01*
X114920000Y-126119000D02*
X116308000Y-126119000D01*
X118388000Y-126159000D02*
X119762000Y-126159000D01*
X114934000Y-126159000D02*
X116308000Y-126159000D01*
X118388000Y-126199000D02*
X119746000Y-126199000D01*
X114950000Y-126199000D02*
X116308000Y-126199000D01*
X118388000Y-126239000D02*
X119730000Y-126239000D01*
X114966000Y-126239000D02*
X116308000Y-126239000D01*
X118388000Y-126279000D02*
X119713000Y-126279000D01*
X114983000Y-126279000D02*
X116308000Y-126279000D01*
X118388000Y-126319000D02*
X119696000Y-126319000D01*
X115000000Y-126319000D02*
X116308000Y-126319000D01*
X118388000Y-126359000D02*
X119677000Y-126359000D01*
X115019000Y-126359000D02*
X116308000Y-126359000D01*
X118388000Y-126399000D02*
X119658000Y-126399000D01*
X115038000Y-126399000D02*
X116308000Y-126399000D01*
X118388000Y-126439000D02*
X119638000Y-126439000D01*
X115058000Y-126439000D02*
X116308000Y-126439000D01*
X118388000Y-126479000D02*
X119616000Y-126479000D01*
X115080000Y-126479000D02*
X116308000Y-126479000D01*
X118388000Y-126519000D02*
X119595000Y-126519000D01*
X115101000Y-126519000D02*
X116308000Y-126519000D01*
X118388000Y-126559000D02*
X119572000Y-126559000D01*
X115124000Y-126559000D02*
X116308000Y-126559000D01*
X118388000Y-126599000D02*
X119548000Y-126599000D01*
X115148000Y-126599000D02*
X116308000Y-126599000D01*
X118388000Y-126639000D02*
X119523000Y-126639000D01*
X115173000Y-126639000D02*
X116308000Y-126639000D01*
X118388000Y-126679000D02*
X119497000Y-126679000D01*
X115199000Y-126679000D02*
X116308000Y-126679000D01*
X118388000Y-126719000D02*
X119470000Y-126719000D01*
X115226000Y-126719000D02*
X116308000Y-126719000D01*
X118388000Y-126759000D02*
X119443000Y-126759000D01*
X115253000Y-126759000D02*
X116308000Y-126759000D01*
X118388000Y-126799000D02*
X119413000Y-126799000D01*
X115283000Y-126799000D02*
X116308000Y-126799000D01*
X118388000Y-126839000D02*
X119383000Y-126839000D01*
X115313000Y-126839000D02*
X116308000Y-126839000D01*
X118388000Y-126879000D02*
X119352000Y-126879000D01*
X115344000Y-126879000D02*
X116308000Y-126879000D01*
X118388000Y-126919000D02*
X119319000Y-126919000D01*
X115377000Y-126919000D02*
X116308000Y-126919000D01*
X118388000Y-126959000D02*
X119285000Y-126959000D01*
X115411000Y-126959000D02*
X116308000Y-126959000D01*
X118388000Y-126999000D02*
X119249000Y-126999000D01*
X115447000Y-126999000D02*
X116308000Y-126999000D01*
X118388000Y-127039000D02*
X119212000Y-127039000D01*
X115484000Y-127039000D02*
X116308000Y-127039000D01*
X118388000Y-127079000D02*
X119174000Y-127079000D01*
X115522000Y-127079000D02*
X116308000Y-127079000D01*
X118388000Y-127119000D02*
X119133000Y-127119000D01*
X115563000Y-127119000D02*
X116308000Y-127119000D01*
X118388000Y-127159000D02*
X119091000Y-127159000D01*
X115605000Y-127159000D02*
X116308000Y-127159000D01*
X118388000Y-127199000D02*
X119047000Y-127199000D01*
X115649000Y-127199000D02*
X116308000Y-127199000D01*
X118388000Y-127239000D02*
X119001000Y-127239000D01*
X115695000Y-127239000D02*
X116308000Y-127239000D01*
X115743000Y-127279000D02*
X118953000Y-127279000D01*
X115794000Y-127319000D02*
X118902000Y-127319000D01*
X115848000Y-127359000D02*
X118848000Y-127359000D01*
X115905000Y-127399000D02*
X118791000Y-127399000D01*
X115965000Y-127439000D02*
X118731000Y-127439000D01*
X116029000Y-127479000D02*
X118667000Y-127479000D01*
X116097000Y-127519000D02*
X118599000Y-127519000D01*
X116170000Y-127559000D02*
X118526000Y-127559000D01*
X116250000Y-127599000D02*
X118446000Y-127599000D01*
X116337000Y-127639000D02*
X118359000Y-127639000D01*
X116433000Y-127679000D02*
X118263000Y-127679000D01*
X116543000Y-127719000D02*
X118153000Y-127719000D01*
X116671000Y-127759000D02*
X118025000Y-127759000D01*
X116830000Y-127799000D02*
X117866000Y-127799000D01*
X117064000Y-127839000D02*
X117632000Y-127839000D01*
X119968000Y-125238000D02*
G75*
G03*
X119968000Y-125238000I-2620000J0D01*
G01*
X102479389Y-100490058D02*
X102158272Y-100811175D01*
X101439942Y-99450611D02*
X101118825Y-99771728D01*
X120677000Y-119623064D02*
X120677000Y-119168936D01*
X122147000Y-119623064D02*
X122147000Y-119168936D01*
X74031389Y-104681058D02*
X73710272Y-105002175D01*
X72991942Y-103641611D02*
X72670825Y-103962728D01*
X125098000Y-116251000D02*
X125098000Y-115651000D01*
X124398000Y-114951000D02*
X122998000Y-114951000D01*
X122998000Y-116951000D02*
X124398000Y-116951000D01*
X122298000Y-115651000D02*
X122298000Y-116251000D01*
X124398000Y-116951000D02*
G75*
G03*
X125098000Y-116251000I1J699999D01*
G01*
X125098000Y-115651000D02*
G75*
G03*
X124398000Y-114951000I-699999J1D01*
G01*
X122298000Y-116251000D02*
G75*
G03*
X122998000Y-116951000I700000J0D01*
G01*
X122998000Y-114951000D02*
G75*
G03*
X122298000Y-115651000I0J-700000D01*
G01*
X83666175Y-66090272D02*
X83345058Y-66411389D01*
X82626728Y-65050825D02*
X82305611Y-65371942D01*
X98652175Y-86156272D02*
X98331058Y-86477389D01*
X97612728Y-85116825D02*
X97291611Y-85437942D01*
X76444389Y-81313058D02*
X76123272Y-81634175D01*
X75404942Y-80273611D02*
X75083825Y-80594728D01*
X65395389Y-106586058D02*
X65074272Y-106907175D01*
X64355942Y-105546611D02*
X64034825Y-105867728D01*
X63765999Y-110444000D02*
X63765999Y-111044000D01*
X64465999Y-111744000D02*
X65865999Y-111744000D01*
X65865999Y-109744000D02*
X64465999Y-109744000D01*
X66565999Y-111044000D02*
X66565999Y-110444000D01*
X64465999Y-109744000D02*
G75*
G03*
X63765999Y-110444000I-1J-699999D01*
G01*
X63765999Y-111044000D02*
G75*
G03*
X64465999Y-111744000I699999J-1D01*
G01*
X66565999Y-110444000D02*
G75*
G03*
X65865999Y-109744000I-700000J0D01*
G01*
X65865999Y-111744000D02*
G75*
G03*
X66565999Y-111044000I0J700000D01*
G01*
X113003000Y-123978936D02*
X113003000Y-124433064D01*
X111533000Y-123978936D02*
X111533000Y-124433064D01*
X90160389Y-64930058D02*
X89839272Y-65251175D01*
X89120942Y-63890611D02*
X88799825Y-64211728D01*
X121401299Y-125189437D02*
X121825563Y-125613701D01*
X120941680Y-123952000D02*
X121365944Y-123527736D01*
X122780157Y-125649056D02*
X124760056Y-123669157D01*
X121365944Y-123952000D02*
X120941680Y-123952000D01*
X121365944Y-123952000D02*
X121365944Y-123527736D01*
X123345843Y-122254944D02*
X121365944Y-124234843D01*
X124724701Y-122714563D02*
X124300437Y-122290299D01*
X121401300Y-124199488D02*
G75*
G03*
X121401300Y-125189436I494972J-494974D01*
G01*
X121825564Y-125613700D02*
G75*
G03*
X122815512Y-125613700I494974J494972D01*
G01*
X124300437Y-122290299D02*
G75*
G03*
X123310487Y-122290299I-494975J-494975D01*
G01*
X124724701Y-123704513D02*
G75*
G03*
X124724701Y-122714563I-494975J494975D01*
G01*
X96764389Y-63914058D02*
X96443272Y-64235175D01*
X95724942Y-62874611D02*
X95403825Y-63195728D01*
D10*
X123364250Y-107968750D02*
X108364250Y-107968750D01*
X108364250Y-107968750D02*
X108364250Y-112168750D01*
X108364250Y-112168750D02*
X123364250Y-112168750D01*
X123364250Y-112168750D02*
X123364250Y-107968750D01*
D13*
X122983250Y-108349750D02*
X108759250Y-108349750D01*
X108759250Y-108349750D02*
X108759250Y-111778750D01*
X108759250Y-111778750D02*
X122983250Y-111778750D01*
X122983250Y-111778750D02*
X122983250Y-108349750D01*
G36*
X122983250Y-108349750D02*
G01*
X108759250Y-108349750D01*
X108759250Y-111778750D01*
X122983250Y-111778750D01*
X122983250Y-108349750D01*
G37*
X103640936Y-91927000D02*
X105095064Y-91927000D01*
X103640936Y-93747000D02*
X105095064Y-93747000D01*
X92827389Y-101887058D02*
X92506272Y-102208175D01*
X91787942Y-100847611D02*
X91466825Y-101168728D01*
D14*
X103060000Y-126444000D02*
X98010000Y-126444000D01*
X103060000Y-120594000D02*
X103060000Y-126444000D01*
X103060000Y-113594000D02*
X103060000Y-106644000D01*
X103060000Y-106644000D02*
X81960000Y-106644000D01*
X87010000Y-126444000D02*
X81960000Y-126444000D01*
X81960000Y-126444000D02*
X81960000Y-120594000D01*
X81960000Y-106644000D02*
X81960000Y-113594000D01*
X128264977Y-118396886D02*
X127721192Y-118650457D01*
X129361463Y-118382107D02*
X131812649Y-123638692D01*
X127554467Y-120659114D02*
X128272918Y-122199838D01*
X130552735Y-124722720D02*
X131096520Y-124469149D01*
D15*
X125890708Y-119716164D02*
G75*
G03*
X125890708Y-119716164I-100000J0D01*
G01*
D13*
X90160389Y-83853058D02*
X89839272Y-84174175D01*
X89120942Y-82813611D02*
X88799825Y-83134728D01*
X82159389Y-81694058D02*
X81838272Y-82015175D01*
X81119942Y-80654611D02*
X80798825Y-80975728D01*
X111932282Y-100435165D02*
X111611165Y-100756282D01*
X110892835Y-99395718D02*
X110571718Y-99716835D01*
X69148936Y-95737000D02*
X70603064Y-95737000D01*
X69148936Y-97557000D02*
X70603064Y-97557000D01*
X83048389Y-102395058D02*
X82727272Y-102716175D01*
X82008942Y-101355611D02*
X81687825Y-101676728D01*
X119400000Y-117602000D02*
X119400000Y-115652000D01*
X119400000Y-117602000D02*
X119400000Y-119552000D01*
X114280000Y-117602000D02*
X114280000Y-114152000D01*
X114280000Y-117602000D02*
X114280000Y-119552000D01*
X107432389Y-88806058D02*
X107111272Y-89127175D01*
X106392942Y-87766611D02*
X106071825Y-88087728D01*
G36*
X104606103Y-107706352D02*
G01*
X104601843Y-107800192D01*
X104596367Y-107903373D01*
X104591034Y-107986972D01*
X104586285Y-108044181D01*
X104582565Y-108068193D01*
X104580083Y-108071501D01*
X104549284Y-108082875D01*
X104510186Y-108077635D01*
X104485990Y-108058185D01*
X104484346Y-108043235D01*
X104483554Y-107992518D01*
X104484578Y-107914047D01*
X104487305Y-107815087D01*
X104491618Y-107702906D01*
X104506000Y-107372646D01*
X104563358Y-107366084D01*
X104620715Y-107359523D01*
X104606103Y-107706352D01*
G37*
G36*
X104333611Y-107345153D02*
G01*
X104348824Y-107359099D01*
X104354900Y-107393996D01*
X104356000Y-107459381D01*
X104354645Y-107510664D01*
X104349553Y-107563959D01*
X104341976Y-107590175D01*
X104332540Y-107595777D01*
X104296976Y-107598314D01*
X104296358Y-107598189D01*
X104277805Y-107582768D01*
X104266366Y-107541566D01*
X104260046Y-107467519D01*
X104259162Y-107448588D01*
X104257737Y-107388395D01*
X104262694Y-107356818D01*
X104277356Y-107344634D01*
X104305046Y-107342622D01*
X104305099Y-107342622D01*
X104333611Y-107345153D01*
G37*
G36*
X100394415Y-107382904D02*
G01*
X100409029Y-107386427D01*
X100420554Y-107397809D01*
X100429738Y-107421637D01*
X100437330Y-107462500D01*
X100444078Y-107524985D01*
X100450730Y-107613680D01*
X100458035Y-107733173D01*
X100466741Y-107888051D01*
X100478676Y-108103221D01*
X100420394Y-108103221D01*
X100362112Y-108103221D01*
X100349147Y-107878044D01*
X100345563Y-107810578D01*
X100340710Y-107699348D01*
X100337362Y-107596478D01*
X100336091Y-107517760D01*
X100336121Y-107491671D01*
X100337775Y-107430674D01*
X100344246Y-107398084D01*
X100358698Y-107385033D01*
X100384294Y-107382653D01*
X100394415Y-107382904D01*
G37*
G36*
X100960472Y-107364009D02*
G01*
X101004081Y-107367815D01*
X101026510Y-107375943D01*
X101034802Y-107389982D01*
X101036000Y-107411526D01*
X101035947Y-107416666D01*
X101029546Y-107445596D01*
X101004847Y-107459889D01*
X100951000Y-107466570D01*
X100866000Y-107472724D01*
X100873510Y-107777965D01*
X100881020Y-108083205D01*
X100828510Y-108083205D01*
X100792703Y-108076713D01*
X100773638Y-108058185D01*
X100773382Y-108054952D01*
X100771257Y-108018619D01*
X100767813Y-107952370D01*
X100763467Y-107864412D01*
X100758638Y-107762953D01*
X100746000Y-107492740D01*
X100661999Y-107486634D01*
X100627629Y-107482854D01*
X100584738Y-107468092D01*
X100564859Y-107439100D01*
X100561441Y-107425805D01*
X100563848Y-107399314D01*
X100585949Y-107381287D01*
X100632803Y-107370218D01*
X100709468Y-107364605D01*
X100821000Y-107362944D01*
X100888639Y-107362931D01*
X100960472Y-107364009D01*
G37*
G36*
X101716000Y-108384041D02*
G01*
X101886000Y-108384541D01*
X102951651Y-109439823D01*
X103035200Y-109522559D01*
X103228255Y-109713840D01*
X103395291Y-109879722D01*
X103538029Y-110022190D01*
X103658193Y-110143232D01*
X103757506Y-110244834D01*
X103837690Y-110328981D01*
X103900470Y-110397661D01*
X103947568Y-110452860D01*
X103980707Y-110496565D01*
X104001611Y-110530760D01*
X104012001Y-110557434D01*
X104013603Y-110578572D01*
X104008138Y-110596160D01*
X103997329Y-110612186D01*
X103982901Y-110628635D01*
X103944304Y-110653459D01*
X103888266Y-110665238D01*
X103879471Y-110664209D01*
X103863098Y-110658090D01*
X103841027Y-110644897D01*
X103811384Y-110622853D01*
X103772296Y-110590180D01*
X103721889Y-110545099D01*
X103658291Y-110485832D01*
X103579627Y-110410601D01*
X103484025Y-110317628D01*
X103369611Y-110205134D01*
X103234511Y-110071342D01*
X103076853Y-109914472D01*
X102894762Y-109732748D01*
X102686366Y-109524390D01*
X101546000Y-108383541D01*
X101716000Y-108384041D01*
G37*
G36*
X103197121Y-107335937D02*
G01*
X103304026Y-107378926D01*
X103388938Y-107452273D01*
X103447282Y-107553359D01*
X103467850Y-107633074D01*
X103467792Y-107744425D01*
X103437618Y-107849286D01*
X103380359Y-107938468D01*
X103299044Y-108002784D01*
X103253652Y-108021132D01*
X103156618Y-108039463D01*
X103052234Y-108039819D01*
X102958985Y-108021200D01*
X102958078Y-108020883D01*
X102910706Y-107998194D01*
X102898136Y-107969484D01*
X102915538Y-107923945D01*
X102919894Y-107916188D01*
X102936562Y-107899316D01*
X102964374Y-107899430D01*
X103016343Y-107915432D01*
X103109966Y-107931298D01*
X103197632Y-107914881D01*
X103270647Y-107871103D01*
X103323976Y-107806174D01*
X103352583Y-107726305D01*
X103351432Y-107637703D01*
X103315488Y-107546579D01*
X103305196Y-107531164D01*
X103236345Y-107468286D01*
X103146596Y-107433773D01*
X103045556Y-107431713D01*
X103016574Y-107435267D01*
X102966356Y-107432769D01*
X102935930Y-107412593D01*
X102924286Y-107394232D01*
X102928627Y-107363370D01*
X102971204Y-107341231D01*
X103052492Y-107327467D01*
X103072796Y-107325921D01*
X103197121Y-107335937D01*
G37*
G36*
X100209965Y-107850300D02*
G01*
X100175220Y-107956708D01*
X100107884Y-108041098D01*
X100006000Y-108106608D01*
X99902926Y-108135153D01*
X99794494Y-108129941D01*
X99690826Y-108094093D01*
X99601575Y-108030954D01*
X99536396Y-107943870D01*
X99503179Y-107848172D01*
X99501771Y-107812754D01*
X99610053Y-107812754D01*
X99638451Y-107898650D01*
X99698120Y-107971832D01*
X99732412Y-107995820D01*
X99816988Y-108024472D01*
X99904968Y-108020972D01*
X99987122Y-107988218D01*
X100054222Y-107929109D01*
X100097036Y-107846545D01*
X100107058Y-107791103D01*
X100096422Y-107702357D01*
X100056531Y-107625844D01*
X99994062Y-107567045D01*
X99915695Y-107531444D01*
X99828107Y-107524523D01*
X99737977Y-107551764D01*
X99703495Y-107573525D01*
X99643474Y-107640717D01*
X99612027Y-107723618D01*
X99610053Y-107812754D01*
X99501771Y-107812754D01*
X99498757Y-107736949D01*
X99527260Y-107631473D01*
X99585324Y-107539044D01*
X99669586Y-107466961D01*
X99776680Y-107422522D01*
X99866201Y-107411592D01*
X99976824Y-107428637D01*
X100072855Y-107477503D01*
X100148554Y-107553656D01*
X100198182Y-107652559D01*
X100216000Y-107769679D01*
X100214396Y-107791103D01*
X100209965Y-107850300D01*
G37*
G36*
X104863707Y-107363325D02*
G01*
X104878862Y-107369825D01*
X104888505Y-107388979D01*
X104894235Y-107427630D01*
X104897655Y-107492618D01*
X104900366Y-107590786D01*
X104906000Y-107818934D01*
X105156000Y-107600245D01*
X105210278Y-107552435D01*
X105287449Y-107484792D01*
X105343523Y-107440470D01*
X105381519Y-107421857D01*
X105404452Y-107431341D01*
X105415340Y-107471308D01*
X105417199Y-107544146D01*
X105413045Y-107652241D01*
X105405895Y-107797980D01*
X105391789Y-108103221D01*
X105331922Y-108103221D01*
X105272055Y-108103221D01*
X105286599Y-107870268D01*
X105291867Y-107777388D01*
X105293942Y-107708512D01*
X105291811Y-107668713D01*
X105285134Y-107652343D01*
X105273572Y-107653753D01*
X105270667Y-107655688D01*
X105240779Y-107679655D01*
X105189101Y-107723898D01*
X105122040Y-107782864D01*
X105046000Y-107851000D01*
X105033387Y-107862400D01*
X104955833Y-107932370D01*
X104886479Y-107994746D01*
X104832478Y-108043104D01*
X104800981Y-108071022D01*
X104755961Y-108110236D01*
X104766766Y-107861535D01*
X104771223Y-107766760D01*
X104777149Y-107656474D01*
X104783130Y-107558921D01*
X104788377Y-107487736D01*
X104795466Y-107419938D01*
X104804793Y-107382025D01*
X104820533Y-107365965D01*
X104846958Y-107362638D01*
X104863707Y-107363325D01*
G37*
G36*
X102796000Y-107680318D02*
G01*
X102796000Y-108043174D01*
X102736000Y-108043174D01*
X102676000Y-108043174D01*
X102676000Y-107913071D01*
X102675969Y-107890340D01*
X102674355Y-107829792D01*
X102667711Y-107797746D01*
X102652506Y-107785155D01*
X102625207Y-107782969D01*
X102605058Y-107785571D01*
X102574071Y-107803355D01*
X102538483Y-107843661D01*
X102491535Y-107913071D01*
X102476775Y-107936077D01*
X102437140Y-107993687D01*
X102406790Y-108025959D01*
X102377413Y-108040065D01*
X102340697Y-108043174D01*
X102272738Y-108043174D01*
X102317884Y-107968114D01*
X102325127Y-107956167D01*
X102365711Y-107891491D01*
X102402752Y-107835377D01*
X102416810Y-107813564D01*
X102430452Y-107775863D01*
X102419114Y-107745306D01*
X102362254Y-107646160D01*
X102341511Y-107553255D01*
X102346670Y-107528927D01*
X102459540Y-107528927D01*
X102460284Y-107585665D01*
X102496000Y-107642858D01*
X102534775Y-107668471D01*
X102606000Y-107682890D01*
X102676000Y-107682890D01*
X102676000Y-107562795D01*
X102676000Y-107442701D01*
X102599100Y-107442701D01*
X102545941Y-107449885D01*
X102489512Y-107480912D01*
X102459540Y-107528927D01*
X102346670Y-107528927D01*
X102359352Y-107469123D01*
X102415767Y-107392885D01*
X102423348Y-107385745D01*
X102457591Y-107359043D01*
X102496519Y-107342673D01*
X102551905Y-107333093D01*
X102635518Y-107326760D01*
X102796000Y-107317463D01*
X102796000Y-107442701D01*
X102796000Y-107680318D01*
G37*
G36*
X107519820Y-107842367D02*
G01*
X107511408Y-107945091D01*
X107501896Y-108044847D01*
X107491937Y-108133001D01*
X107482186Y-108200917D01*
X107470566Y-108268590D01*
X107329712Y-108255489D01*
X107269103Y-108247775D01*
X107143807Y-108213247D01*
X107048881Y-108155454D01*
X106981934Y-108073140D01*
X106944174Y-107971018D01*
X106941263Y-107907507D01*
X107056000Y-107907507D01*
X107073608Y-107998662D01*
X107125136Y-108073206D01*
X107206536Y-108123440D01*
X107251268Y-108135768D01*
X107315032Y-108143252D01*
X107333677Y-108142583D01*
X107353027Y-108136648D01*
X107367347Y-108119666D01*
X107378329Y-108085867D01*
X107387665Y-108029486D01*
X107397048Y-107944755D01*
X107408170Y-107825908D01*
X107412523Y-107768737D01*
X107411533Y-107703171D01*
X107397279Y-107665235D01*
X107366012Y-107647658D01*
X107313985Y-107643165D01*
X107290792Y-107643848D01*
X107194333Y-107667707D01*
X107120265Y-107722456D01*
X107072763Y-107803815D01*
X107056000Y-107907507D01*
X106941263Y-107907507D01*
X106939146Y-107861320D01*
X106965791Y-107755529D01*
X107021753Y-107662862D01*
X107104679Y-107592536D01*
X107149770Y-107568971D01*
X107200590Y-107552593D01*
X107263896Y-107544776D01*
X107353385Y-107542780D01*
X107426555Y-107543808D01*
X107483834Y-107548544D01*
X107515570Y-107558449D01*
X107529593Y-107574954D01*
X107531911Y-107602719D01*
X107530725Y-107662546D01*
X107526476Y-107745307D01*
X107524869Y-107768737D01*
X107519820Y-107842367D01*
G37*
G36*
X105647690Y-107402669D02*
G01*
X105678077Y-107406380D01*
X105704546Y-107420330D01*
X105707179Y-107438585D01*
X105707323Y-107490213D01*
X105704222Y-107565514D01*
X105698122Y-107655515D01*
X105692381Y-107729707D01*
X105687008Y-107804621D01*
X105683830Y-107856101D01*
X105683396Y-107875916D01*
X105695215Y-107867266D01*
X105732974Y-107836459D01*
X105791903Y-107787259D01*
X105867099Y-107723763D01*
X105953663Y-107650067D01*
X106029945Y-107585290D01*
X106107161Y-107520673D01*
X106168911Y-107470058D01*
X106210252Y-107437491D01*
X106226241Y-107427017D01*
X106226455Y-107429031D01*
X106225501Y-107459130D01*
X106222306Y-107519250D01*
X106217383Y-107601700D01*
X106211243Y-107698792D01*
X106204399Y-107802838D01*
X106197362Y-107906149D01*
X106190645Y-108001036D01*
X106184760Y-108079810D01*
X106180219Y-108134782D01*
X106177534Y-108158264D01*
X106162642Y-108161629D01*
X106123000Y-108163268D01*
X106069999Y-108163268D01*
X106083680Y-107921004D01*
X106097360Y-107678740D01*
X105949600Y-107805914D01*
X105929203Y-107823480D01*
X105841923Y-107898823D01*
X105751877Y-107976776D01*
X105675629Y-108043004D01*
X105549417Y-108152921D01*
X105562916Y-107952933D01*
X105569860Y-107849780D01*
X105579390Y-107709303D01*
X105587128Y-107601728D01*
X105593747Y-107522682D01*
X105599921Y-107467793D01*
X105606324Y-107432688D01*
X105613628Y-107412996D01*
X105622508Y-107404344D01*
X105633638Y-107402359D01*
X105647690Y-107402669D01*
G37*
G36*
X103950952Y-107343874D02*
G01*
X104002994Y-107350823D01*
X104040409Y-107368404D01*
X104077539Y-107401130D01*
X104121787Y-107460537D01*
X104136000Y-107527743D01*
X104129555Y-107574487D01*
X104097491Y-107629238D01*
X104034473Y-107677119D01*
X103936000Y-107722512D01*
X103890491Y-107741758D01*
X103816291Y-107785508D01*
X103780481Y-107829558D01*
X103783576Y-107873010D01*
X103826086Y-107914968D01*
X103853747Y-107928582D01*
X103927659Y-107944280D01*
X104007917Y-107943034D01*
X104074106Y-107924094D01*
X104079222Y-107921439D01*
X104111996Y-107914812D01*
X104135161Y-107941524D01*
X104153372Y-107986278D01*
X104144305Y-108017128D01*
X104101000Y-108039925D01*
X104045499Y-108054863D01*
X103945580Y-108061497D01*
X103846927Y-108047230D01*
X103761594Y-108014324D01*
X103701637Y-107965039D01*
X103697187Y-107957838D01*
X103682770Y-107911134D01*
X103676637Y-107850749D01*
X103685584Y-107785724D01*
X103721926Y-107723687D01*
X103790056Y-107671579D01*
X103894067Y-107625155D01*
X103968505Y-107593038D01*
X104015425Y-107557577D01*
X104025927Y-107520117D01*
X104001854Y-107478147D01*
X103994221Y-107470322D01*
X103964166Y-107451775D01*
X103919103Y-107444518D01*
X103846779Y-107446014D01*
X103799221Y-107448078D01*
X103751981Y-107446162D01*
X103728608Y-107435943D01*
X103719440Y-107415076D01*
X103721189Y-107382353D01*
X103747028Y-107359262D01*
X103802507Y-107346803D01*
X103892539Y-107342928D01*
X103950952Y-107343874D01*
G37*
G36*
X102132433Y-107330836D02*
G01*
X102158442Y-107334124D01*
X102163237Y-107350376D01*
X102168330Y-107401146D01*
X102172373Y-107479694D01*
X102175039Y-107579328D01*
X102176000Y-107693354D01*
X102176000Y-108041724D01*
X101981000Y-108048597D01*
X101904122Y-108051310D01*
X101817818Y-108053737D01*
X101760894Y-108053172D01*
X101726984Y-108048471D01*
X101709722Y-108038493D01*
X101702740Y-108022096D01*
X101699672Y-107998138D01*
X101693344Y-107943095D01*
X101884672Y-107943095D01*
X102076000Y-107943095D01*
X102075694Y-107868036D01*
X102075532Y-107858317D01*
X102070310Y-107803816D01*
X102060111Y-107768923D01*
X102034332Y-107755964D01*
X101976442Y-107745219D01*
X101895417Y-107738899D01*
X101865681Y-107737632D01*
X101800450Y-107733099D01*
X101763530Y-107725209D01*
X101746167Y-107711095D01*
X101739609Y-107687894D01*
X101738089Y-107670193D01*
X101744436Y-107654845D01*
X101767455Y-107646680D01*
X101814921Y-107643437D01*
X101894609Y-107642858D01*
X102056000Y-107642858D01*
X102056000Y-107542780D01*
X102056000Y-107442701D01*
X101876000Y-107442701D01*
X101869237Y-107442700D01*
X101786365Y-107442141D01*
X101735296Y-107439171D01*
X101708338Y-107431782D01*
X101697803Y-107417967D01*
X101696000Y-107395720D01*
X101696498Y-107382080D01*
X101702410Y-107365841D01*
X101720657Y-107354966D01*
X101758142Y-107347603D01*
X101821770Y-107341899D01*
X101918442Y-107336001D01*
X101996157Y-107332281D01*
X102075383Y-107330245D01*
X102132433Y-107330836D01*
G37*
G36*
X99335572Y-107442794D02*
G01*
X99342387Y-107463977D01*
X99349966Y-107516986D01*
X99357414Y-107594173D01*
X99363837Y-107687894D01*
X99369375Y-107779947D01*
X99376595Y-107887260D01*
X99383682Y-107981086D01*
X99389687Y-108048177D01*
X99401699Y-108163268D01*
X99341320Y-108163268D01*
X99280942Y-108163268D01*
X99263471Y-107929273D01*
X99246000Y-107695277D01*
X99016654Y-107961260D01*
X98967006Y-108018678D01*
X98897244Y-108098125D01*
X98847422Y-108152125D01*
X98813847Y-108184008D01*
X98792825Y-108197103D01*
X98780661Y-108194738D01*
X98773663Y-108180243D01*
X98770912Y-108167215D01*
X98763693Y-108114848D01*
X98755058Y-108034825D01*
X98745859Y-107935403D01*
X98736949Y-107824837D01*
X98730705Y-107737814D01*
X98725027Y-107634994D01*
X98724772Y-107563497D01*
X98730841Y-107518183D01*
X98744135Y-107493913D01*
X98765554Y-107485546D01*
X98796000Y-107487944D01*
X98802835Y-107490868D01*
X98815573Y-107510910D01*
X98826269Y-107554251D01*
X98836062Y-107626462D01*
X98846088Y-107733112D01*
X98848328Y-107759279D01*
X98858000Y-107855815D01*
X98867122Y-107916076D01*
X98876287Y-107943127D01*
X98886088Y-107940035D01*
X98891797Y-107931619D01*
X98921904Y-107893619D01*
X98969563Y-107837404D01*
X99029302Y-107769031D01*
X99095654Y-107694558D01*
X99163148Y-107620043D01*
X99226315Y-107551542D01*
X99279684Y-107495113D01*
X99317788Y-107456813D01*
X99335156Y-107442701D01*
X99335572Y-107442794D01*
G37*
G36*
X106798788Y-107910774D02*
G01*
X106832731Y-108011683D01*
X106860654Y-108094270D01*
X106880342Y-108151986D01*
X106889580Y-108178280D01*
X106883058Y-108196448D01*
X106840266Y-108203300D01*
X106825222Y-108202935D01*
X106793990Y-108194655D01*
X106773918Y-108167617D01*
X106755536Y-108111567D01*
X106736886Y-108060202D01*
X106700315Y-108013576D01*
X106643108Y-107989787D01*
X106556414Y-107983126D01*
X106520478Y-107984668D01*
X106485822Y-107995896D01*
X106455903Y-108025387D01*
X106418868Y-108081633D01*
X106409442Y-108096748D01*
X106373577Y-108146908D01*
X106345087Y-108168818D01*
X106316184Y-108169116D01*
X106291635Y-108157626D01*
X106280032Y-108135660D01*
X106281854Y-108130405D01*
X106298542Y-108093738D01*
X106328884Y-108032574D01*
X106369331Y-107953591D01*
X106411833Y-107872104D01*
X106539605Y-107872104D01*
X106540197Y-107872490D01*
X106564865Y-107879813D01*
X106611000Y-107889680D01*
X106615554Y-107890518D01*
X106656044Y-107892379D01*
X106673776Y-107875552D01*
X106670403Y-107834316D01*
X106647573Y-107762953D01*
X106622189Y-107692898D01*
X106577700Y-107779904D01*
X106562782Y-107810166D01*
X106544133Y-107853030D01*
X106539605Y-107872104D01*
X106411833Y-107872104D01*
X106416337Y-107863468D01*
X106466353Y-107768884D01*
X106515832Y-107676517D01*
X106561228Y-107593045D01*
X106598992Y-107525148D01*
X106625578Y-107479503D01*
X106637437Y-107462790D01*
X106646362Y-107479087D01*
X106665818Y-107527703D01*
X106693433Y-107602709D01*
X106727009Y-107698130D01*
X106764350Y-107807988D01*
X106786987Y-107875552D01*
X106798788Y-107910774D01*
G37*
G36*
X101553797Y-107802009D02*
G01*
X101593716Y-107892005D01*
X101626187Y-107966897D01*
X101648014Y-108019647D01*
X101656000Y-108043217D01*
X101645338Y-108055898D01*
X101609419Y-108063189D01*
X101578093Y-108055150D01*
X101548840Y-108024430D01*
X101516000Y-107963111D01*
X101469163Y-107863032D01*
X101344236Y-107863032D01*
X101219309Y-107863032D01*
X101183681Y-107958107D01*
X101170253Y-107991443D01*
X101145806Y-108041730D01*
X101127027Y-108067887D01*
X101123677Y-108070054D01*
X101087374Y-108081564D01*
X101051945Y-108079838D01*
X101036000Y-108065386D01*
X101036630Y-108061819D01*
X101047517Y-108028131D01*
X101069850Y-107966756D01*
X101100920Y-107885000D01*
X101138021Y-107790170D01*
X101142895Y-107777864D01*
X101148776Y-107762953D01*
X101258428Y-107762953D01*
X101338881Y-107762953D01*
X101357960Y-107762515D01*
X101399308Y-107757251D01*
X101412567Y-107747941D01*
X101410693Y-107743573D01*
X101396878Y-107709180D01*
X101376883Y-107657870D01*
X101370260Y-107641557D01*
X101349206Y-107599618D01*
X101333863Y-107582811D01*
X101327611Y-107587719D01*
X101309740Y-107620141D01*
X101289095Y-107672882D01*
X101258428Y-107762953D01*
X101148776Y-107762953D01*
X101184487Y-107672404D01*
X101224075Y-107571277D01*
X101257388Y-107485433D01*
X101280155Y-107425822D01*
X101299318Y-107380423D01*
X101320729Y-107343384D01*
X101334659Y-107335751D01*
X101336923Y-107339016D01*
X101354389Y-107371825D01*
X101383590Y-107431762D01*
X101421328Y-107511787D01*
X101464406Y-107604862D01*
X101509628Y-107703949D01*
X101529443Y-107747941D01*
X101553797Y-107802009D01*
G37*
G36*
X98436730Y-107538944D02*
G01*
X98514562Y-107578432D01*
X98568198Y-107649025D01*
X98577147Y-107670091D01*
X98586945Y-107731942D01*
X98565687Y-107788287D01*
X98510678Y-107843715D01*
X98419225Y-107902816D01*
X98346049Y-107948149D01*
X98284353Y-108000684D01*
X98261045Y-108046305D01*
X98275738Y-108085942D01*
X98328042Y-108120525D01*
X98343649Y-108127237D01*
X98395136Y-108140410D01*
X98450742Y-108135771D01*
X98526000Y-108112707D01*
X98537650Y-108108559D01*
X98584568Y-108094873D01*
X98611059Y-108097617D01*
X98631000Y-108117411D01*
X98644058Y-108136143D01*
X98652763Y-108163886D01*
X98633409Y-108185463D01*
X98581000Y-108210135D01*
X98546156Y-108221410D01*
X98469453Y-108236108D01*
X98389462Y-108242300D01*
X98348882Y-108242081D01*
X98293127Y-108236192D01*
X98253513Y-108218811D01*
X98214462Y-108184824D01*
X98197151Y-108166360D01*
X98164693Y-108112213D01*
X98156000Y-108043998D01*
X98158585Y-108004130D01*
X98173749Y-107957386D01*
X98207752Y-107914897D01*
X98266525Y-107869887D01*
X98356000Y-107815581D01*
X98356127Y-107815509D01*
X98429582Y-107765099D01*
X98463595Y-107720589D01*
X98458248Y-107681736D01*
X98413625Y-107648299D01*
X98378638Y-107635790D01*
X98333179Y-107635298D01*
X98268329Y-107651163D01*
X98231385Y-107661911D01*
X98191395Y-107669430D01*
X98169684Y-107662184D01*
X98153852Y-107638840D01*
X98153299Y-107637799D01*
X98142622Y-107603703D01*
X98156273Y-107578770D01*
X98199432Y-107558842D01*
X98277275Y-107539763D01*
X98336490Y-107531234D01*
X98436730Y-107538944D01*
G37*
G36*
X106675870Y-105472591D02*
G01*
X106720147Y-105528485D01*
X106736000Y-105609609D01*
X106728305Y-105677432D01*
X106698879Y-105728747D01*
X106681026Y-105740197D01*
X106629011Y-105767441D01*
X106549814Y-105805960D01*
X106448910Y-105853158D01*
X106331773Y-105906444D01*
X106203879Y-105963223D01*
X106104234Y-106007144D01*
X105986893Y-106059446D01*
X105885651Y-106105225D01*
X105805658Y-106142128D01*
X105752062Y-106167801D01*
X105730010Y-106179889D01*
X105729279Y-106180728D01*
X105729603Y-106187136D01*
X105740446Y-106196952D01*
X105765082Y-106211733D01*
X105806789Y-106233039D01*
X105868840Y-106262426D01*
X105954512Y-106301453D01*
X106067079Y-106351678D01*
X106209817Y-106414659D01*
X106386000Y-106491955D01*
X106413667Y-106504195D01*
X106509698Y-106548567D01*
X106593389Y-106590018D01*
X106656553Y-106624373D01*
X106691000Y-106647458D01*
X106709616Y-106669908D01*
X106733457Y-106735838D01*
X106732199Y-106810540D01*
X106704866Y-106877806D01*
X106687782Y-106897511D01*
X106648397Y-106916979D01*
X106584350Y-106922291D01*
X106555380Y-106919786D01*
X106515179Y-106910669D01*
X106461597Y-106893411D01*
X106390849Y-106866493D01*
X106299149Y-106828396D01*
X106182712Y-106777602D01*
X106037752Y-106712591D01*
X105860484Y-106631845D01*
X105738563Y-106575554D01*
X105596880Y-106508869D01*
X105469427Y-106447497D01*
X105360659Y-106393648D01*
X105275028Y-106349536D01*
X105216991Y-106317372D01*
X105191000Y-106299368D01*
X105180034Y-106284039D01*
X105157783Y-106214940D01*
X105165002Y-106139544D01*
X105201000Y-106073475D01*
X105216382Y-106061576D01*
X105266810Y-106031929D01*
X105345254Y-105990448D01*
X105446464Y-105939558D01*
X105565192Y-105881686D01*
X105696189Y-105819258D01*
X105834207Y-105754702D01*
X105973996Y-105690443D01*
X106110307Y-105628909D01*
X106237893Y-105572526D01*
X106351504Y-105523721D01*
X106445891Y-105484920D01*
X106515806Y-105458549D01*
X106556000Y-105447036D01*
X106608093Y-105446376D01*
X106675870Y-105472591D01*
G37*
G36*
X99560157Y-109199084D02*
G01*
X99561256Y-109348572D01*
X99562745Y-109524606D01*
X99564386Y-109667469D01*
X99566398Y-109781149D01*
X99569001Y-109869634D01*
X99572412Y-109936911D01*
X99576850Y-109986971D01*
X99582535Y-110023800D01*
X99589683Y-110051387D01*
X99598515Y-110073721D01*
X99609248Y-110094789D01*
X99655089Y-110164629D01*
X99748121Y-110262628D01*
X99856000Y-110337741D01*
X99859857Y-110339744D01*
X99876151Y-110346876D01*
X99896709Y-110353007D01*
X99924510Y-110358229D01*
X99962531Y-110362633D01*
X100013750Y-110366308D01*
X100081146Y-110369347D01*
X100167696Y-110371840D01*
X100276378Y-110373877D01*
X100410171Y-110375550D01*
X100572051Y-110376949D01*
X100764998Y-110378164D01*
X100991988Y-110379288D01*
X101256000Y-110380409D01*
X102586000Y-110385809D01*
X101586076Y-109384625D01*
X100586151Y-108383441D01*
X100756134Y-108383441D01*
X100926118Y-108383441D01*
X102206059Y-109665674D01*
X102212494Y-109672121D01*
X102400516Y-109860325D01*
X102580787Y-110040487D01*
X102751257Y-110210577D01*
X102909878Y-110368563D01*
X103054602Y-110512413D01*
X103183380Y-110640097D01*
X103294163Y-110749584D01*
X103384904Y-110838842D01*
X103453553Y-110905839D01*
X103498062Y-110948546D01*
X103516383Y-110964930D01*
X103526758Y-110969134D01*
X103571428Y-110983106D01*
X103643324Y-111003536D01*
X103735862Y-111028733D01*
X103842456Y-111057007D01*
X103956524Y-111086670D01*
X104071480Y-111116031D01*
X104180742Y-111143401D01*
X104277724Y-111167090D01*
X104355842Y-111185408D01*
X104408513Y-111196665D01*
X104429153Y-111199173D01*
X104428892Y-111192975D01*
X104421365Y-111154506D01*
X104405704Y-111085770D01*
X104383235Y-110992330D01*
X104355279Y-110879748D01*
X104323159Y-110753585D01*
X104210207Y-110314962D01*
X103248181Y-109349202D01*
X102286155Y-108383441D01*
X102461710Y-108383441D01*
X102637264Y-108383441D01*
X103534879Y-109279147D01*
X103635420Y-109379486D01*
X103802750Y-109546616D01*
X103944973Y-109689025D01*
X104064199Y-109809007D01*
X104162541Y-109908856D01*
X104242110Y-109990864D01*
X104305018Y-110057326D01*
X104353376Y-110110535D01*
X104389297Y-110152786D01*
X104414891Y-110186371D01*
X104432272Y-110213585D01*
X104443549Y-110236721D01*
X104450835Y-110258073D01*
X104456242Y-110279935D01*
X104479990Y-110385018D01*
X105684801Y-110385018D01*
X106889612Y-110385018D01*
X107013085Y-110323268D01*
X107020560Y-110319487D01*
X107127253Y-110251507D01*
X107206887Y-110166718D01*
X107270382Y-110053680D01*
X107276333Y-110039255D01*
X107284371Y-110012919D01*
X107290950Y-109978630D01*
X107296260Y-109932376D01*
X107300495Y-109870148D01*
X107303846Y-109787937D01*
X107306504Y-109681733D01*
X107308662Y-109547527D01*
X107310512Y-109381308D01*
X107312246Y-109179068D01*
X107318491Y-108383441D01*
X107438271Y-108383441D01*
X107558051Y-108383441D01*
X107552026Y-109210186D01*
X107546000Y-110036930D01*
X107470554Y-110189650D01*
X107452895Y-110223838D01*
X107360306Y-110361686D01*
X107244534Y-110471348D01*
X107098423Y-110559945D01*
X106986000Y-110615199D01*
X105771000Y-110620797D01*
X105540477Y-110621961D01*
X105317145Y-110623381D01*
X105128733Y-110624992D01*
X104972551Y-110626865D01*
X104845913Y-110629072D01*
X104746131Y-110631686D01*
X104670517Y-110634777D01*
X104616385Y-110638420D01*
X104581046Y-110642685D01*
X104561814Y-110647644D01*
X104556000Y-110653370D01*
X104556450Y-110658167D01*
X104563955Y-110696612D01*
X104579282Y-110763530D01*
X104600580Y-110851047D01*
X104626000Y-110951291D01*
X104633116Y-110979090D01*
X104657713Y-111079472D01*
X104677523Y-111166978D01*
X104690674Y-111233016D01*
X104695292Y-111268994D01*
X104688988Y-111311544D01*
X104652817Y-111384834D01*
X104593799Y-111437936D01*
X104577507Y-111446177D01*
X104548327Y-111456056D01*
X104512817Y-111460371D01*
X104466378Y-111458383D01*
X104404407Y-111449354D01*
X104322304Y-111432545D01*
X104215468Y-111407218D01*
X104079299Y-111372633D01*
X103909195Y-111328054D01*
X103392390Y-111191531D01*
X103109195Y-110908790D01*
X102826000Y-110626048D01*
X101356000Y-110620624D01*
X99886000Y-110615199D01*
X99756000Y-110553259D01*
X99616232Y-110468196D01*
X99489312Y-110346584D01*
X99389183Y-110195698D01*
X99326000Y-110074773D01*
X99319996Y-109229107D01*
X99313991Y-108383441D01*
X99434153Y-108383441D01*
X99554314Y-108383441D01*
X99560157Y-109199084D01*
G37*
G36*
X99556001Y-105311177D02*
G01*
X100355102Y-106110781D01*
X100526001Y-106281787D01*
X100626937Y-106382869D01*
X100784882Y-106541379D01*
X100932829Y-106690271D01*
X101068488Y-106827213D01*
X101189565Y-106949876D01*
X101293769Y-107055932D01*
X101378807Y-107143050D01*
X101442386Y-107208901D01*
X101482215Y-107251156D01*
X101496000Y-107267485D01*
X101495003Y-107269201D01*
X101468935Y-107276001D01*
X101414692Y-107280774D01*
X101341920Y-107282575D01*
X101187839Y-107282575D01*
X100692031Y-106787827D01*
X100196223Y-106293080D01*
X100095828Y-106392044D01*
X100005072Y-106481505D01*
X99995432Y-106491007D01*
X100375716Y-106871967D01*
X100377130Y-106873383D01*
X100477595Y-106974570D01*
X100568028Y-107066669D01*
X100644758Y-107145859D01*
X100704111Y-107208317D01*
X100742416Y-107250221D01*
X100756000Y-107267751D01*
X100754939Y-107269485D01*
X100728626Y-107276143D01*
X100674181Y-107280813D01*
X100601228Y-107282575D01*
X100446455Y-107282575D01*
X100136087Y-106972417D01*
X99825719Y-106662259D01*
X99670318Y-106816278D01*
X99514917Y-106970298D01*
X99655459Y-107111895D01*
X99695041Y-107152366D01*
X99747077Y-107207738D01*
X99782756Y-107248545D01*
X99796000Y-107268034D01*
X99795996Y-107268126D01*
X99776732Y-107273740D01*
X99725338Y-107278334D01*
X99649562Y-107281436D01*
X99557150Y-107282575D01*
X99318300Y-107282575D01*
X99312150Y-107201004D01*
X99311062Y-107190125D01*
X99307170Y-107171722D01*
X99298815Y-107151164D01*
X99283826Y-107126079D01*
X99260031Y-107094097D01*
X99225260Y-107052845D01*
X99177342Y-106999951D01*
X99114104Y-106933044D01*
X99033375Y-106849751D01*
X98932985Y-106747703D01*
X98810761Y-106624525D01*
X98664533Y-106477848D01*
X98492130Y-106305299D01*
X98391455Y-106204423D01*
X98201312Y-106012764D01*
X98190288Y-106001535D01*
X98546354Y-106001535D01*
X98935985Y-106391858D01*
X98945557Y-106401443D01*
X99047038Y-106502665D01*
X99138937Y-106593618D01*
X99217534Y-106670673D01*
X99279109Y-106730203D01*
X99319940Y-106768582D01*
X99336309Y-106782181D01*
X99347619Y-106774234D01*
X99382392Y-106742986D01*
X99434022Y-106693552D01*
X99496218Y-106631843D01*
X99645435Y-106481505D01*
X99250767Y-106086526D01*
X98856098Y-105691546D01*
X98701226Y-105846541D01*
X98546354Y-106001535D01*
X98190288Y-106001535D01*
X98040080Y-105848533D01*
X97907684Y-105711650D01*
X97804047Y-105602034D01*
X97729093Y-105519606D01*
X97682746Y-105464284D01*
X97664928Y-105435989D01*
X97656844Y-105395669D01*
X97655293Y-105361183D01*
X97906334Y-105361183D01*
X98136167Y-105591019D01*
X98366000Y-105820855D01*
X98665117Y-105521752D01*
X99026949Y-105521752D01*
X99416282Y-105911777D01*
X99425583Y-105921091D01*
X99527057Y-106022298D01*
X99618973Y-106113242D01*
X99697606Y-106190293D01*
X99759231Y-106249823D01*
X99800124Y-106288203D01*
X99816560Y-106301802D01*
X99834717Y-106288915D01*
X99872476Y-106254573D01*
X99921504Y-106206292D01*
X100015505Y-106110781D01*
X99620283Y-105715619D01*
X99225061Y-105320457D01*
X99126005Y-105421105D01*
X99026949Y-105521752D01*
X98665117Y-105521752D01*
X98690986Y-105495884D01*
X98742425Y-105444426D01*
X98831444Y-105355270D01*
X98908896Y-105277566D01*
X98970594Y-105215521D01*
X99012351Y-105173343D01*
X99029983Y-105155236D01*
X99028303Y-105147963D01*
X99005812Y-105116779D01*
X98963268Y-105067243D01*
X98906410Y-105005235D01*
X98840979Y-104936634D01*
X98772714Y-104867321D01*
X98707355Y-104803175D01*
X98650642Y-104750076D01*
X98608315Y-104713905D01*
X98586114Y-104700542D01*
X98577753Y-104705400D01*
X98543722Y-104734011D01*
X98488320Y-104784831D01*
X98415751Y-104853891D01*
X98330223Y-104937224D01*
X98235940Y-105030862D01*
X97906334Y-105361183D01*
X97655293Y-105361183D01*
X97655085Y-105356561D01*
X97663003Y-105317268D01*
X97683334Y-105273851D01*
X97718813Y-105222371D01*
X97772174Y-105158889D01*
X97846153Y-105079467D01*
X97943484Y-104980165D01*
X98066903Y-104857044D01*
X98163149Y-104761922D01*
X98270915Y-104657335D01*
X98357554Y-104576834D01*
X98426898Y-104517728D01*
X98482777Y-104477331D01*
X98529022Y-104452953D01*
X98569463Y-104441906D01*
X98607931Y-104441503D01*
X98648256Y-104449056D01*
X98666546Y-104457438D01*
X98718255Y-104494619D01*
X98793688Y-104559129D01*
X98890999Y-104649355D01*
X99008343Y-104763684D01*
X99310685Y-105063875D01*
X99319960Y-104903518D01*
X99321624Y-104877763D01*
X99333173Y-104781494D01*
X99355291Y-104700128D01*
X99393100Y-104613332D01*
X99439531Y-104533200D01*
X99539749Y-104410571D01*
X99660366Y-104308446D01*
X99791067Y-104236588D01*
X99906000Y-104190140D01*
X103436000Y-104190140D01*
X106966000Y-104190140D01*
X107096058Y-104251824D01*
X107199611Y-104312179D01*
X107304138Y-104394762D01*
X107392912Y-104486748D01*
X107454609Y-104577839D01*
X107470513Y-104609395D01*
X107488632Y-104647815D01*
X107503990Y-104686216D01*
X107516817Y-104727936D01*
X107527340Y-104776312D01*
X107535788Y-104834681D01*
X107542387Y-104906381D01*
X107547367Y-104994751D01*
X107550955Y-105103126D01*
X107553380Y-105234845D01*
X107554868Y-105393245D01*
X107555649Y-105581665D01*
X107555951Y-105803441D01*
X107556000Y-106061910D01*
X107555799Y-106269072D01*
X107555186Y-106472576D01*
X107554202Y-106660699D01*
X107552885Y-106829919D01*
X107551274Y-106976716D01*
X107549408Y-107097566D01*
X107547325Y-107188950D01*
X107545066Y-107247345D01*
X107542667Y-107269231D01*
X107529880Y-107274240D01*
X107485519Y-107280236D01*
X107423530Y-107282575D01*
X107317727Y-107282575D01*
X107311864Y-106056609D01*
X107306000Y-104830644D01*
X107259325Y-104735795D01*
X107223524Y-104675402D01*
X107138677Y-104577873D01*
X107035702Y-104499172D01*
X106926662Y-104449676D01*
X106917818Y-104447445D01*
X106896941Y-104443820D01*
X106867675Y-104440535D01*
X106828264Y-104437579D01*
X106776952Y-104434940D01*
X106711982Y-104432606D01*
X106631598Y-104430564D01*
X106534045Y-104428801D01*
X106417565Y-104427306D01*
X106280404Y-104426067D01*
X106120804Y-104425072D01*
X105937010Y-104424307D01*
X105727265Y-104423761D01*
X105489814Y-104423422D01*
X105222899Y-104423278D01*
X104924766Y-104423315D01*
X104593657Y-104423523D01*
X104227817Y-104423889D01*
X103825490Y-104424400D01*
X103384918Y-104425044D01*
X99946000Y-104430329D01*
X99836712Y-104490376D01*
X99796121Y-104515191D01*
X99699174Y-104596913D01*
X99622984Y-104694229D01*
X99576913Y-104796122D01*
X99570673Y-104828865D01*
X99563189Y-104900994D01*
X99558049Y-104992399D01*
X99556112Y-105090926D01*
X99556080Y-105155236D01*
X99556001Y-105311177D01*
G37*
X100390936Y-95102000D02*
X101845064Y-95102000D01*
X100390936Y-96922000D02*
X101845064Y-96922000D01*
X113003000Y-119390936D02*
X113003000Y-119845064D01*
X111533000Y-119390936D02*
X111533000Y-119845064D01*
%LPC*%
D16*
X92583000Y-38735000D03*
D17*
X95504000Y-100457000D03*
D18*
X98044000Y-100457000D03*
D17*
X97785000Y-59436000D03*
D18*
X100325000Y-59436000D03*
D17*
X90805000Y-60452000D03*
D18*
X93345000Y-60452000D03*
D19*
X65278000Y-117602000D03*
D20*
X64379974Y-116703974D03*
X63481949Y-115805949D03*
D17*
X92964000Y-82042000D03*
D18*
X95504000Y-82042000D03*
D17*
X114295000Y-98044000D03*
D18*
X116835000Y-98044000D03*
D19*
X69342000Y-121684051D03*
D20*
X68443974Y-120786025D03*
X67545949Y-119888000D03*
D17*
X85471000Y-101473000D03*
D18*
X88011000Y-101473000D03*
D17*
X77465000Y-76327000D03*
D18*
X80005000Y-76327000D03*
D17*
X105151000Y-99314000D03*
D18*
X107691000Y-99314000D03*
D21*
X67763846Y-115116154D03*
D22*
X73152000Y-109728000D03*
D23*
X75338077Y-111859924D03*
D24*
X69949923Y-117248078D03*
D17*
X66802000Y-102616000D03*
D18*
X69342000Y-102616000D03*
D25*
X73914000Y-122428000D03*
D26*
X75414000Y-122428000D03*
D17*
X101341000Y-84709000D03*
D18*
X103881000Y-84709000D03*
D17*
X75946000Y-102108000D03*
D18*
X78486000Y-102108000D03*
D17*
X109977000Y-86995000D03*
D18*
X112517000Y-86995000D03*
D17*
X84328000Y-61214000D03*
D18*
X86868000Y-61214000D03*
D27*
X62185340Y-121875340D03*
D26*
X63246000Y-122936000D03*
D17*
X84831000Y-79248000D03*
D18*
X87371000Y-79248000D03*
D28*
X117348000Y-124238000D03*
D29*
X117348000Y-126238000D03*
D30*
X102506214Y-99423786D03*
X101092000Y-100838000D03*
D31*
X121412000Y-120396000D03*
X121412000Y-118396000D03*
D30*
X74058214Y-103614786D03*
X72644000Y-105029000D03*
D32*
X124348000Y-115951000D03*
D33*
X123048000Y-115951000D03*
D30*
X83693000Y-65024000D03*
X82278786Y-66438214D03*
X98679000Y-85090000D03*
X97264786Y-86504214D03*
X76471214Y-80246786D03*
X75057000Y-81661000D03*
X65422214Y-105519786D03*
X64008000Y-106934000D03*
D34*
X64515999Y-110744000D03*
D35*
X65815999Y-110744000D03*
D36*
X112268000Y-123206000D03*
X112268000Y-125206000D03*
D30*
X90187214Y-63863786D03*
X88773000Y-65278000D03*
D37*
X122143761Y-124871239D03*
D38*
X123063000Y-123952000D03*
D39*
X123982239Y-123032761D03*
D30*
X96791214Y-62847786D03*
X95377000Y-64262000D03*
D40*
X102818000Y-92837000D03*
X105918000Y-92837000D03*
D30*
X92854214Y-100820786D03*
X91440000Y-102235000D03*
D41*
X92510000Y-117094000D03*
D42*
X105410000Y-117094000D03*
X79610000Y-117094000D03*
D43*
X128774929Y-120200341D03*
X130042783Y-122919265D03*
D44*
X126871926Y-120260192D03*
X128139781Y-122979116D03*
X128773708Y-124338577D03*
D45*
X126991712Y-118659606D03*
X128740886Y-117843953D03*
X131826000Y-124460000D03*
X130076826Y-125275653D03*
D30*
X90187214Y-82786786D03*
X88773000Y-84201000D03*
X82186214Y-80627786D03*
X80772000Y-82042000D03*
X111959107Y-99368893D03*
X110544893Y-100783107D03*
D40*
X68326000Y-96647000D03*
X71426000Y-96647000D03*
D30*
X83075214Y-101328786D03*
X81661000Y-102743000D03*
D46*
X114935000Y-115127000D03*
X116205000Y-115127000D03*
X117475000Y-115127000D03*
X118745000Y-115127000D03*
X118745000Y-120077000D03*
X117475000Y-120077000D03*
X116205000Y-120077000D03*
X114935000Y-120077000D03*
D30*
X107459214Y-87739786D03*
X106045000Y-89154000D03*
D40*
X99568000Y-96012000D03*
X102668000Y-96012000D03*
D36*
X112268000Y-118618000D03*
X112268000Y-120618000D03*
%LPD*%
M02*
