%TF.GenerationSoftware,KiCad,Pcbnew,7.0.9*%
%TF.CreationDate,2023-11-12T20:37:14+01:00*%
%TF.ProjectId,christmas_ornament_2023,63687269-7374-46d6-9173-5f6f726e616d,1.0*%
%TF.SameCoordinates,Original*%
%TF.FileFunction,Drillmap*%
%TF.FilePolarity,Positive*%
%FSLAX45Y45*%
G04 Gerber Fmt 4.5, Leading zero omitted, Abs format (unit mm)*
G04 Created by KiCad (PCBNEW 7.0.9) date 2023-11-12 20:37:14*
%MOMM*%
%LPD*%
G01*
G04 APERTURE LIST*
%ADD10C,0.200000*%
%ADD11C,0.100000*%
%ADD12C,0.250000*%
G04 APERTURE END LIST*
D10*
X10006976Y-3450095D02*
X9756976Y-3883095D01*
X8506976Y-4316105D02*
X9006097Y-4316105D01*
X9507855Y-4316105D02*
X10006976Y-4316105D01*
X10006976Y-14278095D02*
X8506976Y-14278095D01*
X10006936Y-12778083D02*
G75*
G03*
X13453744Y-12778094I1723419J4499988D01*
G01*
X9256976Y-3017095D02*
X9506976Y-3450095D01*
X8506976Y-3450095D02*
X9006976Y-3450095D01*
X9006976Y-3450095D02*
X9256976Y-3017095D01*
X10006976Y-12778095D02*
X10006976Y-14278095D01*
X9756976Y-3883095D02*
X10006976Y-4316105D01*
X8506976Y-4316105D02*
X8756976Y-3883095D01*
X8506976Y-14278095D02*
X8506976Y-12778095D01*
X9506976Y-3450095D02*
X10006976Y-3450095D01*
X9507855Y-4316105D02*
X13453745Y-12778095D01*
X8756976Y-3883095D02*
X8506976Y-3450095D01*
X5060176Y-12778083D02*
G75*
G03*
X8506984Y-12778094I1723419J4499988D01*
G01*
X9006097Y-4316105D02*
X5060206Y-12778095D01*
D11*
X12832493Y-11975034D02*
X12922493Y-12065034D01*
X12922493Y-11975034D02*
X12832493Y-12065034D01*
X12959278Y-12246926D02*
X13049278Y-12336926D01*
X13049278Y-12246926D02*
X12959278Y-12336926D01*
D12*
X9383300Y-3873500D02*
G75*
G03*
X9383300Y-3873500I-125000J0D01*
G01*
D10*
X5310953Y-14599579D02*
X5310953Y-14399579D01*
X5310953Y-14399579D02*
X5358572Y-14399579D01*
X5358572Y-14399579D02*
X5387143Y-14409103D01*
X5387143Y-14409103D02*
X5406191Y-14428150D01*
X5406191Y-14428150D02*
X5415715Y-14447198D01*
X5415715Y-14447198D02*
X5425238Y-14485293D01*
X5425238Y-14485293D02*
X5425238Y-14513864D01*
X5425238Y-14513864D02*
X5415715Y-14551960D01*
X5415715Y-14551960D02*
X5406191Y-14571007D01*
X5406191Y-14571007D02*
X5387143Y-14590055D01*
X5387143Y-14590055D02*
X5358572Y-14599579D01*
X5358572Y-14599579D02*
X5310953Y-14599579D01*
X5510953Y-14599579D02*
X5510953Y-14466245D01*
X5510953Y-14504341D02*
X5520477Y-14485293D01*
X5520477Y-14485293D02*
X5530000Y-14475769D01*
X5530000Y-14475769D02*
X5549048Y-14466245D01*
X5549048Y-14466245D02*
X5568096Y-14466245D01*
X5634762Y-14599579D02*
X5634762Y-14466245D01*
X5634762Y-14399579D02*
X5625238Y-14409103D01*
X5625238Y-14409103D02*
X5634762Y-14418626D01*
X5634762Y-14418626D02*
X5644286Y-14409103D01*
X5644286Y-14409103D02*
X5634762Y-14399579D01*
X5634762Y-14399579D02*
X5634762Y-14418626D01*
X5758572Y-14599579D02*
X5739524Y-14590055D01*
X5739524Y-14590055D02*
X5730000Y-14571007D01*
X5730000Y-14571007D02*
X5730000Y-14399579D01*
X5863334Y-14599579D02*
X5844286Y-14590055D01*
X5844286Y-14590055D02*
X5834762Y-14571007D01*
X5834762Y-14571007D02*
X5834762Y-14399579D01*
X6091905Y-14599579D02*
X6091905Y-14399579D01*
X6091905Y-14399579D02*
X6158572Y-14542436D01*
X6158572Y-14542436D02*
X6225238Y-14399579D01*
X6225238Y-14399579D02*
X6225238Y-14599579D01*
X6406191Y-14599579D02*
X6406191Y-14494817D01*
X6406191Y-14494817D02*
X6396667Y-14475769D01*
X6396667Y-14475769D02*
X6377619Y-14466245D01*
X6377619Y-14466245D02*
X6339524Y-14466245D01*
X6339524Y-14466245D02*
X6320476Y-14475769D01*
X6406191Y-14590055D02*
X6387143Y-14599579D01*
X6387143Y-14599579D02*
X6339524Y-14599579D01*
X6339524Y-14599579D02*
X6320476Y-14590055D01*
X6320476Y-14590055D02*
X6310953Y-14571007D01*
X6310953Y-14571007D02*
X6310953Y-14551960D01*
X6310953Y-14551960D02*
X6320476Y-14532912D01*
X6320476Y-14532912D02*
X6339524Y-14523388D01*
X6339524Y-14523388D02*
X6387143Y-14523388D01*
X6387143Y-14523388D02*
X6406191Y-14513864D01*
X6501429Y-14466245D02*
X6501429Y-14666245D01*
X6501429Y-14475769D02*
X6520476Y-14466245D01*
X6520476Y-14466245D02*
X6558572Y-14466245D01*
X6558572Y-14466245D02*
X6577619Y-14475769D01*
X6577619Y-14475769D02*
X6587143Y-14485293D01*
X6587143Y-14485293D02*
X6596667Y-14504341D01*
X6596667Y-14504341D02*
X6596667Y-14561483D01*
X6596667Y-14561483D02*
X6587143Y-14580531D01*
X6587143Y-14580531D02*
X6577619Y-14590055D01*
X6577619Y-14590055D02*
X6558572Y-14599579D01*
X6558572Y-14599579D02*
X6520476Y-14599579D01*
X6520476Y-14599579D02*
X6501429Y-14590055D01*
X6682381Y-14580531D02*
X6691905Y-14590055D01*
X6691905Y-14590055D02*
X6682381Y-14599579D01*
X6682381Y-14599579D02*
X6672857Y-14590055D01*
X6672857Y-14590055D02*
X6682381Y-14580531D01*
X6682381Y-14580531D02*
X6682381Y-14599579D01*
X6682381Y-14475769D02*
X6691905Y-14485293D01*
X6691905Y-14485293D02*
X6682381Y-14494817D01*
X6682381Y-14494817D02*
X6672857Y-14485293D01*
X6672857Y-14485293D02*
X6682381Y-14475769D01*
X6682381Y-14475769D02*
X6682381Y-14494817D01*
D11*
X4960176Y-14883095D02*
X5050176Y-14973095D01*
X5050176Y-14883095D02*
X4960176Y-14973095D01*
D10*
X5349048Y-14819579D02*
X5368096Y-14819579D01*
X5368096Y-14819579D02*
X5387143Y-14829103D01*
X5387143Y-14829103D02*
X5396667Y-14838626D01*
X5396667Y-14838626D02*
X5406191Y-14857674D01*
X5406191Y-14857674D02*
X5415715Y-14895769D01*
X5415715Y-14895769D02*
X5415715Y-14943388D01*
X5415715Y-14943388D02*
X5406191Y-14981483D01*
X5406191Y-14981483D02*
X5396667Y-15000531D01*
X5396667Y-15000531D02*
X5387143Y-15010055D01*
X5387143Y-15010055D02*
X5368096Y-15019579D01*
X5368096Y-15019579D02*
X5349048Y-15019579D01*
X5349048Y-15019579D02*
X5330000Y-15010055D01*
X5330000Y-15010055D02*
X5320477Y-15000531D01*
X5320477Y-15000531D02*
X5310953Y-14981483D01*
X5310953Y-14981483D02*
X5301429Y-14943388D01*
X5301429Y-14943388D02*
X5301429Y-14895769D01*
X5301429Y-14895769D02*
X5310953Y-14857674D01*
X5310953Y-14857674D02*
X5320477Y-14838626D01*
X5320477Y-14838626D02*
X5330000Y-14829103D01*
X5330000Y-14829103D02*
X5349048Y-14819579D01*
X5501429Y-15000531D02*
X5510953Y-15010055D01*
X5510953Y-15010055D02*
X5501429Y-15019579D01*
X5501429Y-15019579D02*
X5491905Y-15010055D01*
X5491905Y-15010055D02*
X5501429Y-15000531D01*
X5501429Y-15000531D02*
X5501429Y-15019579D01*
X5606191Y-15019579D02*
X5644286Y-15019579D01*
X5644286Y-15019579D02*
X5663334Y-15010055D01*
X5663334Y-15010055D02*
X5672857Y-15000531D01*
X5672857Y-15000531D02*
X5691905Y-14971960D01*
X5691905Y-14971960D02*
X5701429Y-14933864D01*
X5701429Y-14933864D02*
X5701429Y-14857674D01*
X5701429Y-14857674D02*
X5691905Y-14838626D01*
X5691905Y-14838626D02*
X5682381Y-14829103D01*
X5682381Y-14829103D02*
X5663334Y-14819579D01*
X5663334Y-14819579D02*
X5625238Y-14819579D01*
X5625238Y-14819579D02*
X5606191Y-14829103D01*
X5606191Y-14829103D02*
X5596667Y-14838626D01*
X5596667Y-14838626D02*
X5587143Y-14857674D01*
X5587143Y-14857674D02*
X5587143Y-14905293D01*
X5587143Y-14905293D02*
X5596667Y-14924341D01*
X5596667Y-14924341D02*
X5606191Y-14933864D01*
X5606191Y-14933864D02*
X5625238Y-14943388D01*
X5625238Y-14943388D02*
X5663334Y-14943388D01*
X5663334Y-14943388D02*
X5682381Y-14933864D01*
X5682381Y-14933864D02*
X5691905Y-14924341D01*
X5691905Y-14924341D02*
X5701429Y-14905293D01*
X5825238Y-14819579D02*
X5844286Y-14819579D01*
X5844286Y-14819579D02*
X5863334Y-14829103D01*
X5863334Y-14829103D02*
X5872857Y-14838626D01*
X5872857Y-14838626D02*
X5882381Y-14857674D01*
X5882381Y-14857674D02*
X5891905Y-14895769D01*
X5891905Y-14895769D02*
X5891905Y-14943388D01*
X5891905Y-14943388D02*
X5882381Y-14981483D01*
X5882381Y-14981483D02*
X5872857Y-15000531D01*
X5872857Y-15000531D02*
X5863334Y-15010055D01*
X5863334Y-15010055D02*
X5844286Y-15019579D01*
X5844286Y-15019579D02*
X5825238Y-15019579D01*
X5825238Y-15019579D02*
X5806191Y-15010055D01*
X5806191Y-15010055D02*
X5796667Y-15000531D01*
X5796667Y-15000531D02*
X5787143Y-14981483D01*
X5787143Y-14981483D02*
X5777619Y-14943388D01*
X5777619Y-14943388D02*
X5777619Y-14895769D01*
X5777619Y-14895769D02*
X5787143Y-14857674D01*
X5787143Y-14857674D02*
X5796667Y-14838626D01*
X5796667Y-14838626D02*
X5806191Y-14829103D01*
X5806191Y-14829103D02*
X5825238Y-14819579D01*
X6015715Y-14819579D02*
X6034762Y-14819579D01*
X6034762Y-14819579D02*
X6053810Y-14829103D01*
X6053810Y-14829103D02*
X6063334Y-14838626D01*
X6063334Y-14838626D02*
X6072857Y-14857674D01*
X6072857Y-14857674D02*
X6082381Y-14895769D01*
X6082381Y-14895769D02*
X6082381Y-14943388D01*
X6082381Y-14943388D02*
X6072857Y-14981483D01*
X6072857Y-14981483D02*
X6063334Y-15000531D01*
X6063334Y-15000531D02*
X6053810Y-15010055D01*
X6053810Y-15010055D02*
X6034762Y-15019579D01*
X6034762Y-15019579D02*
X6015715Y-15019579D01*
X6015715Y-15019579D02*
X5996667Y-15010055D01*
X5996667Y-15010055D02*
X5987143Y-15000531D01*
X5987143Y-15000531D02*
X5977619Y-14981483D01*
X5977619Y-14981483D02*
X5968096Y-14943388D01*
X5968096Y-14943388D02*
X5968096Y-14895769D01*
X5968096Y-14895769D02*
X5977619Y-14857674D01*
X5977619Y-14857674D02*
X5987143Y-14838626D01*
X5987143Y-14838626D02*
X5996667Y-14829103D01*
X5996667Y-14829103D02*
X6015715Y-14819579D01*
X6168096Y-15019579D02*
X6168096Y-14886245D01*
X6168096Y-14905293D02*
X6177619Y-14895769D01*
X6177619Y-14895769D02*
X6196667Y-14886245D01*
X6196667Y-14886245D02*
X6225238Y-14886245D01*
X6225238Y-14886245D02*
X6244286Y-14895769D01*
X6244286Y-14895769D02*
X6253810Y-14914817D01*
X6253810Y-14914817D02*
X6253810Y-15019579D01*
X6253810Y-14914817D02*
X6263334Y-14895769D01*
X6263334Y-14895769D02*
X6282381Y-14886245D01*
X6282381Y-14886245D02*
X6310953Y-14886245D01*
X6310953Y-14886245D02*
X6330000Y-14895769D01*
X6330000Y-14895769D02*
X6339524Y-14914817D01*
X6339524Y-14914817D02*
X6339524Y-15019579D01*
X6434762Y-15019579D02*
X6434762Y-14886245D01*
X6434762Y-14905293D02*
X6444286Y-14895769D01*
X6444286Y-14895769D02*
X6463334Y-14886245D01*
X6463334Y-14886245D02*
X6491905Y-14886245D01*
X6491905Y-14886245D02*
X6510953Y-14895769D01*
X6510953Y-14895769D02*
X6520477Y-14914817D01*
X6520477Y-14914817D02*
X6520477Y-15019579D01*
X6520477Y-14914817D02*
X6530000Y-14895769D01*
X6530000Y-14895769D02*
X6549048Y-14886245D01*
X6549048Y-14886245D02*
X6577619Y-14886245D01*
X6577619Y-14886245D02*
X6596667Y-14895769D01*
X6596667Y-14895769D02*
X6606191Y-14914817D01*
X6606191Y-14914817D02*
X6606191Y-15019579D01*
X6996667Y-14810055D02*
X6825239Y-15067198D01*
X7253810Y-14819579D02*
X7272858Y-14819579D01*
X7272858Y-14819579D02*
X7291905Y-14829103D01*
X7291905Y-14829103D02*
X7301429Y-14838626D01*
X7301429Y-14838626D02*
X7310953Y-14857674D01*
X7310953Y-14857674D02*
X7320477Y-14895769D01*
X7320477Y-14895769D02*
X7320477Y-14943388D01*
X7320477Y-14943388D02*
X7310953Y-14981483D01*
X7310953Y-14981483D02*
X7301429Y-15000531D01*
X7301429Y-15000531D02*
X7291905Y-15010055D01*
X7291905Y-15010055D02*
X7272858Y-15019579D01*
X7272858Y-15019579D02*
X7253810Y-15019579D01*
X7253810Y-15019579D02*
X7234762Y-15010055D01*
X7234762Y-15010055D02*
X7225239Y-15000531D01*
X7225239Y-15000531D02*
X7215715Y-14981483D01*
X7215715Y-14981483D02*
X7206191Y-14943388D01*
X7206191Y-14943388D02*
X7206191Y-14895769D01*
X7206191Y-14895769D02*
X7215715Y-14857674D01*
X7215715Y-14857674D02*
X7225239Y-14838626D01*
X7225239Y-14838626D02*
X7234762Y-14829103D01*
X7234762Y-14829103D02*
X7253810Y-14819579D01*
X7406191Y-15000531D02*
X7415715Y-15010055D01*
X7415715Y-15010055D02*
X7406191Y-15019579D01*
X7406191Y-15019579D02*
X7396667Y-15010055D01*
X7396667Y-15010055D02*
X7406191Y-15000531D01*
X7406191Y-15000531D02*
X7406191Y-15019579D01*
X7539524Y-14819579D02*
X7558572Y-14819579D01*
X7558572Y-14819579D02*
X7577620Y-14829103D01*
X7577620Y-14829103D02*
X7587143Y-14838626D01*
X7587143Y-14838626D02*
X7596667Y-14857674D01*
X7596667Y-14857674D02*
X7606191Y-14895769D01*
X7606191Y-14895769D02*
X7606191Y-14943388D01*
X7606191Y-14943388D02*
X7596667Y-14981483D01*
X7596667Y-14981483D02*
X7587143Y-15000531D01*
X7587143Y-15000531D02*
X7577620Y-15010055D01*
X7577620Y-15010055D02*
X7558572Y-15019579D01*
X7558572Y-15019579D02*
X7539524Y-15019579D01*
X7539524Y-15019579D02*
X7520477Y-15010055D01*
X7520477Y-15010055D02*
X7510953Y-15000531D01*
X7510953Y-15000531D02*
X7501429Y-14981483D01*
X7501429Y-14981483D02*
X7491905Y-14943388D01*
X7491905Y-14943388D02*
X7491905Y-14895769D01*
X7491905Y-14895769D02*
X7501429Y-14857674D01*
X7501429Y-14857674D02*
X7510953Y-14838626D01*
X7510953Y-14838626D02*
X7520477Y-14829103D01*
X7520477Y-14829103D02*
X7539524Y-14819579D01*
X7672858Y-14819579D02*
X7796667Y-14819579D01*
X7796667Y-14819579D02*
X7730000Y-14895769D01*
X7730000Y-14895769D02*
X7758572Y-14895769D01*
X7758572Y-14895769D02*
X7777620Y-14905293D01*
X7777620Y-14905293D02*
X7787143Y-14914817D01*
X7787143Y-14914817D02*
X7796667Y-14933864D01*
X7796667Y-14933864D02*
X7796667Y-14981483D01*
X7796667Y-14981483D02*
X7787143Y-15000531D01*
X7787143Y-15000531D02*
X7777620Y-15010055D01*
X7777620Y-15010055D02*
X7758572Y-15019579D01*
X7758572Y-15019579D02*
X7701429Y-15019579D01*
X7701429Y-15019579D02*
X7682381Y-15010055D01*
X7682381Y-15010055D02*
X7672858Y-15000531D01*
X7977620Y-14819579D02*
X7882381Y-14819579D01*
X7882381Y-14819579D02*
X7872858Y-14914817D01*
X7872858Y-14914817D02*
X7882381Y-14905293D01*
X7882381Y-14905293D02*
X7901429Y-14895769D01*
X7901429Y-14895769D02*
X7949048Y-14895769D01*
X7949048Y-14895769D02*
X7968096Y-14905293D01*
X7968096Y-14905293D02*
X7977620Y-14914817D01*
X7977620Y-14914817D02*
X7987143Y-14933864D01*
X7987143Y-14933864D02*
X7987143Y-14981483D01*
X7987143Y-14981483D02*
X7977620Y-15000531D01*
X7977620Y-15000531D02*
X7968096Y-15010055D01*
X7968096Y-15010055D02*
X7949048Y-15019579D01*
X7949048Y-15019579D02*
X7901429Y-15019579D01*
X7901429Y-15019579D02*
X7882381Y-15010055D01*
X7882381Y-15010055D02*
X7872858Y-15000531D01*
X8158572Y-14886245D02*
X8158572Y-15019579D01*
X8110953Y-14810055D02*
X8063334Y-14952912D01*
X8063334Y-14952912D02*
X8187143Y-14952912D01*
X8253810Y-14819579D02*
X8253810Y-14857674D01*
X8330001Y-14819579D02*
X8330001Y-14857674D01*
X8625239Y-15095769D02*
X8615715Y-15086245D01*
X8615715Y-15086245D02*
X8596667Y-15057674D01*
X8596667Y-15057674D02*
X8587144Y-15038626D01*
X8587144Y-15038626D02*
X8577620Y-15010055D01*
X8577620Y-15010055D02*
X8568096Y-14962436D01*
X8568096Y-14962436D02*
X8568096Y-14924341D01*
X8568096Y-14924341D02*
X8577620Y-14876722D01*
X8577620Y-14876722D02*
X8587144Y-14848150D01*
X8587144Y-14848150D02*
X8596667Y-14829103D01*
X8596667Y-14829103D02*
X8615715Y-14800531D01*
X8615715Y-14800531D02*
X8625239Y-14791007D01*
X8691905Y-14838626D02*
X8701429Y-14829103D01*
X8701429Y-14829103D02*
X8720477Y-14819579D01*
X8720477Y-14819579D02*
X8768096Y-14819579D01*
X8768096Y-14819579D02*
X8787144Y-14829103D01*
X8787144Y-14829103D02*
X8796667Y-14838626D01*
X8796667Y-14838626D02*
X8806191Y-14857674D01*
X8806191Y-14857674D02*
X8806191Y-14876722D01*
X8806191Y-14876722D02*
X8796667Y-14905293D01*
X8796667Y-14905293D02*
X8682382Y-15019579D01*
X8682382Y-15019579D02*
X8806191Y-15019579D01*
X9044286Y-15019579D02*
X9044286Y-14819579D01*
X9130001Y-15019579D02*
X9130001Y-14914817D01*
X9130001Y-14914817D02*
X9120477Y-14895769D01*
X9120477Y-14895769D02*
X9101429Y-14886245D01*
X9101429Y-14886245D02*
X9072858Y-14886245D01*
X9072858Y-14886245D02*
X9053810Y-14895769D01*
X9053810Y-14895769D02*
X9044286Y-14905293D01*
X9253810Y-15019579D02*
X9234763Y-15010055D01*
X9234763Y-15010055D02*
X9225239Y-15000531D01*
X9225239Y-15000531D02*
X9215715Y-14981483D01*
X9215715Y-14981483D02*
X9215715Y-14924341D01*
X9215715Y-14924341D02*
X9225239Y-14905293D01*
X9225239Y-14905293D02*
X9234763Y-14895769D01*
X9234763Y-14895769D02*
X9253810Y-14886245D01*
X9253810Y-14886245D02*
X9282382Y-14886245D01*
X9282382Y-14886245D02*
X9301429Y-14895769D01*
X9301429Y-14895769D02*
X9310953Y-14905293D01*
X9310953Y-14905293D02*
X9320477Y-14924341D01*
X9320477Y-14924341D02*
X9320477Y-14981483D01*
X9320477Y-14981483D02*
X9310953Y-15000531D01*
X9310953Y-15000531D02*
X9301429Y-15010055D01*
X9301429Y-15010055D02*
X9282382Y-15019579D01*
X9282382Y-15019579D02*
X9253810Y-15019579D01*
X9434763Y-15019579D02*
X9415715Y-15010055D01*
X9415715Y-15010055D02*
X9406191Y-14991007D01*
X9406191Y-14991007D02*
X9406191Y-14819579D01*
X9587144Y-15010055D02*
X9568096Y-15019579D01*
X9568096Y-15019579D02*
X9530001Y-15019579D01*
X9530001Y-15019579D02*
X9510953Y-15010055D01*
X9510953Y-15010055D02*
X9501429Y-14991007D01*
X9501429Y-14991007D02*
X9501429Y-14914817D01*
X9501429Y-14914817D02*
X9510953Y-14895769D01*
X9510953Y-14895769D02*
X9530001Y-14886245D01*
X9530001Y-14886245D02*
X9568096Y-14886245D01*
X9568096Y-14886245D02*
X9587144Y-14895769D01*
X9587144Y-14895769D02*
X9596667Y-14914817D01*
X9596667Y-14914817D02*
X9596667Y-14933864D01*
X9596667Y-14933864D02*
X9501429Y-14952912D01*
X9672858Y-15010055D02*
X9691906Y-15019579D01*
X9691906Y-15019579D02*
X9730001Y-15019579D01*
X9730001Y-15019579D02*
X9749048Y-15010055D01*
X9749048Y-15010055D02*
X9758572Y-14991007D01*
X9758572Y-14991007D02*
X9758572Y-14981483D01*
X9758572Y-14981483D02*
X9749048Y-14962436D01*
X9749048Y-14962436D02*
X9730001Y-14952912D01*
X9730001Y-14952912D02*
X9701429Y-14952912D01*
X9701429Y-14952912D02*
X9682382Y-14943388D01*
X9682382Y-14943388D02*
X9672858Y-14924341D01*
X9672858Y-14924341D02*
X9672858Y-14914817D01*
X9672858Y-14914817D02*
X9682382Y-14895769D01*
X9682382Y-14895769D02*
X9701429Y-14886245D01*
X9701429Y-14886245D02*
X9730001Y-14886245D01*
X9730001Y-14886245D02*
X9749048Y-14895769D01*
X9825239Y-15095769D02*
X9834763Y-15086245D01*
X9834763Y-15086245D02*
X9853810Y-15057674D01*
X9853810Y-15057674D02*
X9863334Y-15038626D01*
X9863334Y-15038626D02*
X9872858Y-15010055D01*
X9872858Y-15010055D02*
X9882382Y-14962436D01*
X9882382Y-14962436D02*
X9882382Y-14924341D01*
X9882382Y-14924341D02*
X9872858Y-14876722D01*
X9872858Y-14876722D02*
X9863334Y-14848150D01*
X9863334Y-14848150D02*
X9853810Y-14829103D01*
X9853810Y-14829103D02*
X9834763Y-14800531D01*
X9834763Y-14800531D02*
X9825239Y-14791007D01*
X10187144Y-15095769D02*
X10177620Y-15086245D01*
X10177620Y-15086245D02*
X10158572Y-15057674D01*
X10158572Y-15057674D02*
X10149048Y-15038626D01*
X10149048Y-15038626D02*
X10139525Y-15010055D01*
X10139525Y-15010055D02*
X10130001Y-14962436D01*
X10130001Y-14962436D02*
X10130001Y-14924341D01*
X10130001Y-14924341D02*
X10139525Y-14876722D01*
X10139525Y-14876722D02*
X10149048Y-14848150D01*
X10149048Y-14848150D02*
X10158572Y-14829103D01*
X10158572Y-14829103D02*
X10177620Y-14800531D01*
X10177620Y-14800531D02*
X10187144Y-14791007D01*
X10263334Y-14886245D02*
X10263334Y-15019579D01*
X10263334Y-14905293D02*
X10272858Y-14895769D01*
X10272858Y-14895769D02*
X10291906Y-14886245D01*
X10291906Y-14886245D02*
X10320477Y-14886245D01*
X10320477Y-14886245D02*
X10339525Y-14895769D01*
X10339525Y-14895769D02*
X10349048Y-14914817D01*
X10349048Y-14914817D02*
X10349048Y-15019579D01*
X10472858Y-15019579D02*
X10453810Y-15010055D01*
X10453810Y-15010055D02*
X10444287Y-15000531D01*
X10444287Y-15000531D02*
X10434763Y-14981483D01*
X10434763Y-14981483D02*
X10434763Y-14924341D01*
X10434763Y-14924341D02*
X10444287Y-14905293D01*
X10444287Y-14905293D02*
X10453810Y-14895769D01*
X10453810Y-14895769D02*
X10472858Y-14886245D01*
X10472858Y-14886245D02*
X10501429Y-14886245D01*
X10501429Y-14886245D02*
X10520477Y-14895769D01*
X10520477Y-14895769D02*
X10530001Y-14905293D01*
X10530001Y-14905293D02*
X10539525Y-14924341D01*
X10539525Y-14924341D02*
X10539525Y-14981483D01*
X10539525Y-14981483D02*
X10530001Y-15000531D01*
X10530001Y-15000531D02*
X10520477Y-15010055D01*
X10520477Y-15010055D02*
X10501429Y-15019579D01*
X10501429Y-15019579D02*
X10472858Y-15019579D01*
X10596668Y-14886245D02*
X10672858Y-14886245D01*
X10625239Y-14819579D02*
X10625239Y-14991007D01*
X10625239Y-14991007D02*
X10634763Y-15010055D01*
X10634763Y-15010055D02*
X10653810Y-15019579D01*
X10653810Y-15019579D02*
X10672858Y-15019579D01*
X10891906Y-14886245D02*
X10891906Y-15086245D01*
X10891906Y-14895769D02*
X10910953Y-14886245D01*
X10910953Y-14886245D02*
X10949049Y-14886245D01*
X10949049Y-14886245D02*
X10968096Y-14895769D01*
X10968096Y-14895769D02*
X10977620Y-14905293D01*
X10977620Y-14905293D02*
X10987144Y-14924341D01*
X10987144Y-14924341D02*
X10987144Y-14981483D01*
X10987144Y-14981483D02*
X10977620Y-15000531D01*
X10977620Y-15000531D02*
X10968096Y-15010055D01*
X10968096Y-15010055D02*
X10949049Y-15019579D01*
X10949049Y-15019579D02*
X10910953Y-15019579D01*
X10910953Y-15019579D02*
X10891906Y-15010055D01*
X11101429Y-15019579D02*
X11082382Y-15010055D01*
X11082382Y-15010055D02*
X11072858Y-14991007D01*
X11072858Y-14991007D02*
X11072858Y-14819579D01*
X11263334Y-15019579D02*
X11263334Y-14914817D01*
X11263334Y-14914817D02*
X11253810Y-14895769D01*
X11253810Y-14895769D02*
X11234763Y-14886245D01*
X11234763Y-14886245D02*
X11196667Y-14886245D01*
X11196667Y-14886245D02*
X11177620Y-14895769D01*
X11263334Y-15010055D02*
X11244287Y-15019579D01*
X11244287Y-15019579D02*
X11196667Y-15019579D01*
X11196667Y-15019579D02*
X11177620Y-15010055D01*
X11177620Y-15010055D02*
X11168096Y-14991007D01*
X11168096Y-14991007D02*
X11168096Y-14971960D01*
X11168096Y-14971960D02*
X11177620Y-14952912D01*
X11177620Y-14952912D02*
X11196667Y-14943388D01*
X11196667Y-14943388D02*
X11244287Y-14943388D01*
X11244287Y-14943388D02*
X11263334Y-14933864D01*
X11330001Y-14886245D02*
X11406191Y-14886245D01*
X11358572Y-14819579D02*
X11358572Y-14991007D01*
X11358572Y-14991007D02*
X11368096Y-15010055D01*
X11368096Y-15010055D02*
X11387144Y-15019579D01*
X11387144Y-15019579D02*
X11406191Y-15019579D01*
X11549048Y-15010055D02*
X11530001Y-15019579D01*
X11530001Y-15019579D02*
X11491906Y-15019579D01*
X11491906Y-15019579D02*
X11472858Y-15010055D01*
X11472858Y-15010055D02*
X11463334Y-14991007D01*
X11463334Y-14991007D02*
X11463334Y-14914817D01*
X11463334Y-14914817D02*
X11472858Y-14895769D01*
X11472858Y-14895769D02*
X11491906Y-14886245D01*
X11491906Y-14886245D02*
X11530001Y-14886245D01*
X11530001Y-14886245D02*
X11549048Y-14895769D01*
X11549048Y-14895769D02*
X11558572Y-14914817D01*
X11558572Y-14914817D02*
X11558572Y-14933864D01*
X11558572Y-14933864D02*
X11463334Y-14952912D01*
X11730001Y-15019579D02*
X11730001Y-14819579D01*
X11730001Y-15010055D02*
X11710953Y-15019579D01*
X11710953Y-15019579D02*
X11672858Y-15019579D01*
X11672858Y-15019579D02*
X11653810Y-15010055D01*
X11653810Y-15010055D02*
X11644287Y-15000531D01*
X11644287Y-15000531D02*
X11634763Y-14981483D01*
X11634763Y-14981483D02*
X11634763Y-14924341D01*
X11634763Y-14924341D02*
X11644287Y-14905293D01*
X11644287Y-14905293D02*
X11653810Y-14895769D01*
X11653810Y-14895769D02*
X11672858Y-14886245D01*
X11672858Y-14886245D02*
X11710953Y-14886245D01*
X11710953Y-14886245D02*
X11730001Y-14895769D01*
X11806191Y-15095769D02*
X11815715Y-15086245D01*
X11815715Y-15086245D02*
X11834763Y-15057674D01*
X11834763Y-15057674D02*
X11844287Y-15038626D01*
X11844287Y-15038626D02*
X11853810Y-15010055D01*
X11853810Y-15010055D02*
X11863334Y-14962436D01*
X11863334Y-14962436D02*
X11863334Y-14924341D01*
X11863334Y-14924341D02*
X11853810Y-14876722D01*
X11853810Y-14876722D02*
X11844287Y-14848150D01*
X11844287Y-14848150D02*
X11834763Y-14829103D01*
X11834763Y-14829103D02*
X11815715Y-14800531D01*
X11815715Y-14800531D02*
X11806191Y-14791007D01*
X5050176Y-15192095D02*
G75*
G03*
X5050176Y-15192095I-100000J0D01*
G01*
X5301429Y-15102626D02*
X5310953Y-15093103D01*
X5310953Y-15093103D02*
X5330000Y-15083579D01*
X5330000Y-15083579D02*
X5377619Y-15083579D01*
X5377619Y-15083579D02*
X5396667Y-15093103D01*
X5396667Y-15093103D02*
X5406191Y-15102626D01*
X5406191Y-15102626D02*
X5415715Y-15121674D01*
X5415715Y-15121674D02*
X5415715Y-15140722D01*
X5415715Y-15140722D02*
X5406191Y-15169293D01*
X5406191Y-15169293D02*
X5291905Y-15283579D01*
X5291905Y-15283579D02*
X5415715Y-15283579D01*
X5501429Y-15264531D02*
X5510953Y-15274055D01*
X5510953Y-15274055D02*
X5501429Y-15283579D01*
X5501429Y-15283579D02*
X5491905Y-15274055D01*
X5491905Y-15274055D02*
X5501429Y-15264531D01*
X5501429Y-15264531D02*
X5501429Y-15283579D01*
X5691905Y-15083579D02*
X5596667Y-15083579D01*
X5596667Y-15083579D02*
X5587143Y-15178817D01*
X5587143Y-15178817D02*
X5596667Y-15169293D01*
X5596667Y-15169293D02*
X5615715Y-15159769D01*
X5615715Y-15159769D02*
X5663334Y-15159769D01*
X5663334Y-15159769D02*
X5682381Y-15169293D01*
X5682381Y-15169293D02*
X5691905Y-15178817D01*
X5691905Y-15178817D02*
X5701429Y-15197864D01*
X5701429Y-15197864D02*
X5701429Y-15245483D01*
X5701429Y-15245483D02*
X5691905Y-15264531D01*
X5691905Y-15264531D02*
X5682381Y-15274055D01*
X5682381Y-15274055D02*
X5663334Y-15283579D01*
X5663334Y-15283579D02*
X5615715Y-15283579D01*
X5615715Y-15283579D02*
X5596667Y-15274055D01*
X5596667Y-15274055D02*
X5587143Y-15264531D01*
X5825238Y-15083579D02*
X5844286Y-15083579D01*
X5844286Y-15083579D02*
X5863334Y-15093103D01*
X5863334Y-15093103D02*
X5872857Y-15102626D01*
X5872857Y-15102626D02*
X5882381Y-15121674D01*
X5882381Y-15121674D02*
X5891905Y-15159769D01*
X5891905Y-15159769D02*
X5891905Y-15207388D01*
X5891905Y-15207388D02*
X5882381Y-15245483D01*
X5882381Y-15245483D02*
X5872857Y-15264531D01*
X5872857Y-15264531D02*
X5863334Y-15274055D01*
X5863334Y-15274055D02*
X5844286Y-15283579D01*
X5844286Y-15283579D02*
X5825238Y-15283579D01*
X5825238Y-15283579D02*
X5806191Y-15274055D01*
X5806191Y-15274055D02*
X5796667Y-15264531D01*
X5796667Y-15264531D02*
X5787143Y-15245483D01*
X5787143Y-15245483D02*
X5777619Y-15207388D01*
X5777619Y-15207388D02*
X5777619Y-15159769D01*
X5777619Y-15159769D02*
X5787143Y-15121674D01*
X5787143Y-15121674D02*
X5796667Y-15102626D01*
X5796667Y-15102626D02*
X5806191Y-15093103D01*
X5806191Y-15093103D02*
X5825238Y-15083579D01*
X6015715Y-15083579D02*
X6034762Y-15083579D01*
X6034762Y-15083579D02*
X6053810Y-15093103D01*
X6053810Y-15093103D02*
X6063334Y-15102626D01*
X6063334Y-15102626D02*
X6072857Y-15121674D01*
X6072857Y-15121674D02*
X6082381Y-15159769D01*
X6082381Y-15159769D02*
X6082381Y-15207388D01*
X6082381Y-15207388D02*
X6072857Y-15245483D01*
X6072857Y-15245483D02*
X6063334Y-15264531D01*
X6063334Y-15264531D02*
X6053810Y-15274055D01*
X6053810Y-15274055D02*
X6034762Y-15283579D01*
X6034762Y-15283579D02*
X6015715Y-15283579D01*
X6015715Y-15283579D02*
X5996667Y-15274055D01*
X5996667Y-15274055D02*
X5987143Y-15264531D01*
X5987143Y-15264531D02*
X5977619Y-15245483D01*
X5977619Y-15245483D02*
X5968096Y-15207388D01*
X5968096Y-15207388D02*
X5968096Y-15159769D01*
X5968096Y-15159769D02*
X5977619Y-15121674D01*
X5977619Y-15121674D02*
X5987143Y-15102626D01*
X5987143Y-15102626D02*
X5996667Y-15093103D01*
X5996667Y-15093103D02*
X6015715Y-15083579D01*
X6168096Y-15283579D02*
X6168096Y-15150245D01*
X6168096Y-15169293D02*
X6177619Y-15159769D01*
X6177619Y-15159769D02*
X6196667Y-15150245D01*
X6196667Y-15150245D02*
X6225238Y-15150245D01*
X6225238Y-15150245D02*
X6244286Y-15159769D01*
X6244286Y-15159769D02*
X6253810Y-15178817D01*
X6253810Y-15178817D02*
X6253810Y-15283579D01*
X6253810Y-15178817D02*
X6263334Y-15159769D01*
X6263334Y-15159769D02*
X6282381Y-15150245D01*
X6282381Y-15150245D02*
X6310953Y-15150245D01*
X6310953Y-15150245D02*
X6330000Y-15159769D01*
X6330000Y-15159769D02*
X6339524Y-15178817D01*
X6339524Y-15178817D02*
X6339524Y-15283579D01*
X6434762Y-15283579D02*
X6434762Y-15150245D01*
X6434762Y-15169293D02*
X6444286Y-15159769D01*
X6444286Y-15159769D02*
X6463334Y-15150245D01*
X6463334Y-15150245D02*
X6491905Y-15150245D01*
X6491905Y-15150245D02*
X6510953Y-15159769D01*
X6510953Y-15159769D02*
X6520477Y-15178817D01*
X6520477Y-15178817D02*
X6520477Y-15283579D01*
X6520477Y-15178817D02*
X6530000Y-15159769D01*
X6530000Y-15159769D02*
X6549048Y-15150245D01*
X6549048Y-15150245D02*
X6577619Y-15150245D01*
X6577619Y-15150245D02*
X6596667Y-15159769D01*
X6596667Y-15159769D02*
X6606191Y-15178817D01*
X6606191Y-15178817D02*
X6606191Y-15283579D01*
X6996667Y-15074055D02*
X6825239Y-15331198D01*
X7253810Y-15083579D02*
X7272858Y-15083579D01*
X7272858Y-15083579D02*
X7291905Y-15093103D01*
X7291905Y-15093103D02*
X7301429Y-15102626D01*
X7301429Y-15102626D02*
X7310953Y-15121674D01*
X7310953Y-15121674D02*
X7320477Y-15159769D01*
X7320477Y-15159769D02*
X7320477Y-15207388D01*
X7320477Y-15207388D02*
X7310953Y-15245483D01*
X7310953Y-15245483D02*
X7301429Y-15264531D01*
X7301429Y-15264531D02*
X7291905Y-15274055D01*
X7291905Y-15274055D02*
X7272858Y-15283579D01*
X7272858Y-15283579D02*
X7253810Y-15283579D01*
X7253810Y-15283579D02*
X7234762Y-15274055D01*
X7234762Y-15274055D02*
X7225239Y-15264531D01*
X7225239Y-15264531D02*
X7215715Y-15245483D01*
X7215715Y-15245483D02*
X7206191Y-15207388D01*
X7206191Y-15207388D02*
X7206191Y-15159769D01*
X7206191Y-15159769D02*
X7215715Y-15121674D01*
X7215715Y-15121674D02*
X7225239Y-15102626D01*
X7225239Y-15102626D02*
X7234762Y-15093103D01*
X7234762Y-15093103D02*
X7253810Y-15083579D01*
X7406191Y-15264531D02*
X7415715Y-15274055D01*
X7415715Y-15274055D02*
X7406191Y-15283579D01*
X7406191Y-15283579D02*
X7396667Y-15274055D01*
X7396667Y-15274055D02*
X7406191Y-15264531D01*
X7406191Y-15264531D02*
X7406191Y-15283579D01*
X7539524Y-15083579D02*
X7558572Y-15083579D01*
X7558572Y-15083579D02*
X7577620Y-15093103D01*
X7577620Y-15093103D02*
X7587143Y-15102626D01*
X7587143Y-15102626D02*
X7596667Y-15121674D01*
X7596667Y-15121674D02*
X7606191Y-15159769D01*
X7606191Y-15159769D02*
X7606191Y-15207388D01*
X7606191Y-15207388D02*
X7596667Y-15245483D01*
X7596667Y-15245483D02*
X7587143Y-15264531D01*
X7587143Y-15264531D02*
X7577620Y-15274055D01*
X7577620Y-15274055D02*
X7558572Y-15283579D01*
X7558572Y-15283579D02*
X7539524Y-15283579D01*
X7539524Y-15283579D02*
X7520477Y-15274055D01*
X7520477Y-15274055D02*
X7510953Y-15264531D01*
X7510953Y-15264531D02*
X7501429Y-15245483D01*
X7501429Y-15245483D02*
X7491905Y-15207388D01*
X7491905Y-15207388D02*
X7491905Y-15159769D01*
X7491905Y-15159769D02*
X7501429Y-15121674D01*
X7501429Y-15121674D02*
X7510953Y-15102626D01*
X7510953Y-15102626D02*
X7520477Y-15093103D01*
X7520477Y-15093103D02*
X7539524Y-15083579D01*
X7701429Y-15283579D02*
X7739524Y-15283579D01*
X7739524Y-15283579D02*
X7758572Y-15274055D01*
X7758572Y-15274055D02*
X7768096Y-15264531D01*
X7768096Y-15264531D02*
X7787143Y-15235960D01*
X7787143Y-15235960D02*
X7796667Y-15197864D01*
X7796667Y-15197864D02*
X7796667Y-15121674D01*
X7796667Y-15121674D02*
X7787143Y-15102626D01*
X7787143Y-15102626D02*
X7777620Y-15093103D01*
X7777620Y-15093103D02*
X7758572Y-15083579D01*
X7758572Y-15083579D02*
X7720477Y-15083579D01*
X7720477Y-15083579D02*
X7701429Y-15093103D01*
X7701429Y-15093103D02*
X7691905Y-15102626D01*
X7691905Y-15102626D02*
X7682381Y-15121674D01*
X7682381Y-15121674D02*
X7682381Y-15169293D01*
X7682381Y-15169293D02*
X7691905Y-15188341D01*
X7691905Y-15188341D02*
X7701429Y-15197864D01*
X7701429Y-15197864D02*
X7720477Y-15207388D01*
X7720477Y-15207388D02*
X7758572Y-15207388D01*
X7758572Y-15207388D02*
X7777620Y-15197864D01*
X7777620Y-15197864D02*
X7787143Y-15188341D01*
X7787143Y-15188341D02*
X7796667Y-15169293D01*
X7910953Y-15169293D02*
X7891905Y-15159769D01*
X7891905Y-15159769D02*
X7882381Y-15150245D01*
X7882381Y-15150245D02*
X7872858Y-15131198D01*
X7872858Y-15131198D02*
X7872858Y-15121674D01*
X7872858Y-15121674D02*
X7882381Y-15102626D01*
X7882381Y-15102626D02*
X7891905Y-15093103D01*
X7891905Y-15093103D02*
X7910953Y-15083579D01*
X7910953Y-15083579D02*
X7949048Y-15083579D01*
X7949048Y-15083579D02*
X7968096Y-15093103D01*
X7968096Y-15093103D02*
X7977620Y-15102626D01*
X7977620Y-15102626D02*
X7987143Y-15121674D01*
X7987143Y-15121674D02*
X7987143Y-15131198D01*
X7987143Y-15131198D02*
X7977620Y-15150245D01*
X7977620Y-15150245D02*
X7968096Y-15159769D01*
X7968096Y-15159769D02*
X7949048Y-15169293D01*
X7949048Y-15169293D02*
X7910953Y-15169293D01*
X7910953Y-15169293D02*
X7891905Y-15178817D01*
X7891905Y-15178817D02*
X7882381Y-15188341D01*
X7882381Y-15188341D02*
X7872858Y-15207388D01*
X7872858Y-15207388D02*
X7872858Y-15245483D01*
X7872858Y-15245483D02*
X7882381Y-15264531D01*
X7882381Y-15264531D02*
X7891905Y-15274055D01*
X7891905Y-15274055D02*
X7910953Y-15283579D01*
X7910953Y-15283579D02*
X7949048Y-15283579D01*
X7949048Y-15283579D02*
X7968096Y-15274055D01*
X7968096Y-15274055D02*
X7977620Y-15264531D01*
X7977620Y-15264531D02*
X7987143Y-15245483D01*
X7987143Y-15245483D02*
X7987143Y-15207388D01*
X7987143Y-15207388D02*
X7977620Y-15188341D01*
X7977620Y-15188341D02*
X7968096Y-15178817D01*
X7968096Y-15178817D02*
X7949048Y-15169293D01*
X8158572Y-15150245D02*
X8158572Y-15283579D01*
X8110953Y-15074055D02*
X8063334Y-15216912D01*
X8063334Y-15216912D02*
X8187143Y-15216912D01*
X8253810Y-15083579D02*
X8253810Y-15121674D01*
X8330001Y-15083579D02*
X8330001Y-15121674D01*
X8625239Y-15359769D02*
X8615715Y-15350245D01*
X8615715Y-15350245D02*
X8596667Y-15321674D01*
X8596667Y-15321674D02*
X8587144Y-15302626D01*
X8587144Y-15302626D02*
X8577620Y-15274055D01*
X8577620Y-15274055D02*
X8568096Y-15226436D01*
X8568096Y-15226436D02*
X8568096Y-15188341D01*
X8568096Y-15188341D02*
X8577620Y-15140722D01*
X8577620Y-15140722D02*
X8587144Y-15112150D01*
X8587144Y-15112150D02*
X8596667Y-15093103D01*
X8596667Y-15093103D02*
X8615715Y-15064531D01*
X8615715Y-15064531D02*
X8625239Y-15055007D01*
X8806191Y-15283579D02*
X8691905Y-15283579D01*
X8749048Y-15283579D02*
X8749048Y-15083579D01*
X8749048Y-15083579D02*
X8730001Y-15112150D01*
X8730001Y-15112150D02*
X8710953Y-15131198D01*
X8710953Y-15131198D02*
X8691905Y-15140722D01*
X9044286Y-15283579D02*
X9044286Y-15083579D01*
X9130001Y-15283579D02*
X9130001Y-15178817D01*
X9130001Y-15178817D02*
X9120477Y-15159769D01*
X9120477Y-15159769D02*
X9101429Y-15150245D01*
X9101429Y-15150245D02*
X9072858Y-15150245D01*
X9072858Y-15150245D02*
X9053810Y-15159769D01*
X9053810Y-15159769D02*
X9044286Y-15169293D01*
X9253810Y-15283579D02*
X9234763Y-15274055D01*
X9234763Y-15274055D02*
X9225239Y-15264531D01*
X9225239Y-15264531D02*
X9215715Y-15245483D01*
X9215715Y-15245483D02*
X9215715Y-15188341D01*
X9215715Y-15188341D02*
X9225239Y-15169293D01*
X9225239Y-15169293D02*
X9234763Y-15159769D01*
X9234763Y-15159769D02*
X9253810Y-15150245D01*
X9253810Y-15150245D02*
X9282382Y-15150245D01*
X9282382Y-15150245D02*
X9301429Y-15159769D01*
X9301429Y-15159769D02*
X9310953Y-15169293D01*
X9310953Y-15169293D02*
X9320477Y-15188341D01*
X9320477Y-15188341D02*
X9320477Y-15245483D01*
X9320477Y-15245483D02*
X9310953Y-15264531D01*
X9310953Y-15264531D02*
X9301429Y-15274055D01*
X9301429Y-15274055D02*
X9282382Y-15283579D01*
X9282382Y-15283579D02*
X9253810Y-15283579D01*
X9434763Y-15283579D02*
X9415715Y-15274055D01*
X9415715Y-15274055D02*
X9406191Y-15255007D01*
X9406191Y-15255007D02*
X9406191Y-15083579D01*
X9587144Y-15274055D02*
X9568096Y-15283579D01*
X9568096Y-15283579D02*
X9530001Y-15283579D01*
X9530001Y-15283579D02*
X9510953Y-15274055D01*
X9510953Y-15274055D02*
X9501429Y-15255007D01*
X9501429Y-15255007D02*
X9501429Y-15178817D01*
X9501429Y-15178817D02*
X9510953Y-15159769D01*
X9510953Y-15159769D02*
X9530001Y-15150245D01*
X9530001Y-15150245D02*
X9568096Y-15150245D01*
X9568096Y-15150245D02*
X9587144Y-15159769D01*
X9587144Y-15159769D02*
X9596667Y-15178817D01*
X9596667Y-15178817D02*
X9596667Y-15197864D01*
X9596667Y-15197864D02*
X9501429Y-15216912D01*
X9663334Y-15359769D02*
X9672858Y-15350245D01*
X9672858Y-15350245D02*
X9691906Y-15321674D01*
X9691906Y-15321674D02*
X9701429Y-15302626D01*
X9701429Y-15302626D02*
X9710953Y-15274055D01*
X9710953Y-15274055D02*
X9720477Y-15226436D01*
X9720477Y-15226436D02*
X9720477Y-15188341D01*
X9720477Y-15188341D02*
X9710953Y-15140722D01*
X9710953Y-15140722D02*
X9701429Y-15112150D01*
X9701429Y-15112150D02*
X9691906Y-15093103D01*
X9691906Y-15093103D02*
X9672858Y-15064531D01*
X9672858Y-15064531D02*
X9663334Y-15055007D01*
X10025239Y-15359769D02*
X10015715Y-15350245D01*
X10015715Y-15350245D02*
X9996667Y-15321674D01*
X9996667Y-15321674D02*
X9987144Y-15302626D01*
X9987144Y-15302626D02*
X9977620Y-15274055D01*
X9977620Y-15274055D02*
X9968096Y-15226436D01*
X9968096Y-15226436D02*
X9968096Y-15188341D01*
X9968096Y-15188341D02*
X9977620Y-15140722D01*
X9977620Y-15140722D02*
X9987144Y-15112150D01*
X9987144Y-15112150D02*
X9996667Y-15093103D01*
X9996667Y-15093103D02*
X10015715Y-15064531D01*
X10015715Y-15064531D02*
X10025239Y-15055007D01*
X10101429Y-15150245D02*
X10101429Y-15283579D01*
X10101429Y-15169293D02*
X10110953Y-15159769D01*
X10110953Y-15159769D02*
X10130001Y-15150245D01*
X10130001Y-15150245D02*
X10158572Y-15150245D01*
X10158572Y-15150245D02*
X10177620Y-15159769D01*
X10177620Y-15159769D02*
X10187144Y-15178817D01*
X10187144Y-15178817D02*
X10187144Y-15283579D01*
X10310953Y-15283579D02*
X10291906Y-15274055D01*
X10291906Y-15274055D02*
X10282382Y-15264531D01*
X10282382Y-15264531D02*
X10272858Y-15245483D01*
X10272858Y-15245483D02*
X10272858Y-15188341D01*
X10272858Y-15188341D02*
X10282382Y-15169293D01*
X10282382Y-15169293D02*
X10291906Y-15159769D01*
X10291906Y-15159769D02*
X10310953Y-15150245D01*
X10310953Y-15150245D02*
X10339525Y-15150245D01*
X10339525Y-15150245D02*
X10358572Y-15159769D01*
X10358572Y-15159769D02*
X10368096Y-15169293D01*
X10368096Y-15169293D02*
X10377620Y-15188341D01*
X10377620Y-15188341D02*
X10377620Y-15245483D01*
X10377620Y-15245483D02*
X10368096Y-15264531D01*
X10368096Y-15264531D02*
X10358572Y-15274055D01*
X10358572Y-15274055D02*
X10339525Y-15283579D01*
X10339525Y-15283579D02*
X10310953Y-15283579D01*
X10434763Y-15150245D02*
X10510953Y-15150245D01*
X10463334Y-15083579D02*
X10463334Y-15255007D01*
X10463334Y-15255007D02*
X10472858Y-15274055D01*
X10472858Y-15274055D02*
X10491906Y-15283579D01*
X10491906Y-15283579D02*
X10510953Y-15283579D01*
X10730001Y-15150245D02*
X10730001Y-15350245D01*
X10730001Y-15159769D02*
X10749048Y-15150245D01*
X10749048Y-15150245D02*
X10787144Y-15150245D01*
X10787144Y-15150245D02*
X10806191Y-15159769D01*
X10806191Y-15159769D02*
X10815715Y-15169293D01*
X10815715Y-15169293D02*
X10825239Y-15188341D01*
X10825239Y-15188341D02*
X10825239Y-15245483D01*
X10825239Y-15245483D02*
X10815715Y-15264531D01*
X10815715Y-15264531D02*
X10806191Y-15274055D01*
X10806191Y-15274055D02*
X10787144Y-15283579D01*
X10787144Y-15283579D02*
X10749048Y-15283579D01*
X10749048Y-15283579D02*
X10730001Y-15274055D01*
X10939525Y-15283579D02*
X10920477Y-15274055D01*
X10920477Y-15274055D02*
X10910953Y-15255007D01*
X10910953Y-15255007D02*
X10910953Y-15083579D01*
X11101429Y-15283579D02*
X11101429Y-15178817D01*
X11101429Y-15178817D02*
X11091906Y-15159769D01*
X11091906Y-15159769D02*
X11072858Y-15150245D01*
X11072858Y-15150245D02*
X11034763Y-15150245D01*
X11034763Y-15150245D02*
X11015715Y-15159769D01*
X11101429Y-15274055D02*
X11082382Y-15283579D01*
X11082382Y-15283579D02*
X11034763Y-15283579D01*
X11034763Y-15283579D02*
X11015715Y-15274055D01*
X11015715Y-15274055D02*
X11006191Y-15255007D01*
X11006191Y-15255007D02*
X11006191Y-15235960D01*
X11006191Y-15235960D02*
X11015715Y-15216912D01*
X11015715Y-15216912D02*
X11034763Y-15207388D01*
X11034763Y-15207388D02*
X11082382Y-15207388D01*
X11082382Y-15207388D02*
X11101429Y-15197864D01*
X11168096Y-15150245D02*
X11244286Y-15150245D01*
X11196667Y-15083579D02*
X11196667Y-15255007D01*
X11196667Y-15255007D02*
X11206191Y-15274055D01*
X11206191Y-15274055D02*
X11225239Y-15283579D01*
X11225239Y-15283579D02*
X11244286Y-15283579D01*
X11387144Y-15274055D02*
X11368096Y-15283579D01*
X11368096Y-15283579D02*
X11330001Y-15283579D01*
X11330001Y-15283579D02*
X11310953Y-15274055D01*
X11310953Y-15274055D02*
X11301429Y-15255007D01*
X11301429Y-15255007D02*
X11301429Y-15178817D01*
X11301429Y-15178817D02*
X11310953Y-15159769D01*
X11310953Y-15159769D02*
X11330001Y-15150245D01*
X11330001Y-15150245D02*
X11368096Y-15150245D01*
X11368096Y-15150245D02*
X11387144Y-15159769D01*
X11387144Y-15159769D02*
X11396667Y-15178817D01*
X11396667Y-15178817D02*
X11396667Y-15197864D01*
X11396667Y-15197864D02*
X11301429Y-15216912D01*
X11568096Y-15283579D02*
X11568096Y-15083579D01*
X11568096Y-15274055D02*
X11549048Y-15283579D01*
X11549048Y-15283579D02*
X11510953Y-15283579D01*
X11510953Y-15283579D02*
X11491906Y-15274055D01*
X11491906Y-15274055D02*
X11482382Y-15264531D01*
X11482382Y-15264531D02*
X11472858Y-15245483D01*
X11472858Y-15245483D02*
X11472858Y-15188341D01*
X11472858Y-15188341D02*
X11482382Y-15169293D01*
X11482382Y-15169293D02*
X11491906Y-15159769D01*
X11491906Y-15159769D02*
X11510953Y-15150245D01*
X11510953Y-15150245D02*
X11549048Y-15150245D01*
X11549048Y-15150245D02*
X11568096Y-15159769D01*
X11644287Y-15359769D02*
X11653810Y-15350245D01*
X11653810Y-15350245D02*
X11672858Y-15321674D01*
X11672858Y-15321674D02*
X11682382Y-15302626D01*
X11682382Y-15302626D02*
X11691906Y-15274055D01*
X11691906Y-15274055D02*
X11701429Y-15226436D01*
X11701429Y-15226436D02*
X11701429Y-15188341D01*
X11701429Y-15188341D02*
X11691906Y-15140722D01*
X11691906Y-15140722D02*
X11682382Y-15112150D01*
X11682382Y-15112150D02*
X11672858Y-15093103D01*
X11672858Y-15093103D02*
X11653810Y-15064531D01*
X11653810Y-15064531D02*
X11644287Y-15055007D01*
M02*
