%TF.GenerationSoftware,KiCad,Pcbnew,7.0.9*%
%TF.CreationDate,2023-11-12T20:37:14+01:00*%
%TF.ProjectId,christmas_ornament_2023,63687269-7374-46d6-9173-5f6f726e616d,1.0*%
%TF.SameCoordinates,Original*%
%TF.FileFunction,Drillmap*%
%TF.FilePolarity,Positive*%
%FSLAX45Y45*%
G04 Gerber Fmt 4.5, Leading zero omitted, Abs format (unit mm)*
G04 Created by KiCad (PCBNEW 7.0.9) date 2023-11-12 20:37:14*
%MOMM*%
%LPD*%
G01*
G04 APERTURE LIST*
%ADD10C,0.200000*%
%ADD11C,0.100000*%
G04 APERTURE END LIST*
D10*
X10006976Y-3450095D02*
X9756976Y-3883095D01*
X8506976Y-4316105D02*
X9006097Y-4316105D01*
X9507855Y-4316105D02*
X10006976Y-4316105D01*
X10006976Y-14278095D02*
X8506976Y-14278095D01*
X10006936Y-12778083D02*
G75*
G03*
X13453744Y-12778094I1723419J4499988D01*
G01*
X9256976Y-3017095D02*
X9506976Y-3450095D01*
X8506976Y-3450095D02*
X9006976Y-3450095D01*
X9006976Y-3450095D02*
X9256976Y-3017095D01*
X10006976Y-12778095D02*
X10006976Y-14278095D01*
X9756976Y-3883095D02*
X10006976Y-4316105D01*
X8506976Y-4316105D02*
X8756976Y-3883095D01*
X8506976Y-14278095D02*
X8506976Y-12778095D01*
X9506976Y-3450095D02*
X10006976Y-3450095D01*
X9507855Y-4316105D02*
X13453745Y-12778095D01*
X8756976Y-3883095D02*
X8506976Y-3450095D01*
X5060176Y-12778083D02*
G75*
G03*
X8506984Y-12778094I1723419J4499988D01*
G01*
X9006097Y-4316105D02*
X5060206Y-12778095D01*
D11*
X6716000Y-10995900D02*
X6746000Y-11025900D01*
X6746000Y-10995900D02*
X6716000Y-11025900D01*
X6716000Y-11122900D02*
X6746000Y-11152900D01*
X6746000Y-11122900D02*
X6716000Y-11152900D01*
X7160500Y-10576800D02*
X7190500Y-10606800D01*
X7190500Y-10576800D02*
X7160500Y-10606800D01*
X8100300Y-6741400D02*
X8130300Y-6771400D01*
X8130300Y-6741400D02*
X8100300Y-6771400D01*
X8176500Y-8303500D02*
X8206500Y-8333500D01*
X8206500Y-8303500D02*
X8176500Y-8333500D01*
X8499400Y-10957800D02*
X8529400Y-10987800D01*
X8529400Y-10957800D02*
X8499400Y-10987800D01*
X8547500Y-12382900D02*
X8577500Y-12412900D01*
X8577500Y-12382900D02*
X8547500Y-12412900D01*
X9129000Y-9738600D02*
X9159000Y-9768600D01*
X9159000Y-9738600D02*
X9129000Y-9768600D01*
X9649700Y-6512800D02*
X9679700Y-6542800D01*
X9679700Y-6512800D02*
X9649700Y-6542800D01*
X9814800Y-8735300D02*
X9844800Y-8765300D01*
X9844800Y-8735300D02*
X9814800Y-8765300D01*
X9941800Y-12392900D02*
X9971800Y-12422900D01*
X9971800Y-12392900D02*
X9941800Y-12422900D01*
X10018000Y-10970500D02*
X10048000Y-11000500D01*
X10048000Y-10970500D02*
X10018000Y-11000500D01*
X11148300Y-10183100D02*
X11178300Y-10213100D01*
X11178300Y-10183100D02*
X11148300Y-10213100D01*
X11351500Y-11503900D02*
X11381500Y-11533900D01*
X11381500Y-11503900D02*
X11351500Y-11533900D01*
X11478500Y-11669000D02*
X11508500Y-11699000D01*
X11508500Y-11669000D02*
X11478500Y-11699000D01*
X6248534Y-12187534D02*
G75*
G03*
X6248534Y-12187534I-30000J0D01*
G01*
X6354600Y-12293600D02*
G75*
G03*
X6354600Y-12293600I-30000J0D01*
G01*
X7421400Y-12242800D02*
G75*
G03*
X7421400Y-12242800I-30000J0D01*
G01*
X7571400Y-12242800D02*
G75*
G03*
X7571400Y-12242800I-30000J0D01*
G01*
X6348195Y-11543095D02*
X6348195Y-11618095D01*
X6310695Y-11580595D02*
X6385695Y-11580595D01*
X6437997Y-11632897D02*
X6437997Y-11707897D01*
X6400497Y-11670397D02*
X6475497Y-11670397D01*
X6527800Y-11722700D02*
X6527800Y-11797700D01*
X6490300Y-11760200D02*
X6565300Y-11760200D01*
X6754595Y-11951300D02*
X6754595Y-12026300D01*
X6717095Y-11988800D02*
X6792095Y-11988800D01*
X6844397Y-12041102D02*
X6844397Y-12116102D01*
X6806897Y-12078602D02*
X6881897Y-12078602D01*
X6934200Y-12130905D02*
X6934200Y-12205905D01*
X6896700Y-12168405D02*
X6971700Y-12168405D01*
X6804669Y-11539900D02*
X6804669Y-11483331D01*
X6748100Y-11483331D01*
X6748100Y-11539900D01*
X6804669Y-11539900D01*
X7023277Y-11753092D02*
X7023277Y-11696523D01*
X6966708Y-11696523D01*
X6966708Y-11753092D01*
X7023277Y-11753092D01*
X7343484Y-11001085D02*
X7343484Y-10944516D01*
X7286915Y-10944516D01*
X7286915Y-11001085D01*
X7343484Y-11001085D01*
X7562092Y-11214277D02*
X7562092Y-11157708D01*
X7505523Y-11157708D01*
X7505523Y-11214277D01*
X7562092Y-11214277D01*
X11763084Y-12452084D02*
X11763084Y-12395515D01*
X11706515Y-12395515D01*
X11706515Y-12452084D01*
X11763084Y-12452084D01*
X11763084Y-12652084D02*
X11763084Y-12595515D01*
X11706515Y-12595515D01*
X11706515Y-12652084D01*
X11763084Y-12652084D01*
X6680200Y-10306600D02*
X6725200Y-10261600D01*
X6680200Y-10216600D01*
X6635200Y-10261600D01*
X6680200Y-10306600D01*
X6934200Y-10306600D02*
X6979200Y-10261600D01*
X6934200Y-10216600D01*
X6889200Y-10261600D01*
X6934200Y-10306600D01*
X7594600Y-10255800D02*
X7639600Y-10210800D01*
X7594600Y-10165800D01*
X7549600Y-10210800D01*
X7594600Y-10255800D01*
X7746500Y-7677700D02*
X7791500Y-7632700D01*
X7746500Y-7587700D01*
X7701500Y-7632700D01*
X7746500Y-7677700D01*
X7848600Y-10255800D02*
X7893600Y-10210800D01*
X7848600Y-10165800D01*
X7803600Y-10210800D01*
X7848600Y-10255800D01*
X8000500Y-7677700D02*
X8045500Y-7632700D01*
X8000500Y-7587700D01*
X7955500Y-7632700D01*
X8000500Y-7677700D01*
X8432800Y-6166400D02*
X8477800Y-6121400D01*
X8432800Y-6076400D01*
X8387800Y-6121400D01*
X8432800Y-6166400D01*
X8483100Y-7969800D02*
X8528100Y-7924800D01*
X8483100Y-7879800D01*
X8438100Y-7924800D01*
X8483100Y-7969800D01*
X8547100Y-10192300D02*
X8592100Y-10147300D01*
X8547100Y-10102300D01*
X8502100Y-10147300D01*
X8547100Y-10192300D01*
X8686800Y-6166400D02*
X8731800Y-6121400D01*
X8686800Y-6076400D01*
X8641800Y-6121400D01*
X8686800Y-6166400D01*
X8737100Y-7969800D02*
X8782100Y-7924800D01*
X8737100Y-7879800D01*
X8692100Y-7924800D01*
X8737100Y-7969800D01*
X8801100Y-10192300D02*
X8846100Y-10147300D01*
X8801100Y-10102300D01*
X8756100Y-10147300D01*
X8801100Y-10192300D01*
X9080500Y-6090200D02*
X9125500Y-6045200D01*
X9080500Y-6000200D01*
X9035500Y-6045200D01*
X9080500Y-6090200D01*
X9296400Y-8249200D02*
X9341400Y-8204200D01*
X9296400Y-8159200D01*
X9251400Y-8204200D01*
X9296400Y-8249200D01*
X9334500Y-6090200D02*
X9379500Y-6045200D01*
X9334500Y-6000200D01*
X9289500Y-6045200D01*
X9334500Y-6090200D01*
X9550400Y-8249200D02*
X9595400Y-8204200D01*
X9550400Y-8159200D01*
X9505400Y-8204200D01*
X9550400Y-8249200D01*
X9550400Y-10090700D02*
X9595400Y-10045700D01*
X9550400Y-10000700D01*
X9505400Y-10045700D01*
X9550400Y-10090700D01*
X9778500Y-5988600D02*
X9823500Y-5943600D01*
X9778500Y-5898600D01*
X9733500Y-5943600D01*
X9778500Y-5988600D01*
X9804400Y-10090700D02*
X9849400Y-10045700D01*
X9804400Y-10000700D01*
X9759400Y-10045700D01*
X9804400Y-10090700D01*
X10032500Y-5988600D02*
X10077500Y-5943600D01*
X10032500Y-5898600D01*
X9987500Y-5943600D01*
X10032500Y-5988600D01*
X10134100Y-8515900D02*
X10179100Y-8470900D01*
X10134100Y-8425900D01*
X10089100Y-8470900D01*
X10134100Y-8515900D01*
X10388100Y-8515900D02*
X10433100Y-8470900D01*
X10388100Y-8425900D01*
X10343100Y-8470900D01*
X10388100Y-8515900D01*
X10515100Y-9976400D02*
X10560100Y-9931400D01*
X10515100Y-9886400D01*
X10470100Y-9931400D01*
X10515100Y-9976400D01*
X10769100Y-9976400D02*
X10814100Y-9931400D01*
X10769100Y-9886400D01*
X10724100Y-9931400D01*
X10769100Y-9976400D01*
X10997700Y-8744500D02*
X11042700Y-8699500D01*
X10997700Y-8654500D01*
X10952700Y-8699500D01*
X10997700Y-8744500D01*
X11251700Y-8744500D02*
X11296700Y-8699500D01*
X11251700Y-8654500D01*
X11206700Y-8699500D01*
X11251700Y-8744500D01*
X11429500Y-9849400D02*
X11474500Y-9804400D01*
X11429500Y-9759400D01*
X11384500Y-9804400D01*
X11429500Y-9849400D01*
X11683500Y-9849400D02*
X11728500Y-9804400D01*
X11683500Y-9759400D01*
X11638500Y-9804400D01*
X11683500Y-9849400D01*
D10*
X5310953Y-14599579D02*
X5310953Y-14399579D01*
X5310953Y-14399579D02*
X5358572Y-14399579D01*
X5358572Y-14399579D02*
X5387143Y-14409103D01*
X5387143Y-14409103D02*
X5406191Y-14428150D01*
X5406191Y-14428150D02*
X5415715Y-14447198D01*
X5415715Y-14447198D02*
X5425238Y-14485293D01*
X5425238Y-14485293D02*
X5425238Y-14513864D01*
X5425238Y-14513864D02*
X5415715Y-14551960D01*
X5415715Y-14551960D02*
X5406191Y-14571007D01*
X5406191Y-14571007D02*
X5387143Y-14590055D01*
X5387143Y-14590055D02*
X5358572Y-14599579D01*
X5358572Y-14599579D02*
X5310953Y-14599579D01*
X5510953Y-14599579D02*
X5510953Y-14466245D01*
X5510953Y-14504341D02*
X5520477Y-14485293D01*
X5520477Y-14485293D02*
X5530000Y-14475769D01*
X5530000Y-14475769D02*
X5549048Y-14466245D01*
X5549048Y-14466245D02*
X5568096Y-14466245D01*
X5634762Y-14599579D02*
X5634762Y-14466245D01*
X5634762Y-14399579D02*
X5625238Y-14409103D01*
X5625238Y-14409103D02*
X5634762Y-14418626D01*
X5634762Y-14418626D02*
X5644286Y-14409103D01*
X5644286Y-14409103D02*
X5634762Y-14399579D01*
X5634762Y-14399579D02*
X5634762Y-14418626D01*
X5758572Y-14599579D02*
X5739524Y-14590055D01*
X5739524Y-14590055D02*
X5730000Y-14571007D01*
X5730000Y-14571007D02*
X5730000Y-14399579D01*
X5863334Y-14599579D02*
X5844286Y-14590055D01*
X5844286Y-14590055D02*
X5834762Y-14571007D01*
X5834762Y-14571007D02*
X5834762Y-14399579D01*
X6091905Y-14599579D02*
X6091905Y-14399579D01*
X6091905Y-14399579D02*
X6158572Y-14542436D01*
X6158572Y-14542436D02*
X6225238Y-14399579D01*
X6225238Y-14399579D02*
X6225238Y-14599579D01*
X6406191Y-14599579D02*
X6406191Y-14494817D01*
X6406191Y-14494817D02*
X6396667Y-14475769D01*
X6396667Y-14475769D02*
X6377619Y-14466245D01*
X6377619Y-14466245D02*
X6339524Y-14466245D01*
X6339524Y-14466245D02*
X6320476Y-14475769D01*
X6406191Y-14590055D02*
X6387143Y-14599579D01*
X6387143Y-14599579D02*
X6339524Y-14599579D01*
X6339524Y-14599579D02*
X6320476Y-14590055D01*
X6320476Y-14590055D02*
X6310953Y-14571007D01*
X6310953Y-14571007D02*
X6310953Y-14551960D01*
X6310953Y-14551960D02*
X6320476Y-14532912D01*
X6320476Y-14532912D02*
X6339524Y-14523388D01*
X6339524Y-14523388D02*
X6387143Y-14523388D01*
X6387143Y-14523388D02*
X6406191Y-14513864D01*
X6501429Y-14466245D02*
X6501429Y-14666245D01*
X6501429Y-14475769D02*
X6520476Y-14466245D01*
X6520476Y-14466245D02*
X6558572Y-14466245D01*
X6558572Y-14466245D02*
X6577619Y-14475769D01*
X6577619Y-14475769D02*
X6587143Y-14485293D01*
X6587143Y-14485293D02*
X6596667Y-14504341D01*
X6596667Y-14504341D02*
X6596667Y-14561483D01*
X6596667Y-14561483D02*
X6587143Y-14580531D01*
X6587143Y-14580531D02*
X6577619Y-14590055D01*
X6577619Y-14590055D02*
X6558572Y-14599579D01*
X6558572Y-14599579D02*
X6520476Y-14599579D01*
X6520476Y-14599579D02*
X6501429Y-14590055D01*
X6682381Y-14580531D02*
X6691905Y-14590055D01*
X6691905Y-14590055D02*
X6682381Y-14599579D01*
X6682381Y-14599579D02*
X6672857Y-14590055D01*
X6672857Y-14590055D02*
X6682381Y-14580531D01*
X6682381Y-14580531D02*
X6682381Y-14599579D01*
X6682381Y-14475769D02*
X6691905Y-14485293D01*
X6691905Y-14485293D02*
X6682381Y-14494817D01*
X6682381Y-14494817D02*
X6672857Y-14485293D01*
X6672857Y-14485293D02*
X6682381Y-14475769D01*
X6682381Y-14475769D02*
X6682381Y-14494817D01*
D11*
X5020176Y-14913095D02*
X5050176Y-14943095D01*
X5050176Y-14913095D02*
X5020176Y-14943095D01*
D10*
X5349048Y-14819579D02*
X5368096Y-14819579D01*
X5368096Y-14819579D02*
X5387143Y-14829103D01*
X5387143Y-14829103D02*
X5396667Y-14838626D01*
X5396667Y-14838626D02*
X5406191Y-14857674D01*
X5406191Y-14857674D02*
X5415715Y-14895769D01*
X5415715Y-14895769D02*
X5415715Y-14943388D01*
X5415715Y-14943388D02*
X5406191Y-14981483D01*
X5406191Y-14981483D02*
X5396667Y-15000531D01*
X5396667Y-15000531D02*
X5387143Y-15010055D01*
X5387143Y-15010055D02*
X5368096Y-15019579D01*
X5368096Y-15019579D02*
X5349048Y-15019579D01*
X5349048Y-15019579D02*
X5330000Y-15010055D01*
X5330000Y-15010055D02*
X5320477Y-15000531D01*
X5320477Y-15000531D02*
X5310953Y-14981483D01*
X5310953Y-14981483D02*
X5301429Y-14943388D01*
X5301429Y-14943388D02*
X5301429Y-14895769D01*
X5301429Y-14895769D02*
X5310953Y-14857674D01*
X5310953Y-14857674D02*
X5320477Y-14838626D01*
X5320477Y-14838626D02*
X5330000Y-14829103D01*
X5330000Y-14829103D02*
X5349048Y-14819579D01*
X5501429Y-15000531D02*
X5510953Y-15010055D01*
X5510953Y-15010055D02*
X5501429Y-15019579D01*
X5501429Y-15019579D02*
X5491905Y-15010055D01*
X5491905Y-15010055D02*
X5501429Y-15000531D01*
X5501429Y-15000531D02*
X5501429Y-15019579D01*
X5577619Y-14819579D02*
X5701429Y-14819579D01*
X5701429Y-14819579D02*
X5634762Y-14895769D01*
X5634762Y-14895769D02*
X5663334Y-14895769D01*
X5663334Y-14895769D02*
X5682381Y-14905293D01*
X5682381Y-14905293D02*
X5691905Y-14914817D01*
X5691905Y-14914817D02*
X5701429Y-14933864D01*
X5701429Y-14933864D02*
X5701429Y-14981483D01*
X5701429Y-14981483D02*
X5691905Y-15000531D01*
X5691905Y-15000531D02*
X5682381Y-15010055D01*
X5682381Y-15010055D02*
X5663334Y-15019579D01*
X5663334Y-15019579D02*
X5606191Y-15019579D01*
X5606191Y-15019579D02*
X5587143Y-15010055D01*
X5587143Y-15010055D02*
X5577619Y-15000531D01*
X5825238Y-14819579D02*
X5844286Y-14819579D01*
X5844286Y-14819579D02*
X5863334Y-14829103D01*
X5863334Y-14829103D02*
X5872857Y-14838626D01*
X5872857Y-14838626D02*
X5882381Y-14857674D01*
X5882381Y-14857674D02*
X5891905Y-14895769D01*
X5891905Y-14895769D02*
X5891905Y-14943388D01*
X5891905Y-14943388D02*
X5882381Y-14981483D01*
X5882381Y-14981483D02*
X5872857Y-15000531D01*
X5872857Y-15000531D02*
X5863334Y-15010055D01*
X5863334Y-15010055D02*
X5844286Y-15019579D01*
X5844286Y-15019579D02*
X5825238Y-15019579D01*
X5825238Y-15019579D02*
X5806191Y-15010055D01*
X5806191Y-15010055D02*
X5796667Y-15000531D01*
X5796667Y-15000531D02*
X5787143Y-14981483D01*
X5787143Y-14981483D02*
X5777619Y-14943388D01*
X5777619Y-14943388D02*
X5777619Y-14895769D01*
X5777619Y-14895769D02*
X5787143Y-14857674D01*
X5787143Y-14857674D02*
X5796667Y-14838626D01*
X5796667Y-14838626D02*
X5806191Y-14829103D01*
X5806191Y-14829103D02*
X5825238Y-14819579D01*
X6015715Y-14819579D02*
X6034762Y-14819579D01*
X6034762Y-14819579D02*
X6053810Y-14829103D01*
X6053810Y-14829103D02*
X6063334Y-14838626D01*
X6063334Y-14838626D02*
X6072857Y-14857674D01*
X6072857Y-14857674D02*
X6082381Y-14895769D01*
X6082381Y-14895769D02*
X6082381Y-14943388D01*
X6082381Y-14943388D02*
X6072857Y-14981483D01*
X6072857Y-14981483D02*
X6063334Y-15000531D01*
X6063334Y-15000531D02*
X6053810Y-15010055D01*
X6053810Y-15010055D02*
X6034762Y-15019579D01*
X6034762Y-15019579D02*
X6015715Y-15019579D01*
X6015715Y-15019579D02*
X5996667Y-15010055D01*
X5996667Y-15010055D02*
X5987143Y-15000531D01*
X5987143Y-15000531D02*
X5977619Y-14981483D01*
X5977619Y-14981483D02*
X5968096Y-14943388D01*
X5968096Y-14943388D02*
X5968096Y-14895769D01*
X5968096Y-14895769D02*
X5977619Y-14857674D01*
X5977619Y-14857674D02*
X5987143Y-14838626D01*
X5987143Y-14838626D02*
X5996667Y-14829103D01*
X5996667Y-14829103D02*
X6015715Y-14819579D01*
X6168096Y-15019579D02*
X6168096Y-14886245D01*
X6168096Y-14905293D02*
X6177619Y-14895769D01*
X6177619Y-14895769D02*
X6196667Y-14886245D01*
X6196667Y-14886245D02*
X6225238Y-14886245D01*
X6225238Y-14886245D02*
X6244286Y-14895769D01*
X6244286Y-14895769D02*
X6253810Y-14914817D01*
X6253810Y-14914817D02*
X6253810Y-15019579D01*
X6253810Y-14914817D02*
X6263334Y-14895769D01*
X6263334Y-14895769D02*
X6282381Y-14886245D01*
X6282381Y-14886245D02*
X6310953Y-14886245D01*
X6310953Y-14886245D02*
X6330000Y-14895769D01*
X6330000Y-14895769D02*
X6339524Y-14914817D01*
X6339524Y-14914817D02*
X6339524Y-15019579D01*
X6434762Y-15019579D02*
X6434762Y-14886245D01*
X6434762Y-14905293D02*
X6444286Y-14895769D01*
X6444286Y-14895769D02*
X6463334Y-14886245D01*
X6463334Y-14886245D02*
X6491905Y-14886245D01*
X6491905Y-14886245D02*
X6510953Y-14895769D01*
X6510953Y-14895769D02*
X6520477Y-14914817D01*
X6520477Y-14914817D02*
X6520477Y-15019579D01*
X6520477Y-14914817D02*
X6530000Y-14895769D01*
X6530000Y-14895769D02*
X6549048Y-14886245D01*
X6549048Y-14886245D02*
X6577619Y-14886245D01*
X6577619Y-14886245D02*
X6596667Y-14895769D01*
X6596667Y-14895769D02*
X6606191Y-14914817D01*
X6606191Y-14914817D02*
X6606191Y-15019579D01*
X6996667Y-14810055D02*
X6825239Y-15067198D01*
X7253810Y-14819579D02*
X7272858Y-14819579D01*
X7272858Y-14819579D02*
X7291905Y-14829103D01*
X7291905Y-14829103D02*
X7301429Y-14838626D01*
X7301429Y-14838626D02*
X7310953Y-14857674D01*
X7310953Y-14857674D02*
X7320477Y-14895769D01*
X7320477Y-14895769D02*
X7320477Y-14943388D01*
X7320477Y-14943388D02*
X7310953Y-14981483D01*
X7310953Y-14981483D02*
X7301429Y-15000531D01*
X7301429Y-15000531D02*
X7291905Y-15010055D01*
X7291905Y-15010055D02*
X7272858Y-15019579D01*
X7272858Y-15019579D02*
X7253810Y-15019579D01*
X7253810Y-15019579D02*
X7234762Y-15010055D01*
X7234762Y-15010055D02*
X7225239Y-15000531D01*
X7225239Y-15000531D02*
X7215715Y-14981483D01*
X7215715Y-14981483D02*
X7206191Y-14943388D01*
X7206191Y-14943388D02*
X7206191Y-14895769D01*
X7206191Y-14895769D02*
X7215715Y-14857674D01*
X7215715Y-14857674D02*
X7225239Y-14838626D01*
X7225239Y-14838626D02*
X7234762Y-14829103D01*
X7234762Y-14829103D02*
X7253810Y-14819579D01*
X7406191Y-15000531D02*
X7415715Y-15010055D01*
X7415715Y-15010055D02*
X7406191Y-15019579D01*
X7406191Y-15019579D02*
X7396667Y-15010055D01*
X7396667Y-15010055D02*
X7406191Y-15000531D01*
X7406191Y-15000531D02*
X7406191Y-15019579D01*
X7539524Y-14819579D02*
X7558572Y-14819579D01*
X7558572Y-14819579D02*
X7577620Y-14829103D01*
X7577620Y-14829103D02*
X7587143Y-14838626D01*
X7587143Y-14838626D02*
X7596667Y-14857674D01*
X7596667Y-14857674D02*
X7606191Y-14895769D01*
X7606191Y-14895769D02*
X7606191Y-14943388D01*
X7606191Y-14943388D02*
X7596667Y-14981483D01*
X7596667Y-14981483D02*
X7587143Y-15000531D01*
X7587143Y-15000531D02*
X7577620Y-15010055D01*
X7577620Y-15010055D02*
X7558572Y-15019579D01*
X7558572Y-15019579D02*
X7539524Y-15019579D01*
X7539524Y-15019579D02*
X7520477Y-15010055D01*
X7520477Y-15010055D02*
X7510953Y-15000531D01*
X7510953Y-15000531D02*
X7501429Y-14981483D01*
X7501429Y-14981483D02*
X7491905Y-14943388D01*
X7491905Y-14943388D02*
X7491905Y-14895769D01*
X7491905Y-14895769D02*
X7501429Y-14857674D01*
X7501429Y-14857674D02*
X7510953Y-14838626D01*
X7510953Y-14838626D02*
X7520477Y-14829103D01*
X7520477Y-14829103D02*
X7539524Y-14819579D01*
X7796667Y-15019579D02*
X7682381Y-15019579D01*
X7739524Y-15019579D02*
X7739524Y-14819579D01*
X7739524Y-14819579D02*
X7720477Y-14848150D01*
X7720477Y-14848150D02*
X7701429Y-14867198D01*
X7701429Y-14867198D02*
X7682381Y-14876722D01*
X7987143Y-15019579D02*
X7872858Y-15019579D01*
X7930000Y-15019579D02*
X7930000Y-14819579D01*
X7930000Y-14819579D02*
X7910953Y-14848150D01*
X7910953Y-14848150D02*
X7891905Y-14867198D01*
X7891905Y-14867198D02*
X7872858Y-14876722D01*
X8101429Y-14905293D02*
X8082381Y-14895769D01*
X8082381Y-14895769D02*
X8072858Y-14886245D01*
X8072858Y-14886245D02*
X8063334Y-14867198D01*
X8063334Y-14867198D02*
X8063334Y-14857674D01*
X8063334Y-14857674D02*
X8072858Y-14838626D01*
X8072858Y-14838626D02*
X8082381Y-14829103D01*
X8082381Y-14829103D02*
X8101429Y-14819579D01*
X8101429Y-14819579D02*
X8139524Y-14819579D01*
X8139524Y-14819579D02*
X8158572Y-14829103D01*
X8158572Y-14829103D02*
X8168096Y-14838626D01*
X8168096Y-14838626D02*
X8177620Y-14857674D01*
X8177620Y-14857674D02*
X8177620Y-14867198D01*
X8177620Y-14867198D02*
X8168096Y-14886245D01*
X8168096Y-14886245D02*
X8158572Y-14895769D01*
X8158572Y-14895769D02*
X8139524Y-14905293D01*
X8139524Y-14905293D02*
X8101429Y-14905293D01*
X8101429Y-14905293D02*
X8082381Y-14914817D01*
X8082381Y-14914817D02*
X8072858Y-14924341D01*
X8072858Y-14924341D02*
X8063334Y-14943388D01*
X8063334Y-14943388D02*
X8063334Y-14981483D01*
X8063334Y-14981483D02*
X8072858Y-15000531D01*
X8072858Y-15000531D02*
X8082381Y-15010055D01*
X8082381Y-15010055D02*
X8101429Y-15019579D01*
X8101429Y-15019579D02*
X8139524Y-15019579D01*
X8139524Y-15019579D02*
X8158572Y-15010055D01*
X8158572Y-15010055D02*
X8168096Y-15000531D01*
X8168096Y-15000531D02*
X8177620Y-14981483D01*
X8177620Y-14981483D02*
X8177620Y-14943388D01*
X8177620Y-14943388D02*
X8168096Y-14924341D01*
X8168096Y-14924341D02*
X8158572Y-14914817D01*
X8158572Y-14914817D02*
X8139524Y-14905293D01*
X8253810Y-14819579D02*
X8253810Y-14857674D01*
X8330001Y-14819579D02*
X8330001Y-14857674D01*
X8625239Y-15095769D02*
X8615715Y-15086245D01*
X8615715Y-15086245D02*
X8596667Y-15057674D01*
X8596667Y-15057674D02*
X8587144Y-15038626D01*
X8587144Y-15038626D02*
X8577620Y-15010055D01*
X8577620Y-15010055D02*
X8568096Y-14962436D01*
X8568096Y-14962436D02*
X8568096Y-14924341D01*
X8568096Y-14924341D02*
X8577620Y-14876722D01*
X8577620Y-14876722D02*
X8587144Y-14848150D01*
X8587144Y-14848150D02*
X8596667Y-14829103D01*
X8596667Y-14829103D02*
X8615715Y-14800531D01*
X8615715Y-14800531D02*
X8625239Y-14791007D01*
X8806191Y-15019579D02*
X8691905Y-15019579D01*
X8749048Y-15019579D02*
X8749048Y-14819579D01*
X8749048Y-14819579D02*
X8730001Y-14848150D01*
X8730001Y-14848150D02*
X8710953Y-14867198D01*
X8710953Y-14867198D02*
X8691905Y-14876722D01*
X8987144Y-14819579D02*
X8891905Y-14819579D01*
X8891905Y-14819579D02*
X8882382Y-14914817D01*
X8882382Y-14914817D02*
X8891905Y-14905293D01*
X8891905Y-14905293D02*
X8910953Y-14895769D01*
X8910953Y-14895769D02*
X8958572Y-14895769D01*
X8958572Y-14895769D02*
X8977620Y-14905293D01*
X8977620Y-14905293D02*
X8987144Y-14914817D01*
X8987144Y-14914817D02*
X8996667Y-14933864D01*
X8996667Y-14933864D02*
X8996667Y-14981483D01*
X8996667Y-14981483D02*
X8987144Y-15000531D01*
X8987144Y-15000531D02*
X8977620Y-15010055D01*
X8977620Y-15010055D02*
X8958572Y-15019579D01*
X8958572Y-15019579D02*
X8910953Y-15019579D01*
X8910953Y-15019579D02*
X8891905Y-15010055D01*
X8891905Y-15010055D02*
X8882382Y-15000531D01*
X9234763Y-15019579D02*
X9234763Y-14819579D01*
X9320477Y-15019579D02*
X9320477Y-14914817D01*
X9320477Y-14914817D02*
X9310953Y-14895769D01*
X9310953Y-14895769D02*
X9291906Y-14886245D01*
X9291906Y-14886245D02*
X9263334Y-14886245D01*
X9263334Y-14886245D02*
X9244286Y-14895769D01*
X9244286Y-14895769D02*
X9234763Y-14905293D01*
X9444286Y-15019579D02*
X9425239Y-15010055D01*
X9425239Y-15010055D02*
X9415715Y-15000531D01*
X9415715Y-15000531D02*
X9406191Y-14981483D01*
X9406191Y-14981483D02*
X9406191Y-14924341D01*
X9406191Y-14924341D02*
X9415715Y-14905293D01*
X9415715Y-14905293D02*
X9425239Y-14895769D01*
X9425239Y-14895769D02*
X9444286Y-14886245D01*
X9444286Y-14886245D02*
X9472858Y-14886245D01*
X9472858Y-14886245D02*
X9491906Y-14895769D01*
X9491906Y-14895769D02*
X9501429Y-14905293D01*
X9501429Y-14905293D02*
X9510953Y-14924341D01*
X9510953Y-14924341D02*
X9510953Y-14981483D01*
X9510953Y-14981483D02*
X9501429Y-15000531D01*
X9501429Y-15000531D02*
X9491906Y-15010055D01*
X9491906Y-15010055D02*
X9472858Y-15019579D01*
X9472858Y-15019579D02*
X9444286Y-15019579D01*
X9625239Y-15019579D02*
X9606191Y-15010055D01*
X9606191Y-15010055D02*
X9596667Y-14991007D01*
X9596667Y-14991007D02*
X9596667Y-14819579D01*
X9777620Y-15010055D02*
X9758572Y-15019579D01*
X9758572Y-15019579D02*
X9720477Y-15019579D01*
X9720477Y-15019579D02*
X9701429Y-15010055D01*
X9701429Y-15010055D02*
X9691906Y-14991007D01*
X9691906Y-14991007D02*
X9691906Y-14914817D01*
X9691906Y-14914817D02*
X9701429Y-14895769D01*
X9701429Y-14895769D02*
X9720477Y-14886245D01*
X9720477Y-14886245D02*
X9758572Y-14886245D01*
X9758572Y-14886245D02*
X9777620Y-14895769D01*
X9777620Y-14895769D02*
X9787144Y-14914817D01*
X9787144Y-14914817D02*
X9787144Y-14933864D01*
X9787144Y-14933864D02*
X9691906Y-14952912D01*
X9863334Y-15010055D02*
X9882382Y-15019579D01*
X9882382Y-15019579D02*
X9920477Y-15019579D01*
X9920477Y-15019579D02*
X9939525Y-15010055D01*
X9939525Y-15010055D02*
X9949048Y-14991007D01*
X9949048Y-14991007D02*
X9949048Y-14981483D01*
X9949048Y-14981483D02*
X9939525Y-14962436D01*
X9939525Y-14962436D02*
X9920477Y-14952912D01*
X9920477Y-14952912D02*
X9891906Y-14952912D01*
X9891906Y-14952912D02*
X9872858Y-14943388D01*
X9872858Y-14943388D02*
X9863334Y-14924341D01*
X9863334Y-14924341D02*
X9863334Y-14914817D01*
X9863334Y-14914817D02*
X9872858Y-14895769D01*
X9872858Y-14895769D02*
X9891906Y-14886245D01*
X9891906Y-14886245D02*
X9920477Y-14886245D01*
X9920477Y-14886245D02*
X9939525Y-14895769D01*
X10015715Y-15095769D02*
X10025239Y-15086245D01*
X10025239Y-15086245D02*
X10044287Y-15057674D01*
X10044287Y-15057674D02*
X10053810Y-15038626D01*
X10053810Y-15038626D02*
X10063334Y-15010055D01*
X10063334Y-15010055D02*
X10072858Y-14962436D01*
X10072858Y-14962436D02*
X10072858Y-14924341D01*
X10072858Y-14924341D02*
X10063334Y-14876722D01*
X10063334Y-14876722D02*
X10053810Y-14848150D01*
X10053810Y-14848150D02*
X10044287Y-14829103D01*
X10044287Y-14829103D02*
X10025239Y-14800531D01*
X10025239Y-14800531D02*
X10015715Y-14791007D01*
D11*
X5050176Y-15192095D02*
G75*
G03*
X5050176Y-15192095I-30000J0D01*
G01*
D10*
X5349048Y-15083579D02*
X5368096Y-15083579D01*
X5368096Y-15083579D02*
X5387143Y-15093103D01*
X5387143Y-15093103D02*
X5396667Y-15102626D01*
X5396667Y-15102626D02*
X5406191Y-15121674D01*
X5406191Y-15121674D02*
X5415715Y-15159769D01*
X5415715Y-15159769D02*
X5415715Y-15207388D01*
X5415715Y-15207388D02*
X5406191Y-15245483D01*
X5406191Y-15245483D02*
X5396667Y-15264531D01*
X5396667Y-15264531D02*
X5387143Y-15274055D01*
X5387143Y-15274055D02*
X5368096Y-15283579D01*
X5368096Y-15283579D02*
X5349048Y-15283579D01*
X5349048Y-15283579D02*
X5330000Y-15274055D01*
X5330000Y-15274055D02*
X5320477Y-15264531D01*
X5320477Y-15264531D02*
X5310953Y-15245483D01*
X5310953Y-15245483D02*
X5301429Y-15207388D01*
X5301429Y-15207388D02*
X5301429Y-15159769D01*
X5301429Y-15159769D02*
X5310953Y-15121674D01*
X5310953Y-15121674D02*
X5320477Y-15102626D01*
X5320477Y-15102626D02*
X5330000Y-15093103D01*
X5330000Y-15093103D02*
X5349048Y-15083579D01*
X5501429Y-15264531D02*
X5510953Y-15274055D01*
X5510953Y-15274055D02*
X5501429Y-15283579D01*
X5501429Y-15283579D02*
X5491905Y-15274055D01*
X5491905Y-15274055D02*
X5501429Y-15264531D01*
X5501429Y-15264531D02*
X5501429Y-15283579D01*
X5682381Y-15083579D02*
X5644286Y-15083579D01*
X5644286Y-15083579D02*
X5625238Y-15093103D01*
X5625238Y-15093103D02*
X5615715Y-15102626D01*
X5615715Y-15102626D02*
X5596667Y-15131198D01*
X5596667Y-15131198D02*
X5587143Y-15169293D01*
X5587143Y-15169293D02*
X5587143Y-15245483D01*
X5587143Y-15245483D02*
X5596667Y-15264531D01*
X5596667Y-15264531D02*
X5606191Y-15274055D01*
X5606191Y-15274055D02*
X5625238Y-15283579D01*
X5625238Y-15283579D02*
X5663334Y-15283579D01*
X5663334Y-15283579D02*
X5682381Y-15274055D01*
X5682381Y-15274055D02*
X5691905Y-15264531D01*
X5691905Y-15264531D02*
X5701429Y-15245483D01*
X5701429Y-15245483D02*
X5701429Y-15197864D01*
X5701429Y-15197864D02*
X5691905Y-15178817D01*
X5691905Y-15178817D02*
X5682381Y-15169293D01*
X5682381Y-15169293D02*
X5663334Y-15159769D01*
X5663334Y-15159769D02*
X5625238Y-15159769D01*
X5625238Y-15159769D02*
X5606191Y-15169293D01*
X5606191Y-15169293D02*
X5596667Y-15178817D01*
X5596667Y-15178817D02*
X5587143Y-15197864D01*
X5825238Y-15083579D02*
X5844286Y-15083579D01*
X5844286Y-15083579D02*
X5863334Y-15093103D01*
X5863334Y-15093103D02*
X5872857Y-15102626D01*
X5872857Y-15102626D02*
X5882381Y-15121674D01*
X5882381Y-15121674D02*
X5891905Y-15159769D01*
X5891905Y-15159769D02*
X5891905Y-15207388D01*
X5891905Y-15207388D02*
X5882381Y-15245483D01*
X5882381Y-15245483D02*
X5872857Y-15264531D01*
X5872857Y-15264531D02*
X5863334Y-15274055D01*
X5863334Y-15274055D02*
X5844286Y-15283579D01*
X5844286Y-15283579D02*
X5825238Y-15283579D01*
X5825238Y-15283579D02*
X5806191Y-15274055D01*
X5806191Y-15274055D02*
X5796667Y-15264531D01*
X5796667Y-15264531D02*
X5787143Y-15245483D01*
X5787143Y-15245483D02*
X5777619Y-15207388D01*
X5777619Y-15207388D02*
X5777619Y-15159769D01*
X5777619Y-15159769D02*
X5787143Y-15121674D01*
X5787143Y-15121674D02*
X5796667Y-15102626D01*
X5796667Y-15102626D02*
X5806191Y-15093103D01*
X5806191Y-15093103D02*
X5825238Y-15083579D01*
X6015715Y-15083579D02*
X6034762Y-15083579D01*
X6034762Y-15083579D02*
X6053810Y-15093103D01*
X6053810Y-15093103D02*
X6063334Y-15102626D01*
X6063334Y-15102626D02*
X6072857Y-15121674D01*
X6072857Y-15121674D02*
X6082381Y-15159769D01*
X6082381Y-15159769D02*
X6082381Y-15207388D01*
X6082381Y-15207388D02*
X6072857Y-15245483D01*
X6072857Y-15245483D02*
X6063334Y-15264531D01*
X6063334Y-15264531D02*
X6053810Y-15274055D01*
X6053810Y-15274055D02*
X6034762Y-15283579D01*
X6034762Y-15283579D02*
X6015715Y-15283579D01*
X6015715Y-15283579D02*
X5996667Y-15274055D01*
X5996667Y-15274055D02*
X5987143Y-15264531D01*
X5987143Y-15264531D02*
X5977619Y-15245483D01*
X5977619Y-15245483D02*
X5968096Y-15207388D01*
X5968096Y-15207388D02*
X5968096Y-15159769D01*
X5968096Y-15159769D02*
X5977619Y-15121674D01*
X5977619Y-15121674D02*
X5987143Y-15102626D01*
X5987143Y-15102626D02*
X5996667Y-15093103D01*
X5996667Y-15093103D02*
X6015715Y-15083579D01*
X6168096Y-15283579D02*
X6168096Y-15150245D01*
X6168096Y-15169293D02*
X6177619Y-15159769D01*
X6177619Y-15159769D02*
X6196667Y-15150245D01*
X6196667Y-15150245D02*
X6225238Y-15150245D01*
X6225238Y-15150245D02*
X6244286Y-15159769D01*
X6244286Y-15159769D02*
X6253810Y-15178817D01*
X6253810Y-15178817D02*
X6253810Y-15283579D01*
X6253810Y-15178817D02*
X6263334Y-15159769D01*
X6263334Y-15159769D02*
X6282381Y-15150245D01*
X6282381Y-15150245D02*
X6310953Y-15150245D01*
X6310953Y-15150245D02*
X6330000Y-15159769D01*
X6330000Y-15159769D02*
X6339524Y-15178817D01*
X6339524Y-15178817D02*
X6339524Y-15283579D01*
X6434762Y-15283579D02*
X6434762Y-15150245D01*
X6434762Y-15169293D02*
X6444286Y-15159769D01*
X6444286Y-15159769D02*
X6463334Y-15150245D01*
X6463334Y-15150245D02*
X6491905Y-15150245D01*
X6491905Y-15150245D02*
X6510953Y-15159769D01*
X6510953Y-15159769D02*
X6520477Y-15178817D01*
X6520477Y-15178817D02*
X6520477Y-15283579D01*
X6520477Y-15178817D02*
X6530000Y-15159769D01*
X6530000Y-15159769D02*
X6549048Y-15150245D01*
X6549048Y-15150245D02*
X6577619Y-15150245D01*
X6577619Y-15150245D02*
X6596667Y-15159769D01*
X6596667Y-15159769D02*
X6606191Y-15178817D01*
X6606191Y-15178817D02*
X6606191Y-15283579D01*
X6996667Y-15074055D02*
X6825239Y-15331198D01*
X7253810Y-15083579D02*
X7272858Y-15083579D01*
X7272858Y-15083579D02*
X7291905Y-15093103D01*
X7291905Y-15093103D02*
X7301429Y-15102626D01*
X7301429Y-15102626D02*
X7310953Y-15121674D01*
X7310953Y-15121674D02*
X7320477Y-15159769D01*
X7320477Y-15159769D02*
X7320477Y-15207388D01*
X7320477Y-15207388D02*
X7310953Y-15245483D01*
X7310953Y-15245483D02*
X7301429Y-15264531D01*
X7301429Y-15264531D02*
X7291905Y-15274055D01*
X7291905Y-15274055D02*
X7272858Y-15283579D01*
X7272858Y-15283579D02*
X7253810Y-15283579D01*
X7253810Y-15283579D02*
X7234762Y-15274055D01*
X7234762Y-15274055D02*
X7225239Y-15264531D01*
X7225239Y-15264531D02*
X7215715Y-15245483D01*
X7215715Y-15245483D02*
X7206191Y-15207388D01*
X7206191Y-15207388D02*
X7206191Y-15159769D01*
X7206191Y-15159769D02*
X7215715Y-15121674D01*
X7215715Y-15121674D02*
X7225239Y-15102626D01*
X7225239Y-15102626D02*
X7234762Y-15093103D01*
X7234762Y-15093103D02*
X7253810Y-15083579D01*
X7406191Y-15264531D02*
X7415715Y-15274055D01*
X7415715Y-15274055D02*
X7406191Y-15283579D01*
X7406191Y-15283579D02*
X7396667Y-15274055D01*
X7396667Y-15274055D02*
X7406191Y-15264531D01*
X7406191Y-15264531D02*
X7406191Y-15283579D01*
X7539524Y-15083579D02*
X7558572Y-15083579D01*
X7558572Y-15083579D02*
X7577620Y-15093103D01*
X7577620Y-15093103D02*
X7587143Y-15102626D01*
X7587143Y-15102626D02*
X7596667Y-15121674D01*
X7596667Y-15121674D02*
X7606191Y-15159769D01*
X7606191Y-15159769D02*
X7606191Y-15207388D01*
X7606191Y-15207388D02*
X7596667Y-15245483D01*
X7596667Y-15245483D02*
X7587143Y-15264531D01*
X7587143Y-15264531D02*
X7577620Y-15274055D01*
X7577620Y-15274055D02*
X7558572Y-15283579D01*
X7558572Y-15283579D02*
X7539524Y-15283579D01*
X7539524Y-15283579D02*
X7520477Y-15274055D01*
X7520477Y-15274055D02*
X7510953Y-15264531D01*
X7510953Y-15264531D02*
X7501429Y-15245483D01*
X7501429Y-15245483D02*
X7491905Y-15207388D01*
X7491905Y-15207388D02*
X7491905Y-15159769D01*
X7491905Y-15159769D02*
X7501429Y-15121674D01*
X7501429Y-15121674D02*
X7510953Y-15102626D01*
X7510953Y-15102626D02*
X7520477Y-15093103D01*
X7520477Y-15093103D02*
X7539524Y-15083579D01*
X7682381Y-15102626D02*
X7691905Y-15093103D01*
X7691905Y-15093103D02*
X7710953Y-15083579D01*
X7710953Y-15083579D02*
X7758572Y-15083579D01*
X7758572Y-15083579D02*
X7777620Y-15093103D01*
X7777620Y-15093103D02*
X7787143Y-15102626D01*
X7787143Y-15102626D02*
X7796667Y-15121674D01*
X7796667Y-15121674D02*
X7796667Y-15140722D01*
X7796667Y-15140722D02*
X7787143Y-15169293D01*
X7787143Y-15169293D02*
X7672858Y-15283579D01*
X7672858Y-15283579D02*
X7796667Y-15283579D01*
X7863334Y-15083579D02*
X7987143Y-15083579D01*
X7987143Y-15083579D02*
X7920477Y-15159769D01*
X7920477Y-15159769D02*
X7949048Y-15159769D01*
X7949048Y-15159769D02*
X7968096Y-15169293D01*
X7968096Y-15169293D02*
X7977620Y-15178817D01*
X7977620Y-15178817D02*
X7987143Y-15197864D01*
X7987143Y-15197864D02*
X7987143Y-15245483D01*
X7987143Y-15245483D02*
X7977620Y-15264531D01*
X7977620Y-15264531D02*
X7968096Y-15274055D01*
X7968096Y-15274055D02*
X7949048Y-15283579D01*
X7949048Y-15283579D02*
X7891905Y-15283579D01*
X7891905Y-15283579D02*
X7872858Y-15274055D01*
X7872858Y-15274055D02*
X7863334Y-15264531D01*
X8158572Y-15083579D02*
X8120477Y-15083579D01*
X8120477Y-15083579D02*
X8101429Y-15093103D01*
X8101429Y-15093103D02*
X8091905Y-15102626D01*
X8091905Y-15102626D02*
X8072858Y-15131198D01*
X8072858Y-15131198D02*
X8063334Y-15169293D01*
X8063334Y-15169293D02*
X8063334Y-15245483D01*
X8063334Y-15245483D02*
X8072858Y-15264531D01*
X8072858Y-15264531D02*
X8082381Y-15274055D01*
X8082381Y-15274055D02*
X8101429Y-15283579D01*
X8101429Y-15283579D02*
X8139524Y-15283579D01*
X8139524Y-15283579D02*
X8158572Y-15274055D01*
X8158572Y-15274055D02*
X8168096Y-15264531D01*
X8168096Y-15264531D02*
X8177620Y-15245483D01*
X8177620Y-15245483D02*
X8177620Y-15197864D01*
X8177620Y-15197864D02*
X8168096Y-15178817D01*
X8168096Y-15178817D02*
X8158572Y-15169293D01*
X8158572Y-15169293D02*
X8139524Y-15159769D01*
X8139524Y-15159769D02*
X8101429Y-15159769D01*
X8101429Y-15159769D02*
X8082381Y-15169293D01*
X8082381Y-15169293D02*
X8072858Y-15178817D01*
X8072858Y-15178817D02*
X8063334Y-15197864D01*
X8253810Y-15083579D02*
X8253810Y-15121674D01*
X8330001Y-15083579D02*
X8330001Y-15121674D01*
X8625239Y-15359769D02*
X8615715Y-15350245D01*
X8615715Y-15350245D02*
X8596667Y-15321674D01*
X8596667Y-15321674D02*
X8587144Y-15302626D01*
X8587144Y-15302626D02*
X8577620Y-15274055D01*
X8577620Y-15274055D02*
X8568096Y-15226436D01*
X8568096Y-15226436D02*
X8568096Y-15188341D01*
X8568096Y-15188341D02*
X8577620Y-15140722D01*
X8577620Y-15140722D02*
X8587144Y-15112150D01*
X8587144Y-15112150D02*
X8596667Y-15093103D01*
X8596667Y-15093103D02*
X8615715Y-15064531D01*
X8615715Y-15064531D02*
X8625239Y-15055007D01*
X8787144Y-15150245D02*
X8787144Y-15283579D01*
X8739524Y-15074055D02*
X8691905Y-15216912D01*
X8691905Y-15216912D02*
X8815715Y-15216912D01*
X9044286Y-15283579D02*
X9044286Y-15083579D01*
X9130001Y-15283579D02*
X9130001Y-15178817D01*
X9130001Y-15178817D02*
X9120477Y-15159769D01*
X9120477Y-15159769D02*
X9101429Y-15150245D01*
X9101429Y-15150245D02*
X9072858Y-15150245D01*
X9072858Y-15150245D02*
X9053810Y-15159769D01*
X9053810Y-15159769D02*
X9044286Y-15169293D01*
X9253810Y-15283579D02*
X9234763Y-15274055D01*
X9234763Y-15274055D02*
X9225239Y-15264531D01*
X9225239Y-15264531D02*
X9215715Y-15245483D01*
X9215715Y-15245483D02*
X9215715Y-15188341D01*
X9215715Y-15188341D02*
X9225239Y-15169293D01*
X9225239Y-15169293D02*
X9234763Y-15159769D01*
X9234763Y-15159769D02*
X9253810Y-15150245D01*
X9253810Y-15150245D02*
X9282382Y-15150245D01*
X9282382Y-15150245D02*
X9301429Y-15159769D01*
X9301429Y-15159769D02*
X9310953Y-15169293D01*
X9310953Y-15169293D02*
X9320477Y-15188341D01*
X9320477Y-15188341D02*
X9320477Y-15245483D01*
X9320477Y-15245483D02*
X9310953Y-15264531D01*
X9310953Y-15264531D02*
X9301429Y-15274055D01*
X9301429Y-15274055D02*
X9282382Y-15283579D01*
X9282382Y-15283579D02*
X9253810Y-15283579D01*
X9434763Y-15283579D02*
X9415715Y-15274055D01*
X9415715Y-15274055D02*
X9406191Y-15255007D01*
X9406191Y-15255007D02*
X9406191Y-15083579D01*
X9587144Y-15274055D02*
X9568096Y-15283579D01*
X9568096Y-15283579D02*
X9530001Y-15283579D01*
X9530001Y-15283579D02*
X9510953Y-15274055D01*
X9510953Y-15274055D02*
X9501429Y-15255007D01*
X9501429Y-15255007D02*
X9501429Y-15178817D01*
X9501429Y-15178817D02*
X9510953Y-15159769D01*
X9510953Y-15159769D02*
X9530001Y-15150245D01*
X9530001Y-15150245D02*
X9568096Y-15150245D01*
X9568096Y-15150245D02*
X9587144Y-15159769D01*
X9587144Y-15159769D02*
X9596667Y-15178817D01*
X9596667Y-15178817D02*
X9596667Y-15197864D01*
X9596667Y-15197864D02*
X9501429Y-15216912D01*
X9672858Y-15274055D02*
X9691906Y-15283579D01*
X9691906Y-15283579D02*
X9730001Y-15283579D01*
X9730001Y-15283579D02*
X9749048Y-15274055D01*
X9749048Y-15274055D02*
X9758572Y-15255007D01*
X9758572Y-15255007D02*
X9758572Y-15245483D01*
X9758572Y-15245483D02*
X9749048Y-15226436D01*
X9749048Y-15226436D02*
X9730001Y-15216912D01*
X9730001Y-15216912D02*
X9701429Y-15216912D01*
X9701429Y-15216912D02*
X9682382Y-15207388D01*
X9682382Y-15207388D02*
X9672858Y-15188341D01*
X9672858Y-15188341D02*
X9672858Y-15178817D01*
X9672858Y-15178817D02*
X9682382Y-15159769D01*
X9682382Y-15159769D02*
X9701429Y-15150245D01*
X9701429Y-15150245D02*
X9730001Y-15150245D01*
X9730001Y-15150245D02*
X9749048Y-15159769D01*
X9825239Y-15359769D02*
X9834763Y-15350245D01*
X9834763Y-15350245D02*
X9853810Y-15321674D01*
X9853810Y-15321674D02*
X9863334Y-15302626D01*
X9863334Y-15302626D02*
X9872858Y-15274055D01*
X9872858Y-15274055D02*
X9882382Y-15226436D01*
X9882382Y-15226436D02*
X9882382Y-15188341D01*
X9882382Y-15188341D02*
X9872858Y-15140722D01*
X9872858Y-15140722D02*
X9863334Y-15112150D01*
X9863334Y-15112150D02*
X9853810Y-15093103D01*
X9853810Y-15093103D02*
X9834763Y-15064531D01*
X9834763Y-15064531D02*
X9825239Y-15055007D01*
D11*
X5012676Y-15418595D02*
X5012676Y-15493595D01*
X4975176Y-15456095D02*
X5050176Y-15456095D01*
D10*
X5349048Y-15347579D02*
X5368096Y-15347579D01*
X5368096Y-15347579D02*
X5387143Y-15357103D01*
X5387143Y-15357103D02*
X5396667Y-15366626D01*
X5396667Y-15366626D02*
X5406191Y-15385674D01*
X5406191Y-15385674D02*
X5415715Y-15423769D01*
X5415715Y-15423769D02*
X5415715Y-15471388D01*
X5415715Y-15471388D02*
X5406191Y-15509483D01*
X5406191Y-15509483D02*
X5396667Y-15528531D01*
X5396667Y-15528531D02*
X5387143Y-15538055D01*
X5387143Y-15538055D02*
X5368096Y-15547579D01*
X5368096Y-15547579D02*
X5349048Y-15547579D01*
X5349048Y-15547579D02*
X5330000Y-15538055D01*
X5330000Y-15538055D02*
X5320477Y-15528531D01*
X5320477Y-15528531D02*
X5310953Y-15509483D01*
X5310953Y-15509483D02*
X5301429Y-15471388D01*
X5301429Y-15471388D02*
X5301429Y-15423769D01*
X5301429Y-15423769D02*
X5310953Y-15385674D01*
X5310953Y-15385674D02*
X5320477Y-15366626D01*
X5320477Y-15366626D02*
X5330000Y-15357103D01*
X5330000Y-15357103D02*
X5349048Y-15347579D01*
X5501429Y-15528531D02*
X5510953Y-15538055D01*
X5510953Y-15538055D02*
X5501429Y-15547579D01*
X5501429Y-15547579D02*
X5491905Y-15538055D01*
X5491905Y-15538055D02*
X5501429Y-15528531D01*
X5501429Y-15528531D02*
X5501429Y-15547579D01*
X5577619Y-15347579D02*
X5710953Y-15347579D01*
X5710953Y-15347579D02*
X5625238Y-15547579D01*
X5882381Y-15347579D02*
X5787143Y-15347579D01*
X5787143Y-15347579D02*
X5777619Y-15442817D01*
X5777619Y-15442817D02*
X5787143Y-15433293D01*
X5787143Y-15433293D02*
X5806191Y-15423769D01*
X5806191Y-15423769D02*
X5853810Y-15423769D01*
X5853810Y-15423769D02*
X5872857Y-15433293D01*
X5872857Y-15433293D02*
X5882381Y-15442817D01*
X5882381Y-15442817D02*
X5891905Y-15461864D01*
X5891905Y-15461864D02*
X5891905Y-15509483D01*
X5891905Y-15509483D02*
X5882381Y-15528531D01*
X5882381Y-15528531D02*
X5872857Y-15538055D01*
X5872857Y-15538055D02*
X5853810Y-15547579D01*
X5853810Y-15547579D02*
X5806191Y-15547579D01*
X5806191Y-15547579D02*
X5787143Y-15538055D01*
X5787143Y-15538055D02*
X5777619Y-15528531D01*
X6015715Y-15347579D02*
X6034762Y-15347579D01*
X6034762Y-15347579D02*
X6053810Y-15357103D01*
X6053810Y-15357103D02*
X6063334Y-15366626D01*
X6063334Y-15366626D02*
X6072857Y-15385674D01*
X6072857Y-15385674D02*
X6082381Y-15423769D01*
X6082381Y-15423769D02*
X6082381Y-15471388D01*
X6082381Y-15471388D02*
X6072857Y-15509483D01*
X6072857Y-15509483D02*
X6063334Y-15528531D01*
X6063334Y-15528531D02*
X6053810Y-15538055D01*
X6053810Y-15538055D02*
X6034762Y-15547579D01*
X6034762Y-15547579D02*
X6015715Y-15547579D01*
X6015715Y-15547579D02*
X5996667Y-15538055D01*
X5996667Y-15538055D02*
X5987143Y-15528531D01*
X5987143Y-15528531D02*
X5977619Y-15509483D01*
X5977619Y-15509483D02*
X5968096Y-15471388D01*
X5968096Y-15471388D02*
X5968096Y-15423769D01*
X5968096Y-15423769D02*
X5977619Y-15385674D01*
X5977619Y-15385674D02*
X5987143Y-15366626D01*
X5987143Y-15366626D02*
X5996667Y-15357103D01*
X5996667Y-15357103D02*
X6015715Y-15347579D01*
X6168096Y-15547579D02*
X6168096Y-15414245D01*
X6168096Y-15433293D02*
X6177619Y-15423769D01*
X6177619Y-15423769D02*
X6196667Y-15414245D01*
X6196667Y-15414245D02*
X6225238Y-15414245D01*
X6225238Y-15414245D02*
X6244286Y-15423769D01*
X6244286Y-15423769D02*
X6253810Y-15442817D01*
X6253810Y-15442817D02*
X6253810Y-15547579D01*
X6253810Y-15442817D02*
X6263334Y-15423769D01*
X6263334Y-15423769D02*
X6282381Y-15414245D01*
X6282381Y-15414245D02*
X6310953Y-15414245D01*
X6310953Y-15414245D02*
X6330000Y-15423769D01*
X6330000Y-15423769D02*
X6339524Y-15442817D01*
X6339524Y-15442817D02*
X6339524Y-15547579D01*
X6434762Y-15547579D02*
X6434762Y-15414245D01*
X6434762Y-15433293D02*
X6444286Y-15423769D01*
X6444286Y-15423769D02*
X6463334Y-15414245D01*
X6463334Y-15414245D02*
X6491905Y-15414245D01*
X6491905Y-15414245D02*
X6510953Y-15423769D01*
X6510953Y-15423769D02*
X6520477Y-15442817D01*
X6520477Y-15442817D02*
X6520477Y-15547579D01*
X6520477Y-15442817D02*
X6530000Y-15423769D01*
X6530000Y-15423769D02*
X6549048Y-15414245D01*
X6549048Y-15414245D02*
X6577619Y-15414245D01*
X6577619Y-15414245D02*
X6596667Y-15423769D01*
X6596667Y-15423769D02*
X6606191Y-15442817D01*
X6606191Y-15442817D02*
X6606191Y-15547579D01*
X6996667Y-15338055D02*
X6825239Y-15595198D01*
X7253810Y-15347579D02*
X7272858Y-15347579D01*
X7272858Y-15347579D02*
X7291905Y-15357103D01*
X7291905Y-15357103D02*
X7301429Y-15366626D01*
X7301429Y-15366626D02*
X7310953Y-15385674D01*
X7310953Y-15385674D02*
X7320477Y-15423769D01*
X7320477Y-15423769D02*
X7320477Y-15471388D01*
X7320477Y-15471388D02*
X7310953Y-15509483D01*
X7310953Y-15509483D02*
X7301429Y-15528531D01*
X7301429Y-15528531D02*
X7291905Y-15538055D01*
X7291905Y-15538055D02*
X7272858Y-15547579D01*
X7272858Y-15547579D02*
X7253810Y-15547579D01*
X7253810Y-15547579D02*
X7234762Y-15538055D01*
X7234762Y-15538055D02*
X7225239Y-15528531D01*
X7225239Y-15528531D02*
X7215715Y-15509483D01*
X7215715Y-15509483D02*
X7206191Y-15471388D01*
X7206191Y-15471388D02*
X7206191Y-15423769D01*
X7206191Y-15423769D02*
X7215715Y-15385674D01*
X7215715Y-15385674D02*
X7225239Y-15366626D01*
X7225239Y-15366626D02*
X7234762Y-15357103D01*
X7234762Y-15357103D02*
X7253810Y-15347579D01*
X7406191Y-15528531D02*
X7415715Y-15538055D01*
X7415715Y-15538055D02*
X7406191Y-15547579D01*
X7406191Y-15547579D02*
X7396667Y-15538055D01*
X7396667Y-15538055D02*
X7406191Y-15528531D01*
X7406191Y-15528531D02*
X7406191Y-15547579D01*
X7539524Y-15347579D02*
X7558572Y-15347579D01*
X7558572Y-15347579D02*
X7577620Y-15357103D01*
X7577620Y-15357103D02*
X7587143Y-15366626D01*
X7587143Y-15366626D02*
X7596667Y-15385674D01*
X7596667Y-15385674D02*
X7606191Y-15423769D01*
X7606191Y-15423769D02*
X7606191Y-15471388D01*
X7606191Y-15471388D02*
X7596667Y-15509483D01*
X7596667Y-15509483D02*
X7587143Y-15528531D01*
X7587143Y-15528531D02*
X7577620Y-15538055D01*
X7577620Y-15538055D02*
X7558572Y-15547579D01*
X7558572Y-15547579D02*
X7539524Y-15547579D01*
X7539524Y-15547579D02*
X7520477Y-15538055D01*
X7520477Y-15538055D02*
X7510953Y-15528531D01*
X7510953Y-15528531D02*
X7501429Y-15509483D01*
X7501429Y-15509483D02*
X7491905Y-15471388D01*
X7491905Y-15471388D02*
X7491905Y-15423769D01*
X7491905Y-15423769D02*
X7501429Y-15385674D01*
X7501429Y-15385674D02*
X7510953Y-15366626D01*
X7510953Y-15366626D02*
X7520477Y-15357103D01*
X7520477Y-15357103D02*
X7539524Y-15347579D01*
X7682381Y-15366626D02*
X7691905Y-15357103D01*
X7691905Y-15357103D02*
X7710953Y-15347579D01*
X7710953Y-15347579D02*
X7758572Y-15347579D01*
X7758572Y-15347579D02*
X7777620Y-15357103D01*
X7777620Y-15357103D02*
X7787143Y-15366626D01*
X7787143Y-15366626D02*
X7796667Y-15385674D01*
X7796667Y-15385674D02*
X7796667Y-15404722D01*
X7796667Y-15404722D02*
X7787143Y-15433293D01*
X7787143Y-15433293D02*
X7672858Y-15547579D01*
X7672858Y-15547579D02*
X7796667Y-15547579D01*
X7891905Y-15547579D02*
X7930000Y-15547579D01*
X7930000Y-15547579D02*
X7949048Y-15538055D01*
X7949048Y-15538055D02*
X7958572Y-15528531D01*
X7958572Y-15528531D02*
X7977620Y-15499960D01*
X7977620Y-15499960D02*
X7987143Y-15461864D01*
X7987143Y-15461864D02*
X7987143Y-15385674D01*
X7987143Y-15385674D02*
X7977620Y-15366626D01*
X7977620Y-15366626D02*
X7968096Y-15357103D01*
X7968096Y-15357103D02*
X7949048Y-15347579D01*
X7949048Y-15347579D02*
X7910953Y-15347579D01*
X7910953Y-15347579D02*
X7891905Y-15357103D01*
X7891905Y-15357103D02*
X7882381Y-15366626D01*
X7882381Y-15366626D02*
X7872858Y-15385674D01*
X7872858Y-15385674D02*
X7872858Y-15433293D01*
X7872858Y-15433293D02*
X7882381Y-15452341D01*
X7882381Y-15452341D02*
X7891905Y-15461864D01*
X7891905Y-15461864D02*
X7910953Y-15471388D01*
X7910953Y-15471388D02*
X7949048Y-15471388D01*
X7949048Y-15471388D02*
X7968096Y-15461864D01*
X7968096Y-15461864D02*
X7977620Y-15452341D01*
X7977620Y-15452341D02*
X7987143Y-15433293D01*
X8168096Y-15347579D02*
X8072858Y-15347579D01*
X8072858Y-15347579D02*
X8063334Y-15442817D01*
X8063334Y-15442817D02*
X8072858Y-15433293D01*
X8072858Y-15433293D02*
X8091905Y-15423769D01*
X8091905Y-15423769D02*
X8139524Y-15423769D01*
X8139524Y-15423769D02*
X8158572Y-15433293D01*
X8158572Y-15433293D02*
X8168096Y-15442817D01*
X8168096Y-15442817D02*
X8177620Y-15461864D01*
X8177620Y-15461864D02*
X8177620Y-15509483D01*
X8177620Y-15509483D02*
X8168096Y-15528531D01*
X8168096Y-15528531D02*
X8158572Y-15538055D01*
X8158572Y-15538055D02*
X8139524Y-15547579D01*
X8139524Y-15547579D02*
X8091905Y-15547579D01*
X8091905Y-15547579D02*
X8072858Y-15538055D01*
X8072858Y-15538055D02*
X8063334Y-15528531D01*
X8253810Y-15347579D02*
X8253810Y-15385674D01*
X8330001Y-15347579D02*
X8330001Y-15385674D01*
X8625239Y-15623769D02*
X8615715Y-15614245D01*
X8615715Y-15614245D02*
X8596667Y-15585674D01*
X8596667Y-15585674D02*
X8587144Y-15566626D01*
X8587144Y-15566626D02*
X8577620Y-15538055D01*
X8577620Y-15538055D02*
X8568096Y-15490436D01*
X8568096Y-15490436D02*
X8568096Y-15452341D01*
X8568096Y-15452341D02*
X8577620Y-15404722D01*
X8577620Y-15404722D02*
X8587144Y-15376150D01*
X8587144Y-15376150D02*
X8596667Y-15357103D01*
X8596667Y-15357103D02*
X8615715Y-15328531D01*
X8615715Y-15328531D02*
X8625239Y-15319007D01*
X8787144Y-15347579D02*
X8749048Y-15347579D01*
X8749048Y-15347579D02*
X8730001Y-15357103D01*
X8730001Y-15357103D02*
X8720477Y-15366626D01*
X8720477Y-15366626D02*
X8701429Y-15395198D01*
X8701429Y-15395198D02*
X8691905Y-15433293D01*
X8691905Y-15433293D02*
X8691905Y-15509483D01*
X8691905Y-15509483D02*
X8701429Y-15528531D01*
X8701429Y-15528531D02*
X8710953Y-15538055D01*
X8710953Y-15538055D02*
X8730001Y-15547579D01*
X8730001Y-15547579D02*
X8768096Y-15547579D01*
X8768096Y-15547579D02*
X8787144Y-15538055D01*
X8787144Y-15538055D02*
X8796667Y-15528531D01*
X8796667Y-15528531D02*
X8806191Y-15509483D01*
X8806191Y-15509483D02*
X8806191Y-15461864D01*
X8806191Y-15461864D02*
X8796667Y-15442817D01*
X8796667Y-15442817D02*
X8787144Y-15433293D01*
X8787144Y-15433293D02*
X8768096Y-15423769D01*
X8768096Y-15423769D02*
X8730001Y-15423769D01*
X8730001Y-15423769D02*
X8710953Y-15433293D01*
X8710953Y-15433293D02*
X8701429Y-15442817D01*
X8701429Y-15442817D02*
X8691905Y-15461864D01*
X9044286Y-15547579D02*
X9044286Y-15347579D01*
X9130001Y-15547579D02*
X9130001Y-15442817D01*
X9130001Y-15442817D02*
X9120477Y-15423769D01*
X9120477Y-15423769D02*
X9101429Y-15414245D01*
X9101429Y-15414245D02*
X9072858Y-15414245D01*
X9072858Y-15414245D02*
X9053810Y-15423769D01*
X9053810Y-15423769D02*
X9044286Y-15433293D01*
X9253810Y-15547579D02*
X9234763Y-15538055D01*
X9234763Y-15538055D02*
X9225239Y-15528531D01*
X9225239Y-15528531D02*
X9215715Y-15509483D01*
X9215715Y-15509483D02*
X9215715Y-15452341D01*
X9215715Y-15452341D02*
X9225239Y-15433293D01*
X9225239Y-15433293D02*
X9234763Y-15423769D01*
X9234763Y-15423769D02*
X9253810Y-15414245D01*
X9253810Y-15414245D02*
X9282382Y-15414245D01*
X9282382Y-15414245D02*
X9301429Y-15423769D01*
X9301429Y-15423769D02*
X9310953Y-15433293D01*
X9310953Y-15433293D02*
X9320477Y-15452341D01*
X9320477Y-15452341D02*
X9320477Y-15509483D01*
X9320477Y-15509483D02*
X9310953Y-15528531D01*
X9310953Y-15528531D02*
X9301429Y-15538055D01*
X9301429Y-15538055D02*
X9282382Y-15547579D01*
X9282382Y-15547579D02*
X9253810Y-15547579D01*
X9434763Y-15547579D02*
X9415715Y-15538055D01*
X9415715Y-15538055D02*
X9406191Y-15519007D01*
X9406191Y-15519007D02*
X9406191Y-15347579D01*
X9587144Y-15538055D02*
X9568096Y-15547579D01*
X9568096Y-15547579D02*
X9530001Y-15547579D01*
X9530001Y-15547579D02*
X9510953Y-15538055D01*
X9510953Y-15538055D02*
X9501429Y-15519007D01*
X9501429Y-15519007D02*
X9501429Y-15442817D01*
X9501429Y-15442817D02*
X9510953Y-15423769D01*
X9510953Y-15423769D02*
X9530001Y-15414245D01*
X9530001Y-15414245D02*
X9568096Y-15414245D01*
X9568096Y-15414245D02*
X9587144Y-15423769D01*
X9587144Y-15423769D02*
X9596667Y-15442817D01*
X9596667Y-15442817D02*
X9596667Y-15461864D01*
X9596667Y-15461864D02*
X9501429Y-15480912D01*
X9672858Y-15538055D02*
X9691906Y-15547579D01*
X9691906Y-15547579D02*
X9730001Y-15547579D01*
X9730001Y-15547579D02*
X9749048Y-15538055D01*
X9749048Y-15538055D02*
X9758572Y-15519007D01*
X9758572Y-15519007D02*
X9758572Y-15509483D01*
X9758572Y-15509483D02*
X9749048Y-15490436D01*
X9749048Y-15490436D02*
X9730001Y-15480912D01*
X9730001Y-15480912D02*
X9701429Y-15480912D01*
X9701429Y-15480912D02*
X9682382Y-15471388D01*
X9682382Y-15471388D02*
X9672858Y-15452341D01*
X9672858Y-15452341D02*
X9672858Y-15442817D01*
X9672858Y-15442817D02*
X9682382Y-15423769D01*
X9682382Y-15423769D02*
X9701429Y-15414245D01*
X9701429Y-15414245D02*
X9730001Y-15414245D01*
X9730001Y-15414245D02*
X9749048Y-15423769D01*
X9825239Y-15623769D02*
X9834763Y-15614245D01*
X9834763Y-15614245D02*
X9853810Y-15585674D01*
X9853810Y-15585674D02*
X9863334Y-15566626D01*
X9863334Y-15566626D02*
X9872858Y-15538055D01*
X9872858Y-15538055D02*
X9882382Y-15490436D01*
X9882382Y-15490436D02*
X9882382Y-15452341D01*
X9882382Y-15452341D02*
X9872858Y-15404722D01*
X9872858Y-15404722D02*
X9863334Y-15376150D01*
X9863334Y-15376150D02*
X9853810Y-15357103D01*
X9853810Y-15357103D02*
X9834763Y-15328531D01*
X9834763Y-15328531D02*
X9825239Y-15319007D01*
D11*
X5038460Y-15748379D02*
X5038460Y-15691810D01*
X4981891Y-15691810D01*
X4981891Y-15748379D01*
X5038460Y-15748379D01*
D10*
X5349048Y-15611579D02*
X5368096Y-15611579D01*
X5368096Y-15611579D02*
X5387143Y-15621103D01*
X5387143Y-15621103D02*
X5396667Y-15630626D01*
X5396667Y-15630626D02*
X5406191Y-15649674D01*
X5406191Y-15649674D02*
X5415715Y-15687769D01*
X5415715Y-15687769D02*
X5415715Y-15735388D01*
X5415715Y-15735388D02*
X5406191Y-15773483D01*
X5406191Y-15773483D02*
X5396667Y-15792531D01*
X5396667Y-15792531D02*
X5387143Y-15802055D01*
X5387143Y-15802055D02*
X5368096Y-15811579D01*
X5368096Y-15811579D02*
X5349048Y-15811579D01*
X5349048Y-15811579D02*
X5330000Y-15802055D01*
X5330000Y-15802055D02*
X5320477Y-15792531D01*
X5320477Y-15792531D02*
X5310953Y-15773483D01*
X5310953Y-15773483D02*
X5301429Y-15735388D01*
X5301429Y-15735388D02*
X5301429Y-15687769D01*
X5301429Y-15687769D02*
X5310953Y-15649674D01*
X5310953Y-15649674D02*
X5320477Y-15630626D01*
X5320477Y-15630626D02*
X5330000Y-15621103D01*
X5330000Y-15621103D02*
X5349048Y-15611579D01*
X5501429Y-15792531D02*
X5510953Y-15802055D01*
X5510953Y-15802055D02*
X5501429Y-15811579D01*
X5501429Y-15811579D02*
X5491905Y-15802055D01*
X5491905Y-15802055D02*
X5501429Y-15792531D01*
X5501429Y-15792531D02*
X5501429Y-15811579D01*
X5625238Y-15697293D02*
X5606191Y-15687769D01*
X5606191Y-15687769D02*
X5596667Y-15678245D01*
X5596667Y-15678245D02*
X5587143Y-15659198D01*
X5587143Y-15659198D02*
X5587143Y-15649674D01*
X5587143Y-15649674D02*
X5596667Y-15630626D01*
X5596667Y-15630626D02*
X5606191Y-15621103D01*
X5606191Y-15621103D02*
X5625238Y-15611579D01*
X5625238Y-15611579D02*
X5663334Y-15611579D01*
X5663334Y-15611579D02*
X5682381Y-15621103D01*
X5682381Y-15621103D02*
X5691905Y-15630626D01*
X5691905Y-15630626D02*
X5701429Y-15649674D01*
X5701429Y-15649674D02*
X5701429Y-15659198D01*
X5701429Y-15659198D02*
X5691905Y-15678245D01*
X5691905Y-15678245D02*
X5682381Y-15687769D01*
X5682381Y-15687769D02*
X5663334Y-15697293D01*
X5663334Y-15697293D02*
X5625238Y-15697293D01*
X5625238Y-15697293D02*
X5606191Y-15706817D01*
X5606191Y-15706817D02*
X5596667Y-15716341D01*
X5596667Y-15716341D02*
X5587143Y-15735388D01*
X5587143Y-15735388D02*
X5587143Y-15773483D01*
X5587143Y-15773483D02*
X5596667Y-15792531D01*
X5596667Y-15792531D02*
X5606191Y-15802055D01*
X5606191Y-15802055D02*
X5625238Y-15811579D01*
X5625238Y-15811579D02*
X5663334Y-15811579D01*
X5663334Y-15811579D02*
X5682381Y-15802055D01*
X5682381Y-15802055D02*
X5691905Y-15792531D01*
X5691905Y-15792531D02*
X5701429Y-15773483D01*
X5701429Y-15773483D02*
X5701429Y-15735388D01*
X5701429Y-15735388D02*
X5691905Y-15716341D01*
X5691905Y-15716341D02*
X5682381Y-15706817D01*
X5682381Y-15706817D02*
X5663334Y-15697293D01*
X5825238Y-15611579D02*
X5844286Y-15611579D01*
X5844286Y-15611579D02*
X5863334Y-15621103D01*
X5863334Y-15621103D02*
X5872857Y-15630626D01*
X5872857Y-15630626D02*
X5882381Y-15649674D01*
X5882381Y-15649674D02*
X5891905Y-15687769D01*
X5891905Y-15687769D02*
X5891905Y-15735388D01*
X5891905Y-15735388D02*
X5882381Y-15773483D01*
X5882381Y-15773483D02*
X5872857Y-15792531D01*
X5872857Y-15792531D02*
X5863334Y-15802055D01*
X5863334Y-15802055D02*
X5844286Y-15811579D01*
X5844286Y-15811579D02*
X5825238Y-15811579D01*
X5825238Y-15811579D02*
X5806191Y-15802055D01*
X5806191Y-15802055D02*
X5796667Y-15792531D01*
X5796667Y-15792531D02*
X5787143Y-15773483D01*
X5787143Y-15773483D02*
X5777619Y-15735388D01*
X5777619Y-15735388D02*
X5777619Y-15687769D01*
X5777619Y-15687769D02*
X5787143Y-15649674D01*
X5787143Y-15649674D02*
X5796667Y-15630626D01*
X5796667Y-15630626D02*
X5806191Y-15621103D01*
X5806191Y-15621103D02*
X5825238Y-15611579D01*
X6015715Y-15611579D02*
X6034762Y-15611579D01*
X6034762Y-15611579D02*
X6053810Y-15621103D01*
X6053810Y-15621103D02*
X6063334Y-15630626D01*
X6063334Y-15630626D02*
X6072857Y-15649674D01*
X6072857Y-15649674D02*
X6082381Y-15687769D01*
X6082381Y-15687769D02*
X6082381Y-15735388D01*
X6082381Y-15735388D02*
X6072857Y-15773483D01*
X6072857Y-15773483D02*
X6063334Y-15792531D01*
X6063334Y-15792531D02*
X6053810Y-15802055D01*
X6053810Y-15802055D02*
X6034762Y-15811579D01*
X6034762Y-15811579D02*
X6015715Y-15811579D01*
X6015715Y-15811579D02*
X5996667Y-15802055D01*
X5996667Y-15802055D02*
X5987143Y-15792531D01*
X5987143Y-15792531D02*
X5977619Y-15773483D01*
X5977619Y-15773483D02*
X5968096Y-15735388D01*
X5968096Y-15735388D02*
X5968096Y-15687769D01*
X5968096Y-15687769D02*
X5977619Y-15649674D01*
X5977619Y-15649674D02*
X5987143Y-15630626D01*
X5987143Y-15630626D02*
X5996667Y-15621103D01*
X5996667Y-15621103D02*
X6015715Y-15611579D01*
X6168096Y-15811579D02*
X6168096Y-15678245D01*
X6168096Y-15697293D02*
X6177619Y-15687769D01*
X6177619Y-15687769D02*
X6196667Y-15678245D01*
X6196667Y-15678245D02*
X6225238Y-15678245D01*
X6225238Y-15678245D02*
X6244286Y-15687769D01*
X6244286Y-15687769D02*
X6253810Y-15706817D01*
X6253810Y-15706817D02*
X6253810Y-15811579D01*
X6253810Y-15706817D02*
X6263334Y-15687769D01*
X6263334Y-15687769D02*
X6282381Y-15678245D01*
X6282381Y-15678245D02*
X6310953Y-15678245D01*
X6310953Y-15678245D02*
X6330000Y-15687769D01*
X6330000Y-15687769D02*
X6339524Y-15706817D01*
X6339524Y-15706817D02*
X6339524Y-15811579D01*
X6434762Y-15811579D02*
X6434762Y-15678245D01*
X6434762Y-15697293D02*
X6444286Y-15687769D01*
X6444286Y-15687769D02*
X6463334Y-15678245D01*
X6463334Y-15678245D02*
X6491905Y-15678245D01*
X6491905Y-15678245D02*
X6510953Y-15687769D01*
X6510953Y-15687769D02*
X6520477Y-15706817D01*
X6520477Y-15706817D02*
X6520477Y-15811579D01*
X6520477Y-15706817D02*
X6530000Y-15687769D01*
X6530000Y-15687769D02*
X6549048Y-15678245D01*
X6549048Y-15678245D02*
X6577619Y-15678245D01*
X6577619Y-15678245D02*
X6596667Y-15687769D01*
X6596667Y-15687769D02*
X6606191Y-15706817D01*
X6606191Y-15706817D02*
X6606191Y-15811579D01*
X6996667Y-15602055D02*
X6825239Y-15859198D01*
X7253810Y-15611579D02*
X7272858Y-15611579D01*
X7272858Y-15611579D02*
X7291905Y-15621103D01*
X7291905Y-15621103D02*
X7301429Y-15630626D01*
X7301429Y-15630626D02*
X7310953Y-15649674D01*
X7310953Y-15649674D02*
X7320477Y-15687769D01*
X7320477Y-15687769D02*
X7320477Y-15735388D01*
X7320477Y-15735388D02*
X7310953Y-15773483D01*
X7310953Y-15773483D02*
X7301429Y-15792531D01*
X7301429Y-15792531D02*
X7291905Y-15802055D01*
X7291905Y-15802055D02*
X7272858Y-15811579D01*
X7272858Y-15811579D02*
X7253810Y-15811579D01*
X7253810Y-15811579D02*
X7234762Y-15802055D01*
X7234762Y-15802055D02*
X7225239Y-15792531D01*
X7225239Y-15792531D02*
X7215715Y-15773483D01*
X7215715Y-15773483D02*
X7206191Y-15735388D01*
X7206191Y-15735388D02*
X7206191Y-15687769D01*
X7206191Y-15687769D02*
X7215715Y-15649674D01*
X7215715Y-15649674D02*
X7225239Y-15630626D01*
X7225239Y-15630626D02*
X7234762Y-15621103D01*
X7234762Y-15621103D02*
X7253810Y-15611579D01*
X7406191Y-15792531D02*
X7415715Y-15802055D01*
X7415715Y-15802055D02*
X7406191Y-15811579D01*
X7406191Y-15811579D02*
X7396667Y-15802055D01*
X7396667Y-15802055D02*
X7406191Y-15792531D01*
X7406191Y-15792531D02*
X7406191Y-15811579D01*
X7539524Y-15611579D02*
X7558572Y-15611579D01*
X7558572Y-15611579D02*
X7577620Y-15621103D01*
X7577620Y-15621103D02*
X7587143Y-15630626D01*
X7587143Y-15630626D02*
X7596667Y-15649674D01*
X7596667Y-15649674D02*
X7606191Y-15687769D01*
X7606191Y-15687769D02*
X7606191Y-15735388D01*
X7606191Y-15735388D02*
X7596667Y-15773483D01*
X7596667Y-15773483D02*
X7587143Y-15792531D01*
X7587143Y-15792531D02*
X7577620Y-15802055D01*
X7577620Y-15802055D02*
X7558572Y-15811579D01*
X7558572Y-15811579D02*
X7539524Y-15811579D01*
X7539524Y-15811579D02*
X7520477Y-15802055D01*
X7520477Y-15802055D02*
X7510953Y-15792531D01*
X7510953Y-15792531D02*
X7501429Y-15773483D01*
X7501429Y-15773483D02*
X7491905Y-15735388D01*
X7491905Y-15735388D02*
X7491905Y-15687769D01*
X7491905Y-15687769D02*
X7501429Y-15649674D01*
X7501429Y-15649674D02*
X7510953Y-15630626D01*
X7510953Y-15630626D02*
X7520477Y-15621103D01*
X7520477Y-15621103D02*
X7539524Y-15611579D01*
X7672858Y-15611579D02*
X7796667Y-15611579D01*
X7796667Y-15611579D02*
X7730000Y-15687769D01*
X7730000Y-15687769D02*
X7758572Y-15687769D01*
X7758572Y-15687769D02*
X7777620Y-15697293D01*
X7777620Y-15697293D02*
X7787143Y-15706817D01*
X7787143Y-15706817D02*
X7796667Y-15725864D01*
X7796667Y-15725864D02*
X7796667Y-15773483D01*
X7796667Y-15773483D02*
X7787143Y-15792531D01*
X7787143Y-15792531D02*
X7777620Y-15802055D01*
X7777620Y-15802055D02*
X7758572Y-15811579D01*
X7758572Y-15811579D02*
X7701429Y-15811579D01*
X7701429Y-15811579D02*
X7682381Y-15802055D01*
X7682381Y-15802055D02*
X7672858Y-15792531D01*
X7987143Y-15811579D02*
X7872858Y-15811579D01*
X7930000Y-15811579D02*
X7930000Y-15611579D01*
X7930000Y-15611579D02*
X7910953Y-15640150D01*
X7910953Y-15640150D02*
X7891905Y-15659198D01*
X7891905Y-15659198D02*
X7872858Y-15668722D01*
X8168096Y-15611579D02*
X8072858Y-15611579D01*
X8072858Y-15611579D02*
X8063334Y-15706817D01*
X8063334Y-15706817D02*
X8072858Y-15697293D01*
X8072858Y-15697293D02*
X8091905Y-15687769D01*
X8091905Y-15687769D02*
X8139524Y-15687769D01*
X8139524Y-15687769D02*
X8158572Y-15697293D01*
X8158572Y-15697293D02*
X8168096Y-15706817D01*
X8168096Y-15706817D02*
X8177620Y-15725864D01*
X8177620Y-15725864D02*
X8177620Y-15773483D01*
X8177620Y-15773483D02*
X8168096Y-15792531D01*
X8168096Y-15792531D02*
X8158572Y-15802055D01*
X8158572Y-15802055D02*
X8139524Y-15811579D01*
X8139524Y-15811579D02*
X8091905Y-15811579D01*
X8091905Y-15811579D02*
X8072858Y-15802055D01*
X8072858Y-15802055D02*
X8063334Y-15792531D01*
X8253810Y-15611579D02*
X8253810Y-15649674D01*
X8330001Y-15611579D02*
X8330001Y-15649674D01*
X8625239Y-15887769D02*
X8615715Y-15878245D01*
X8615715Y-15878245D02*
X8596667Y-15849674D01*
X8596667Y-15849674D02*
X8587144Y-15830626D01*
X8587144Y-15830626D02*
X8577620Y-15802055D01*
X8577620Y-15802055D02*
X8568096Y-15754436D01*
X8568096Y-15754436D02*
X8568096Y-15716341D01*
X8568096Y-15716341D02*
X8577620Y-15668722D01*
X8577620Y-15668722D02*
X8587144Y-15640150D01*
X8587144Y-15640150D02*
X8596667Y-15621103D01*
X8596667Y-15621103D02*
X8615715Y-15592531D01*
X8615715Y-15592531D02*
X8625239Y-15583007D01*
X8787144Y-15611579D02*
X8749048Y-15611579D01*
X8749048Y-15611579D02*
X8730001Y-15621103D01*
X8730001Y-15621103D02*
X8720477Y-15630626D01*
X8720477Y-15630626D02*
X8701429Y-15659198D01*
X8701429Y-15659198D02*
X8691905Y-15697293D01*
X8691905Y-15697293D02*
X8691905Y-15773483D01*
X8691905Y-15773483D02*
X8701429Y-15792531D01*
X8701429Y-15792531D02*
X8710953Y-15802055D01*
X8710953Y-15802055D02*
X8730001Y-15811579D01*
X8730001Y-15811579D02*
X8768096Y-15811579D01*
X8768096Y-15811579D02*
X8787144Y-15802055D01*
X8787144Y-15802055D02*
X8796667Y-15792531D01*
X8796667Y-15792531D02*
X8806191Y-15773483D01*
X8806191Y-15773483D02*
X8806191Y-15725864D01*
X8806191Y-15725864D02*
X8796667Y-15706817D01*
X8796667Y-15706817D02*
X8787144Y-15697293D01*
X8787144Y-15697293D02*
X8768096Y-15687769D01*
X8768096Y-15687769D02*
X8730001Y-15687769D01*
X8730001Y-15687769D02*
X8710953Y-15697293D01*
X8710953Y-15697293D02*
X8701429Y-15706817D01*
X8701429Y-15706817D02*
X8691905Y-15725864D01*
X9044286Y-15811579D02*
X9044286Y-15611579D01*
X9130001Y-15811579D02*
X9130001Y-15706817D01*
X9130001Y-15706817D02*
X9120477Y-15687769D01*
X9120477Y-15687769D02*
X9101429Y-15678245D01*
X9101429Y-15678245D02*
X9072858Y-15678245D01*
X9072858Y-15678245D02*
X9053810Y-15687769D01*
X9053810Y-15687769D02*
X9044286Y-15697293D01*
X9253810Y-15811579D02*
X9234763Y-15802055D01*
X9234763Y-15802055D02*
X9225239Y-15792531D01*
X9225239Y-15792531D02*
X9215715Y-15773483D01*
X9215715Y-15773483D02*
X9215715Y-15716341D01*
X9215715Y-15716341D02*
X9225239Y-15697293D01*
X9225239Y-15697293D02*
X9234763Y-15687769D01*
X9234763Y-15687769D02*
X9253810Y-15678245D01*
X9253810Y-15678245D02*
X9282382Y-15678245D01*
X9282382Y-15678245D02*
X9301429Y-15687769D01*
X9301429Y-15687769D02*
X9310953Y-15697293D01*
X9310953Y-15697293D02*
X9320477Y-15716341D01*
X9320477Y-15716341D02*
X9320477Y-15773483D01*
X9320477Y-15773483D02*
X9310953Y-15792531D01*
X9310953Y-15792531D02*
X9301429Y-15802055D01*
X9301429Y-15802055D02*
X9282382Y-15811579D01*
X9282382Y-15811579D02*
X9253810Y-15811579D01*
X9434763Y-15811579D02*
X9415715Y-15802055D01*
X9415715Y-15802055D02*
X9406191Y-15783007D01*
X9406191Y-15783007D02*
X9406191Y-15611579D01*
X9587144Y-15802055D02*
X9568096Y-15811579D01*
X9568096Y-15811579D02*
X9530001Y-15811579D01*
X9530001Y-15811579D02*
X9510953Y-15802055D01*
X9510953Y-15802055D02*
X9501429Y-15783007D01*
X9501429Y-15783007D02*
X9501429Y-15706817D01*
X9501429Y-15706817D02*
X9510953Y-15687769D01*
X9510953Y-15687769D02*
X9530001Y-15678245D01*
X9530001Y-15678245D02*
X9568096Y-15678245D01*
X9568096Y-15678245D02*
X9587144Y-15687769D01*
X9587144Y-15687769D02*
X9596667Y-15706817D01*
X9596667Y-15706817D02*
X9596667Y-15725864D01*
X9596667Y-15725864D02*
X9501429Y-15744912D01*
X9672858Y-15802055D02*
X9691906Y-15811579D01*
X9691906Y-15811579D02*
X9730001Y-15811579D01*
X9730001Y-15811579D02*
X9749048Y-15802055D01*
X9749048Y-15802055D02*
X9758572Y-15783007D01*
X9758572Y-15783007D02*
X9758572Y-15773483D01*
X9758572Y-15773483D02*
X9749048Y-15754436D01*
X9749048Y-15754436D02*
X9730001Y-15744912D01*
X9730001Y-15744912D02*
X9701429Y-15744912D01*
X9701429Y-15744912D02*
X9682382Y-15735388D01*
X9682382Y-15735388D02*
X9672858Y-15716341D01*
X9672858Y-15716341D02*
X9672858Y-15706817D01*
X9672858Y-15706817D02*
X9682382Y-15687769D01*
X9682382Y-15687769D02*
X9701429Y-15678245D01*
X9701429Y-15678245D02*
X9730001Y-15678245D01*
X9730001Y-15678245D02*
X9749048Y-15687769D01*
X9825239Y-15887769D02*
X9834763Y-15878245D01*
X9834763Y-15878245D02*
X9853810Y-15849674D01*
X9853810Y-15849674D02*
X9863334Y-15830626D01*
X9863334Y-15830626D02*
X9872858Y-15802055D01*
X9872858Y-15802055D02*
X9882382Y-15754436D01*
X9882382Y-15754436D02*
X9882382Y-15716341D01*
X9882382Y-15716341D02*
X9872858Y-15668722D01*
X9872858Y-15668722D02*
X9863334Y-15640150D01*
X9863334Y-15640150D02*
X9853810Y-15621103D01*
X9853810Y-15621103D02*
X9834763Y-15592531D01*
X9834763Y-15592531D02*
X9825239Y-15583007D01*
D11*
X5005176Y-16029095D02*
X5050176Y-15984095D01*
X5005176Y-15939095D01*
X4960176Y-15984095D01*
X5005176Y-16029095D01*
D10*
X5349048Y-15875579D02*
X5368096Y-15875579D01*
X5368096Y-15875579D02*
X5387143Y-15885103D01*
X5387143Y-15885103D02*
X5396667Y-15894626D01*
X5396667Y-15894626D02*
X5406191Y-15913674D01*
X5406191Y-15913674D02*
X5415715Y-15951769D01*
X5415715Y-15951769D02*
X5415715Y-15999388D01*
X5415715Y-15999388D02*
X5406191Y-16037483D01*
X5406191Y-16037483D02*
X5396667Y-16056531D01*
X5396667Y-16056531D02*
X5387143Y-16066055D01*
X5387143Y-16066055D02*
X5368096Y-16075579D01*
X5368096Y-16075579D02*
X5349048Y-16075579D01*
X5349048Y-16075579D02*
X5330000Y-16066055D01*
X5330000Y-16066055D02*
X5320477Y-16056531D01*
X5320477Y-16056531D02*
X5310953Y-16037483D01*
X5310953Y-16037483D02*
X5301429Y-15999388D01*
X5301429Y-15999388D02*
X5301429Y-15951769D01*
X5301429Y-15951769D02*
X5310953Y-15913674D01*
X5310953Y-15913674D02*
X5320477Y-15894626D01*
X5320477Y-15894626D02*
X5330000Y-15885103D01*
X5330000Y-15885103D02*
X5349048Y-15875579D01*
X5501429Y-16056531D02*
X5510953Y-16066055D01*
X5510953Y-16066055D02*
X5501429Y-16075579D01*
X5501429Y-16075579D02*
X5491905Y-16066055D01*
X5491905Y-16066055D02*
X5501429Y-16056531D01*
X5501429Y-16056531D02*
X5501429Y-16075579D01*
X5606191Y-16075579D02*
X5644286Y-16075579D01*
X5644286Y-16075579D02*
X5663334Y-16066055D01*
X5663334Y-16066055D02*
X5672857Y-16056531D01*
X5672857Y-16056531D02*
X5691905Y-16027960D01*
X5691905Y-16027960D02*
X5701429Y-15989864D01*
X5701429Y-15989864D02*
X5701429Y-15913674D01*
X5701429Y-15913674D02*
X5691905Y-15894626D01*
X5691905Y-15894626D02*
X5682381Y-15885103D01*
X5682381Y-15885103D02*
X5663334Y-15875579D01*
X5663334Y-15875579D02*
X5625238Y-15875579D01*
X5625238Y-15875579D02*
X5606191Y-15885103D01*
X5606191Y-15885103D02*
X5596667Y-15894626D01*
X5596667Y-15894626D02*
X5587143Y-15913674D01*
X5587143Y-15913674D02*
X5587143Y-15961293D01*
X5587143Y-15961293D02*
X5596667Y-15980341D01*
X5596667Y-15980341D02*
X5606191Y-15989864D01*
X5606191Y-15989864D02*
X5625238Y-15999388D01*
X5625238Y-15999388D02*
X5663334Y-15999388D01*
X5663334Y-15999388D02*
X5682381Y-15989864D01*
X5682381Y-15989864D02*
X5691905Y-15980341D01*
X5691905Y-15980341D02*
X5701429Y-15961293D01*
X5825238Y-15875579D02*
X5844286Y-15875579D01*
X5844286Y-15875579D02*
X5863334Y-15885103D01*
X5863334Y-15885103D02*
X5872857Y-15894626D01*
X5872857Y-15894626D02*
X5882381Y-15913674D01*
X5882381Y-15913674D02*
X5891905Y-15951769D01*
X5891905Y-15951769D02*
X5891905Y-15999388D01*
X5891905Y-15999388D02*
X5882381Y-16037483D01*
X5882381Y-16037483D02*
X5872857Y-16056531D01*
X5872857Y-16056531D02*
X5863334Y-16066055D01*
X5863334Y-16066055D02*
X5844286Y-16075579D01*
X5844286Y-16075579D02*
X5825238Y-16075579D01*
X5825238Y-16075579D02*
X5806191Y-16066055D01*
X5806191Y-16066055D02*
X5796667Y-16056531D01*
X5796667Y-16056531D02*
X5787143Y-16037483D01*
X5787143Y-16037483D02*
X5777619Y-15999388D01*
X5777619Y-15999388D02*
X5777619Y-15951769D01*
X5777619Y-15951769D02*
X5787143Y-15913674D01*
X5787143Y-15913674D02*
X5796667Y-15894626D01*
X5796667Y-15894626D02*
X5806191Y-15885103D01*
X5806191Y-15885103D02*
X5825238Y-15875579D01*
X6015715Y-15875579D02*
X6034762Y-15875579D01*
X6034762Y-15875579D02*
X6053810Y-15885103D01*
X6053810Y-15885103D02*
X6063334Y-15894626D01*
X6063334Y-15894626D02*
X6072857Y-15913674D01*
X6072857Y-15913674D02*
X6082381Y-15951769D01*
X6082381Y-15951769D02*
X6082381Y-15999388D01*
X6082381Y-15999388D02*
X6072857Y-16037483D01*
X6072857Y-16037483D02*
X6063334Y-16056531D01*
X6063334Y-16056531D02*
X6053810Y-16066055D01*
X6053810Y-16066055D02*
X6034762Y-16075579D01*
X6034762Y-16075579D02*
X6015715Y-16075579D01*
X6015715Y-16075579D02*
X5996667Y-16066055D01*
X5996667Y-16066055D02*
X5987143Y-16056531D01*
X5987143Y-16056531D02*
X5977619Y-16037483D01*
X5977619Y-16037483D02*
X5968096Y-15999388D01*
X5968096Y-15999388D02*
X5968096Y-15951769D01*
X5968096Y-15951769D02*
X5977619Y-15913674D01*
X5977619Y-15913674D02*
X5987143Y-15894626D01*
X5987143Y-15894626D02*
X5996667Y-15885103D01*
X5996667Y-15885103D02*
X6015715Y-15875579D01*
X6168096Y-16075579D02*
X6168096Y-15942245D01*
X6168096Y-15961293D02*
X6177619Y-15951769D01*
X6177619Y-15951769D02*
X6196667Y-15942245D01*
X6196667Y-15942245D02*
X6225238Y-15942245D01*
X6225238Y-15942245D02*
X6244286Y-15951769D01*
X6244286Y-15951769D02*
X6253810Y-15970817D01*
X6253810Y-15970817D02*
X6253810Y-16075579D01*
X6253810Y-15970817D02*
X6263334Y-15951769D01*
X6263334Y-15951769D02*
X6282381Y-15942245D01*
X6282381Y-15942245D02*
X6310953Y-15942245D01*
X6310953Y-15942245D02*
X6330000Y-15951769D01*
X6330000Y-15951769D02*
X6339524Y-15970817D01*
X6339524Y-15970817D02*
X6339524Y-16075579D01*
X6434762Y-16075579D02*
X6434762Y-15942245D01*
X6434762Y-15961293D02*
X6444286Y-15951769D01*
X6444286Y-15951769D02*
X6463334Y-15942245D01*
X6463334Y-15942245D02*
X6491905Y-15942245D01*
X6491905Y-15942245D02*
X6510953Y-15951769D01*
X6510953Y-15951769D02*
X6520477Y-15970817D01*
X6520477Y-15970817D02*
X6520477Y-16075579D01*
X6520477Y-15970817D02*
X6530000Y-15951769D01*
X6530000Y-15951769D02*
X6549048Y-15942245D01*
X6549048Y-15942245D02*
X6577619Y-15942245D01*
X6577619Y-15942245D02*
X6596667Y-15951769D01*
X6596667Y-15951769D02*
X6606191Y-15970817D01*
X6606191Y-15970817D02*
X6606191Y-16075579D01*
X6996667Y-15866055D02*
X6825239Y-16123198D01*
X7253810Y-15875579D02*
X7272858Y-15875579D01*
X7272858Y-15875579D02*
X7291905Y-15885103D01*
X7291905Y-15885103D02*
X7301429Y-15894626D01*
X7301429Y-15894626D02*
X7310953Y-15913674D01*
X7310953Y-15913674D02*
X7320477Y-15951769D01*
X7320477Y-15951769D02*
X7320477Y-15999388D01*
X7320477Y-15999388D02*
X7310953Y-16037483D01*
X7310953Y-16037483D02*
X7301429Y-16056531D01*
X7301429Y-16056531D02*
X7291905Y-16066055D01*
X7291905Y-16066055D02*
X7272858Y-16075579D01*
X7272858Y-16075579D02*
X7253810Y-16075579D01*
X7253810Y-16075579D02*
X7234762Y-16066055D01*
X7234762Y-16066055D02*
X7225239Y-16056531D01*
X7225239Y-16056531D02*
X7215715Y-16037483D01*
X7215715Y-16037483D02*
X7206191Y-15999388D01*
X7206191Y-15999388D02*
X7206191Y-15951769D01*
X7206191Y-15951769D02*
X7215715Y-15913674D01*
X7215715Y-15913674D02*
X7225239Y-15894626D01*
X7225239Y-15894626D02*
X7234762Y-15885103D01*
X7234762Y-15885103D02*
X7253810Y-15875579D01*
X7406191Y-16056531D02*
X7415715Y-16066055D01*
X7415715Y-16066055D02*
X7406191Y-16075579D01*
X7406191Y-16075579D02*
X7396667Y-16066055D01*
X7396667Y-16066055D02*
X7406191Y-16056531D01*
X7406191Y-16056531D02*
X7406191Y-16075579D01*
X7539524Y-15875579D02*
X7558572Y-15875579D01*
X7558572Y-15875579D02*
X7577620Y-15885103D01*
X7577620Y-15885103D02*
X7587143Y-15894626D01*
X7587143Y-15894626D02*
X7596667Y-15913674D01*
X7596667Y-15913674D02*
X7606191Y-15951769D01*
X7606191Y-15951769D02*
X7606191Y-15999388D01*
X7606191Y-15999388D02*
X7596667Y-16037483D01*
X7596667Y-16037483D02*
X7587143Y-16056531D01*
X7587143Y-16056531D02*
X7577620Y-16066055D01*
X7577620Y-16066055D02*
X7558572Y-16075579D01*
X7558572Y-16075579D02*
X7539524Y-16075579D01*
X7539524Y-16075579D02*
X7520477Y-16066055D01*
X7520477Y-16066055D02*
X7510953Y-16056531D01*
X7510953Y-16056531D02*
X7501429Y-16037483D01*
X7501429Y-16037483D02*
X7491905Y-15999388D01*
X7491905Y-15999388D02*
X7491905Y-15951769D01*
X7491905Y-15951769D02*
X7501429Y-15913674D01*
X7501429Y-15913674D02*
X7510953Y-15894626D01*
X7510953Y-15894626D02*
X7520477Y-15885103D01*
X7520477Y-15885103D02*
X7539524Y-15875579D01*
X7672858Y-15875579D02*
X7796667Y-15875579D01*
X7796667Y-15875579D02*
X7730000Y-15951769D01*
X7730000Y-15951769D02*
X7758572Y-15951769D01*
X7758572Y-15951769D02*
X7777620Y-15961293D01*
X7777620Y-15961293D02*
X7787143Y-15970817D01*
X7787143Y-15970817D02*
X7796667Y-15989864D01*
X7796667Y-15989864D02*
X7796667Y-16037483D01*
X7796667Y-16037483D02*
X7787143Y-16056531D01*
X7787143Y-16056531D02*
X7777620Y-16066055D01*
X7777620Y-16066055D02*
X7758572Y-16075579D01*
X7758572Y-16075579D02*
X7701429Y-16075579D01*
X7701429Y-16075579D02*
X7682381Y-16066055D01*
X7682381Y-16066055D02*
X7672858Y-16056531D01*
X7977620Y-15875579D02*
X7882381Y-15875579D01*
X7882381Y-15875579D02*
X7872858Y-15970817D01*
X7872858Y-15970817D02*
X7882381Y-15961293D01*
X7882381Y-15961293D02*
X7901429Y-15951769D01*
X7901429Y-15951769D02*
X7949048Y-15951769D01*
X7949048Y-15951769D02*
X7968096Y-15961293D01*
X7968096Y-15961293D02*
X7977620Y-15970817D01*
X7977620Y-15970817D02*
X7987143Y-15989864D01*
X7987143Y-15989864D02*
X7987143Y-16037483D01*
X7987143Y-16037483D02*
X7977620Y-16056531D01*
X7977620Y-16056531D02*
X7968096Y-16066055D01*
X7968096Y-16066055D02*
X7949048Y-16075579D01*
X7949048Y-16075579D02*
X7901429Y-16075579D01*
X7901429Y-16075579D02*
X7882381Y-16066055D01*
X7882381Y-16066055D02*
X7872858Y-16056531D01*
X8158572Y-15942245D02*
X8158572Y-16075579D01*
X8110953Y-15866055D02*
X8063334Y-16008912D01*
X8063334Y-16008912D02*
X8187143Y-16008912D01*
X8253810Y-15875579D02*
X8253810Y-15913674D01*
X8330001Y-15875579D02*
X8330001Y-15913674D01*
X8625239Y-16151769D02*
X8615715Y-16142245D01*
X8615715Y-16142245D02*
X8596667Y-16113674D01*
X8596667Y-16113674D02*
X8587144Y-16094626D01*
X8587144Y-16094626D02*
X8577620Y-16066055D01*
X8577620Y-16066055D02*
X8568096Y-16018436D01*
X8568096Y-16018436D02*
X8568096Y-15980341D01*
X8568096Y-15980341D02*
X8577620Y-15932722D01*
X8577620Y-15932722D02*
X8587144Y-15904150D01*
X8587144Y-15904150D02*
X8596667Y-15885103D01*
X8596667Y-15885103D02*
X8615715Y-15856531D01*
X8615715Y-15856531D02*
X8625239Y-15847007D01*
X8691905Y-15894626D02*
X8701429Y-15885103D01*
X8701429Y-15885103D02*
X8720477Y-15875579D01*
X8720477Y-15875579D02*
X8768096Y-15875579D01*
X8768096Y-15875579D02*
X8787144Y-15885103D01*
X8787144Y-15885103D02*
X8796667Y-15894626D01*
X8796667Y-15894626D02*
X8806191Y-15913674D01*
X8806191Y-15913674D02*
X8806191Y-15932722D01*
X8806191Y-15932722D02*
X8796667Y-15961293D01*
X8796667Y-15961293D02*
X8682382Y-16075579D01*
X8682382Y-16075579D02*
X8806191Y-16075579D01*
X8920477Y-15961293D02*
X8901429Y-15951769D01*
X8901429Y-15951769D02*
X8891905Y-15942245D01*
X8891905Y-15942245D02*
X8882382Y-15923198D01*
X8882382Y-15923198D02*
X8882382Y-15913674D01*
X8882382Y-15913674D02*
X8891905Y-15894626D01*
X8891905Y-15894626D02*
X8901429Y-15885103D01*
X8901429Y-15885103D02*
X8920477Y-15875579D01*
X8920477Y-15875579D02*
X8958572Y-15875579D01*
X8958572Y-15875579D02*
X8977620Y-15885103D01*
X8977620Y-15885103D02*
X8987144Y-15894626D01*
X8987144Y-15894626D02*
X8996667Y-15913674D01*
X8996667Y-15913674D02*
X8996667Y-15923198D01*
X8996667Y-15923198D02*
X8987144Y-15942245D01*
X8987144Y-15942245D02*
X8977620Y-15951769D01*
X8977620Y-15951769D02*
X8958572Y-15961293D01*
X8958572Y-15961293D02*
X8920477Y-15961293D01*
X8920477Y-15961293D02*
X8901429Y-15970817D01*
X8901429Y-15970817D02*
X8891905Y-15980341D01*
X8891905Y-15980341D02*
X8882382Y-15999388D01*
X8882382Y-15999388D02*
X8882382Y-16037483D01*
X8882382Y-16037483D02*
X8891905Y-16056531D01*
X8891905Y-16056531D02*
X8901429Y-16066055D01*
X8901429Y-16066055D02*
X8920477Y-16075579D01*
X8920477Y-16075579D02*
X8958572Y-16075579D01*
X8958572Y-16075579D02*
X8977620Y-16066055D01*
X8977620Y-16066055D02*
X8987144Y-16056531D01*
X8987144Y-16056531D02*
X8996667Y-16037483D01*
X8996667Y-16037483D02*
X8996667Y-15999388D01*
X8996667Y-15999388D02*
X8987144Y-15980341D01*
X8987144Y-15980341D02*
X8977620Y-15970817D01*
X8977620Y-15970817D02*
X8958572Y-15961293D01*
X9234763Y-16075579D02*
X9234763Y-15875579D01*
X9320477Y-16075579D02*
X9320477Y-15970817D01*
X9320477Y-15970817D02*
X9310953Y-15951769D01*
X9310953Y-15951769D02*
X9291906Y-15942245D01*
X9291906Y-15942245D02*
X9263334Y-15942245D01*
X9263334Y-15942245D02*
X9244286Y-15951769D01*
X9244286Y-15951769D02*
X9234763Y-15961293D01*
X9444286Y-16075579D02*
X9425239Y-16066055D01*
X9425239Y-16066055D02*
X9415715Y-16056531D01*
X9415715Y-16056531D02*
X9406191Y-16037483D01*
X9406191Y-16037483D02*
X9406191Y-15980341D01*
X9406191Y-15980341D02*
X9415715Y-15961293D01*
X9415715Y-15961293D02*
X9425239Y-15951769D01*
X9425239Y-15951769D02*
X9444286Y-15942245D01*
X9444286Y-15942245D02*
X9472858Y-15942245D01*
X9472858Y-15942245D02*
X9491906Y-15951769D01*
X9491906Y-15951769D02*
X9501429Y-15961293D01*
X9501429Y-15961293D02*
X9510953Y-15980341D01*
X9510953Y-15980341D02*
X9510953Y-16037483D01*
X9510953Y-16037483D02*
X9501429Y-16056531D01*
X9501429Y-16056531D02*
X9491906Y-16066055D01*
X9491906Y-16066055D02*
X9472858Y-16075579D01*
X9472858Y-16075579D02*
X9444286Y-16075579D01*
X9625239Y-16075579D02*
X9606191Y-16066055D01*
X9606191Y-16066055D02*
X9596667Y-16047007D01*
X9596667Y-16047007D02*
X9596667Y-15875579D01*
X9777620Y-16066055D02*
X9758572Y-16075579D01*
X9758572Y-16075579D02*
X9720477Y-16075579D01*
X9720477Y-16075579D02*
X9701429Y-16066055D01*
X9701429Y-16066055D02*
X9691906Y-16047007D01*
X9691906Y-16047007D02*
X9691906Y-15970817D01*
X9691906Y-15970817D02*
X9701429Y-15951769D01*
X9701429Y-15951769D02*
X9720477Y-15942245D01*
X9720477Y-15942245D02*
X9758572Y-15942245D01*
X9758572Y-15942245D02*
X9777620Y-15951769D01*
X9777620Y-15951769D02*
X9787144Y-15970817D01*
X9787144Y-15970817D02*
X9787144Y-15989864D01*
X9787144Y-15989864D02*
X9691906Y-16008912D01*
X9863334Y-16066055D02*
X9882382Y-16075579D01*
X9882382Y-16075579D02*
X9920477Y-16075579D01*
X9920477Y-16075579D02*
X9939525Y-16066055D01*
X9939525Y-16066055D02*
X9949048Y-16047007D01*
X9949048Y-16047007D02*
X9949048Y-16037483D01*
X9949048Y-16037483D02*
X9939525Y-16018436D01*
X9939525Y-16018436D02*
X9920477Y-16008912D01*
X9920477Y-16008912D02*
X9891906Y-16008912D01*
X9891906Y-16008912D02*
X9872858Y-15999388D01*
X9872858Y-15999388D02*
X9863334Y-15980341D01*
X9863334Y-15980341D02*
X9863334Y-15970817D01*
X9863334Y-15970817D02*
X9872858Y-15951769D01*
X9872858Y-15951769D02*
X9891906Y-15942245D01*
X9891906Y-15942245D02*
X9920477Y-15942245D01*
X9920477Y-15942245D02*
X9939525Y-15951769D01*
X10015715Y-16151769D02*
X10025239Y-16142245D01*
X10025239Y-16142245D02*
X10044287Y-16113674D01*
X10044287Y-16113674D02*
X10053810Y-16094626D01*
X10053810Y-16094626D02*
X10063334Y-16066055D01*
X10063334Y-16066055D02*
X10072858Y-16018436D01*
X10072858Y-16018436D02*
X10072858Y-15980341D01*
X10072858Y-15980341D02*
X10063334Y-15932722D01*
X10063334Y-15932722D02*
X10053810Y-15904150D01*
X10053810Y-15904150D02*
X10044287Y-15885103D01*
X10044287Y-15885103D02*
X10025239Y-15856531D01*
X10025239Y-15856531D02*
X10015715Y-15847007D01*
M02*
