M48
; DRILL file {KiCad 7.0.9} date 2023-11-12T20:37:13 CET
; FORMAT={-:-/ absolute / metric / decimal}
; #@! TF.CreationDate,2023-11-12T20:37:13+01:00
; #@! TF.GenerationSoftware,Kicad,Pcbnew,7.0.9
; #@! TF.FileFunction,Plated,1,2,PTH
FMAT,2
METRIC
; #@! TA.AperFunction,Plated,PTH,ViaDrill
T1C0.300
; #@! TA.AperFunction,Plated,PTH,ComponentDrill
T2C0.600
; #@! TA.AperFunction,Plated,PTH,ComponentDrill
T3C0.750
; #@! TA.AperFunction,Plated,PTH,ComponentDrill
T4C0.800
; #@! TA.AperFunction,Plated,PTH,ComponentDrill
T5C0.900
%
G90
G05
T1
X67.31Y-110.109
X67.31Y-111.379
X71.755Y-105.918
X81.153Y-67.564
X81.915Y-83.185
X85.144Y-109.728
X85.625Y-123.979
X91.44Y-97.536
X96.647Y-65.278
X98.298Y-87.503
X99.568Y-124.079
X100.33Y-109.855
X111.633Y-101.981
X113.665Y-115.189
X114.935Y-116.84
T2
X62.185Y-121.875
X63.246Y-122.936
X73.914Y-122.428
X75.414Y-122.428
T3
X63.482Y-115.806
X64.38Y-116.704
X65.278Y-117.602
X67.546Y-119.888
X68.444Y-120.786
X69.342Y-121.684
T4
X67.764Y-115.116
X69.95Y-117.248
X73.152Y-109.728
X75.338Y-111.86
X117.348Y-124.238
X117.348Y-126.238
T5
X66.802Y-102.616
X69.342Y-102.616
X75.946Y-102.108
X77.465Y-76.327
X78.486Y-102.108
X80.005Y-76.327
X84.328Y-61.214
X84.831Y-79.248
X85.471Y-101.473
X86.868Y-61.214
X87.371Y-79.248
X88.011Y-101.473
X90.805Y-60.452
X92.964Y-82.042
X93.345Y-60.452
X95.504Y-82.042
X95.504Y-100.457
X97.785Y-59.436
X98.044Y-100.457
X100.325Y-59.436
X101.341Y-84.709
X103.881Y-84.709
X105.151Y-99.314
X107.691Y-99.314
X109.977Y-86.995
X112.517Y-86.995
X114.295Y-98.044
X116.835Y-98.044
T0
M30
