G04 #@! TF.GenerationSoftware,KiCad,Pcbnew,7.0.9*
G04 #@! TF.CreationDate,2023-11-12T20:37:04+01:00*
G04 #@! TF.ProjectId,christmas_ornament_2023,63687269-7374-46d6-9173-5f6f726e616d,1.0*
G04 #@! TF.SameCoordinates,Original*
G04 #@! TF.FileFunction,Copper,L1,Top*
G04 #@! TF.FilePolarity,Positive*
%FSLAX46Y46*%
G04 Gerber Fmt 4.6, Leading zero omitted, Abs format (unit mm)*
G04 Created by KiCad (PCBNEW 7.0.9) date 2023-11-12 20:37:04*
%MOMM*%
%LPD*%
G01*
G04 APERTURE LIST*
G04 Aperture macros list*
%AMHorizOval*
0 Thick line with rounded ends*
0 $1 width*
0 $2 $3 position (X,Y) of the first rounded end (center of the circle)*
0 $4 $5 position (X,Y) of the second rounded end (center of the circle)*
0 Add line between two ends*
20,1,$1,$2,$3,$4,$5,0*
0 Add two circle primitives to create the rounded ends*
1,1,$1,$2,$3*
1,1,$1,$4,$5*%
%AMRotRect*
0 Rectangle, with rotation*
0 The origin of the aperture is its center*
0 $1 length*
0 $2 width*
0 $3 Rotation angle, in degrees counterclockwise*
0 Add horizontal line*
21,1,$1,$2,0,0,$3*%
G04 Aperture macros list end*
G04 #@! TA.AperFunction,ComponentPad*
%ADD10R,1.800000X1.800000*%
G04 #@! TD*
G04 #@! TA.AperFunction,ComponentPad*
%ADD11C,1.800000*%
G04 #@! TD*
G04 #@! TA.AperFunction,ComponentPad*
%ADD12RotRect,1.050000X1.500000X135.000000*%
G04 #@! TD*
G04 #@! TA.AperFunction,ComponentPad*
%ADD13HorizOval,1.050000X0.159099X0.159099X-0.159099X-0.159099X0*%
G04 #@! TD*
G04 #@! TA.AperFunction,ComponentPad*
%ADD14RotRect,1.600000X1.600000X45.000000*%
G04 #@! TD*
G04 #@! TA.AperFunction,ComponentPad*
%ADD15HorizOval,1.600000X0.000000X0.000000X0.000000X0.000000X0*%
G04 #@! TD*
G04 #@! TA.AperFunction,ComponentPad*
%ADD16RotRect,1.600000X1.600000X225.000000*%
G04 #@! TD*
G04 #@! TA.AperFunction,ComponentPad*
%ADD17HorizOval,1.600000X0.000000X0.000000X0.000000X0.000000X0*%
G04 #@! TD*
G04 #@! TA.AperFunction,ComponentPad*
%ADD18R,1.200000X1.200000*%
G04 #@! TD*
G04 #@! TA.AperFunction,ComponentPad*
%ADD19C,1.200000*%
G04 #@! TD*
G04 #@! TA.AperFunction,ComponentPad*
%ADD20RotRect,1.200000X1.200000X315.000000*%
G04 #@! TD*
G04 #@! TA.AperFunction,ComponentPad*
%ADD21R,1.600000X1.600000*%
G04 #@! TD*
G04 #@! TA.AperFunction,ComponentPad*
%ADD22C,1.600000*%
G04 #@! TD*
G04 #@! TA.AperFunction,ViaPad*
%ADD23C,0.700000*%
G04 #@! TD*
G04 APERTURE END LIST*
D10*
X95504000Y-100457000D03*
D11*
X98044000Y-100457000D03*
D10*
X97785000Y-59436000D03*
D11*
X100325000Y-59436000D03*
D10*
X90805000Y-60452000D03*
D11*
X93345000Y-60452000D03*
D12*
X65278000Y-117602000D03*
D13*
X64379974Y-116703974D03*
X63481949Y-115805949D03*
D10*
X92964000Y-82042000D03*
D11*
X95504000Y-82042000D03*
D10*
X114295000Y-98044000D03*
D11*
X116835000Y-98044000D03*
D12*
X69342000Y-121684051D03*
D13*
X68443974Y-120786025D03*
X67545949Y-119888000D03*
D10*
X85471000Y-101473000D03*
D11*
X88011000Y-101473000D03*
D10*
X77465000Y-76327000D03*
D11*
X80005000Y-76327000D03*
D10*
X105151000Y-99314000D03*
D11*
X107691000Y-99314000D03*
D14*
X67763846Y-115116154D03*
D15*
X73152000Y-109728000D03*
D16*
X75338077Y-111859924D03*
D17*
X69949923Y-117248078D03*
D10*
X66802000Y-102616000D03*
D11*
X69342000Y-102616000D03*
D18*
X73914000Y-122428000D03*
D19*
X75414000Y-122428000D03*
D10*
X101341000Y-84709000D03*
D11*
X103881000Y-84709000D03*
D10*
X75946000Y-102108000D03*
D11*
X78486000Y-102108000D03*
D10*
X109977000Y-86995000D03*
D11*
X112517000Y-86995000D03*
D10*
X84328000Y-61214000D03*
D11*
X86868000Y-61214000D03*
D20*
X62185340Y-121875340D03*
D19*
X63246000Y-122936000D03*
D10*
X84831000Y-79248000D03*
D11*
X87371000Y-79248000D03*
D21*
X117348000Y-124238000D03*
D22*
X117348000Y-126238000D03*
D23*
X67310000Y-110109000D03*
X98298000Y-87503000D03*
X113665000Y-115189000D03*
X81153000Y-67564000D03*
X99568000Y-124079000D03*
X67310000Y-111379000D03*
X91440000Y-97536000D03*
X96647000Y-65278000D03*
X85144000Y-109728000D03*
X100330000Y-109855000D03*
X111633000Y-101981000D03*
X114935000Y-116840000D03*
X85625000Y-123979000D03*
X81915000Y-83185000D03*
X71755000Y-105918000D03*
G04 #@! TA.AperFunction,Conductor*
G36*
X63015583Y-122743305D02*
G01*
X63015685Y-122742961D01*
X63016145Y-122742562D01*
X63015583Y-122743305D01*
G37*
G04 #@! TD.AperFunction*
G04 #@! TA.AperFunction,Conductor*
G36*
X92646407Y-30322473D02*
G01*
X92677140Y-30357942D01*
X93720503Y-32165047D01*
X95067286Y-34497676D01*
X95068821Y-34500785D01*
X95069475Y-34501436D01*
X95070373Y-34501677D01*
X95073854Y-34501450D01*
X99854111Y-34501450D01*
X99921150Y-34521135D01*
X99966905Y-34573939D01*
X99976849Y-34643097D01*
X99961496Y-34687451D01*
X97696363Y-38610665D01*
X97571328Y-38827225D01*
X97569428Y-38830076D01*
X97569194Y-38830951D01*
X97569440Y-38831865D01*
X97571378Y-38834763D01*
X99961501Y-42974550D01*
X99977974Y-43042450D01*
X99955122Y-43108477D01*
X99900200Y-43151667D01*
X99854114Y-43160550D01*
X95100262Y-43160550D01*
X95095713Y-43159761D01*
X95079967Y-43160485D01*
X95078397Y-43160520D01*
X95078229Y-43160599D01*
X95078075Y-43160752D01*
X95078002Y-43160953D01*
X95078003Y-43161070D01*
X95078086Y-43161250D01*
X95085715Y-43179661D01*
X95088382Y-43183329D01*
X103767519Y-61795796D01*
X134479726Y-127658333D01*
X134490218Y-127727411D01*
X134461698Y-127791195D01*
X134410059Y-127827149D01*
X133705074Y-128085830D01*
X133255443Y-128250525D01*
X132522596Y-128496268D01*
X131944241Y-128689120D01*
X131229118Y-128906740D01*
X130621055Y-129089914D01*
X129910455Y-129284494D01*
X129286929Y-129452594D01*
X128576917Y-129625698D01*
X127942975Y-129776859D01*
X127231967Y-129929152D01*
X126590313Y-130062442D01*
X125877709Y-130194228D01*
X125230051Y-130309111D01*
X124515672Y-130420541D01*
X123863331Y-130516663D01*
X123147307Y-130607800D01*
X122491214Y-130684939D01*
X121773868Y-130755803D01*
X121114878Y-130813796D01*
X120396437Y-130864409D01*
X119735537Y-130903127D01*
X119016293Y-130933496D01*
X118354239Y-130952871D01*
X117634595Y-130962992D01*
X116972168Y-130962990D01*
X116252548Y-130952864D01*
X115590476Y-130933484D01*
X114871229Y-130903110D01*
X114210384Y-130864391D01*
X113491834Y-130813765D01*
X112832994Y-130755782D01*
X112115524Y-130684900D01*
X111590122Y-130623123D01*
X111459464Y-130607760D01*
X110743487Y-130516625D01*
X110090995Y-130420476D01*
X109376749Y-130309061D01*
X108729041Y-130194165D01*
X108016471Y-130062380D01*
X107374735Y-129929068D01*
X106663840Y-129776794D01*
X106029737Y-129625591D01*
X105319873Y-129452517D01*
X104696244Y-129284385D01*
X103985736Y-129089825D01*
X103377674Y-128906647D01*
X102662539Y-128689018D01*
X102084413Y-128496238D01*
X101351351Y-128250418D01*
X100887777Y-128080603D01*
X100070436Y-127780690D01*
X100069131Y-127780151D01*
X100069069Y-127780179D01*
X100067968Y-127783054D01*
X100065529Y-127788593D01*
X100065138Y-127789374D01*
X100069255Y-127808718D01*
X100069255Y-142656450D01*
X100049570Y-142723489D01*
X99996766Y-142769244D01*
X99945255Y-142780450D01*
X85194255Y-142780450D01*
X85127216Y-142760765D01*
X85081461Y-142707961D01*
X85070255Y-142656450D01*
X85070255Y-127808179D01*
X85074028Y-127790482D01*
X85070125Y-127780298D01*
X85070074Y-127780276D01*
X85069071Y-127780690D01*
X84237089Y-128085971D01*
X83787843Y-128250525D01*
X83054996Y-128496268D01*
X82476641Y-128689120D01*
X81761518Y-128906740D01*
X81153455Y-129089914D01*
X80442855Y-129284494D01*
X79819329Y-129452594D01*
X79109317Y-129625698D01*
X78475375Y-129776859D01*
X77764367Y-129929152D01*
X77122713Y-130062442D01*
X76410109Y-130194228D01*
X75762451Y-130309111D01*
X75048072Y-130420541D01*
X74395731Y-130516663D01*
X73679707Y-130607800D01*
X73023614Y-130684939D01*
X72306268Y-130755803D01*
X71647278Y-130813796D01*
X70928837Y-130864409D01*
X70267937Y-130903127D01*
X69548693Y-130933496D01*
X68886639Y-130952871D01*
X68166995Y-130962992D01*
X67504568Y-130962990D01*
X66784948Y-130952864D01*
X66122876Y-130933484D01*
X65403629Y-130903110D01*
X64742784Y-130864391D01*
X64024234Y-130813765D01*
X63365394Y-130755782D01*
X62647924Y-130684900D01*
X62122522Y-130623123D01*
X61991864Y-130607760D01*
X61275887Y-130516625D01*
X60623395Y-130420476D01*
X59909149Y-130309061D01*
X59261441Y-130194165D01*
X58548871Y-130062380D01*
X57907135Y-129929068D01*
X57196240Y-129776794D01*
X56562137Y-129625591D01*
X55852273Y-129452517D01*
X55228644Y-129284385D01*
X54518136Y-129089825D01*
X53910074Y-128906647D01*
X53194939Y-128689018D01*
X52616813Y-128496238D01*
X51883714Y-128250405D01*
X51442039Y-128088625D01*
X51151042Y-127981847D01*
X50729446Y-127827148D01*
X50673293Y-127785576D01*
X50648529Y-127720243D01*
X50659781Y-127658336D01*
X51322094Y-126238002D01*
X116043034Y-126238002D01*
X116062858Y-126464599D01*
X116062860Y-126464610D01*
X116121730Y-126684317D01*
X116121734Y-126684326D01*
X116217865Y-126890481D01*
X116217866Y-126890483D01*
X116268973Y-126963471D01*
X116268973Y-126963472D01*
X116950045Y-126282399D01*
X116962835Y-126363148D01*
X117020359Y-126476045D01*
X117109955Y-126565641D01*
X117222852Y-126623165D01*
X117303599Y-126635953D01*
X116622526Y-127317025D01*
X116622526Y-127317026D01*
X116695512Y-127368131D01*
X116695516Y-127368133D01*
X116901673Y-127464265D01*
X116901682Y-127464269D01*
X117121389Y-127523139D01*
X117121400Y-127523141D01*
X117347998Y-127542966D01*
X117348002Y-127542966D01*
X117574599Y-127523141D01*
X117574610Y-127523139D01*
X117794317Y-127464269D01*
X117794331Y-127464264D01*
X118000478Y-127368136D01*
X118073472Y-127317025D01*
X117392401Y-126635953D01*
X117473148Y-126623165D01*
X117586045Y-126565641D01*
X117675641Y-126476045D01*
X117733165Y-126363148D01*
X117745953Y-126282400D01*
X118427025Y-126963472D01*
X118478136Y-126890478D01*
X118574264Y-126684331D01*
X118574269Y-126684317D01*
X118633139Y-126464610D01*
X118633141Y-126464599D01*
X118652966Y-126238002D01*
X118652966Y-126237997D01*
X118633141Y-126011400D01*
X118633139Y-126011389D01*
X118574269Y-125791682D01*
X118574265Y-125791673D01*
X118478134Y-125585518D01*
X118478130Y-125585512D01*
X118469188Y-125572740D01*
X118446861Y-125506534D01*
X118463873Y-125438767D01*
X118496454Y-125402351D01*
X118505546Y-125395546D01*
X118591796Y-125280331D01*
X118642091Y-125145483D01*
X118648500Y-125085873D01*
X118648499Y-123390128D01*
X118642091Y-123330517D01*
X118634431Y-123309980D01*
X118591797Y-123195671D01*
X118591793Y-123195664D01*
X118505547Y-123080455D01*
X118505544Y-123080452D01*
X118403847Y-123004321D01*
X129342283Y-123004321D01*
X129358663Y-123070777D01*
X129382993Y-123169491D01*
X129462046Y-123320114D01*
X129475292Y-123335065D01*
X129574854Y-123447448D01*
X129665101Y-123509741D01*
X129714851Y-123544082D01*
X129714852Y-123544082D01*
X129714853Y-123544083D01*
X129873911Y-123604405D01*
X129949811Y-123613621D01*
X130000409Y-123619765D01*
X130000411Y-123619765D01*
X130085157Y-123619765D01*
X130127321Y-123614645D01*
X130211655Y-123604405D01*
X130370713Y-123544083D01*
X130510712Y-123447448D01*
X130623517Y-123320117D01*
X130628837Y-123309982D01*
X130688833Y-123195669D01*
X130702573Y-123169490D01*
X130743283Y-123004321D01*
X130743283Y-122834209D01*
X130702573Y-122669040D01*
X130685232Y-122636000D01*
X130623519Y-122518415D01*
X130543417Y-122427999D01*
X130510712Y-122391082D01*
X130457632Y-122354443D01*
X130370714Y-122294447D01*
X130211657Y-122234125D01*
X130211651Y-122234124D01*
X130085157Y-122218765D01*
X130085155Y-122218765D01*
X130000411Y-122218765D01*
X130000409Y-122218765D01*
X129873914Y-122234124D01*
X129873908Y-122234125D01*
X129714851Y-122294447D01*
X129574855Y-122391081D01*
X129462046Y-122518415D01*
X129382993Y-122669038D01*
X129364773Y-122742961D01*
X129342283Y-122834209D01*
X129342283Y-123004321D01*
X118403847Y-123004321D01*
X118390335Y-122994206D01*
X118390328Y-122994202D01*
X118255482Y-122943908D01*
X118255483Y-122943908D01*
X118195883Y-122937501D01*
X118195881Y-122937500D01*
X118195873Y-122937500D01*
X118195864Y-122937500D01*
X116500129Y-122937500D01*
X116500123Y-122937501D01*
X116440516Y-122943908D01*
X116305671Y-122994202D01*
X116305664Y-122994206D01*
X116190455Y-123080452D01*
X116190452Y-123080455D01*
X116104206Y-123195664D01*
X116104202Y-123195671D01*
X116053908Y-123330517D01*
X116047992Y-123385547D01*
X116047501Y-123390123D01*
X116047500Y-123390135D01*
X116047500Y-125085870D01*
X116047501Y-125085876D01*
X116053908Y-125145483D01*
X116104202Y-125280328D01*
X116104206Y-125280335D01*
X116190452Y-125395544D01*
X116190453Y-125395544D01*
X116190454Y-125395546D01*
X116199545Y-125402351D01*
X116241416Y-125458282D01*
X116246402Y-125527974D01*
X116226813Y-125572736D01*
X116217871Y-125585507D01*
X116217868Y-125585512D01*
X116121734Y-125791673D01*
X116121730Y-125791682D01*
X116062860Y-126011389D01*
X116062858Y-126011400D01*
X116043034Y-126237997D01*
X116043034Y-126238002D01*
X51322094Y-126238002D01*
X53356436Y-121875340D01*
X60831165Y-121875340D01*
X60851646Y-122017796D01*
X60911433Y-122148710D01*
X60911434Y-122148711D01*
X60911435Y-122148713D01*
X60949054Y-122195396D01*
X60949057Y-122195399D01*
X60949062Y-122195405D01*
X61661499Y-122907840D01*
X61865284Y-123111625D01*
X61911967Y-123149245D01*
X62042883Y-123209033D01*
X62042882Y-123209033D01*
X62106266Y-123218146D01*
X62169821Y-123247171D01*
X62207596Y-123305949D01*
X62207885Y-123306947D01*
X62215887Y-123335070D01*
X62215890Y-123335078D01*
X62306754Y-123517556D01*
X62429608Y-123680242D01*
X62580260Y-123817578D01*
X62753584Y-123924897D01*
X62943678Y-123998539D01*
X62996000Y-124008320D01*
X62996000Y-123106972D01*
X63002448Y-123119922D01*
X63085334Y-123195484D01*
X63189920Y-123236000D01*
X63273802Y-123236000D01*
X63356250Y-123220588D01*
X63412111Y-123186000D01*
X63496000Y-123186000D01*
X63496000Y-124008320D01*
X63548321Y-123998539D01*
X63738415Y-123924897D01*
X63911739Y-123817578D01*
X64062391Y-123680242D01*
X64185245Y-123517556D01*
X64276109Y-123335078D01*
X64276114Y-123335065D01*
X64318528Y-123186000D01*
X63496000Y-123186000D01*
X63412111Y-123186000D01*
X63451610Y-123161543D01*
X63519201Y-123072038D01*
X63549895Y-122964160D01*
X63539546Y-122852479D01*
X63489552Y-122752078D01*
X63417069Y-122686000D01*
X64318528Y-122686000D01*
X64318528Y-122685999D01*
X64276114Y-122536934D01*
X64276109Y-122536921D01*
X64185245Y-122354443D01*
X64062391Y-122191757D01*
X63911739Y-122054421D01*
X63738414Y-121947102D01*
X63606332Y-121895933D01*
X63550931Y-121853360D01*
X63528388Y-121797952D01*
X63525826Y-121780135D01*
X63519033Y-121732883D01*
X63459245Y-121601967D01*
X63421626Y-121555284D01*
X63421621Y-121555279D01*
X63421617Y-121555274D01*
X62505403Y-120639062D01*
X62505396Y-120639055D01*
X62458713Y-120601435D01*
X62327797Y-120541647D01*
X62327795Y-120541646D01*
X62327797Y-120541646D01*
X62185340Y-120521165D01*
X62042883Y-120541646D01*
X61911969Y-120601433D01*
X61865274Y-120639062D01*
X60949062Y-121555276D01*
X60949056Y-121555283D01*
X60911434Y-121601968D01*
X60911433Y-121601970D01*
X60851646Y-121732883D01*
X60831165Y-121875340D01*
X53356436Y-121875340D01*
X54208959Y-120047099D01*
X66356388Y-120047099D01*
X66376187Y-120248130D01*
X66434828Y-120441444D01*
X66530048Y-120619587D01*
X66530053Y-120619594D01*
X66658202Y-120775746D01*
X66718413Y-120825159D01*
X66814356Y-120903897D01*
X66814359Y-120903898D01*
X66814361Y-120903900D01*
X66992504Y-120999120D01*
X66992506Y-120999120D01*
X66992509Y-120999122D01*
X67185817Y-121057761D01*
X67185819Y-121057761D01*
X67190213Y-121059094D01*
X67248652Y-121097392D01*
X67272879Y-121141760D01*
X67332853Y-121339469D01*
X67428073Y-121517612D01*
X67428078Y-121517619D01*
X67556227Y-121673771D01*
X67664891Y-121762948D01*
X67712381Y-121801922D01*
X67712384Y-121801923D01*
X67712386Y-121801925D01*
X67891534Y-121897682D01*
X67941378Y-121946644D01*
X67951766Y-121977396D01*
X67952777Y-121977100D01*
X67955275Y-121985611D01*
X68015060Y-122116520D01*
X68015061Y-122116521D01*
X68015062Y-122116523D01*
X68052681Y-122163206D01*
X68052684Y-122163209D01*
X68052689Y-122163215D01*
X68689438Y-122799962D01*
X68862845Y-122973369D01*
X68909528Y-123010989D01*
X69040444Y-123070777D01*
X69040443Y-123070777D01*
X69058350Y-123073351D01*
X69182901Y-123091259D01*
X69289935Y-123075870D01*
X72813500Y-123075870D01*
X72813501Y-123075876D01*
X72819908Y-123135483D01*
X72870202Y-123270328D01*
X72870206Y-123270335D01*
X72956452Y-123385544D01*
X72956455Y-123385547D01*
X73071664Y-123471793D01*
X73071671Y-123471797D01*
X73206517Y-123522091D01*
X73206516Y-123522091D01*
X73213444Y-123522835D01*
X73266127Y-123528500D01*
X74561872Y-123528499D01*
X74621483Y-123522091D01*
X74704778Y-123491024D01*
X74756329Y-123471797D01*
X74756329Y-123471796D01*
X74756331Y-123471796D01*
X74805521Y-123434971D01*
X74870982Y-123410554D01*
X74924622Y-123418610D01*
X75111544Y-123491024D01*
X75312024Y-123528500D01*
X75312026Y-123528500D01*
X75515974Y-123528500D01*
X75515976Y-123528500D01*
X75716456Y-123491024D01*
X75906637Y-123417348D01*
X76080041Y-123309981D01*
X76230764Y-123172579D01*
X76353673Y-123009821D01*
X76444582Y-122827250D01*
X76500397Y-122631083D01*
X76519215Y-122428000D01*
X76500397Y-122224917D01*
X76444582Y-122028750D01*
X76439128Y-122017797D01*
X76368193Y-121875340D01*
X76353673Y-121846179D01*
X76230764Y-121683421D01*
X76230762Y-121683418D01*
X76080041Y-121546019D01*
X76080039Y-121546017D01*
X75906642Y-121438655D01*
X75906635Y-121438651D01*
X75811546Y-121401814D01*
X75716456Y-121364976D01*
X75515976Y-121327500D01*
X75312024Y-121327500D01*
X75111544Y-121364976D01*
X75111541Y-121364976D01*
X75111541Y-121364977D01*
X74924626Y-121437388D01*
X74855002Y-121443250D01*
X74805521Y-121421027D01*
X74756335Y-121384206D01*
X74756328Y-121384202D01*
X74621482Y-121333908D01*
X74621483Y-121333908D01*
X74561883Y-121327501D01*
X74561881Y-121327500D01*
X74561873Y-121327500D01*
X74561864Y-121327500D01*
X73266129Y-121327500D01*
X73266123Y-121327501D01*
X73206516Y-121333908D01*
X73071671Y-121384202D01*
X73071664Y-121384206D01*
X72956455Y-121470452D01*
X72956452Y-121470455D01*
X72870206Y-121585664D01*
X72870202Y-121585671D01*
X72819908Y-121720517D01*
X72813501Y-121780116D01*
X72813500Y-121780135D01*
X72813500Y-123075870D01*
X69289935Y-123075870D01*
X69325358Y-123070777D01*
X69456274Y-123010989D01*
X69502957Y-122973370D01*
X70631318Y-121845008D01*
X70668938Y-121798325D01*
X70728726Y-121667409D01*
X70749208Y-121524952D01*
X70728726Y-121382495D01*
X70668938Y-121251579D01*
X70631319Y-121204896D01*
X70631314Y-121204891D01*
X70631310Y-121204886D01*
X69821162Y-120394740D01*
X69821155Y-120394733D01*
X69774472Y-120357113D01*
X69774468Y-120357111D01*
X69643560Y-120297326D01*
X69635049Y-120294828D01*
X69635714Y-120292560D01*
X69620030Y-120285397D01*
X128074429Y-120285397D01*
X128076754Y-120294828D01*
X128115139Y-120450567D01*
X128194192Y-120601190D01*
X128210496Y-120619593D01*
X128307000Y-120728524D01*
X128397247Y-120790817D01*
X128446997Y-120825158D01*
X128446998Y-120825158D01*
X128446999Y-120825159D01*
X128606057Y-120885481D01*
X128681957Y-120894697D01*
X128732555Y-120900841D01*
X128732557Y-120900841D01*
X128817303Y-120900841D01*
X128859467Y-120895721D01*
X128943801Y-120885481D01*
X129102859Y-120825159D01*
X129242858Y-120728524D01*
X129355663Y-120601193D01*
X129386916Y-120541647D01*
X129434718Y-120450567D01*
X129434719Y-120450566D01*
X129475429Y-120285397D01*
X129475429Y-120115285D01*
X129434719Y-119950116D01*
X129407512Y-119898278D01*
X129355665Y-119799491D01*
X129329652Y-119770129D01*
X129242858Y-119672158D01*
X129159950Y-119614930D01*
X129102860Y-119575523D01*
X128943803Y-119515201D01*
X128943797Y-119515200D01*
X128817303Y-119499841D01*
X128817301Y-119499841D01*
X128732557Y-119499841D01*
X128732555Y-119499841D01*
X128606060Y-119515200D01*
X128606054Y-119515201D01*
X128446997Y-119575523D01*
X128307001Y-119672157D01*
X128194192Y-119799491D01*
X128115139Y-119950114D01*
X128074429Y-120115285D01*
X128074429Y-120285397D01*
X69620030Y-120285397D01*
X69583784Y-120268843D01*
X69555631Y-120233585D01*
X69459874Y-120054437D01*
X69459872Y-120054435D01*
X69459871Y-120054432D01*
X69420897Y-120006942D01*
X69331720Y-119898278D01*
X69175568Y-119770129D01*
X69175561Y-119770124D01*
X68997418Y-119674904D01*
X68799709Y-119614930D01*
X68741270Y-119576632D01*
X68717043Y-119532264D01*
X68715710Y-119527870D01*
X68715710Y-119527868D01*
X68657071Y-119334560D01*
X68657069Y-119334557D01*
X68657069Y-119334555D01*
X68561849Y-119156412D01*
X68561847Y-119156410D01*
X68561846Y-119156407D01*
X68522872Y-119108917D01*
X68433695Y-119000253D01*
X68277543Y-118872104D01*
X68277536Y-118872099D01*
X68099393Y-118776879D01*
X67906079Y-118718238D01*
X67705048Y-118698438D01*
X67504016Y-118718238D01*
X67310702Y-118776879D01*
X67132559Y-118872099D01*
X67132552Y-118872103D01*
X67015528Y-118968143D01*
X66626092Y-119357579D01*
X66530052Y-119474603D01*
X66530048Y-119474610D01*
X66434828Y-119652753D01*
X66376187Y-119846067D01*
X66356388Y-120047099D01*
X54208959Y-120047099D01*
X56112451Y-115965048D01*
X62292388Y-115965048D01*
X62312187Y-116166079D01*
X62370828Y-116359393D01*
X62466048Y-116537536D01*
X62466053Y-116537543D01*
X62594202Y-116693695D01*
X62666675Y-116753171D01*
X62750356Y-116821846D01*
X62750359Y-116821847D01*
X62750361Y-116821849D01*
X62928504Y-116917069D01*
X62928506Y-116917069D01*
X62928509Y-116917071D01*
X63121817Y-116975710D01*
X63121819Y-116975710D01*
X63126213Y-116977043D01*
X63184652Y-117015341D01*
X63208879Y-117059709D01*
X63268853Y-117257418D01*
X63364073Y-117435561D01*
X63364078Y-117435568D01*
X63492227Y-117591720D01*
X63531360Y-117623835D01*
X63648381Y-117719871D01*
X63648384Y-117719872D01*
X63648386Y-117719874D01*
X63828079Y-117815922D01*
X63877923Y-117864884D01*
X63888171Y-117895219D01*
X63889258Y-117894900D01*
X63891759Y-117903418D01*
X63951483Y-118034195D01*
X63989064Y-118080831D01*
X64217340Y-118309107D01*
X64217341Y-118309107D01*
X64864861Y-117661584D01*
X64869349Y-117657515D01*
X64899141Y-117633065D01*
X64899114Y-117633395D01*
X64929837Y-117754719D01*
X64998289Y-117859492D01*
X65097052Y-117936363D01*
X65215424Y-117977000D01*
X65256553Y-117977000D01*
X64570893Y-118662660D01*
X64799168Y-118890935D01*
X64845803Y-118928515D01*
X64976582Y-118988241D01*
X64976587Y-118988242D01*
X65118901Y-119008702D01*
X65261214Y-118988242D01*
X65261219Y-118988241D01*
X65391998Y-118928515D01*
X65438633Y-118890935D01*
X65438637Y-118890931D01*
X65826008Y-118503561D01*
X65299447Y-117977000D01*
X65309073Y-117977000D01*
X65401446Y-117961586D01*
X65511514Y-117902019D01*
X65596278Y-117809941D01*
X65646551Y-117695330D01*
X65652545Y-117622992D01*
X66179561Y-118150008D01*
X66566931Y-117762637D01*
X66566935Y-117762633D01*
X66604515Y-117715998D01*
X66664241Y-117585219D01*
X66664242Y-117585214D01*
X66684702Y-117442901D01*
X66664242Y-117300587D01*
X66664241Y-117300582D01*
X66640263Y-117248079D01*
X68644455Y-117248079D01*
X68664287Y-117474764D01*
X68664289Y-117474775D01*
X68723181Y-117694566D01*
X68723184Y-117694575D01*
X68819354Y-117900810D01*
X68819355Y-117900812D01*
X68949877Y-118087219D01*
X69110781Y-118248123D01*
X69110784Y-118248125D01*
X69297189Y-118378646D01*
X69503427Y-118474817D01*
X69723231Y-118533713D01*
X69885153Y-118547879D01*
X69949921Y-118553546D01*
X69949923Y-118553546D01*
X69949925Y-118553546D01*
X70006596Y-118548587D01*
X70176615Y-118533713D01*
X70396419Y-118474817D01*
X70602657Y-118378646D01*
X70789062Y-118248125D01*
X70949970Y-118087217D01*
X71080491Y-117900812D01*
X71176662Y-117694574D01*
X71235558Y-117474770D01*
X71255391Y-117248078D01*
X71254895Y-117242414D01*
X71243955Y-117117369D01*
X71235558Y-117021386D01*
X71190839Y-116854493D01*
X71176664Y-116801589D01*
X71176661Y-116801580D01*
X71154087Y-116753170D01*
X71080491Y-116595344D01*
X70949970Y-116408939D01*
X70949968Y-116408936D01*
X70789064Y-116248032D01*
X70602657Y-116117510D01*
X70602655Y-116117509D01*
X70396420Y-116021339D01*
X70396411Y-116021336D01*
X70176620Y-115962444D01*
X70176616Y-115962443D01*
X70176615Y-115962443D01*
X70176614Y-115962442D01*
X70176609Y-115962442D01*
X69949925Y-115942610D01*
X69949921Y-115942610D01*
X69723236Y-115962442D01*
X69723225Y-115962444D01*
X69503434Y-116021336D01*
X69503425Y-116021339D01*
X69297190Y-116117509D01*
X69297188Y-116117510D01*
X69110781Y-116248032D01*
X68949877Y-116408936D01*
X68819355Y-116595343D01*
X68819354Y-116595345D01*
X68723184Y-116801580D01*
X68723181Y-116801589D01*
X68664289Y-117021380D01*
X68664287Y-117021391D01*
X68644455Y-117248076D01*
X68644455Y-117248079D01*
X66640263Y-117248079D01*
X66604515Y-117169803D01*
X66566935Y-117123168D01*
X66338660Y-116894893D01*
X65656338Y-117577214D01*
X65656886Y-117570605D01*
X65626163Y-117449281D01*
X65557711Y-117344508D01*
X65458948Y-117267637D01*
X65340576Y-117227000D01*
X65305899Y-117227000D01*
X65333515Y-117193349D01*
X65337584Y-117188861D01*
X65985107Y-116541340D01*
X65756831Y-116313064D01*
X65710195Y-116275483D01*
X65579418Y-116215759D01*
X65570900Y-116213258D01*
X65571601Y-116210870D01*
X65520070Y-116187332D01*
X65491922Y-116152079D01*
X65395874Y-115972386D01*
X65395872Y-115972384D01*
X65395871Y-115972381D01*
X65356897Y-115924891D01*
X65267720Y-115816227D01*
X65111568Y-115688078D01*
X65111561Y-115688073D01*
X64933418Y-115592853D01*
X64735709Y-115532879D01*
X64677270Y-115494581D01*
X64653043Y-115450213D01*
X64651710Y-115445819D01*
X64651710Y-115445817D01*
X64593071Y-115252509D01*
X64593069Y-115252506D01*
X64593069Y-115252504D01*
X64520188Y-115116154D01*
X66126829Y-115116154D01*
X66147309Y-115258609D01*
X66147310Y-115258613D01*
X66207096Y-115389524D01*
X66207097Y-115389525D01*
X66207098Y-115389527D01*
X66244717Y-115436210D01*
X66244720Y-115436213D01*
X66244725Y-115436219D01*
X67152350Y-116343842D01*
X67443790Y-116635282D01*
X67490473Y-116672902D01*
X67490474Y-116672902D01*
X67490476Y-116672904D01*
X67621386Y-116732689D01*
X67621387Y-116732689D01*
X67621389Y-116732690D01*
X67763846Y-116753171D01*
X67906303Y-116732690D01*
X68037219Y-116672902D01*
X68083902Y-116635283D01*
X69282974Y-115436210D01*
X69320594Y-115389527D01*
X69380382Y-115258611D01*
X69400863Y-115116154D01*
X69380382Y-114973697D01*
X69355038Y-114918203D01*
X69320595Y-114842783D01*
X69320594Y-114842782D01*
X69320594Y-114842781D01*
X69282975Y-114796098D01*
X69282970Y-114796093D01*
X69282966Y-114796088D01*
X68083909Y-113597033D01*
X68083902Y-113597026D01*
X68037219Y-113559406D01*
X68037217Y-113559405D01*
X68037215Y-113559403D01*
X67906305Y-113499618D01*
X67906301Y-113499617D01*
X67763846Y-113479137D01*
X67621390Y-113499617D01*
X67621386Y-113499618D01*
X67490475Y-113559404D01*
X67443780Y-113597033D01*
X66244725Y-114796090D01*
X66244719Y-114796097D01*
X66207097Y-114842782D01*
X66207095Y-114842784D01*
X66147310Y-114973694D01*
X66147309Y-114973698D01*
X66126829Y-115116154D01*
X64520188Y-115116154D01*
X64497849Y-115074361D01*
X64497847Y-115074359D01*
X64497846Y-115074356D01*
X64458872Y-115026866D01*
X64369695Y-114918202D01*
X64213543Y-114790053D01*
X64213536Y-114790048D01*
X64035393Y-114694828D01*
X63842079Y-114636187D01*
X63641048Y-114616387D01*
X63440016Y-114636187D01*
X63246702Y-114694828D01*
X63068559Y-114790048D01*
X63068552Y-114790052D01*
X62951528Y-114886092D01*
X62562092Y-115275528D01*
X62466052Y-115392552D01*
X62466048Y-115392559D01*
X62370828Y-115570702D01*
X62312187Y-115764016D01*
X62292388Y-115965048D01*
X56112451Y-115965048D01*
X58026702Y-111859924D01*
X73701060Y-111859924D01*
X73721540Y-112002379D01*
X73721541Y-112002383D01*
X73781327Y-112133294D01*
X73781328Y-112133295D01*
X73781329Y-112133297D01*
X73818948Y-112179980D01*
X73818951Y-112179983D01*
X73818956Y-112179989D01*
X75018005Y-113379036D01*
X75018021Y-113379052D01*
X75064704Y-113416672D01*
X75064705Y-113416672D01*
X75064707Y-113416674D01*
X75195617Y-113476459D01*
X75195618Y-113476459D01*
X75195620Y-113476460D01*
X75338077Y-113496941D01*
X75480534Y-113476460D01*
X75611450Y-113416672D01*
X75658133Y-113379053D01*
X76857205Y-112179980D01*
X76894825Y-112133297D01*
X76954613Y-112002381D01*
X76975094Y-111859924D01*
X76954613Y-111717467D01*
X76894825Y-111586551D01*
X76857206Y-111539868D01*
X76857201Y-111539863D01*
X76857197Y-111539858D01*
X75658140Y-110340803D01*
X75658133Y-110340796D01*
X75611450Y-110303176D01*
X75611448Y-110303175D01*
X75611446Y-110303173D01*
X75480536Y-110243388D01*
X75480532Y-110243387D01*
X75338077Y-110222907D01*
X75195621Y-110243387D01*
X75195617Y-110243388D01*
X75064706Y-110303174D01*
X75018011Y-110340803D01*
X73818956Y-111539860D01*
X73818950Y-111539867D01*
X73781328Y-111586552D01*
X73781326Y-111586554D01*
X73721541Y-111717464D01*
X73721540Y-111717468D01*
X73701060Y-111859924D01*
X58026702Y-111859924D01*
X59020834Y-109728001D01*
X71846532Y-109728001D01*
X71866364Y-109954686D01*
X71866366Y-109954697D01*
X71925258Y-110174488D01*
X71925261Y-110174497D01*
X72021431Y-110380732D01*
X72021432Y-110380734D01*
X72151954Y-110567141D01*
X72312858Y-110728045D01*
X72312861Y-110728047D01*
X72499266Y-110858568D01*
X72705504Y-110954739D01*
X72925308Y-111013635D01*
X73087230Y-111027801D01*
X73151998Y-111033468D01*
X73152000Y-111033468D01*
X73152002Y-111033468D01*
X73208673Y-111028509D01*
X73378692Y-111013635D01*
X73598496Y-110954739D01*
X73804734Y-110858568D01*
X73991139Y-110728047D01*
X74152047Y-110567139D01*
X74282568Y-110380734D01*
X74378739Y-110174496D01*
X74437635Y-109954692D01*
X74457468Y-109728000D01*
X74437635Y-109501308D01*
X74378739Y-109281504D01*
X74282568Y-109075266D01*
X74152047Y-108888861D01*
X74152045Y-108888858D01*
X73991141Y-108727954D01*
X73804734Y-108597432D01*
X73804732Y-108597431D01*
X73598497Y-108501261D01*
X73598488Y-108501258D01*
X73378697Y-108442366D01*
X73378693Y-108442365D01*
X73378692Y-108442365D01*
X73378691Y-108442364D01*
X73378686Y-108442364D01*
X73152002Y-108422532D01*
X73151998Y-108422532D01*
X72925313Y-108442364D01*
X72925302Y-108442366D01*
X72705511Y-108501258D01*
X72705502Y-108501261D01*
X72499267Y-108597431D01*
X72499265Y-108597432D01*
X72312858Y-108727954D01*
X72151954Y-108888858D01*
X72021432Y-109075265D01*
X72021431Y-109075267D01*
X71925261Y-109281502D01*
X71925258Y-109281511D01*
X71866366Y-109501302D01*
X71866364Y-109501313D01*
X71846532Y-109727998D01*
X71846532Y-109728001D01*
X59020834Y-109728001D01*
X61895216Y-103563870D01*
X65401500Y-103563870D01*
X65401501Y-103563876D01*
X65407908Y-103623483D01*
X65458202Y-103758328D01*
X65458206Y-103758335D01*
X65544452Y-103873544D01*
X65544455Y-103873547D01*
X65659664Y-103959793D01*
X65659671Y-103959797D01*
X65794517Y-104010091D01*
X65794516Y-104010091D01*
X65801444Y-104010835D01*
X65854127Y-104016500D01*
X67749872Y-104016499D01*
X67809483Y-104010091D01*
X67944331Y-103959796D01*
X68059546Y-103873546D01*
X68145796Y-103758331D01*
X68174455Y-103681493D01*
X68216326Y-103625559D01*
X68281790Y-103601141D01*
X68350063Y-103615992D01*
X68381866Y-103640843D01*
X68389302Y-103648920D01*
X68390215Y-103649912D01*
X68390222Y-103649918D01*
X68573365Y-103792464D01*
X68573371Y-103792468D01*
X68573374Y-103792470D01*
X68777497Y-103902936D01*
X68891487Y-103942068D01*
X68997015Y-103978297D01*
X68997017Y-103978297D01*
X68997019Y-103978298D01*
X69225951Y-104016500D01*
X69225952Y-104016500D01*
X69458048Y-104016500D01*
X69458049Y-104016500D01*
X69686981Y-103978298D01*
X69906503Y-103902936D01*
X70110626Y-103792470D01*
X70293784Y-103649913D01*
X70450979Y-103479153D01*
X70577924Y-103284849D01*
X70671157Y-103072300D01*
X70675318Y-103055870D01*
X74545500Y-103055870D01*
X74545501Y-103055876D01*
X74551908Y-103115483D01*
X74602202Y-103250328D01*
X74602206Y-103250335D01*
X74688452Y-103365544D01*
X74688455Y-103365547D01*
X74803664Y-103451793D01*
X74803671Y-103451797D01*
X74938517Y-103502091D01*
X74938516Y-103502091D01*
X74945444Y-103502835D01*
X74998127Y-103508500D01*
X76893872Y-103508499D01*
X76953483Y-103502091D01*
X77088331Y-103451796D01*
X77203546Y-103365546D01*
X77289796Y-103250331D01*
X77318455Y-103173493D01*
X77360326Y-103117559D01*
X77425790Y-103093141D01*
X77494063Y-103107992D01*
X77525866Y-103132843D01*
X77533302Y-103140920D01*
X77534215Y-103141912D01*
X77534222Y-103141918D01*
X77717365Y-103284464D01*
X77717371Y-103284468D01*
X77717374Y-103284470D01*
X77921497Y-103394936D01*
X78030731Y-103432436D01*
X78141015Y-103470297D01*
X78141017Y-103470297D01*
X78141019Y-103470298D01*
X78369951Y-103508500D01*
X78369952Y-103508500D01*
X78602048Y-103508500D01*
X78602049Y-103508500D01*
X78830981Y-103470298D01*
X79050503Y-103394936D01*
X79254626Y-103284470D01*
X79437784Y-103141913D01*
X79594979Y-102971153D01*
X79721924Y-102776849D01*
X79815157Y-102564300D01*
X79851479Y-102420870D01*
X84070500Y-102420870D01*
X84070501Y-102420876D01*
X84076908Y-102480483D01*
X84127202Y-102615328D01*
X84127206Y-102615335D01*
X84213452Y-102730544D01*
X84213455Y-102730547D01*
X84328664Y-102816793D01*
X84328671Y-102816797D01*
X84463517Y-102867091D01*
X84463516Y-102867091D01*
X84470444Y-102867835D01*
X84523127Y-102873500D01*
X86418872Y-102873499D01*
X86478483Y-102867091D01*
X86613331Y-102816796D01*
X86728546Y-102730546D01*
X86814796Y-102615331D01*
X86814798Y-102615326D01*
X86843455Y-102538493D01*
X86885326Y-102482559D01*
X86950790Y-102458141D01*
X87019063Y-102472992D01*
X87050866Y-102497843D01*
X87058302Y-102505920D01*
X87059215Y-102506912D01*
X87059222Y-102506918D01*
X87242365Y-102649464D01*
X87242371Y-102649468D01*
X87242374Y-102649470D01*
X87446497Y-102759936D01*
X87560487Y-102799068D01*
X87666015Y-102835297D01*
X87666017Y-102835297D01*
X87666019Y-102835298D01*
X87894951Y-102873500D01*
X87894952Y-102873500D01*
X88127048Y-102873500D01*
X88127049Y-102873500D01*
X88355981Y-102835298D01*
X88575503Y-102759936D01*
X88779626Y-102649470D01*
X88822629Y-102616000D01*
X88889053Y-102564300D01*
X88962784Y-102506913D01*
X89119979Y-102336153D01*
X89246924Y-102141849D01*
X89340157Y-101929300D01*
X89397134Y-101704305D01*
X89401493Y-101651699D01*
X89416300Y-101473006D01*
X89416300Y-101472993D01*
X89410655Y-101404870D01*
X94103500Y-101404870D01*
X94103501Y-101404876D01*
X94109908Y-101464483D01*
X94160202Y-101599328D01*
X94160206Y-101599335D01*
X94246452Y-101714544D01*
X94246455Y-101714547D01*
X94361664Y-101800793D01*
X94361671Y-101800797D01*
X94496517Y-101851091D01*
X94496516Y-101851091D01*
X94503444Y-101851835D01*
X94556127Y-101857500D01*
X96451872Y-101857499D01*
X96511483Y-101851091D01*
X96646331Y-101800796D01*
X96761546Y-101714546D01*
X96847796Y-101599331D01*
X96850844Y-101591158D01*
X96876455Y-101522493D01*
X96918326Y-101466559D01*
X96983790Y-101442141D01*
X97052063Y-101456992D01*
X97083866Y-101481843D01*
X97091302Y-101489920D01*
X97092215Y-101490912D01*
X97092222Y-101490918D01*
X97275365Y-101633464D01*
X97275371Y-101633468D01*
X97275374Y-101633470D01*
X97479497Y-101743936D01*
X97593487Y-101783068D01*
X97699015Y-101819297D01*
X97699017Y-101819297D01*
X97699019Y-101819298D01*
X97927951Y-101857500D01*
X97927952Y-101857500D01*
X98160048Y-101857500D01*
X98160049Y-101857500D01*
X98388981Y-101819298D01*
X98608503Y-101743936D01*
X98812626Y-101633470D01*
X98995784Y-101490913D01*
X99152979Y-101320153D01*
X99279924Y-101125849D01*
X99373157Y-100913300D01*
X99430134Y-100688305D01*
X99432662Y-100657796D01*
X99449300Y-100457006D01*
X99449300Y-100456993D01*
X99433132Y-100261870D01*
X103750500Y-100261870D01*
X103750501Y-100261876D01*
X103756908Y-100321483D01*
X103807202Y-100456328D01*
X103807206Y-100456335D01*
X103893452Y-100571544D01*
X103893455Y-100571547D01*
X104008664Y-100657793D01*
X104008671Y-100657797D01*
X104143517Y-100708091D01*
X104143516Y-100708091D01*
X104150444Y-100708835D01*
X104203127Y-100714500D01*
X106098872Y-100714499D01*
X106158483Y-100708091D01*
X106293331Y-100657796D01*
X106408546Y-100571546D01*
X106494796Y-100456331D01*
X106497844Y-100448158D01*
X106523455Y-100379493D01*
X106565326Y-100323559D01*
X106630790Y-100299141D01*
X106699063Y-100313992D01*
X106730866Y-100338843D01*
X106738302Y-100346920D01*
X106739215Y-100347912D01*
X106739222Y-100347918D01*
X106922365Y-100490464D01*
X106922371Y-100490468D01*
X106922374Y-100490470D01*
X107126497Y-100600936D01*
X107240487Y-100640068D01*
X107346015Y-100676297D01*
X107346017Y-100676297D01*
X107346019Y-100676298D01*
X107574951Y-100714500D01*
X107574952Y-100714500D01*
X107807048Y-100714500D01*
X107807049Y-100714500D01*
X108035981Y-100676298D01*
X108255503Y-100600936D01*
X108459626Y-100490470D01*
X108502629Y-100457000D01*
X108566217Y-100407507D01*
X108642784Y-100347913D01*
X108799979Y-100177153D01*
X108926924Y-99982849D01*
X109020157Y-99770300D01*
X109077134Y-99545305D01*
X109080133Y-99509116D01*
X109096300Y-99314006D01*
X109096300Y-99313993D01*
X109077135Y-99082702D01*
X109077133Y-99082691D01*
X109054134Y-98991870D01*
X112894500Y-98991870D01*
X112894501Y-98991876D01*
X112900908Y-99051483D01*
X112951202Y-99186328D01*
X112951206Y-99186335D01*
X113037452Y-99301544D01*
X113037455Y-99301547D01*
X113152664Y-99387793D01*
X113152671Y-99387797D01*
X113287517Y-99438091D01*
X113287516Y-99438091D01*
X113294444Y-99438835D01*
X113347127Y-99444500D01*
X115242872Y-99444499D01*
X115302483Y-99438091D01*
X115437331Y-99387796D01*
X115552546Y-99301546D01*
X115638796Y-99186331D01*
X115666071Y-99113204D01*
X115667455Y-99109493D01*
X115709326Y-99053559D01*
X115774790Y-99029141D01*
X115843063Y-99043992D01*
X115874866Y-99068843D01*
X115882302Y-99076920D01*
X115883215Y-99077912D01*
X115883222Y-99077918D01*
X116066365Y-99220464D01*
X116066371Y-99220468D01*
X116066374Y-99220470D01*
X116270497Y-99330936D01*
X116384487Y-99370068D01*
X116490015Y-99406297D01*
X116490017Y-99406297D01*
X116490019Y-99406298D01*
X116718951Y-99444500D01*
X116718952Y-99444500D01*
X116951048Y-99444500D01*
X116951049Y-99444500D01*
X117179981Y-99406298D01*
X117399503Y-99330936D01*
X117603626Y-99220470D01*
X117630628Y-99199454D01*
X117741442Y-99113204D01*
X117786784Y-99077913D01*
X117943979Y-98907153D01*
X118070924Y-98712849D01*
X118164157Y-98500300D01*
X118221134Y-98275305D01*
X118221135Y-98275297D01*
X118240300Y-98044006D01*
X118240300Y-98043993D01*
X118221135Y-97812702D01*
X118221133Y-97812691D01*
X118164157Y-97587699D01*
X118070924Y-97375151D01*
X117943983Y-97180852D01*
X117943980Y-97180849D01*
X117943979Y-97180847D01*
X117786784Y-97010087D01*
X117786779Y-97010083D01*
X117786777Y-97010081D01*
X117603634Y-96867535D01*
X117603628Y-96867531D01*
X117399504Y-96757064D01*
X117399495Y-96757061D01*
X117179984Y-96681702D01*
X116989450Y-96649908D01*
X116951049Y-96643500D01*
X116718951Y-96643500D01*
X116680550Y-96649908D01*
X116490015Y-96681702D01*
X116270504Y-96757061D01*
X116270495Y-96757064D01*
X116066371Y-96867531D01*
X116066365Y-96867535D01*
X115883222Y-97010081D01*
X115883218Y-97010085D01*
X115874866Y-97019158D01*
X115814979Y-97055148D01*
X115745141Y-97053047D01*
X115687525Y-97013522D01*
X115667455Y-96978507D01*
X115638797Y-96901671D01*
X115638793Y-96901664D01*
X115552547Y-96786455D01*
X115552544Y-96786452D01*
X115437335Y-96700206D01*
X115437328Y-96700202D01*
X115302482Y-96649908D01*
X115302483Y-96649908D01*
X115242883Y-96643501D01*
X115242881Y-96643500D01*
X115242873Y-96643500D01*
X115242864Y-96643500D01*
X113347129Y-96643500D01*
X113347123Y-96643501D01*
X113287516Y-96649908D01*
X113152671Y-96700202D01*
X113152664Y-96700206D01*
X113037455Y-96786452D01*
X113037452Y-96786455D01*
X112951206Y-96901664D01*
X112951202Y-96901671D01*
X112900908Y-97036517D01*
X112894501Y-97096116D01*
X112894500Y-97096135D01*
X112894500Y-98991870D01*
X109054134Y-98991870D01*
X109020157Y-98857699D01*
X108926924Y-98645151D01*
X108799983Y-98450852D01*
X108799980Y-98450849D01*
X108799979Y-98450847D01*
X108642784Y-98280087D01*
X108642779Y-98280083D01*
X108642777Y-98280081D01*
X108459634Y-98137535D01*
X108459628Y-98137531D01*
X108255504Y-98027064D01*
X108255495Y-98027061D01*
X108035984Y-97951702D01*
X107845450Y-97919908D01*
X107807049Y-97913500D01*
X107574951Y-97913500D01*
X107536550Y-97919908D01*
X107346015Y-97951702D01*
X107126504Y-98027061D01*
X107126495Y-98027064D01*
X106922371Y-98137531D01*
X106922365Y-98137535D01*
X106739222Y-98280081D01*
X106739218Y-98280085D01*
X106730866Y-98289158D01*
X106670979Y-98325148D01*
X106601141Y-98323047D01*
X106543525Y-98283522D01*
X106523455Y-98248507D01*
X106494797Y-98171671D01*
X106494793Y-98171664D01*
X106408547Y-98056455D01*
X106408544Y-98056452D01*
X106293335Y-97970206D01*
X106293328Y-97970202D01*
X106158482Y-97919908D01*
X106158483Y-97919908D01*
X106098883Y-97913501D01*
X106098881Y-97913500D01*
X106098873Y-97913500D01*
X106098864Y-97913500D01*
X104203129Y-97913500D01*
X104203123Y-97913501D01*
X104143516Y-97919908D01*
X104008671Y-97970202D01*
X104008664Y-97970206D01*
X103893455Y-98056452D01*
X103893452Y-98056455D01*
X103807206Y-98171664D01*
X103807202Y-98171671D01*
X103756908Y-98306517D01*
X103750501Y-98366116D01*
X103750500Y-98366135D01*
X103750500Y-100261870D01*
X99433132Y-100261870D01*
X99430135Y-100225702D01*
X99430133Y-100225691D01*
X99373157Y-100000699D01*
X99279924Y-99788151D01*
X99152983Y-99593852D01*
X99152980Y-99593849D01*
X99152979Y-99593847D01*
X98995784Y-99423087D01*
X98995779Y-99423083D01*
X98995777Y-99423081D01*
X98812634Y-99280535D01*
X98812628Y-99280531D01*
X98608504Y-99170064D01*
X98608495Y-99170061D01*
X98388984Y-99094702D01*
X98198450Y-99062908D01*
X98160049Y-99056500D01*
X97927951Y-99056500D01*
X97889550Y-99062908D01*
X97699015Y-99094702D01*
X97479504Y-99170061D01*
X97479495Y-99170064D01*
X97275371Y-99280531D01*
X97275365Y-99280535D01*
X97092222Y-99423081D01*
X97092218Y-99423085D01*
X97083866Y-99432158D01*
X97023979Y-99468148D01*
X96954141Y-99466047D01*
X96896525Y-99426522D01*
X96876455Y-99391507D01*
X96847797Y-99314671D01*
X96847793Y-99314664D01*
X96761547Y-99199455D01*
X96761544Y-99199452D01*
X96646335Y-99113206D01*
X96646328Y-99113202D01*
X96511482Y-99062908D01*
X96511483Y-99062908D01*
X96451883Y-99056501D01*
X96451881Y-99056500D01*
X96451873Y-99056500D01*
X96451864Y-99056500D01*
X94556129Y-99056500D01*
X94556123Y-99056501D01*
X94496516Y-99062908D01*
X94361671Y-99113202D01*
X94361664Y-99113206D01*
X94246455Y-99199452D01*
X94246452Y-99199455D01*
X94160206Y-99314664D01*
X94160202Y-99314671D01*
X94109908Y-99449517D01*
X94103501Y-99509116D01*
X94103500Y-99509135D01*
X94103500Y-101404870D01*
X89410655Y-101404870D01*
X89397135Y-101241702D01*
X89397133Y-101241691D01*
X89340157Y-101016699D01*
X89246924Y-100804151D01*
X89119983Y-100609852D01*
X89119980Y-100609849D01*
X89119979Y-100609847D01*
X88962784Y-100439087D01*
X88962779Y-100439083D01*
X88962777Y-100439081D01*
X88779634Y-100296535D01*
X88779628Y-100296531D01*
X88575504Y-100186064D01*
X88575495Y-100186061D01*
X88355984Y-100110702D01*
X88165450Y-100078908D01*
X88127049Y-100072500D01*
X87894951Y-100072500D01*
X87856550Y-100078908D01*
X87666015Y-100110702D01*
X87446504Y-100186061D01*
X87446495Y-100186064D01*
X87242371Y-100296531D01*
X87242365Y-100296535D01*
X87059222Y-100439081D01*
X87059218Y-100439085D01*
X87050866Y-100448158D01*
X86990979Y-100484148D01*
X86921141Y-100482047D01*
X86863525Y-100442522D01*
X86843455Y-100407507D01*
X86814797Y-100330671D01*
X86814793Y-100330664D01*
X86728547Y-100215455D01*
X86728544Y-100215452D01*
X86613335Y-100129206D01*
X86613328Y-100129202D01*
X86478482Y-100078908D01*
X86478483Y-100078908D01*
X86418883Y-100072501D01*
X86418881Y-100072500D01*
X86418873Y-100072500D01*
X86418864Y-100072500D01*
X84523129Y-100072500D01*
X84523123Y-100072501D01*
X84463516Y-100078908D01*
X84328671Y-100129202D01*
X84328664Y-100129206D01*
X84213455Y-100215452D01*
X84213452Y-100215455D01*
X84127206Y-100330664D01*
X84127202Y-100330671D01*
X84076908Y-100465517D01*
X84070501Y-100525116D01*
X84070500Y-100525135D01*
X84070500Y-102420870D01*
X79851479Y-102420870D01*
X79872134Y-102339305D01*
X79872135Y-102339297D01*
X79891300Y-102108006D01*
X79891300Y-102107993D01*
X79872135Y-101876702D01*
X79872133Y-101876691D01*
X79815157Y-101651699D01*
X79721924Y-101439151D01*
X79594983Y-101244852D01*
X79594980Y-101244849D01*
X79594979Y-101244847D01*
X79437784Y-101074087D01*
X79437779Y-101074083D01*
X79437777Y-101074081D01*
X79254634Y-100931535D01*
X79254628Y-100931531D01*
X79050504Y-100821064D01*
X79050495Y-100821061D01*
X78830984Y-100745702D01*
X78659282Y-100717050D01*
X78602049Y-100707500D01*
X78369951Y-100707500D01*
X78331550Y-100713908D01*
X78141015Y-100745702D01*
X77921504Y-100821061D01*
X77921495Y-100821064D01*
X77717371Y-100931531D01*
X77717365Y-100931535D01*
X77534222Y-101074081D01*
X77534218Y-101074085D01*
X77525866Y-101083158D01*
X77465979Y-101119148D01*
X77396141Y-101117047D01*
X77338525Y-101077522D01*
X77318455Y-101042507D01*
X77289797Y-100965671D01*
X77289793Y-100965664D01*
X77203547Y-100850455D01*
X77203544Y-100850452D01*
X77088335Y-100764206D01*
X77088328Y-100764202D01*
X76953482Y-100713908D01*
X76953483Y-100713908D01*
X76893883Y-100707501D01*
X76893881Y-100707500D01*
X76893873Y-100707500D01*
X76893864Y-100707500D01*
X74998129Y-100707500D01*
X74998123Y-100707501D01*
X74938516Y-100713908D01*
X74803671Y-100764202D01*
X74803664Y-100764206D01*
X74688455Y-100850452D01*
X74688452Y-100850455D01*
X74602206Y-100965664D01*
X74602202Y-100965671D01*
X74551908Y-101100517D01*
X74545501Y-101160116D01*
X74545500Y-101160135D01*
X74545500Y-103055870D01*
X70675318Y-103055870D01*
X70728134Y-102847305D01*
X70730662Y-102816796D01*
X70747300Y-102616006D01*
X70747300Y-102615993D01*
X70728135Y-102384702D01*
X70728133Y-102384691D01*
X70671157Y-102159699D01*
X70577924Y-101947151D01*
X70450983Y-101752852D01*
X70450980Y-101752849D01*
X70450979Y-101752847D01*
X70293784Y-101582087D01*
X70293779Y-101582083D01*
X70293777Y-101582081D01*
X70110634Y-101439535D01*
X70110628Y-101439531D01*
X69906504Y-101329064D01*
X69906495Y-101329061D01*
X69686984Y-101253702D01*
X69496450Y-101221908D01*
X69458049Y-101215500D01*
X69225951Y-101215500D01*
X69187550Y-101221908D01*
X68997015Y-101253702D01*
X68777504Y-101329061D01*
X68777495Y-101329064D01*
X68573371Y-101439531D01*
X68573365Y-101439535D01*
X68390222Y-101582081D01*
X68390218Y-101582085D01*
X68381866Y-101591158D01*
X68321979Y-101627148D01*
X68252141Y-101625047D01*
X68194525Y-101585522D01*
X68174455Y-101550507D01*
X68145797Y-101473671D01*
X68145793Y-101473664D01*
X68059547Y-101358455D01*
X68059544Y-101358452D01*
X67944335Y-101272206D01*
X67944328Y-101272202D01*
X67809482Y-101221908D01*
X67809483Y-101221908D01*
X67749883Y-101215501D01*
X67749881Y-101215500D01*
X67749873Y-101215500D01*
X67749864Y-101215500D01*
X65854129Y-101215500D01*
X65854123Y-101215501D01*
X65794516Y-101221908D01*
X65659671Y-101272202D01*
X65659664Y-101272206D01*
X65544455Y-101358452D01*
X65544452Y-101358455D01*
X65458206Y-101473664D01*
X65458202Y-101473671D01*
X65407908Y-101608517D01*
X65401501Y-101668116D01*
X65401500Y-101668135D01*
X65401500Y-103563870D01*
X61895216Y-103563870D01*
X69179408Y-87942870D01*
X108576500Y-87942870D01*
X108576501Y-87942876D01*
X108582908Y-88002483D01*
X108633202Y-88137328D01*
X108633206Y-88137335D01*
X108719452Y-88252544D01*
X108719455Y-88252547D01*
X108834664Y-88338793D01*
X108834671Y-88338797D01*
X108969517Y-88389091D01*
X108969516Y-88389091D01*
X108976444Y-88389835D01*
X109029127Y-88395500D01*
X110924872Y-88395499D01*
X110984483Y-88389091D01*
X111119331Y-88338796D01*
X111234546Y-88252546D01*
X111320796Y-88137331D01*
X111349455Y-88060493D01*
X111391326Y-88004559D01*
X111456790Y-87980141D01*
X111525063Y-87994992D01*
X111556866Y-88019843D01*
X111564302Y-88027920D01*
X111565215Y-88028912D01*
X111565222Y-88028918D01*
X111748365Y-88171464D01*
X111748371Y-88171468D01*
X111748374Y-88171470D01*
X111952497Y-88281936D01*
X112066487Y-88321068D01*
X112172015Y-88357297D01*
X112172017Y-88357297D01*
X112172019Y-88357298D01*
X112400951Y-88395500D01*
X112400952Y-88395500D01*
X112633048Y-88395500D01*
X112633049Y-88395500D01*
X112861981Y-88357298D01*
X113081503Y-88281936D01*
X113285626Y-88171470D01*
X113468784Y-88028913D01*
X113625979Y-87858153D01*
X113752924Y-87663849D01*
X113846157Y-87451300D01*
X113903134Y-87226305D01*
X113922300Y-86995000D01*
X113922300Y-86994993D01*
X113903135Y-86763702D01*
X113903133Y-86763691D01*
X113846157Y-86538699D01*
X113752924Y-86326151D01*
X113625983Y-86131852D01*
X113625980Y-86131849D01*
X113625979Y-86131847D01*
X113468784Y-85961087D01*
X113468779Y-85961083D01*
X113468777Y-85961081D01*
X113285634Y-85818535D01*
X113285628Y-85818531D01*
X113081504Y-85708064D01*
X113081495Y-85708061D01*
X112861984Y-85632702D01*
X112671450Y-85600908D01*
X112633049Y-85594500D01*
X112400951Y-85594500D01*
X112362550Y-85600908D01*
X112172015Y-85632702D01*
X111952504Y-85708061D01*
X111952495Y-85708064D01*
X111748371Y-85818531D01*
X111748365Y-85818535D01*
X111565222Y-85961081D01*
X111565218Y-85961085D01*
X111565216Y-85961086D01*
X111565216Y-85961087D01*
X111560193Y-85966544D01*
X111556866Y-85970158D01*
X111496979Y-86006148D01*
X111427141Y-86004047D01*
X111369525Y-85964522D01*
X111349455Y-85929507D01*
X111320797Y-85852671D01*
X111320793Y-85852664D01*
X111234547Y-85737455D01*
X111234544Y-85737452D01*
X111119335Y-85651206D01*
X111119328Y-85651202D01*
X110984482Y-85600908D01*
X110984483Y-85600908D01*
X110924883Y-85594501D01*
X110924881Y-85594500D01*
X110924873Y-85594500D01*
X110924864Y-85594500D01*
X109029129Y-85594500D01*
X109029123Y-85594501D01*
X108969516Y-85600908D01*
X108834671Y-85651202D01*
X108834664Y-85651206D01*
X108719455Y-85737452D01*
X108719452Y-85737455D01*
X108633206Y-85852664D01*
X108633202Y-85852671D01*
X108582908Y-85987517D01*
X108576501Y-86047116D01*
X108576500Y-86047135D01*
X108576500Y-87942870D01*
X69179408Y-87942870D01*
X70245387Y-85656870D01*
X99940500Y-85656870D01*
X99940501Y-85656876D01*
X99946908Y-85716483D01*
X99997202Y-85851328D01*
X99997206Y-85851335D01*
X100083452Y-85966544D01*
X100083455Y-85966547D01*
X100198664Y-86052793D01*
X100198671Y-86052797D01*
X100333517Y-86103091D01*
X100333516Y-86103091D01*
X100340444Y-86103835D01*
X100393127Y-86109500D01*
X102288872Y-86109499D01*
X102348483Y-86103091D01*
X102483331Y-86052796D01*
X102598546Y-85966546D01*
X102684796Y-85851331D01*
X102713455Y-85774493D01*
X102755326Y-85718559D01*
X102820790Y-85694141D01*
X102889063Y-85708992D01*
X102920866Y-85733843D01*
X102924189Y-85737452D01*
X102929215Y-85742912D01*
X102929222Y-85742918D01*
X103112365Y-85885464D01*
X103112371Y-85885468D01*
X103112374Y-85885470D01*
X103316497Y-85995936D01*
X103340124Y-86004047D01*
X103536015Y-86071297D01*
X103536017Y-86071297D01*
X103536019Y-86071298D01*
X103764951Y-86109500D01*
X103764952Y-86109500D01*
X103997048Y-86109500D01*
X103997049Y-86109500D01*
X104225981Y-86071298D01*
X104445503Y-85995936D01*
X104649626Y-85885470D01*
X104832784Y-85742913D01*
X104989979Y-85572153D01*
X105116924Y-85377849D01*
X105210157Y-85165300D01*
X105267134Y-84940305D01*
X105286300Y-84709000D01*
X105286300Y-84708993D01*
X105267135Y-84477702D01*
X105267133Y-84477691D01*
X105210157Y-84252699D01*
X105116924Y-84040151D01*
X104989983Y-83845852D01*
X104989980Y-83845849D01*
X104989979Y-83845847D01*
X104832784Y-83675087D01*
X104832779Y-83675083D01*
X104832777Y-83675081D01*
X104649634Y-83532535D01*
X104649628Y-83532531D01*
X104445504Y-83422064D01*
X104445495Y-83422061D01*
X104225984Y-83346702D01*
X104035450Y-83314908D01*
X103997049Y-83308500D01*
X103764951Y-83308500D01*
X103726550Y-83314908D01*
X103536015Y-83346702D01*
X103316504Y-83422061D01*
X103316495Y-83422064D01*
X103112371Y-83532531D01*
X103112365Y-83532535D01*
X102929222Y-83675081D01*
X102929218Y-83675085D01*
X102920866Y-83684158D01*
X102860979Y-83720148D01*
X102791141Y-83718047D01*
X102733525Y-83678522D01*
X102713455Y-83643507D01*
X102684797Y-83566671D01*
X102684793Y-83566664D01*
X102598547Y-83451455D01*
X102598544Y-83451452D01*
X102483335Y-83365206D01*
X102483328Y-83365202D01*
X102348482Y-83314908D01*
X102348483Y-83314908D01*
X102288883Y-83308501D01*
X102288881Y-83308500D01*
X102288873Y-83308500D01*
X102288864Y-83308500D01*
X100393129Y-83308500D01*
X100393123Y-83308501D01*
X100333516Y-83314908D01*
X100198671Y-83365202D01*
X100198664Y-83365206D01*
X100083455Y-83451452D01*
X100083452Y-83451455D01*
X99997206Y-83566664D01*
X99997202Y-83566671D01*
X99946908Y-83701517D01*
X99940501Y-83761116D01*
X99940500Y-83761135D01*
X99940500Y-85656870D01*
X70245387Y-85656870D01*
X71489030Y-82989870D01*
X91563500Y-82989870D01*
X91563501Y-82989876D01*
X91569908Y-83049483D01*
X91620202Y-83184328D01*
X91620206Y-83184335D01*
X91706452Y-83299544D01*
X91706455Y-83299547D01*
X91821664Y-83385793D01*
X91821671Y-83385797D01*
X91956517Y-83436091D01*
X91956516Y-83436091D01*
X91963444Y-83436835D01*
X92016127Y-83442500D01*
X93911872Y-83442499D01*
X93971483Y-83436091D01*
X94106331Y-83385796D01*
X94221546Y-83299546D01*
X94307796Y-83184331D01*
X94336455Y-83107493D01*
X94378326Y-83051559D01*
X94443790Y-83027141D01*
X94512063Y-83041992D01*
X94543866Y-83066843D01*
X94551302Y-83074920D01*
X94552215Y-83075912D01*
X94552222Y-83075918D01*
X94735365Y-83218464D01*
X94735371Y-83218468D01*
X94735374Y-83218470D01*
X94939497Y-83328936D01*
X94991248Y-83346702D01*
X95159015Y-83404297D01*
X95159017Y-83404297D01*
X95159019Y-83404298D01*
X95387951Y-83442500D01*
X95387952Y-83442500D01*
X95620048Y-83442500D01*
X95620049Y-83442500D01*
X95848981Y-83404298D01*
X96068503Y-83328936D01*
X96272626Y-83218470D01*
X96455784Y-83075913D01*
X96612979Y-82905153D01*
X96739924Y-82710849D01*
X96833157Y-82498300D01*
X96890134Y-82273305D01*
X96909300Y-82042000D01*
X96909300Y-82041993D01*
X96890135Y-81810702D01*
X96890133Y-81810691D01*
X96833157Y-81585699D01*
X96739924Y-81373151D01*
X96612983Y-81178852D01*
X96612980Y-81178849D01*
X96612979Y-81178847D01*
X96455784Y-81008087D01*
X96455779Y-81008083D01*
X96455777Y-81008081D01*
X96272634Y-80865535D01*
X96272628Y-80865531D01*
X96068504Y-80755064D01*
X96068495Y-80755061D01*
X95848984Y-80679702D01*
X95677282Y-80651050D01*
X95620049Y-80641500D01*
X95387951Y-80641500D01*
X95349550Y-80647908D01*
X95159015Y-80679702D01*
X94939504Y-80755061D01*
X94939495Y-80755064D01*
X94735371Y-80865531D01*
X94735365Y-80865535D01*
X94552222Y-81008081D01*
X94552218Y-81008085D01*
X94543866Y-81017158D01*
X94483979Y-81053148D01*
X94414141Y-81051047D01*
X94356525Y-81011522D01*
X94336455Y-80976507D01*
X94307797Y-80899671D01*
X94307793Y-80899664D01*
X94221547Y-80784455D01*
X94221544Y-80784452D01*
X94106335Y-80698206D01*
X94106328Y-80698202D01*
X93971482Y-80647908D01*
X93971483Y-80647908D01*
X93911883Y-80641501D01*
X93911881Y-80641500D01*
X93911873Y-80641500D01*
X93911864Y-80641500D01*
X92016129Y-80641500D01*
X92016123Y-80641501D01*
X91956516Y-80647908D01*
X91821671Y-80698202D01*
X91821664Y-80698206D01*
X91706455Y-80784452D01*
X91706452Y-80784455D01*
X91620206Y-80899664D01*
X91620202Y-80899671D01*
X91569908Y-81034517D01*
X91563501Y-81094116D01*
X91563500Y-81094135D01*
X91563500Y-82989870D01*
X71489030Y-82989870D01*
X72791894Y-80195870D01*
X83430500Y-80195870D01*
X83430501Y-80195876D01*
X83436908Y-80255483D01*
X83487202Y-80390328D01*
X83487206Y-80390335D01*
X83573452Y-80505544D01*
X83573455Y-80505547D01*
X83688664Y-80591793D01*
X83688671Y-80591797D01*
X83823517Y-80642091D01*
X83823516Y-80642091D01*
X83830444Y-80642835D01*
X83883127Y-80648500D01*
X85778872Y-80648499D01*
X85838483Y-80642091D01*
X85973331Y-80591796D01*
X86088546Y-80505546D01*
X86174796Y-80390331D01*
X86203455Y-80313493D01*
X86245326Y-80257559D01*
X86310790Y-80233141D01*
X86379063Y-80247992D01*
X86410866Y-80272843D01*
X86418302Y-80280920D01*
X86419215Y-80281912D01*
X86419222Y-80281918D01*
X86602365Y-80424464D01*
X86602371Y-80424468D01*
X86602374Y-80424470D01*
X86806497Y-80534936D01*
X86920487Y-80574068D01*
X87026015Y-80610297D01*
X87026017Y-80610297D01*
X87026019Y-80610298D01*
X87254951Y-80648500D01*
X87254952Y-80648500D01*
X87487048Y-80648500D01*
X87487049Y-80648500D01*
X87715981Y-80610298D01*
X87935503Y-80534936D01*
X88139626Y-80424470D01*
X88322784Y-80281913D01*
X88479979Y-80111153D01*
X88606924Y-79916849D01*
X88700157Y-79704300D01*
X88757134Y-79479305D01*
X88776300Y-79248000D01*
X88776300Y-79247993D01*
X88757135Y-79016702D01*
X88757133Y-79016691D01*
X88700157Y-78791699D01*
X88606924Y-78579151D01*
X88479983Y-78384852D01*
X88479980Y-78384849D01*
X88479979Y-78384847D01*
X88322784Y-78214087D01*
X88322779Y-78214083D01*
X88322777Y-78214081D01*
X88139634Y-78071535D01*
X88139628Y-78071531D01*
X87935504Y-77961064D01*
X87935495Y-77961061D01*
X87715984Y-77885702D01*
X87525450Y-77853908D01*
X87487049Y-77847500D01*
X87254951Y-77847500D01*
X87216550Y-77853908D01*
X87026015Y-77885702D01*
X86806504Y-77961061D01*
X86806495Y-77961064D01*
X86602371Y-78071531D01*
X86602365Y-78071535D01*
X86419222Y-78214081D01*
X86419218Y-78214085D01*
X86410866Y-78223158D01*
X86350979Y-78259148D01*
X86281141Y-78257047D01*
X86223525Y-78217522D01*
X86203455Y-78182507D01*
X86174797Y-78105671D01*
X86174793Y-78105664D01*
X86088547Y-77990455D01*
X86088544Y-77990452D01*
X85973335Y-77904206D01*
X85973328Y-77904202D01*
X85838482Y-77853908D01*
X85838483Y-77853908D01*
X85778883Y-77847501D01*
X85778881Y-77847500D01*
X85778873Y-77847500D01*
X85778864Y-77847500D01*
X83883129Y-77847500D01*
X83883123Y-77847501D01*
X83823516Y-77853908D01*
X83688671Y-77904202D01*
X83688664Y-77904206D01*
X83573455Y-77990452D01*
X83573452Y-77990455D01*
X83487206Y-78105664D01*
X83487202Y-78105671D01*
X83436908Y-78240517D01*
X83430501Y-78300116D01*
X83430500Y-78300135D01*
X83430500Y-80195870D01*
X72791894Y-80195870D01*
X74153979Y-77274870D01*
X76064500Y-77274870D01*
X76064501Y-77274876D01*
X76070908Y-77334483D01*
X76121202Y-77469328D01*
X76121206Y-77469335D01*
X76207452Y-77584544D01*
X76207455Y-77584547D01*
X76322664Y-77670793D01*
X76322671Y-77670797D01*
X76457517Y-77721091D01*
X76457516Y-77721091D01*
X76464444Y-77721835D01*
X76517127Y-77727500D01*
X78412872Y-77727499D01*
X78472483Y-77721091D01*
X78607331Y-77670796D01*
X78722546Y-77584546D01*
X78808796Y-77469331D01*
X78837455Y-77392493D01*
X78879326Y-77336559D01*
X78944790Y-77312141D01*
X79013063Y-77326992D01*
X79044866Y-77351843D01*
X79052302Y-77359920D01*
X79053215Y-77360912D01*
X79053222Y-77360918D01*
X79236365Y-77503464D01*
X79236371Y-77503468D01*
X79236374Y-77503470D01*
X79440497Y-77613936D01*
X79554487Y-77653068D01*
X79660015Y-77689297D01*
X79660017Y-77689297D01*
X79660019Y-77689298D01*
X79888951Y-77727500D01*
X79888952Y-77727500D01*
X80121048Y-77727500D01*
X80121049Y-77727500D01*
X80349981Y-77689298D01*
X80569503Y-77613936D01*
X80773626Y-77503470D01*
X80956784Y-77360913D01*
X81113979Y-77190153D01*
X81240924Y-76995849D01*
X81334157Y-76783300D01*
X81391134Y-76558305D01*
X81410300Y-76327000D01*
X81410300Y-76326993D01*
X81391135Y-76095702D01*
X81391133Y-76095691D01*
X81334157Y-75870699D01*
X81240924Y-75658151D01*
X81113983Y-75463852D01*
X81113980Y-75463849D01*
X81113979Y-75463847D01*
X80956784Y-75293087D01*
X80956779Y-75293083D01*
X80956777Y-75293081D01*
X80773634Y-75150535D01*
X80773628Y-75150531D01*
X80569504Y-75040064D01*
X80569495Y-75040061D01*
X80349984Y-74964702D01*
X80159450Y-74932908D01*
X80121049Y-74926500D01*
X79888951Y-74926500D01*
X79850550Y-74932908D01*
X79660015Y-74964702D01*
X79440504Y-75040061D01*
X79440495Y-75040064D01*
X79236371Y-75150531D01*
X79236365Y-75150535D01*
X79053222Y-75293081D01*
X79053218Y-75293085D01*
X79044866Y-75302158D01*
X78984979Y-75338148D01*
X78915141Y-75336047D01*
X78857525Y-75296522D01*
X78837455Y-75261507D01*
X78808797Y-75184671D01*
X78808793Y-75184664D01*
X78722547Y-75069455D01*
X78722544Y-75069452D01*
X78607335Y-74983206D01*
X78607328Y-74983202D01*
X78472482Y-74932908D01*
X78472483Y-74932908D01*
X78412883Y-74926501D01*
X78412881Y-74926500D01*
X78412873Y-74926500D01*
X78412864Y-74926500D01*
X76517129Y-74926500D01*
X76517123Y-74926501D01*
X76457516Y-74932908D01*
X76322671Y-74983202D01*
X76322664Y-74983206D01*
X76207455Y-75069452D01*
X76207452Y-75069455D01*
X76121206Y-75184664D01*
X76121202Y-75184671D01*
X76070908Y-75319517D01*
X76064501Y-75379116D01*
X76064500Y-75379135D01*
X76064500Y-77274870D01*
X74153979Y-77274870D01*
X81201287Y-62161870D01*
X82927500Y-62161870D01*
X82927501Y-62161876D01*
X82933908Y-62221483D01*
X82984202Y-62356328D01*
X82984206Y-62356335D01*
X83070452Y-62471544D01*
X83070455Y-62471547D01*
X83185664Y-62557793D01*
X83185671Y-62557797D01*
X83320517Y-62608091D01*
X83320516Y-62608091D01*
X83327444Y-62608835D01*
X83380127Y-62614500D01*
X85275872Y-62614499D01*
X85335483Y-62608091D01*
X85470331Y-62557796D01*
X85585546Y-62471546D01*
X85671796Y-62356331D01*
X85700455Y-62279493D01*
X85742326Y-62223559D01*
X85807790Y-62199141D01*
X85876063Y-62213992D01*
X85907866Y-62238843D01*
X85915302Y-62246920D01*
X85916215Y-62247912D01*
X85916222Y-62247918D01*
X86099365Y-62390464D01*
X86099371Y-62390468D01*
X86099374Y-62390470D01*
X86303497Y-62500936D01*
X86417487Y-62540068D01*
X86523015Y-62576297D01*
X86523017Y-62576297D01*
X86523019Y-62576298D01*
X86751951Y-62614500D01*
X86751952Y-62614500D01*
X86984048Y-62614500D01*
X86984049Y-62614500D01*
X87212981Y-62576298D01*
X87432503Y-62500936D01*
X87636626Y-62390470D01*
X87819784Y-62247913D01*
X87976979Y-62077153D01*
X88103924Y-61882849D01*
X88197157Y-61670300D01*
X88254134Y-61445305D01*
X88254135Y-61445297D01*
X88257899Y-61399870D01*
X89404500Y-61399870D01*
X89404501Y-61399876D01*
X89410908Y-61459483D01*
X89461202Y-61594328D01*
X89461206Y-61594335D01*
X89547452Y-61709544D01*
X89547455Y-61709547D01*
X89662664Y-61795793D01*
X89662671Y-61795797D01*
X89797517Y-61846091D01*
X89797516Y-61846091D01*
X89804444Y-61846835D01*
X89857127Y-61852500D01*
X91752872Y-61852499D01*
X91812483Y-61846091D01*
X91947331Y-61795796D01*
X92062546Y-61709546D01*
X92148796Y-61594331D01*
X92177455Y-61517493D01*
X92219326Y-61461559D01*
X92284790Y-61437141D01*
X92353063Y-61451992D01*
X92384866Y-61476843D01*
X92392302Y-61484920D01*
X92393215Y-61485912D01*
X92393222Y-61485918D01*
X92576365Y-61628464D01*
X92576371Y-61628468D01*
X92576374Y-61628470D01*
X92780497Y-61738936D01*
X92894487Y-61778068D01*
X93000015Y-61814297D01*
X93000017Y-61814297D01*
X93000019Y-61814298D01*
X93228951Y-61852500D01*
X93228952Y-61852500D01*
X93461048Y-61852500D01*
X93461049Y-61852500D01*
X93689981Y-61814298D01*
X93909503Y-61738936D01*
X94113626Y-61628470D01*
X94296784Y-61485913D01*
X94453979Y-61315153D01*
X94580924Y-61120849D01*
X94674157Y-60908300D01*
X94731134Y-60683305D01*
X94731135Y-60683297D01*
X94750300Y-60452006D01*
X94750300Y-60451993D01*
X94744655Y-60383870D01*
X96384500Y-60383870D01*
X96384501Y-60383876D01*
X96390908Y-60443483D01*
X96441202Y-60578328D01*
X96441206Y-60578335D01*
X96527452Y-60693544D01*
X96527455Y-60693547D01*
X96642664Y-60779793D01*
X96642671Y-60779797D01*
X96777517Y-60830091D01*
X96777516Y-60830091D01*
X96784444Y-60830835D01*
X96837127Y-60836500D01*
X98732872Y-60836499D01*
X98792483Y-60830091D01*
X98927331Y-60779796D01*
X99042546Y-60693546D01*
X99128796Y-60578331D01*
X99128798Y-60578326D01*
X99157455Y-60501493D01*
X99199326Y-60445559D01*
X99264790Y-60421141D01*
X99333063Y-60435992D01*
X99364866Y-60460843D01*
X99372302Y-60468920D01*
X99373215Y-60469912D01*
X99373222Y-60469918D01*
X99556365Y-60612464D01*
X99556371Y-60612468D01*
X99556374Y-60612470D01*
X99760497Y-60722936D01*
X99861758Y-60757699D01*
X99980015Y-60798297D01*
X99980017Y-60798297D01*
X99980019Y-60798298D01*
X100208951Y-60836500D01*
X100208952Y-60836500D01*
X100441048Y-60836500D01*
X100441049Y-60836500D01*
X100669981Y-60798298D01*
X100889503Y-60722936D01*
X101093626Y-60612470D01*
X101276784Y-60469913D01*
X101433979Y-60299153D01*
X101560924Y-60104849D01*
X101654157Y-59892300D01*
X101711134Y-59667305D01*
X101717635Y-59588847D01*
X101730300Y-59436006D01*
X101730300Y-59435993D01*
X101711135Y-59204702D01*
X101711133Y-59204691D01*
X101654157Y-58979699D01*
X101560924Y-58767151D01*
X101433983Y-58572852D01*
X101433980Y-58572849D01*
X101433979Y-58572847D01*
X101276784Y-58402087D01*
X101276779Y-58402083D01*
X101276777Y-58402081D01*
X101093634Y-58259535D01*
X101093628Y-58259531D01*
X100889504Y-58149064D01*
X100889495Y-58149061D01*
X100669984Y-58073702D01*
X100479450Y-58041908D01*
X100441049Y-58035500D01*
X100208951Y-58035500D01*
X100170550Y-58041908D01*
X99980015Y-58073702D01*
X99760504Y-58149061D01*
X99760495Y-58149064D01*
X99556371Y-58259531D01*
X99556365Y-58259535D01*
X99373222Y-58402081D01*
X99373218Y-58402085D01*
X99364866Y-58411158D01*
X99304979Y-58447148D01*
X99235141Y-58445047D01*
X99177525Y-58405522D01*
X99157455Y-58370507D01*
X99128797Y-58293671D01*
X99128793Y-58293664D01*
X99042547Y-58178455D01*
X99042544Y-58178452D01*
X98927335Y-58092206D01*
X98927328Y-58092202D01*
X98792482Y-58041908D01*
X98792483Y-58041908D01*
X98732883Y-58035501D01*
X98732881Y-58035500D01*
X98732873Y-58035500D01*
X98732864Y-58035500D01*
X96837129Y-58035500D01*
X96837123Y-58035501D01*
X96777516Y-58041908D01*
X96642671Y-58092202D01*
X96642664Y-58092206D01*
X96527455Y-58178452D01*
X96527452Y-58178455D01*
X96441206Y-58293664D01*
X96441202Y-58293671D01*
X96390908Y-58428517D01*
X96384501Y-58488116D01*
X96384500Y-58488135D01*
X96384500Y-60383870D01*
X94744655Y-60383870D01*
X94731135Y-60220702D01*
X94731133Y-60220691D01*
X94674157Y-59995699D01*
X94580924Y-59783151D01*
X94453983Y-59588852D01*
X94453980Y-59588849D01*
X94453979Y-59588847D01*
X94296784Y-59418087D01*
X94296779Y-59418083D01*
X94296777Y-59418081D01*
X94113634Y-59275535D01*
X94113628Y-59275531D01*
X93909504Y-59165064D01*
X93909495Y-59165061D01*
X93689984Y-59089702D01*
X93499450Y-59057908D01*
X93461049Y-59051500D01*
X93228951Y-59051500D01*
X93190550Y-59057908D01*
X93000015Y-59089702D01*
X92780504Y-59165061D01*
X92780495Y-59165064D01*
X92576371Y-59275531D01*
X92576365Y-59275535D01*
X92393222Y-59418081D01*
X92393218Y-59418085D01*
X92384866Y-59427158D01*
X92324979Y-59463148D01*
X92255141Y-59461047D01*
X92197525Y-59421522D01*
X92177455Y-59386507D01*
X92148797Y-59309671D01*
X92148793Y-59309664D01*
X92062547Y-59194455D01*
X92062544Y-59194452D01*
X91947335Y-59108206D01*
X91947328Y-59108202D01*
X91812482Y-59057908D01*
X91812483Y-59057908D01*
X91752883Y-59051501D01*
X91752881Y-59051500D01*
X91752873Y-59051500D01*
X91752864Y-59051500D01*
X89857129Y-59051500D01*
X89857123Y-59051501D01*
X89797516Y-59057908D01*
X89662671Y-59108202D01*
X89662664Y-59108206D01*
X89547455Y-59194452D01*
X89547452Y-59194455D01*
X89461206Y-59309664D01*
X89461202Y-59309671D01*
X89410908Y-59444517D01*
X89404501Y-59504116D01*
X89404500Y-59504135D01*
X89404500Y-61399870D01*
X88257899Y-61399870D01*
X88273300Y-61214006D01*
X88273300Y-61213993D01*
X88254135Y-60982702D01*
X88254133Y-60982691D01*
X88197157Y-60757699D01*
X88103924Y-60545151D01*
X87976983Y-60350852D01*
X87976980Y-60350849D01*
X87976979Y-60350847D01*
X87819784Y-60180087D01*
X87819779Y-60180083D01*
X87819777Y-60180081D01*
X87636634Y-60037535D01*
X87636628Y-60037531D01*
X87432504Y-59927064D01*
X87432495Y-59927061D01*
X87212984Y-59851702D01*
X87022450Y-59819908D01*
X86984049Y-59813500D01*
X86751951Y-59813500D01*
X86713550Y-59819908D01*
X86523015Y-59851702D01*
X86303504Y-59927061D01*
X86303495Y-59927064D01*
X86099371Y-60037531D01*
X86099365Y-60037535D01*
X85916222Y-60180081D01*
X85916218Y-60180085D01*
X85907866Y-60189158D01*
X85847979Y-60225148D01*
X85778141Y-60223047D01*
X85720525Y-60183522D01*
X85700455Y-60148507D01*
X85671797Y-60071671D01*
X85671793Y-60071664D01*
X85585547Y-59956455D01*
X85585544Y-59956452D01*
X85470335Y-59870206D01*
X85470328Y-59870202D01*
X85335482Y-59819908D01*
X85335483Y-59819908D01*
X85275883Y-59813501D01*
X85275881Y-59813500D01*
X85275873Y-59813500D01*
X85275864Y-59813500D01*
X83380129Y-59813500D01*
X83380123Y-59813501D01*
X83320516Y-59819908D01*
X83185671Y-59870202D01*
X83185664Y-59870206D01*
X83070455Y-59956452D01*
X83070452Y-59956455D01*
X82984206Y-60071664D01*
X82984202Y-60071671D01*
X82933908Y-60206517D01*
X82927501Y-60266116D01*
X82927500Y-60266135D01*
X82927500Y-62161870D01*
X81201287Y-62161870D01*
X90050874Y-43183869D01*
X90053809Y-43179873D01*
X90060776Y-43162832D01*
X90061522Y-43161139D01*
X90061527Y-43160963D01*
X90061452Y-43160771D01*
X90061242Y-43160560D01*
X90061154Y-43160521D01*
X90059543Y-43160485D01*
X90043796Y-43159761D01*
X90039248Y-43160550D01*
X85285397Y-43160550D01*
X85218358Y-43140865D01*
X85172603Y-43088061D01*
X85162659Y-43018903D01*
X85178010Y-42974550D01*
X85652670Y-42152417D01*
X87553943Y-38859334D01*
X91082500Y-38859334D01*
X91123429Y-39104616D01*
X91204169Y-39339802D01*
X91204172Y-39339811D01*
X91322524Y-39558506D01*
X91322526Y-39558509D01*
X91475262Y-39754744D01*
X91634744Y-39901557D01*
X91658217Y-39923166D01*
X91866393Y-40059173D01*
X92094118Y-40159063D01*
X92335175Y-40220107D01*
X92335179Y-40220108D01*
X92335181Y-40220108D01*
X92335186Y-40220109D01*
X92468376Y-40231145D01*
X92520933Y-40235500D01*
X92520935Y-40235500D01*
X92645065Y-40235500D01*
X92645067Y-40235500D01*
X92706284Y-40230427D01*
X92830813Y-40220109D01*
X92830816Y-40220108D01*
X92830821Y-40220108D01*
X93071881Y-40159063D01*
X93299607Y-40059173D01*
X93507785Y-39923164D01*
X93690738Y-39754744D01*
X93843474Y-39558509D01*
X93961828Y-39339810D01*
X94042571Y-39104614D01*
X94083500Y-38859335D01*
X94083500Y-38610665D01*
X94042571Y-38365386D01*
X93961828Y-38130190D01*
X93843474Y-37911491D01*
X93690738Y-37715256D01*
X93507785Y-37546836D01*
X93507782Y-37546833D01*
X93299606Y-37410826D01*
X93071881Y-37310936D01*
X92830824Y-37249892D01*
X92830813Y-37249890D01*
X92665548Y-37236197D01*
X92645067Y-37234500D01*
X92520933Y-37234500D01*
X92501521Y-37236108D01*
X92335186Y-37249890D01*
X92335175Y-37249892D01*
X92094118Y-37310936D01*
X91866393Y-37410826D01*
X91658217Y-37546833D01*
X91475261Y-37715257D01*
X91322524Y-37911493D01*
X91204172Y-38130188D01*
X91204169Y-38130197D01*
X91123429Y-38365383D01*
X91082500Y-38610665D01*
X91082500Y-38859334D01*
X87553943Y-38859334D01*
X87568065Y-38834874D01*
X87570057Y-38831910D01*
X87570277Y-38831091D01*
X87570278Y-38831090D01*
X87570277Y-38831088D01*
X87570315Y-38830950D01*
X87570277Y-38830810D01*
X87570278Y-38830809D01*
X87570276Y-38830807D01*
X87570066Y-38830018D01*
X87568100Y-38827085D01*
X85178013Y-34687451D01*
X85161539Y-34619551D01*
X85184391Y-34553524D01*
X85239311Y-34510333D01*
X85285399Y-34501450D01*
X90065656Y-34501450D01*
X90069140Y-34501677D01*
X90069894Y-34501472D01*
X90069895Y-34501473D01*
X90069895Y-34501472D01*
X90070035Y-34501435D01*
X90070136Y-34501333D01*
X90070138Y-34501333D01*
X90070138Y-34501331D01*
X90070732Y-34500740D01*
X90072301Y-34497539D01*
X92462370Y-30357939D01*
X92512935Y-30309727D01*
X92581543Y-30296505D01*
X92646407Y-30322473D01*
G37*
G04 #@! TD.AperFunction*
M02*
