G04 #@! TF.GenerationSoftware,KiCad,Pcbnew,7.0.9*
G04 #@! TF.CreationDate,2023-11-12T20:37:04+01:00*
G04 #@! TF.ProjectId,christmas_ornament_2023,63687269-7374-46d6-9173-5f6f726e616d,1.0*
G04 #@! TF.SameCoordinates,Original*
G04 #@! TF.FileFunction,Paste,Bot*
G04 #@! TF.FilePolarity,Positive*
%FSLAX46Y46*%
G04 Gerber Fmt 4.6, Leading zero omitted, Abs format (unit mm)*
G04 Created by KiCad (PCBNEW 7.0.9) date 2023-11-12 20:37:04*
%MOMM*%
%LPD*%
G01*
G04 APERTURE LIST*
G04 Aperture macros list*
%AMRoundRect*
0 Rectangle with rounded corners*
0 $1 Rounding radius*
0 $2 $3 $4 $5 $6 $7 $8 $9 X,Y pos of 4 corners*
0 Add a 4 corners polygon primitive as box body*
4,1,4,$2,$3,$4,$5,$6,$7,$8,$9,$2,$3,0*
0 Add four circle primitives for the rounded corners*
1,1,$1+$1,$2,$3*
1,1,$1+$1,$4,$5*
1,1,$1+$1,$6,$7*
1,1,$1+$1,$8,$9*
0 Add four rect primitives between the rounded corners*
20,1,$1+$1,$2,$3,$4,$5,0*
20,1,$1+$1,$4,$5,$6,$7,0*
20,1,$1+$1,$6,$7,$8,$9,0*
20,1,$1+$1,$8,$9,$2,$3,0*%
%AMRotRect*
0 Rectangle, with rotation*
0 The origin of the aperture is its center*
0 $1 length*
0 $2 width*
0 $3 Rotation angle, in degrees counterclockwise*
0 Add horizontal line*
21,1,$1,$2,0,0,$3*%
G04 Aperture macros list end*
%ADD10RoundRect,0.250000X-0.070711X0.565685X-0.565685X0.070711X0.070711X-0.565685X0.565685X-0.070711X0*%
%ADD11RoundRect,0.250000X0.450000X-0.350000X0.450000X0.350000X-0.450000X0.350000X-0.450000X-0.350000X0*%
%ADD12RoundRect,0.250000X-0.450000X0.350000X-0.450000X-0.350000X0.450000X-0.350000X0.450000X0.350000X0*%
%ADD13RoundRect,0.250000X-0.400000X-0.625000X0.400000X-0.625000X0.400000X0.625000X-0.400000X0.625000X0*%
%ADD14R,5.700000X6.100000*%
%ADD15RotRect,0.700000X1.500000X295.000000*%
%ADD16RotRect,1.000000X0.800000X295.000000*%
%ADD17RoundRect,0.150000X-0.150000X0.825000X-0.150000X-0.825000X0.150000X-0.825000X0.150000X0.825000X0*%
G04 APERTURE END LIST*
D10*
X102506214Y-99423786D03*
X101092000Y-100838000D03*
D11*
X121412000Y-120396000D03*
X121412000Y-118396000D03*
D10*
X74058214Y-103614786D03*
X72644000Y-105029000D03*
X83693000Y-65024000D03*
X82278786Y-66438214D03*
X98679000Y-85090000D03*
X97264786Y-86504214D03*
X76471214Y-80246786D03*
X75057000Y-81661000D03*
X65422214Y-105519786D03*
X64008000Y-106934000D03*
D12*
X112268000Y-123206000D03*
X112268000Y-125206000D03*
D10*
X90187214Y-63863786D03*
X88773000Y-65278000D03*
X96791214Y-62847786D03*
X95377000Y-64262000D03*
D13*
X102818000Y-92837000D03*
X105918000Y-92837000D03*
D10*
X92854214Y-100820786D03*
X91440000Y-102235000D03*
D14*
X105410000Y-117094000D03*
X79610000Y-117094000D03*
D15*
X126871926Y-120260192D03*
X128139781Y-122979116D03*
X128773708Y-124338577D03*
D16*
X126991712Y-118659606D03*
X128740886Y-117843953D03*
X131826000Y-124460000D03*
X130076826Y-125275653D03*
D10*
X90187214Y-82786786D03*
X88773000Y-84201000D03*
X82186214Y-80627786D03*
X80772000Y-82042000D03*
X111959107Y-99368893D03*
X110544893Y-100783107D03*
D13*
X68326000Y-96647000D03*
X71426000Y-96647000D03*
D10*
X83075214Y-101328786D03*
X81661000Y-102743000D03*
D17*
X114935000Y-115127000D03*
X116205000Y-115127000D03*
X117475000Y-115127000D03*
X118745000Y-115127000D03*
X118745000Y-120077000D03*
X117475000Y-120077000D03*
X116205000Y-120077000D03*
X114935000Y-120077000D03*
D10*
X107459214Y-87739786D03*
X106045000Y-89154000D03*
D13*
X99568000Y-96012000D03*
X102668000Y-96012000D03*
D12*
X112268000Y-118618000D03*
X112268000Y-120618000D03*
M02*
