G04 #@! TF.GenerationSoftware,KiCad,Pcbnew,7.0.9*
G04 #@! TF.CreationDate,2023-11-12T20:37:04+01:00*
G04 #@! TF.ProjectId,christmas_ornament_2023,63687269-7374-46d6-9173-5f6f726e616d,1.0*
G04 #@! TF.SameCoordinates,Original*
G04 #@! TF.FileFunction,Soldermask,Top*
G04 #@! TF.FilePolarity,Negative*
%FSLAX46Y46*%
G04 Gerber Fmt 4.6, Leading zero omitted, Abs format (unit mm)*
G04 Created by KiCad (PCBNEW 7.0.9) date 2023-11-12 20:37:04*
%MOMM*%
%LPD*%
G01*
G04 APERTURE LIST*
G04 Aperture macros list*
%AMHorizOval*
0 Thick line with rounded ends*
0 $1 width*
0 $2 $3 position (X,Y) of the first rounded end (center of the circle)*
0 $4 $5 position (X,Y) of the second rounded end (center of the circle)*
0 Add line between two ends*
20,1,$1,$2,$3,$4,$5,0*
0 Add two circle primitives to create the rounded ends*
1,1,$1,$2,$3*
1,1,$1,$4,$5*%
%AMRotRect*
0 Rectangle, with rotation*
0 The origin of the aperture is its center*
0 $1 length*
0 $2 width*
0 $3 Rotation angle, in degrees counterclockwise*
0 Add horizontal line*
21,1,$1,$2,0,0,$3*%
G04 Aperture macros list end*
%ADD10C,2.500000*%
%ADD11R,1.800000X1.800000*%
%ADD12C,1.800000*%
%ADD13RotRect,1.050000X1.500000X135.000000*%
%ADD14HorizOval,1.050000X0.159099X0.159099X-0.159099X-0.159099X0*%
%ADD15RotRect,1.600000X1.600000X45.000000*%
%ADD16HorizOval,1.600000X0.000000X0.000000X0.000000X0.000000X0*%
%ADD17RotRect,1.600000X1.600000X225.000000*%
%ADD18HorizOval,1.600000X0.000000X0.000000X0.000000X0.000000X0*%
%ADD19R,1.200000X1.200000*%
%ADD20C,1.200000*%
%ADD21RotRect,1.200000X1.200000X315.000000*%
%ADD22R,1.600000X1.600000*%
%ADD23C,1.600000*%
%ADD24C,0.900000*%
G04 APERTURE END LIST*
D10*
X92583000Y-38735000D03*
D11*
X95504000Y-100457000D03*
D12*
X98044000Y-100457000D03*
D11*
X97785000Y-59436000D03*
D12*
X100325000Y-59436000D03*
D11*
X90805000Y-60452000D03*
D12*
X93345000Y-60452000D03*
D13*
X65278000Y-117602000D03*
D14*
X64379974Y-116703974D03*
X63481949Y-115805949D03*
D11*
X92964000Y-82042000D03*
D12*
X95504000Y-82042000D03*
D11*
X114295000Y-98044000D03*
D12*
X116835000Y-98044000D03*
D13*
X69342000Y-121684051D03*
D14*
X68443974Y-120786025D03*
X67545949Y-119888000D03*
D11*
X85471000Y-101473000D03*
D12*
X88011000Y-101473000D03*
D11*
X77465000Y-76327000D03*
D12*
X80005000Y-76327000D03*
D11*
X105151000Y-99314000D03*
D12*
X107691000Y-99314000D03*
D15*
X67763846Y-115116154D03*
D16*
X73152000Y-109728000D03*
D17*
X75338077Y-111859924D03*
D18*
X69949923Y-117248078D03*
D11*
X66802000Y-102616000D03*
D12*
X69342000Y-102616000D03*
D19*
X73914000Y-122428000D03*
D20*
X75414000Y-122428000D03*
D11*
X101341000Y-84709000D03*
D12*
X103881000Y-84709000D03*
D11*
X75946000Y-102108000D03*
D12*
X78486000Y-102108000D03*
D11*
X109977000Y-86995000D03*
D12*
X112517000Y-86995000D03*
D11*
X84328000Y-61214000D03*
D12*
X86868000Y-61214000D03*
D21*
X62185340Y-121875340D03*
D20*
X63246000Y-122936000D03*
D11*
X84831000Y-79248000D03*
D12*
X87371000Y-79248000D03*
D22*
X117348000Y-124238000D03*
D23*
X117348000Y-126238000D03*
D24*
X128774929Y-120200341D03*
X130042783Y-122919265D03*
M02*
